<svg width="1000" height="160" viewBox="0 0 1000 160" fill="none" xmlns="http://www.w3.org/2000/svg">
<g clip-path="url(#clip0_60_48)">
<rect width="1000" height="160" fill="white"/>
<path d="M22.7607 35.0596L22.6533 28.7754H22.793L26.0586 37.3584H27.541L30.8066 28.7754H30.9463L30.8389 35.0596V41H32.5361V25.499H30.4414L26.875 35.0918H26.7354L23.1582 25.499H21.0635V41H22.7607V35.0596ZM39.2178 41.2041C40.915 41.2041 42.1826 40.5059 42.7412 39.2598H42.9238V41.0107H44.6641V33.0293C44.6641 30.6016 43.0957 29.2051 40.3564 29.2051C37.9717 29.2051 36.167 30.4834 35.9521 32.3525H37.7461C38.0469 31.3535 38.9922 30.7842 40.335 30.7842C41.957 30.7842 42.8486 31.5898 42.8486 33.0508V34.1035L39.6475 34.2646C36.9941 34.4043 35.5117 35.6289 35.5117 37.6914C35.5117 39.8076 36.9941 41.2041 39.2178 41.2041ZM39.7441 39.6035C38.2725 39.6035 37.3594 38.8516 37.3594 37.627C37.3594 36.4131 38.2188 35.7148 39.8516 35.6396L42.8486 35.5V36.875C42.8486 38.4326 41.5059 39.6035 39.7441 39.6035ZM58.8545 32.9756C58.5537 30.5801 56.792 29.1191 54.2139 29.1191C51.0449 29.1191 49.1973 31.0635 49.1973 34.4043V35.9297C49.1973 39.2705 51.0449 41.2148 54.2139 41.2148C56.792 41.2148 58.5645 39.7646 58.8545 37.3906H57.0498C56.8242 38.7227 55.6855 39.5713 54.1816 39.5713C52.1514 39.5713 51.0234 38.1963 51.0234 35.6934V34.6406C51.0234 32.1377 52.1514 30.752 54.1816 30.752C55.6855 30.752 56.8242 31.6113 57.0498 32.9756H58.8545ZM62.8184 41H64.6445V34.1465C64.6445 32.1592 65.9443 30.8164 67.8672 30.8164C69.6934 30.8164 70.5527 31.8154 70.5527 33.9102V41H72.3789V33.4482C72.3789 30.666 71.0039 29.1406 68.4688 29.1406C66.6855 29.1406 65.3428 29.957 64.7305 31.4072H64.5801V24.7686H62.8184V41ZM81.4023 26.4873C82.2617 26.4873 82.917 25.8428 82.917 24.9834C82.917 24.1348 82.2617 23.4902 81.4023 23.4902C80.543 23.4902 79.8877 24.1348 79.8877 24.9834C79.8877 25.8428 80.543 26.4873 81.4023 26.4873ZM86.29 41V39.4854H82.4336V29.3447H76.665V30.8594H80.6289V39.4854H76.6328V41H86.29ZM90.0283 41H91.8545V34.1357C91.8545 32.1484 93.1436 30.8057 95.0664 30.8057C96.8818 30.8057 97.7412 31.7939 97.7412 33.8994V41H99.5674V33.4375C99.5674 30.6445 98.1924 29.1299 95.6572 29.1299C93.8848 29.1299 92.5527 29.9463 91.9297 31.3965H91.7793V29.3447H90.0283V41ZM108.526 30.6982C110.406 30.6982 111.545 32.041 111.545 34.2646H105.411C105.411 32.0303 106.582 30.6982 108.526 30.6982ZM111.545 37.9922C111.223 39.0127 110.138 39.6357 108.666 39.6357C106.679 39.6357 105.411 38.2607 105.411 36.123V35.6504H113.35V34.5117C113.35 31.1387 111.566 29.1299 108.537 29.1299C105.572 29.1299 103.606 31.1494 103.606 34.2217V35.9727C103.606 39.292 105.465 41.2148 108.666 41.2148C111.115 41.2148 112.963 39.915 113.317 37.9922H111.545ZM140.688 41V39.4854H136.843V24.7686H131.063V26.2832H135.017V39.4854H131.031V41H140.688ZM148.015 41.2041C149.712 41.2041 150.979 40.5059 151.538 39.2598H151.721V41.0107H153.461V33.0293C153.461 30.6016 151.893 29.2051 149.153 29.2051C146.769 29.2051 144.964 30.4834 144.749 32.3525H146.543C146.844 31.3535 147.789 30.7842 149.132 30.7842C150.754 30.7842 151.646 31.5898 151.646 33.0508V34.1035L148.444 34.2646C145.791 34.4043 144.309 35.6289 144.309 37.6914C144.309 39.8076 145.791 41.2041 148.015 41.2041ZM148.541 39.6035C147.069 39.6035 146.156 38.8516 146.156 37.627C146.156 36.4131 147.016 35.7148 148.648 35.6396L151.646 35.5V36.875C151.646 38.4326 150.303 39.6035 148.541 39.6035ZM158.026 41H159.853V34.1357C159.853 32.1484 161.142 30.8057 163.064 30.8057C164.88 30.8057 165.739 31.7939 165.739 33.8994V41H167.565V33.4375C167.565 30.6445 166.19 29.1299 163.655 29.1299C161.883 29.1299 160.551 29.9463 159.928 31.3965H159.777V29.3447H158.026V41ZM172.926 35.9189V34.3184C172.926 32.1807 174.172 30.7949 176.105 30.7949C178.028 30.7949 179.264 32.1699 179.264 34.3184V35.9189C179.264 38.0674 178.028 39.4531 176.105 39.4531C174.172 39.4531 172.926 38.0566 172.926 35.9189ZM176.052 45.3721C179.21 45.3721 181.079 43.7393 181.079 41V29.3447H179.274V31.1494H179.07C178.565 29.8926 177.287 29.1514 175.601 29.1514C172.872 29.1514 171.089 31.085 171.089 34.082V36.1768C171.089 39.1631 172.861 41.1074 175.558 41.1074C177.255 41.1074 178.544 40.3662 179.06 39.1416H179.253V40.957C179.253 42.8262 178.125 43.8574 176.084 43.8574C174.526 43.8574 173.355 43.2236 173.119 42.2568H171.314C171.551 44.1904 173.355 45.3721 176.052 45.3721ZM194.765 29.3447H192.938V36.209C192.938 38.1963 191.649 39.5391 189.727 39.5391C187.911 39.5391 187.052 38.5508 187.052 36.4453V29.3447H185.226V36.9072C185.226 39.7002 186.601 41.2148 189.136 41.2148C190.908 41.2148 192.24 40.3984 192.863 38.9482H193.014V41H194.765V29.3447ZM202.413 41.2041C204.11 41.2041 205.378 40.5059 205.937 39.2598H206.119V41.0107H207.859V33.0293C207.859 30.6016 206.291 29.2051 203.552 29.2051C201.167 29.2051 199.362 30.4834 199.147 32.3525H200.941C201.242 31.3535 202.188 30.7842 203.53 30.7842C205.152 30.7842 206.044 31.5898 206.044 33.0508V34.1035L202.843 34.2646C200.189 34.4043 198.707 35.6289 198.707 37.6914C198.707 39.8076 200.189 41.2041 202.413 41.2041ZM202.939 39.6035C201.468 39.6035 200.555 38.8516 200.555 37.627C200.555 36.4131 201.414 35.7148 203.047 35.6396L206.044 35.5V36.875C206.044 38.4326 204.701 39.6035 202.939 39.6035ZM213.725 35.9189V34.3184C213.725 32.1807 214.971 30.7949 216.904 30.7949C218.827 30.7949 220.062 32.1699 220.062 34.3184V35.9189C220.062 38.0674 218.827 39.4531 216.904 39.4531C214.971 39.4531 213.725 38.0566 213.725 35.9189ZM216.851 45.3721C220.009 45.3721 221.878 43.7393 221.878 41V29.3447H220.073V31.1494H219.869C219.364 29.8926 218.086 29.1514 216.399 29.1514C213.671 29.1514 211.888 31.085 211.888 34.082V36.1768C211.888 39.1631 213.66 41.1074 216.356 41.1074C218.054 41.1074 219.343 40.3662 219.858 39.1416H220.052V40.957C220.052 42.8262 218.924 43.8574 216.883 43.8574C215.325 43.8574 214.154 43.2236 213.918 42.2568H212.113C212.35 44.1904 214.154 45.3721 216.851 45.3721ZM230.923 30.6982C232.803 30.6982 233.941 32.041 233.941 34.2646H227.808C227.808 32.0303 228.979 30.6982 230.923 30.6982ZM233.941 37.9922C233.619 39.0127 232.534 39.6357 231.062 39.6357C229.075 39.6357 227.808 38.2607 227.808 36.123V35.6504H235.746V34.5117C235.746 31.1387 233.963 29.1299 230.934 29.1299C227.969 29.1299 226.003 31.1494 226.003 34.2217V35.9727C226.003 39.292 227.861 41.2148 231.062 41.2148C233.512 41.2148 235.359 39.915 235.714 37.9922H233.941Z" fill="black"/>
<path d="M30.1602 69.9775C30.1602 68.2109 29.4658 67.2881 28.1387 67.2881C27.1807 67.2881 26.416 67.8682 26.1699 68.7822H26.0117C25.8096 67.8418 25.1768 67.2881 24.2803 67.2881C23.3838 67.2881 22.6982 67.8506 22.4609 68.8086H22.3027V67.4639H20.9668V77H22.3115V70.5664C22.3115 69.3799 22.8389 68.6504 23.6826 68.6504C24.4912 68.6504 24.9131 69.2568 24.9131 70.4082V77H26.249V70.5664C26.249 69.3799 26.7588 68.6504 27.5938 68.6504C28.3936 68.6504 28.8154 69.2568 28.8154 70.417V77H30.1602V69.9775ZM36.6904 77.1758C39.2129 77.1758 40.8213 75.5322 40.8213 72.957V71.5156C40.8213 68.9404 39.2129 67.2969 36.6904 67.2969C34.168 67.2969 32.5596 68.9404 32.5596 71.5156V72.957C32.5596 75.5322 34.168 77.1758 36.6904 77.1758ZM36.6904 68.6152C38.3252 68.6152 39.3447 69.7754 39.3447 71.6475V72.8164C39.3447 74.6973 38.3252 75.8486 36.6904 75.8486C35.0557 75.8486 34.0361 74.6973 34.0361 72.8164V71.6475C34.0361 69.7754 35.0557 68.6152 36.6904 68.6152ZM43.5107 67.4639L47 77H48.6436L52.124 67.4639H50.5332L47.8877 75.4004H47.7734L45.1104 67.4639H43.5107ZM70.1768 68.5713C71.7148 68.5713 72.6465 69.6699 72.6465 71.4893H67.6279C67.6279 69.6611 68.5859 68.5713 70.1768 68.5713ZM72.6465 74.5391C72.3828 75.374 71.4951 75.8838 70.291 75.8838C68.665 75.8838 67.6279 74.7588 67.6279 73.0098V72.623H74.123V71.6914C74.123 68.9316 72.6641 67.2881 70.1855 67.2881C67.7598 67.2881 66.1514 68.9404 66.1514 71.4541V72.8867C66.1514 75.6025 67.6719 77.1758 70.291 77.1758C72.2949 77.1758 73.8066 76.1123 74.0967 74.5391H72.6465ZM80.2314 77.167C81.6201 77.167 82.6572 76.5957 83.1143 75.5762H83.2637V77.0088H84.6875V70.4785C84.6875 68.4922 83.4043 67.3496 81.1631 67.3496C79.2119 67.3496 77.7354 68.3955 77.5596 69.9248H79.0273C79.2734 69.1074 80.0469 68.6416 81.1455 68.6416C82.4727 68.6416 83.2021 69.3008 83.2021 70.4961V71.3574L80.583 71.4893C78.4121 71.6035 77.1992 72.6055 77.1992 74.293C77.1992 76.0244 78.4121 77.167 80.2314 77.167ZM80.6621 75.8574C79.458 75.8574 78.7109 75.2422 78.7109 74.2402C78.7109 73.2471 79.4141 72.6758 80.75 72.6143L83.2021 72.5V73.625C83.2021 74.8994 82.1035 75.8574 80.6621 75.8574ZM92.3604 73.3262L94.7598 77H96.4912L93.2041 72.166L96.4648 67.4639H94.7861L92.4219 71.0762H92.2988L89.9258 67.4639H88.1592L91.4551 72.2275L88.1855 77H89.8379L92.2461 73.3262H92.3604ZM102.995 79.9443L104.586 73.6689H102.564L101.422 79.9443H102.995ZM121.804 77H123.298V71.3838C123.298 69.7578 124.353 68.6592 125.926 68.6592C127.411 68.6592 128.114 69.4678 128.114 71.1904V77H129.608V70.8125C129.608 68.5273 128.483 67.2881 126.409 67.2881C124.959 67.2881 123.869 67.9561 123.359 69.1426H123.236V67.4639H121.804V77ZM140.735 67.4639H139.241V73.0801C139.241 74.7061 138.187 75.8047 136.613 75.8047C135.128 75.8047 134.425 74.9961 134.425 73.2734V67.4639H132.931V73.6514C132.931 75.9365 134.056 77.1758 136.13 77.1758C137.58 77.1758 138.67 76.5078 139.18 75.3213H139.303V77H140.735V67.4639ZM152.557 69.9775C152.557 68.2109 151.862 67.2881 150.535 67.2881C149.577 67.2881 148.812 67.8682 148.566 68.7822H148.408C148.206 67.8418 147.573 67.2881 146.677 67.2881C145.78 67.2881 145.095 67.8506 144.857 68.8086H144.699V67.4639H143.363V77H144.708V70.5664C144.708 69.3799 145.235 68.6504 146.079 68.6504C146.888 68.6504 147.31 69.2568 147.31 70.4082V77H148.646V70.5664C148.646 69.3799 149.155 68.6504 149.99 68.6504C150.79 68.6504 151.212 69.2568 151.212 70.417V77H152.557V69.9775ZM160.309 75.6377V64.3174H158.788L155.009 66.7695V68.4219L158.639 66.0752H158.779V75.6377H155.035V77H163.877V75.6377H160.309ZM170.214 70.3027C171.084 70.3027 171.805 69.5645 171.805 68.6768C171.805 67.7891 171.084 67.0508 170.214 67.0508C169.344 67.0508 168.623 67.7891 168.623 68.6768C168.623 69.5645 169.344 70.3027 170.214 70.3027ZM169.757 79.918L171.348 73.6689H169.326L168.184 79.918H169.757ZM25.7305 86.126C26.4336 86.126 26.9697 85.5986 26.9697 84.8955C26.9697 84.2012 26.4336 83.6738 25.7305 83.6738C25.0273 83.6738 24.4912 84.2012 24.4912 84.8955C24.4912 85.5986 25.0273 86.126 25.7305 86.126ZM29.7295 98V96.7607H26.5742V88.4639H21.8545V89.7031H25.0977V96.7607H21.8281V98H29.7295ZM41.2871 90.9775C41.2871 89.2109 40.5928 88.2881 39.2656 88.2881C38.3076 88.2881 37.543 88.8682 37.2969 89.7822H37.1387C36.9365 88.8418 36.3037 88.2881 35.4072 88.2881C34.5107 88.2881 33.8252 88.8506 33.5879 89.8086H33.4297V88.4639H32.0938V98H33.4385V91.5664C33.4385 90.3799 33.9658 89.6504 34.8096 89.6504C35.6182 89.6504 36.04 90.2568 36.04 91.4082V98H37.376V91.5664C37.376 90.3799 37.8857 89.6504 38.7207 89.6504C39.5205 89.6504 39.9424 90.2568 39.9424 91.417V98H41.2871V90.9775ZM51.7197 88.4639H50.2256V94.0801C50.2256 95.7061 49.1709 96.8047 47.5977 96.8047C46.1123 96.8047 45.4092 95.9961 45.4092 94.2734V88.4639H43.915V94.6514C43.915 96.9365 45.04 98.1758 47.1143 98.1758C48.5645 98.1758 49.6543 97.5078 50.1641 96.3213H50.2871V98H51.7197V88.4639ZM63.1104 98V96.7607H59.9639V84.7197H55.2354V85.959H58.4697V96.7607H55.209V98H63.1104ZM81.3037 89.5713C82.8418 89.5713 83.7734 90.6699 83.7734 92.4893H78.7549C78.7549 90.6611 79.7129 89.5713 81.3037 89.5713ZM83.7734 95.5391C83.5098 96.374 82.6221 96.8838 81.418 96.8838C79.792 96.8838 78.7549 95.7588 78.7549 94.0098V93.623H85.25V92.6914C85.25 89.9316 83.791 88.2881 81.3125 88.2881C78.8867 88.2881 77.2783 89.9404 77.2783 92.4541V93.8867C77.2783 96.6025 78.7988 98.1758 81.418 98.1758C83.4219 98.1758 84.9336 97.1123 85.2236 95.5391H83.7734ZM91.3584 98.167C92.7471 98.167 93.7842 97.5957 94.2412 96.5762H94.3906V98.0088H95.8145V91.4785C95.8145 89.4922 94.5312 88.3496 92.29 88.3496C90.3389 88.3496 88.8623 89.3955 88.6865 90.9248H90.1543C90.4004 90.1074 91.1738 89.6416 92.2725 89.6416C93.5996 89.6416 94.3291 90.3008 94.3291 91.4961V92.3574L91.71 92.4893C89.5391 92.6035 88.3262 93.6055 88.3262 95.293C88.3262 97.0244 89.5391 98.167 91.3584 98.167ZM91.7891 96.8574C90.585 96.8574 89.8379 96.2422 89.8379 95.2402C89.8379 94.2471 90.541 93.6758 91.877 93.6143L94.3291 93.5V94.625C94.3291 95.8994 93.2305 96.8574 91.7891 96.8574ZM103.487 94.3262L105.887 98H107.618L104.331 93.166L107.592 88.4639H105.913L103.549 92.0762H103.426L101.053 88.4639H99.2861L102.582 93.2275L99.3125 98H100.965L103.373 94.3262H103.487ZM114.122 100.944L115.713 94.6689H113.691L112.549 100.944H114.122ZM132.931 98H134.425V92.3838C134.425 90.7578 135.479 89.6592 137.053 89.6592C138.538 89.6592 139.241 90.4678 139.241 92.1904V98H140.735V91.8125C140.735 89.5273 139.61 88.2881 137.536 88.2881C136.086 88.2881 134.996 88.9561 134.486 90.1426H134.363V88.4639H132.931V98ZM151.862 88.4639H150.368V94.0801C150.368 95.7061 149.313 96.8047 147.74 96.8047C146.255 96.8047 145.552 95.9961 145.552 94.2734V88.4639H144.058V94.6514C144.058 96.9365 145.183 98.1758 147.257 98.1758C148.707 98.1758 149.797 97.5078 150.307 96.3213H150.43V98H151.862V88.4639ZM163.684 90.9775C163.684 89.2109 162.989 88.2881 161.662 88.2881C160.704 88.2881 159.939 88.8682 159.693 89.7822H159.535C159.333 88.8418 158.7 88.2881 157.804 88.2881C156.907 88.2881 156.222 88.8506 155.984 89.8086H155.826V88.4639H154.49V98H155.835V91.5664C155.835 90.3799 156.362 89.6504 157.206 89.6504C158.015 89.6504 158.437 90.2568 158.437 91.4082V98H159.772V91.5664C159.772 90.3799 160.282 89.6504 161.117 89.6504C161.917 89.6504 162.339 90.2568 162.339 91.417V98H163.684V90.9775ZM166.171 88.8857V88.9385H167.665V88.8857C167.665 87.3916 168.632 86.416 170.091 86.416C171.567 86.416 172.525 87.3125 172.525 88.6748C172.525 89.6768 172.139 90.3535 170.53 92.1553L166.241 96.9277V98H174.266V96.5938H168.456V96.4443L171.444 93.1924C173.466 90.9863 174.063 89.9316 174.063 88.6133C174.063 86.4951 172.464 85.0537 170.135 85.0537C167.823 85.0537 166.171 86.6533 166.171 88.8857ZM181.341 91.3027C182.211 91.3027 182.932 90.5645 182.932 89.6768C182.932 88.7891 182.211 88.0508 181.341 88.0508C180.471 88.0508 179.75 88.7891 179.75 89.6768C179.75 90.5645 180.471 91.3027 181.341 91.3027ZM180.884 100.918L182.475 94.6689H180.453L179.311 100.918H180.884ZM30.1602 111.978C30.1602 110.211 29.4658 109.288 28.1387 109.288C27.1807 109.288 26.416 109.868 26.1699 110.782H26.0117C25.8096 109.842 25.1768 109.288 24.2803 109.288C23.3838 109.288 22.6982 109.851 22.4609 110.809H22.3027V109.464H20.9668V119H22.3115V112.566C22.3115 111.38 22.8389 110.65 23.6826 110.65C24.4912 110.65 24.9131 111.257 24.9131 112.408V119H26.249V112.566C26.249 111.38 26.7588 110.65 27.5938 110.65C28.3936 110.65 28.8154 111.257 28.8154 112.417V119H30.1602V111.978ZM36.6904 119.176C39.2129 119.176 40.8213 117.532 40.8213 114.957V113.516C40.8213 110.94 39.2129 109.297 36.6904 109.297C34.168 109.297 32.5596 110.94 32.5596 113.516V114.957C32.5596 117.532 34.168 119.176 36.6904 119.176ZM36.6904 110.615C38.3252 110.615 39.3447 111.775 39.3447 113.647V114.816C39.3447 116.697 38.3252 117.849 36.6904 117.849C35.0557 117.849 34.0361 116.697 34.0361 114.816V113.647C34.0361 111.775 35.0557 110.615 36.6904 110.615ZM43.5107 109.464L47 119H48.6436L52.124 109.464H50.5332L47.8877 117.4H47.7734L45.1104 109.464H43.5107ZM66.5996 112.039C66.5996 113.393 67.4521 114.263 69.1748 114.658L70.5898 114.983C71.8027 115.256 72.2686 115.66 72.2686 116.416C72.2686 117.33 71.4424 117.919 70.1416 117.919C68.9111 117.919 68.0674 117.409 67.8477 116.53H66.3271C66.4941 118.165 67.9268 119.176 70.0889 119.176C72.3477 119.176 73.8154 118.033 73.8154 116.275C73.8154 114.896 72.9717 114.087 71.1172 113.665L69.7725 113.357C68.5771 113.094 68.085 112.681 68.085 111.951C68.085 111.081 68.8672 110.519 70.0801 110.519C71.1963 110.519 71.9961 111.028 72.1719 111.863H73.6133C73.4375 110.272 72.0928 109.279 70.1064 109.279C68.0059 109.279 66.5996 110.387 66.5996 112.039ZM85.1006 109.464H83.6064V115.08C83.6064 116.706 82.5518 117.805 80.9785 117.805C79.4932 117.805 78.79 116.996 78.79 115.273V109.464H77.2959V115.651C77.2959 117.937 78.4209 119.176 80.4951 119.176C81.9453 119.176 83.0352 118.508 83.5449 117.321H83.668V119H85.1006V109.464ZM96.9219 111.978C96.9219 110.211 96.2275 109.288 94.9004 109.288C93.9424 109.288 93.1777 109.868 92.9316 110.782H92.7734C92.5713 109.842 91.9385 109.288 91.042 109.288C90.1455 109.288 89.46 109.851 89.2227 110.809H89.0645V109.464H87.7285V119H89.0732V112.566C89.0732 111.38 89.6006 110.65 90.4443 110.65C91.2529 110.65 91.6748 111.257 91.6748 112.408V119H93.0107V112.566C93.0107 111.38 93.5205 110.65 94.3555 110.65C95.1553 110.65 95.5771 111.257 95.5771 112.417V119H96.9219V111.978ZM102.995 121.944L104.586 115.669H102.564L101.422 121.944H102.995ZM125.812 110.571C127.35 110.571 128.281 111.67 128.281 113.489H123.263C123.263 111.661 124.221 110.571 125.812 110.571ZM128.281 116.539C128.018 117.374 127.13 117.884 125.926 117.884C124.3 117.884 123.263 116.759 123.263 115.01V114.623H129.758V113.691C129.758 110.932 128.299 109.288 125.82 109.288C123.395 109.288 121.786 110.94 121.786 113.454V114.887C121.786 117.603 123.307 119.176 125.926 119.176C127.93 119.176 129.441 118.112 129.731 116.539H128.281ZM135.866 119.167C137.255 119.167 138.292 118.596 138.749 117.576H138.898V119.009H140.322V112.479C140.322 110.492 139.039 109.35 136.798 109.35C134.847 109.35 133.37 110.396 133.194 111.925H134.662C134.908 111.107 135.682 110.642 136.78 110.642C138.107 110.642 138.837 111.301 138.837 112.496V113.357L136.218 113.489C134.047 113.604 132.834 114.605 132.834 116.293C132.834 118.024 134.047 119.167 135.866 119.167ZM136.297 117.857C135.093 117.857 134.346 117.242 134.346 116.24C134.346 115.247 135.049 114.676 136.385 114.614L138.837 114.5V115.625C138.837 116.899 137.738 117.857 136.297 117.857ZM147.995 115.326L150.395 119H152.126L148.839 114.166L152.1 109.464H150.421L148.057 113.076H147.934L145.561 109.464H143.794L147.09 114.228L143.82 119H145.473L147.881 115.326H147.995ZM159.087 112.303C159.957 112.303 160.678 111.564 160.678 110.677C160.678 109.789 159.957 109.051 159.087 109.051C158.217 109.051 157.496 109.789 157.496 110.677C157.496 111.564 158.217 112.303 159.087 112.303ZM158.63 121.918L160.221 115.669H158.199L157.057 121.918H158.63ZM25.168 132.898V130.464H21.6084V131.659H23.7266V138.805H21.8018V140H28.1387V138.805H25.1855V135.729C25.1855 133.303 26.4336 131.844 28.543 131.844C29.0615 131.844 29.6768 131.949 30.1162 132.107V130.429C29.7998 130.297 29.2812 130.218 28.7363 130.218C26.8994 130.218 25.7129 131.132 25.3613 132.898H25.168ZM36.7959 131.571C38.334 131.571 39.2656 132.67 39.2656 134.489H34.2471C34.2471 132.661 35.2051 131.571 36.7959 131.571ZM39.2656 137.539C39.002 138.374 38.1143 138.884 36.9102 138.884C35.2842 138.884 34.2471 137.759 34.2471 136.01V135.623H40.7422V134.691C40.7422 131.932 39.2832 130.288 36.8047 130.288C34.3789 130.288 32.7705 131.94 32.7705 134.454V135.887C32.7705 138.603 34.291 140.176 36.9102 140.176C38.9141 140.176 40.4258 139.112 40.7158 137.539H39.2656ZM46.1914 127.906V130.49H43.6514V131.765H46.1914V137.161C46.1914 139.147 47.29 140.044 49.6543 140.044C50.1113 140.044 51.2715 140 51.5088 139.956V138.69C51.2539 138.717 50.2959 138.743 49.7598 138.743C48.415 138.743 47.6855 138.181 47.6855 137.144V131.765H51.5352V130.49H47.668V127.906H46.1914Z" fill="black"/>
<path d="M397.4 64.3174L395.801 69.8721H397.356L398.728 64.3174H397.4ZM393.999 64.3174L392.399 69.8721H393.964L395.326 64.3174H393.999ZM403.386 72.1396L403.298 66.998H403.412L406.084 74.0205H407.297L409.969 66.998H410.083L409.995 72.1396V77H411.384V64.3174H409.67L406.752 72.166H406.638L403.711 64.3174H401.997V77H403.386V72.1396ZM421.72 67.4639H420.226V73.0801C420.226 74.7061 419.171 75.8047 417.598 75.8047C416.112 75.8047 415.409 74.9961 415.409 73.2734V67.4639H413.915V73.6514C413.915 75.9365 415.04 77.1758 417.114 77.1758C418.564 77.1758 419.654 76.5078 420.164 75.3213H420.287V77H421.72V67.4639ZM433.11 77V75.7607H429.964V63.7197H425.235V64.959H428.47V75.7607H425.209V77H433.11ZM438.445 64.9062V67.4902H435.905V68.7646H438.445V74.1611C438.445 76.1475 439.544 77.0439 441.908 77.0439C442.365 77.0439 443.525 77 443.763 76.9561V75.6904C443.508 75.7168 442.55 75.7432 442.014 75.7432C440.669 75.7432 439.939 75.1807 439.939 74.1436V68.7646H443.789V67.4902H439.922V64.9062H438.445ZM451.365 65.126C452.068 65.126 452.604 64.5986 452.604 63.8955C452.604 63.2012 452.068 62.6738 451.365 62.6738C450.662 62.6738 450.126 63.2012 450.126 63.8955C450.126 64.5986 450.662 65.126 451.365 65.126ZM455.364 77V75.7607H452.209V67.4639H447.489V68.7031H450.732V75.7607H447.463V77H455.364ZM462.923 67.3057C461.561 67.3057 460.567 67.8682 460.066 68.9229H459.908V67.4639H458.432V80.2168H459.952V75.5234H460.119C460.532 76.5693 461.543 77.1582 462.923 77.1582C465.129 77.1582 466.57 75.5674 466.57 73.124V71.3486C466.57 68.8965 465.129 67.3057 462.923 67.3057ZM462.492 68.6768C464.065 68.6768 465.067 69.8018 465.067 71.5596V72.9307C465.067 74.6885 464.065 75.8223 462.492 75.8223C460.919 75.8223 459.917 74.6973 459.917 72.9307V71.5596C459.917 69.8018 460.919 68.6768 462.492 68.6768ZM477.618 77V75.7607H474.472V63.7197H469.743V64.959H472.978V75.7607H469.717V77H477.618ZM481.907 80.3926C483.674 80.3926 484.474 79.6982 485.309 77.3516L488.903 67.4639H487.312L484.649 75.4443H484.535L481.863 67.4639H480.237L483.744 77.0615L483.577 77.5801C483.182 78.6875 482.689 79.0918 481.793 79.0918C481.652 79.0918 481.38 79.083 481.266 79.0566V80.3662C481.397 80.3838 481.688 80.3926 481.907 80.3926ZM505.207 64.9062V67.4902H502.667V68.7646H505.207V74.1611C505.207 76.1475 506.306 77.0439 508.67 77.0439C509.127 77.0439 510.287 77 510.524 76.9561V75.6904C510.27 75.7168 509.312 75.7432 508.775 75.7432C507.431 75.7432 506.701 75.1807 506.701 74.1436V68.7646H510.551V67.4902H506.684V64.9062H505.207ZM514.049 77H515.543V71.3926C515.543 69.7666 516.606 68.668 518.18 68.668C519.674 68.668 520.377 69.4854 520.377 71.1992V77H521.871V70.8213C521.871 68.5449 520.746 67.2969 518.672 67.2969C517.213 67.2969 516.114 67.9648 515.613 69.1514H515.49V63.7197H514.049V77ZM529.192 68.5713C530.73 68.5713 531.662 69.6699 531.662 71.4893H526.644C526.644 69.6611 527.602 68.5713 529.192 68.5713ZM531.662 74.5391C531.398 75.374 530.511 75.8838 529.307 75.8838C527.681 75.8838 526.644 74.7588 526.644 73.0098V72.623H533.139V71.6914C533.139 68.9316 531.68 67.2881 529.201 67.2881C526.775 67.2881 525.167 68.9404 525.167 71.4541V72.8867C525.167 75.6025 526.688 77.1758 529.307 77.1758C531.311 77.1758 532.822 76.1123 533.112 74.5391H531.662ZM536.742 70.0391C536.742 71.3926 537.595 72.2627 539.317 72.6582L540.732 72.9834C541.945 73.2559 542.411 73.6602 542.411 74.416C542.411 75.3301 541.585 75.9189 540.284 75.9189C539.054 75.9189 538.21 75.4092 537.99 74.5303H536.47C536.637 76.165 538.069 77.1758 540.231 77.1758C542.49 77.1758 543.958 76.0332 543.958 74.2754C543.958 72.8955 543.114 72.0869 541.26 71.665L539.915 71.3574C538.72 71.0938 538.228 70.6807 538.228 69.9512C538.228 69.0811 539.01 68.5186 540.223 68.5186C541.339 68.5186 542.139 69.0283 542.314 69.8633H543.756C543.58 68.2725 542.235 67.2793 540.249 67.2793C538.148 67.2793 536.742 68.3867 536.742 70.0391ZM551.446 68.5713C552.984 68.5713 553.916 69.6699 553.916 71.4893H548.897C548.897 69.6611 549.855 68.5713 551.446 68.5713ZM553.916 74.5391C553.652 75.374 552.765 75.8838 551.561 75.8838C549.935 75.8838 548.897 74.7588 548.897 73.0098V72.623H555.393V71.6914C555.393 68.9316 553.934 67.2881 551.455 67.2881C549.029 67.2881 547.421 68.9404 547.421 71.4541V72.8867C547.421 75.6025 548.941 77.1758 551.561 77.1758C553.564 77.1758 555.076 76.1123 555.366 74.5391H553.916ZM571.969 64.9062V67.4902H569.429V68.7646H571.969V74.1611C571.969 76.1475 573.067 77.0439 575.432 77.0439C575.889 77.0439 577.049 77 577.286 76.9561V75.6904C577.031 75.7168 576.073 75.7432 575.537 75.7432C574.192 75.7432 573.463 75.1807 573.463 74.1436V68.7646H577.312V67.4902H573.445V64.9062H571.969ZM589.872 67.4639H588.413L587.121 75.1104H586.963L585.425 67.4727H584.019L582.48 75.1104H582.322L581.03 67.4639H579.571L581.619 77H583.052L584.669 69.5645H584.774L586.392 77H587.824L589.872 67.4639ZM595.849 77.1758C598.371 77.1758 599.979 75.5322 599.979 72.957V71.5156C599.979 68.9404 598.371 67.2969 595.849 67.2969C593.326 67.2969 591.718 68.9404 591.718 71.5156V72.957C591.718 75.5322 593.326 77.1758 595.849 77.1758ZM595.849 68.6152C597.483 68.6152 598.503 69.7754 598.503 71.6475V72.8164C598.503 74.6973 597.483 75.8486 595.849 75.8486C594.214 75.8486 593.194 74.6973 593.194 72.8164V71.6475C593.194 69.7754 594.214 68.6152 595.849 68.6152ZM391.661 98H393.155V92.3838C393.155 90.7578 394.21 89.6592 395.783 89.6592C397.269 89.6592 397.972 90.4678 397.972 92.1904V98H399.466V91.8125C399.466 89.5273 398.341 88.2881 396.267 88.2881C394.816 88.2881 393.727 88.9561 393.217 90.1426H393.094V88.4639H391.661V98ZM410.593 88.4639H409.099V94.0801C409.099 95.7061 408.044 96.8047 406.471 96.8047C404.985 96.8047 404.282 95.9961 404.282 94.2734V88.4639H402.788V94.6514C402.788 96.9365 403.913 98.1758 405.987 98.1758C407.438 98.1758 408.527 97.5078 409.037 96.3213H409.16V98H410.593V88.4639ZM422.414 90.9775C422.414 89.2109 421.72 88.2881 420.393 88.2881C419.435 88.2881 418.67 88.8682 418.424 89.7822H418.266C418.063 88.8418 417.431 88.2881 416.534 88.2881C415.638 88.2881 414.952 88.8506 414.715 89.8086H414.557V88.4639H413.221V98H414.565V91.5664C414.565 90.3799 415.093 89.6504 415.937 89.6504C416.745 89.6504 417.167 90.2568 417.167 91.4082V98H418.503V91.5664C418.503 90.3799 419.013 89.6504 419.848 89.6504C420.647 89.6504 421.069 90.2568 421.069 91.417V98H422.414V90.9775ZM429.542 98.1582C431.748 98.1582 433.189 96.5674 433.189 94.1152V92.3398C433.189 89.8965 431.748 88.3057 429.542 88.3057C428.162 88.3057 427.151 88.8945 426.729 89.9404H426.571V84.7197H425.051V98H426.519V96.541H426.686C427.178 97.5957 428.18 98.1582 429.542 98.1582ZM429.103 96.7959C427.538 96.7959 426.536 95.6709 426.536 93.9043V92.5332C426.536 90.7754 427.538 89.6504 429.103 89.6504C430.685 89.6504 431.687 90.7754 431.687 92.5332V93.9043C431.687 95.6621 430.685 96.7959 429.103 96.7959ZM440.177 89.5713C441.715 89.5713 442.646 90.6699 442.646 92.4893H437.628C437.628 90.6611 438.586 89.5713 440.177 89.5713ZM442.646 95.5391C442.383 96.374 441.495 96.8838 440.291 96.8838C438.665 96.8838 437.628 95.7588 437.628 94.0098V93.623H444.123V92.6914C444.123 89.9316 442.664 88.2881 440.186 88.2881C437.76 88.2881 436.151 89.9404 436.151 92.4541V93.8867C436.151 96.6025 437.672 98.1758 440.291 98.1758C442.295 98.1758 443.807 97.1123 444.097 95.5391H442.646ZM450.803 90.8984V88.4639H447.243V89.6592H449.361V96.8047H447.437V98H453.773V96.8047H450.82V93.7285C450.82 91.3027 452.068 89.8438 454.178 89.8438C454.696 89.8438 455.312 89.9492 455.751 90.1074V88.4287C455.435 88.2969 454.916 88.2178 454.371 88.2178C452.534 88.2178 451.348 89.1318 450.996 90.8984H450.803ZM458.854 91.0391C458.854 92.3926 459.706 93.2627 461.429 93.6582L462.844 93.9834C464.057 94.2559 464.522 94.6602 464.522 95.416C464.522 96.3301 463.696 96.9189 462.396 96.9189C461.165 96.9189 460.321 96.4092 460.102 95.5303H458.581C458.748 97.165 460.181 98.1758 462.343 98.1758C464.602 98.1758 466.069 97.0332 466.069 95.2754C466.069 93.8955 465.226 93.0869 463.371 92.665L462.026 92.3574C460.831 92.0938 460.339 91.6807 460.339 90.9512C460.339 90.0811 461.121 89.5186 462.334 89.5186C463.45 89.5186 464.25 90.0283 464.426 90.8633H465.867C465.691 89.2725 464.347 88.2793 462.36 88.2793C460.26 88.2793 458.854 89.3867 458.854 91.0391ZM482.953 85.9062V88.4902H480.413V89.7646H482.953V95.1611C482.953 97.1475 484.052 98.0439 486.416 98.0439C486.873 98.0439 488.033 98 488.271 97.9561V96.6904C488.016 96.7168 487.058 96.7432 486.521 96.7432C485.177 96.7432 484.447 96.1807 484.447 95.1436V89.7646H488.297V88.4902H484.43V85.9062H482.953ZM495.706 98.1758C498.229 98.1758 499.837 96.5322 499.837 93.957V92.5156C499.837 89.9404 498.229 88.2969 495.706 88.2969C493.184 88.2969 491.575 89.9404 491.575 92.5156V93.957C491.575 96.5322 493.184 98.1758 495.706 98.1758ZM495.706 89.6152C497.341 89.6152 498.36 90.7754 498.36 92.6475V93.8164C498.36 95.6973 497.341 96.8486 495.706 96.8486C494.071 96.8486 493.052 95.6973 493.052 93.8164V92.6475C493.052 90.7754 494.071 89.6152 495.706 89.6152ZM503.994 93.8428V92.5332C503.994 90.7842 505.014 89.6504 506.596 89.6504C508.169 89.6504 509.18 90.7754 509.18 92.5332V93.8428C509.18 95.6006 508.169 96.7344 506.596 96.7344C505.014 96.7344 503.994 95.5918 503.994 93.8428ZM506.552 101.577C509.136 101.577 510.665 100.241 510.665 98V88.4639H509.188V89.9404H509.021C508.608 88.9121 507.562 88.3057 506.183 88.3057C503.95 88.3057 502.491 89.8877 502.491 92.3398V94.0537C502.491 96.4971 503.941 98.0879 506.147 98.0879C507.536 98.0879 508.591 97.4814 509.013 96.4795H509.171V97.9648C509.171 99.4941 508.248 100.338 506.578 100.338C505.304 100.338 504.346 99.8193 504.152 99.0283H502.676C502.869 100.61 504.346 101.577 506.552 101.577ZM518.065 89.5713C519.604 89.5713 520.535 90.6699 520.535 92.4893H515.517C515.517 90.6611 516.475 89.5713 518.065 89.5713ZM520.535 95.5391C520.271 96.374 519.384 96.8838 518.18 96.8838C516.554 96.8838 515.517 95.7588 515.517 94.0098V93.623H522.012V92.6914C522.012 89.9316 520.553 88.2881 518.074 88.2881C515.648 88.2881 514.04 89.9404 514.04 92.4541V93.8867C514.04 96.6025 515.561 98.1758 518.18 98.1758C520.184 98.1758 521.695 97.1123 521.985 95.5391H520.535ZM527.461 85.9062V88.4902H524.921V89.7646H527.461V95.1611C527.461 97.1475 528.56 98.0439 530.924 98.0439C531.381 98.0439 532.541 98 532.778 97.9561V96.6904C532.523 96.7168 531.565 96.7432 531.029 96.7432C529.685 96.7432 528.955 96.1807 528.955 95.1436V89.7646H532.805V88.4902H528.938V85.9062H527.461ZM536.303 98H537.797V92.3926C537.797 90.7666 538.86 89.668 540.434 89.668C541.928 89.668 542.631 90.4854 542.631 92.1992V98H544.125V91.8213C544.125 89.5449 543 88.2969 540.926 88.2969C539.467 88.2969 538.368 88.9648 537.867 90.1514H537.744V84.7197H536.303V98ZM551.446 89.5713C552.984 89.5713 553.916 90.6699 553.916 92.4893H548.897C548.897 90.6611 549.855 89.5713 551.446 89.5713ZM553.916 95.5391C553.652 96.374 552.765 96.8838 551.561 96.8838C549.935 96.8838 548.897 95.7588 548.897 94.0098V93.623H555.393V92.6914C555.393 89.9316 553.934 88.2881 551.455 88.2881C549.029 88.2881 547.421 89.9404 547.421 92.4541V93.8867C547.421 96.6025 548.941 98.1758 551.561 98.1758C553.564 98.1758 555.076 97.1123 555.366 95.5391H553.916ZM562.072 90.8984V88.4639H558.513V89.6592H560.631V96.8047H558.706V98H565.043V96.8047H562.09V93.7285C562.09 91.3027 563.338 89.8438 565.447 89.8438C565.966 89.8438 566.581 89.9492 567.021 90.1074V88.4287C566.704 88.2969 566.186 88.2178 565.641 88.2178C563.804 88.2178 562.617 89.1318 562.266 90.8984H562.072ZM571.688 90.8721L573.287 85.3174H571.723L570.36 90.8721H571.688ZM575.089 90.8721L576.68 85.3174H575.124L573.762 90.8721H575.089Z" fill="black"/>
<path d="M729.729 78V76.7607H726.583V64.7197H721.854V65.959H725.089V76.7607H721.828V78H729.729ZM736.796 69.5713C738.334 69.5713 739.266 70.6699 739.266 72.4893H734.247C734.247 70.6611 735.205 69.5713 736.796 69.5713ZM739.266 75.5391C739.002 76.374 738.114 76.8838 736.91 76.8838C735.284 76.8838 734.247 75.7588 734.247 74.0098V73.623H740.742V72.6914C740.742 69.9316 739.283 68.2881 736.805 68.2881C734.379 68.2881 732.771 69.9404 732.771 72.4541V73.8867C732.771 76.6025 734.291 78.1758 736.91 78.1758C738.914 78.1758 740.426 77.1123 740.716 75.5391H739.266ZM746.191 65.9062V68.4902H743.651V69.7646H746.191V75.1611C746.191 77.1475 747.29 78.0439 749.654 78.0439C750.111 78.0439 751.271 78 751.509 77.9561V76.6904C751.254 76.7168 750.296 76.7432 749.76 76.7432C748.415 76.7432 747.686 76.1807 747.686 75.1436V69.7646H751.535V68.4902H747.668V65.9062H746.191ZM770.669 68.3057C769.307 68.3057 768.313 68.8682 767.812 69.9229H767.654V68.4639H766.178V81.2168H767.698V76.5234H767.865C768.278 77.5693 769.289 78.1582 770.669 78.1582C772.875 78.1582 774.316 76.5674 774.316 74.124V72.3486C774.316 69.8965 772.875 68.3057 770.669 68.3057ZM770.238 69.6768C771.812 69.6768 772.813 70.8018 772.813 72.5596V73.9307C772.813 75.6885 771.812 76.8223 770.238 76.8223C768.665 76.8223 767.663 75.6973 767.663 73.9307V72.5596C767.663 70.8018 768.665 69.6768 770.238 69.6768ZM796.975 75.1084V73.6582H787.676V75.1084H796.975ZM796.975 71.1006V69.6504H787.676V71.1006H796.975ZM810.677 78H812.171V72.3838C812.171 70.7578 813.226 69.6592 814.799 69.6592C816.284 69.6592 816.987 70.4678 816.987 72.1904V78H818.481V71.8125C818.481 69.5273 817.356 68.2881 815.282 68.2881C813.832 68.2881 812.742 68.9561 812.232 70.1426H812.109V68.4639H810.677V78ZM829.608 68.4639H828.114V74.0801C828.114 75.7061 827.06 76.8047 825.486 76.8047C824.001 76.8047 823.298 75.9961 823.298 74.2734V68.4639H821.804V74.6514C821.804 76.9365 822.929 78.1758 825.003 78.1758C826.453 78.1758 827.543 77.5078 828.053 76.3213H828.176V78H829.608V68.4639ZM841.43 70.9775C841.43 69.2109 840.735 68.2881 839.408 68.2881C838.45 68.2881 837.686 68.8682 837.439 69.7822H837.281C837.079 68.8418 836.446 68.2881 835.55 68.2881C834.653 68.2881 833.968 68.8506 833.73 69.8086H833.572V68.4639H832.236V78H833.581V71.5664C833.581 70.3799 834.108 69.6504 834.952 69.6504C835.761 69.6504 836.183 70.2568 836.183 71.4082V78H837.519V71.5664C837.519 70.3799 838.028 69.6504 838.863 69.6504C839.663 69.6504 840.085 70.2568 840.085 71.417V78H841.43V70.9775ZM849.182 76.6377V65.3174H847.661L843.882 67.7695V69.4219L847.512 67.0752H847.652V76.6377H843.908V78H852.75V76.6377H849.182ZM863.824 70.3799L863.2 69.2461L859.605 71.4609L859.711 67.2598H858.463L858.568 71.4609L854.974 69.2461L854.35 70.3799L858.015 72.375L854.35 74.3701L854.974 75.5039L858.568 73.2891L858.463 77.499H859.711L859.605 73.2979L863.2 75.5039L863.824 74.3701L860.159 72.375L863.824 70.3799ZM866.312 78H867.806V72.3838C867.806 70.7578 868.86 69.6592 870.434 69.6592C871.919 69.6592 872.622 70.4678 872.622 72.1904V78H874.116V71.8125C874.116 69.5273 872.991 68.2881 870.917 68.2881C869.467 68.2881 868.377 68.9561 867.867 70.1426H867.744V68.4639H866.312V78ZM885.243 68.4639H883.749V74.0801C883.749 75.7061 882.694 76.8047 881.121 76.8047C879.636 76.8047 878.933 75.9961 878.933 74.2734V68.4639H877.438V74.6514C877.438 76.9365 878.563 78.1758 880.638 78.1758C882.088 78.1758 883.178 77.5078 883.688 76.3213H883.811V78H885.243V68.4639ZM897.064 70.9775C897.064 69.2109 896.37 68.2881 895.043 68.2881C894.085 68.2881 893.32 68.8682 893.074 69.7822H892.916C892.714 68.8418 892.081 68.2881 891.185 68.2881C890.288 68.2881 889.603 68.8506 889.365 69.8086H889.207V68.4639H887.871V78H889.216V71.5664C889.216 70.3799 889.743 69.6504 890.587 69.6504C891.396 69.6504 891.817 70.2568 891.817 71.4082V78H893.153V71.5664C893.153 70.3799 893.663 69.6504 894.498 69.6504C895.298 69.6504 895.72 70.2568 895.72 71.417V78H897.064V70.9775ZM899.552 68.8857V68.9385H901.046V68.8857C901.046 67.3916 902.013 66.416 903.472 66.416C904.948 66.416 905.906 67.3125 905.906 68.6748C905.906 69.6768 905.52 70.3535 903.911 72.1553L899.622 76.9277V78H907.646V76.5938H901.837V76.4443L904.825 73.1924C906.847 70.9863 907.444 69.9316 907.444 68.6133C907.444 66.4951 905.845 65.0537 903.516 65.0537C901.204 65.0537 899.552 66.6533 899.552 68.8857ZM914.722 71.3027C915.592 71.3027 916.312 70.5645 916.312 69.6768C916.312 68.7891 915.592 68.0508 914.722 68.0508C913.852 68.0508 913.131 68.7891 913.131 69.6768C913.131 70.5645 913.852 71.3027 914.722 71.3027ZM914.265 80.918L915.855 74.6689H913.834L912.691 80.918H914.265Z" fill="black"/>
<path d="M393.352 41V28.9043H393.502L400.162 41H401.956V25.499H400.248V37.5625H400.098L393.459 25.499H391.644V41H393.352ZM409.218 41.2041C410.915 41.2041 412.183 40.5059 412.741 39.2598H412.924V41.0107H414.664V33.0293C414.664 30.6016 413.096 29.2051 410.356 29.2051C407.972 29.2051 406.167 30.4834 405.952 32.3525H407.746C408.047 31.3535 408.992 30.7842 410.335 30.7842C411.957 30.7842 412.849 31.5898 412.849 33.0508V34.1035L409.647 34.2646C406.994 34.4043 405.512 35.6289 405.512 37.6914C405.512 39.8076 406.994 41.2041 409.218 41.2041ZM409.744 39.6035C408.272 39.6035 407.359 38.8516 407.359 37.627C407.359 36.4131 408.219 35.7148 409.852 35.6396L412.849 35.5V36.875C412.849 38.4326 411.506 39.6035 409.744 39.6035ZM422.012 26.2188V29.377H418.907V30.9346H422.012V37.5303C422.012 39.958 423.354 41.0537 426.244 41.0537C426.803 41.0537 428.221 41 428.511 40.9463V39.3994C428.199 39.4316 427.028 39.4639 426.373 39.4639C424.729 39.4639 423.838 38.7764 423.838 37.5088V30.9346H428.543V29.377H423.816V26.2188H422.012ZM442.368 29.3447H440.542V36.209C440.542 38.1963 439.253 39.5391 437.33 39.5391C435.515 39.5391 434.655 38.5508 434.655 36.4453V29.3447H432.829V36.9072C432.829 39.7002 434.204 41.2148 436.739 41.2148C438.512 41.2148 439.844 40.3984 440.467 38.9482H440.617V41H442.368V29.3447ZM450.715 32.3203V29.3447H446.364V30.8057H448.953V39.5391H446.601V41H454.346V39.5391H450.736V35.7793C450.736 32.8145 452.262 31.0312 454.84 31.0312C455.474 31.0312 456.226 31.1602 456.763 31.3535V29.3018C456.376 29.1406 455.742 29.0439 455.076 29.0439C452.831 29.0439 451.381 30.1611 450.951 32.3203H450.715ZM463.616 41.2041C465.313 41.2041 466.581 40.5059 467.14 39.2598H467.322V41.0107H469.062V33.0293C469.062 30.6016 467.494 29.2051 464.755 29.2051C462.37 29.2051 460.565 30.4834 460.351 32.3525H462.145C462.445 31.3535 463.391 30.7842 464.733 30.7842C466.355 30.7842 467.247 31.5898 467.247 33.0508V34.1035L464.046 34.2646C461.393 34.4043 459.91 35.6289 459.91 37.6914C459.91 39.8076 461.393 41.2041 463.616 41.2041ZM464.143 39.6035C462.671 39.6035 461.758 38.8516 461.758 37.627C461.758 36.4131 462.617 35.7148 464.25 35.6396L467.247 35.5V36.875C467.247 38.4326 465.904 39.6035 464.143 39.6035ZM483.489 41V39.4854H479.644V24.7686H473.864V26.2832H477.817V39.4854H473.832V41H483.489ZM510.688 41V39.4854H506.843V24.7686H501.063V26.2832H505.017V39.4854H501.031V41H510.688ZM518.015 41.2041C519.712 41.2041 520.979 40.5059 521.538 39.2598H521.721V41.0107H523.461V33.0293C523.461 30.6016 521.893 29.2051 519.153 29.2051C516.769 29.2051 514.964 30.4834 514.749 32.3525H516.543C516.844 31.3535 517.789 30.7842 519.132 30.7842C520.754 30.7842 521.646 31.5898 521.646 33.0508V34.1035L518.444 34.2646C515.791 34.4043 514.309 35.6289 514.309 37.6914C514.309 39.8076 515.791 41.2041 518.015 41.2041ZM518.541 39.6035C517.069 39.6035 516.156 38.8516 516.156 37.627C516.156 36.4131 517.016 35.7148 518.648 35.6396L521.646 35.5V36.875C521.646 38.4326 520.303 39.6035 518.541 39.6035ZM528.026 41H529.853V34.1357C529.853 32.1484 531.142 30.8057 533.064 30.8057C534.88 30.8057 535.739 31.7939 535.739 33.8994V41H537.565V33.4375C537.565 30.6445 536.19 29.1299 533.655 29.1299C531.883 29.1299 530.551 29.9463 529.928 31.3965H529.777V29.3447H528.026V41ZM542.926 35.9189V34.3184C542.926 32.1807 544.172 30.7949 546.105 30.7949C548.028 30.7949 549.264 32.1699 549.264 34.3184V35.9189C549.264 38.0674 548.028 39.4531 546.105 39.4531C544.172 39.4531 542.926 38.0566 542.926 35.9189ZM546.052 45.3721C549.21 45.3721 551.079 43.7393 551.079 41V29.3447H549.274V31.1494H549.07C548.565 29.8926 547.287 29.1514 545.601 29.1514C542.872 29.1514 541.089 31.085 541.089 34.082V36.1768C541.089 39.1631 542.861 41.1074 545.558 41.1074C547.255 41.1074 548.544 40.3662 549.06 39.1416H549.253V40.957C549.253 42.8262 548.125 43.8574 546.084 43.8574C544.526 43.8574 543.355 43.2236 543.119 42.2568H541.314C541.551 44.1904 543.355 45.3721 546.052 45.3721ZM564.765 29.3447H562.938V36.209C562.938 38.1963 561.649 39.5391 559.727 39.5391C557.911 39.5391 557.052 38.5508 557.052 36.4453V29.3447H555.226V36.9072C555.226 39.7002 556.601 41.2148 559.136 41.2148C560.908 41.2148 562.24 40.3984 562.863 38.9482H563.014V41H564.765V29.3447ZM572.413 41.2041C574.11 41.2041 575.378 40.5059 575.937 39.2598H576.119V41.0107H577.859V33.0293C577.859 30.6016 576.291 29.2051 573.552 29.2051C571.167 29.2051 569.362 30.4834 569.147 32.3525H570.941C571.242 31.3535 572.188 30.7842 573.53 30.7842C575.152 30.7842 576.044 31.5898 576.044 33.0508V34.1035L572.843 34.2646C570.189 34.4043 568.707 35.6289 568.707 37.6914C568.707 39.8076 570.189 41.2041 572.413 41.2041ZM572.939 39.6035C571.468 39.6035 570.555 38.8516 570.555 37.627C570.555 36.4131 571.414 35.7148 573.047 35.6396L576.044 35.5V36.875C576.044 38.4326 574.701 39.6035 572.939 39.6035ZM583.725 35.9189V34.3184C583.725 32.1807 584.971 30.7949 586.904 30.7949C588.827 30.7949 590.062 32.1699 590.062 34.3184V35.9189C590.062 38.0674 588.827 39.4531 586.904 39.4531C584.971 39.4531 583.725 38.0566 583.725 35.9189ZM586.851 45.3721C590.009 45.3721 591.878 43.7393 591.878 41V29.3447H590.073V31.1494H589.869C589.364 29.8926 588.086 29.1514 586.399 29.1514C583.671 29.1514 581.888 31.085 581.888 34.082V36.1768C581.888 39.1631 583.66 41.1074 586.356 41.1074C588.054 41.1074 589.343 40.3662 589.858 39.1416H590.052V40.957C590.052 42.8262 588.924 43.8574 586.883 43.8574C585.325 43.8574 584.154 43.2236 583.918 42.2568H582.113C582.35 44.1904 584.154 45.3721 586.851 45.3721ZM600.923 30.6982C602.803 30.6982 603.941 32.041 603.941 34.2646H597.808C597.808 32.0303 598.979 30.6982 600.923 30.6982ZM603.941 37.9922C603.619 39.0127 602.534 39.6357 601.062 39.6357C599.075 39.6357 597.808 38.2607 597.808 36.123V35.6504H605.746V34.5117C605.746 31.1387 603.963 29.1299 600.934 29.1299C597.969 29.1299 596.003 31.1494 596.003 34.2217V35.9727C596.003 39.292 597.861 41.2148 601.062 41.2148C603.512 41.2148 605.359 39.915 605.714 37.9922H603.941Z" fill="black"/>
<path d="M731.956 41V25.499H730.076V32.2129H723.523V25.499H721.644V41H723.523V33.9531H730.076V41H731.956ZM740.604 26.4873C741.463 26.4873 742.118 25.8428 742.118 24.9834C742.118 24.1348 741.463 23.4902 740.604 23.4902C739.744 23.4902 739.089 24.1348 739.089 24.9834C739.089 25.8428 739.744 26.4873 740.604 26.4873ZM745.491 41V39.4854H741.635V29.3447H735.866V30.8594H739.83V39.4854H735.834V41H745.491ZM750.529 35.9189V34.3184C750.529 32.1807 751.775 30.7949 753.709 30.7949C755.632 30.7949 756.867 32.1699 756.867 34.3184V35.9189C756.867 38.0674 755.632 39.4531 753.709 39.4531C751.775 39.4531 750.529 38.0566 750.529 35.9189ZM753.655 45.3721C756.813 45.3721 758.683 43.7393 758.683 41V29.3447H756.878V31.1494H756.674C756.169 29.8926 754.891 29.1514 753.204 29.1514C750.476 29.1514 748.692 31.085 748.692 34.082V36.1768C748.692 39.1631 750.465 41.1074 753.161 41.1074C754.858 41.1074 756.147 40.3662 756.663 39.1416H756.856V40.957C756.856 42.8262 755.729 43.8574 753.688 43.8574C752.13 43.8574 750.959 43.2236 750.723 42.2568H748.918C749.154 44.1904 750.959 45.3721 753.655 45.3721ZM762.818 41H764.645V34.1465C764.645 32.1592 765.944 30.8164 767.867 30.8164C769.693 30.8164 770.553 31.8154 770.553 33.9102V41H772.379V33.4482C772.379 30.666 771.004 29.1406 768.469 29.1406C766.686 29.1406 765.343 29.957 764.73 31.4072H764.58V24.7686H762.818V41ZM799.89 41V39.4854H796.044V24.7686H790.265V26.2832H794.218V39.4854H790.232V41H799.89ZM808.526 30.6982C810.406 30.6982 811.545 32.041 811.545 34.2646H805.411C805.411 32.0303 806.582 30.6982 808.526 30.6982ZM811.545 37.9922C811.223 39.0127 810.138 39.6357 808.666 39.6357C806.679 39.6357 805.411 38.2607 805.411 36.123V35.6504H813.35V34.5117C813.35 31.1387 811.566 29.1299 808.537 29.1299C805.572 29.1299 803.606 31.1494 803.606 34.2217V35.9727C803.606 39.292 805.465 41.2148 808.666 41.2148C811.115 41.2148 812.963 39.915 813.317 37.9922H811.545ZM816.733 29.3447L820.998 41H823.007L827.261 29.3447H825.316L822.083 39.0449H821.943L818.688 29.3447H816.733ZM835.726 30.6982C837.605 30.6982 838.744 32.041 838.744 34.2646H832.61C832.61 32.0303 833.781 30.6982 835.726 30.6982ZM838.744 37.9922C838.422 39.0127 837.337 39.6357 835.865 39.6357C833.878 39.6357 832.61 38.2607 832.61 36.123V35.6504H840.549V34.5117C840.549 31.1387 838.766 29.1299 835.736 29.1299C832.771 29.1299 830.806 31.1494 830.806 34.2217V35.9727C830.806 39.292 832.664 41.2148 835.865 41.2148C838.314 41.2148 840.162 39.915 840.517 37.9922H838.744ZM854.288 41V39.4854H850.442V24.7686H844.663V26.2832H848.616V39.4854H844.631V41H854.288ZM881.487 41V39.4854H877.642V24.7686H871.862V26.2832H875.815V39.4854H871.83V41H881.487ZM888.813 41.2041C890.511 41.2041 891.778 40.5059 892.337 39.2598H892.52V41.0107H894.26V33.0293C894.26 30.6016 892.691 29.2051 889.952 29.2051C887.567 29.2051 885.763 30.4834 885.548 32.3525H887.342C887.643 31.3535 888.588 30.7842 889.931 30.7842C891.553 30.7842 892.444 31.5898 892.444 33.0508V34.1035L889.243 34.2646C886.59 34.4043 885.107 35.6289 885.107 37.6914C885.107 39.8076 886.59 41.2041 888.813 41.2041ZM889.34 39.6035C887.868 39.6035 886.955 38.8516 886.955 37.627C886.955 36.4131 887.814 35.7148 889.447 35.6396L892.444 35.5V36.875C892.444 38.4326 891.102 39.6035 889.34 39.6035ZM898.825 41H900.651V34.1357C900.651 32.1484 901.94 30.8057 903.863 30.8057C905.679 30.8057 906.538 31.7939 906.538 33.8994V41H908.364V33.4375C908.364 30.6445 906.989 29.1299 904.454 29.1299C902.682 29.1299 901.35 29.9463 900.727 31.3965H900.576V29.3447H898.825V41ZM913.725 35.9189V34.3184C913.725 32.1807 914.971 30.7949 916.904 30.7949C918.827 30.7949 920.062 32.1699 920.062 34.3184V35.9189C920.062 38.0674 918.827 39.4531 916.904 39.4531C914.971 39.4531 913.725 38.0566 913.725 35.9189ZM916.851 45.3721C920.009 45.3721 921.878 43.7393 921.878 41V29.3447H920.073V31.1494H919.869C919.364 29.8926 918.086 29.1514 916.399 29.1514C913.671 29.1514 911.888 31.085 911.888 34.082V36.1768C911.888 39.1631 913.66 41.1074 916.356 41.1074C918.054 41.1074 919.343 40.3662 919.858 39.1416H920.052V40.957C920.052 42.8262 918.924 43.8574 916.883 43.8574C915.325 43.8574 914.154 43.2236 913.918 42.2568H912.113C912.35 44.1904 914.154 45.3721 916.851 45.3721ZM935.563 29.3447H933.737V36.209C933.737 38.1963 932.448 39.5391 930.525 39.5391C928.71 39.5391 927.851 38.5508 927.851 36.4453V29.3447H926.024V36.9072C926.024 39.7002 927.399 41.2148 929.935 41.2148C931.707 41.2148 933.039 40.3984 933.662 38.9482H933.812V41H935.563V29.3447ZM943.212 41.2041C944.909 41.2041 946.177 40.5059 946.735 39.2598H946.918V41.0107H948.658V33.0293C948.658 30.6016 947.09 29.2051 944.351 29.2051C941.966 29.2051 940.161 30.4834 939.946 32.3525H941.74C942.041 31.3535 942.986 30.7842 944.329 30.7842C945.951 30.7842 946.843 31.5898 946.843 33.0508V34.1035L943.642 34.2646C940.988 34.4043 939.506 35.6289 939.506 37.6914C939.506 39.8076 940.988 41.2041 943.212 41.2041ZM943.738 39.6035C942.267 39.6035 941.354 38.8516 941.354 37.627C941.354 36.4131 942.213 35.7148 943.846 35.6396L946.843 35.5V36.875C946.843 38.4326 945.5 39.6035 943.738 39.6035ZM954.523 35.9189V34.3184C954.523 32.1807 955.77 30.7949 957.703 30.7949C959.626 30.7949 960.861 32.1699 960.861 34.3184V35.9189C960.861 38.0674 959.626 39.4531 957.703 39.4531C955.77 39.4531 954.523 38.0566 954.523 35.9189ZM957.649 45.3721C960.808 45.3721 962.677 43.7393 962.677 41V29.3447H960.872V31.1494H960.668C960.163 29.8926 958.885 29.1514 957.198 29.1514C954.47 29.1514 952.687 31.085 952.687 34.082V36.1768C952.687 39.1631 954.459 41.1074 957.155 41.1074C958.853 41.1074 960.142 40.3662 960.657 39.1416H960.851V40.957C960.851 42.8262 959.723 43.8574 957.682 43.8574C956.124 43.8574 954.953 43.2236 954.717 42.2568H952.912C953.148 44.1904 954.953 45.3721 957.649 45.3721ZM971.722 30.6982C973.602 30.6982 974.74 32.041 974.74 34.2646H968.606C968.606 32.0303 969.777 30.6982 971.722 30.6982ZM974.74 37.9922C974.418 39.0127 973.333 39.6357 971.861 39.6357C969.874 39.6357 968.606 38.2607 968.606 36.123V35.6504H976.545V34.5117C976.545 31.1387 974.762 29.1299 971.732 29.1299C968.768 29.1299 966.802 31.1494 966.802 34.2217V35.9727C966.802 39.292 968.66 41.2148 971.861 41.2148C974.311 41.2148 976.158 39.915 976.513 37.9922H974.74Z" fill="black"/>
</g>
<defs>
<clipPath id="clip0_60_48">
<rect width="1000" height="160" fill="white"/>
</clipPath>
</defs>
</svg>
