<svg width="460" height="180" viewBox="0 0 460 180" fill="none" xmlns="http://www.w3.org/2000/svg">
<g clip-path="url(#clip0_62_10)">
<rect width="460" height="180" fill="white"/>
<path d="M209.729 77V75.7607H206.583V63.7197H201.854V64.959H205.089V75.7607H201.828V77H209.729ZM216.796 68.5713C218.334 68.5713 219.266 69.6699 219.266 71.4893H214.247C214.247 69.6611 215.205 68.5713 216.796 68.5713ZM219.266 74.5391C219.002 75.374 218.114 75.8838 216.91 75.8838C215.284 75.8838 214.247 74.7588 214.247 73.0098V72.623H220.742V71.6914C220.742 68.9316 219.283 67.2881 216.805 67.2881C214.379 67.2881 212.771 68.9404 212.771 71.4541V72.8867C212.771 75.6025 214.291 77.1758 216.91 77.1758C218.914 77.1758 220.426 76.1123 220.716 74.5391H219.266ZM226.191 64.9062V67.4902H223.651V68.7646H226.191V74.1611C226.191 76.1475 227.29 77.0439 229.654 77.0439C230.111 77.0439 231.271 77 231.509 76.9561V75.6904C231.254 75.7168 230.296 75.7432 229.76 75.7432C228.415 75.7432 227.686 75.1807 227.686 74.1436V68.7646H231.535V67.4902H227.668V64.9062H226.191ZM249.104 77.167C250.493 77.167 251.53 76.5957 251.987 75.5762H252.137V77.0088H253.561V70.4785C253.561 68.4922 252.277 67.3496 250.036 67.3496C248.085 67.3496 246.608 68.3955 246.433 69.9248H247.9C248.146 69.1074 248.92 68.6416 250.019 68.6416C251.346 68.6416 252.075 69.3008 252.075 70.4961V71.3574L249.456 71.4893C247.285 71.6035 246.072 72.6055 246.072 74.293C246.072 76.0244 247.285 77.167 249.104 77.167ZM249.535 75.8574C248.331 75.8574 247.584 75.2422 247.584 74.2402C247.584 73.2471 248.287 72.6758 249.623 72.6143L252.075 72.5V73.625C252.075 74.8994 250.977 75.8574 249.535 75.8574ZM261.198 70.3027C262.068 70.3027 262.789 69.5645 262.789 68.6768C262.789 67.7891 262.068 67.0508 261.198 67.0508C260.328 67.0508 259.607 67.7891 259.607 68.6768C259.607 69.5645 260.328 70.3027 261.198 70.3027ZM260.741 79.918L262.332 73.6689H260.311L259.168 79.918H260.741ZM209.729 98V96.7607H206.583V84.7197H201.854V85.959H205.089V96.7607H201.828V98H209.729ZM216.796 89.5713C218.334 89.5713 219.266 90.6699 219.266 92.4893H214.247C214.247 90.6611 215.205 89.5713 216.796 89.5713ZM219.266 95.5391C219.002 96.374 218.114 96.8838 216.91 96.8838C215.284 96.8838 214.247 95.7588 214.247 94.0098V93.623H220.742V92.6914C220.742 89.9316 219.283 88.2881 216.805 88.2881C214.379 88.2881 212.771 89.9404 212.771 92.4541V93.8867C212.771 96.6025 214.291 98.1758 216.91 98.1758C218.914 98.1758 220.426 97.1123 220.716 95.5391H219.266ZM226.191 85.9062V88.4902H223.651V89.7646H226.191V95.1611C226.191 97.1475 227.29 98.0439 229.654 98.0439C230.111 98.0439 231.271 98 231.509 97.9561V96.6904C231.254 96.7168 230.296 96.7432 229.76 96.7432C228.415 96.7432 227.686 96.1807 227.686 95.1436V89.7646H231.535V88.4902H227.668V85.9062H226.191ZM250.669 98.1582C252.875 98.1582 254.316 96.5674 254.316 94.1152V92.3398C254.316 89.8965 252.875 88.3057 250.669 88.3057C249.289 88.3057 248.278 88.8945 247.856 89.9404H247.698V84.7197H246.178V98H247.646V96.541H247.812C248.305 97.5957 249.307 98.1582 250.669 98.1582ZM250.229 96.7959C248.665 96.7959 247.663 95.6709 247.663 93.9043V92.5332C247.663 90.7754 248.665 89.6504 250.229 89.6504C251.812 89.6504 252.813 90.7754 252.813 92.5332V93.9043C252.813 95.6621 251.812 96.7959 250.229 96.7959ZM261.198 91.3027C262.068 91.3027 262.789 90.5645 262.789 89.6768C262.789 88.7891 262.068 88.0508 261.198 88.0508C260.328 88.0508 259.607 88.7891 259.607 89.6768C259.607 90.5645 260.328 91.3027 261.198 91.3027ZM260.741 100.918L262.332 94.6689H260.311L259.168 100.918H260.741ZM204.597 119.167C205.985 119.167 207.022 118.596 207.479 117.576H207.629V119.009H209.053V112.479C209.053 110.492 207.77 109.35 205.528 109.35C203.577 109.35 202.101 110.396 201.925 111.925H203.393C203.639 111.107 204.412 110.642 205.511 110.642C206.838 110.642 207.567 111.301 207.567 112.496V113.357L204.948 113.489C202.777 113.604 201.564 114.605 201.564 116.293C201.564 118.024 202.777 119.167 204.597 119.167ZM205.027 117.857C203.823 117.857 203.076 117.242 203.076 116.24C203.076 115.247 203.779 114.676 205.115 114.614L207.567 114.5V115.625C207.567 116.899 206.469 117.857 205.027 117.857ZM232.467 116.108V114.658H223.168V116.108H232.467ZM232.467 112.101V110.65H223.168V112.101H232.467ZM251.293 117.638V106.317H249.772L245.993 108.77V110.422L249.623 108.075H249.764V117.638H246.02V119H254.861V117.638H251.293ZM257.155 109.886V109.938H258.649V109.886C258.649 108.392 259.616 107.416 261.075 107.416C262.552 107.416 263.51 108.312 263.51 109.675C263.51 110.677 263.123 111.354 261.515 113.155L257.226 117.928V119H265.25V117.594H259.44V117.444L262.429 114.192C264.45 111.986 265.048 110.932 265.048 109.613C265.048 107.495 263.448 106.054 261.119 106.054C258.808 106.054 257.155 107.653 257.155 109.886ZM270.778 113.12H272.229C273.986 113.12 275.103 114.061 275.103 115.537C275.103 116.97 274.021 117.866 272.281 117.866C270.699 117.866 269.574 116.987 269.434 115.634H267.966C268.08 117.822 269.82 119.264 272.325 119.264C274.856 119.264 276.667 117.726 276.667 115.572C276.667 113.841 275.665 112.654 273.978 112.435V112.294C275.34 111.96 276.14 110.87 276.14 109.341C276.14 107.416 274.522 106.054 272.255 106.054C269.908 106.054 268.361 107.416 268.212 109.613H269.697C269.82 108.251 270.77 107.416 272.193 107.416C273.626 107.416 274.575 108.269 274.575 109.561C274.575 110.888 273.582 111.819 272.158 111.819H270.778V113.12ZM284.938 119H286.353V116.319H288.295V114.957H286.361V111.354H284.955V114.975H280.798V114.86L285.043 106.317H283.461L279.154 115.062V116.319H284.938V119ZM294.579 112.303C295.449 112.303 296.17 111.564 296.17 110.677C296.17 109.789 295.449 109.051 294.579 109.051C293.709 109.051 292.988 109.789 292.988 110.677C292.988 111.564 293.709 112.303 294.579 112.303ZM294.122 121.918L295.713 115.669H293.691L292.549 121.918H294.122ZM206.161 140.158C208.367 140.158 209.809 138.567 209.809 136.115V134.34C209.809 131.896 208.367 130.306 206.161 130.306C204.781 130.306 203.771 130.895 203.349 131.94H203.19V126.72H201.67V140H203.138V138.541H203.305C203.797 139.596 204.799 140.158 206.161 140.158ZM205.722 138.796C204.157 138.796 203.155 137.671 203.155 135.904V134.533C203.155 132.775 204.157 131.65 205.722 131.65C207.304 131.65 208.306 132.775 208.306 134.533V135.904C208.306 137.662 207.304 138.796 205.722 138.796ZM232.467 137.108V135.658H223.168V137.108H232.467ZM232.467 133.101V131.65H223.168V133.101H232.467ZM245.738 131.387C245.738 133.707 247.399 135.412 249.667 135.412C250.467 135.412 251.363 135.034 251.741 134.524L251.873 134.595C251.794 134.735 251.732 134.85 251.442 135.245L247.988 140H249.764C249.86 139.868 252.488 136.177 252.603 135.983C253.851 134.173 254.36 132.828 254.36 131.387C254.36 128.855 252.559 127.054 250.054 127.054C247.549 127.054 245.738 128.873 245.738 131.387ZM250.045 128.434C251.645 128.434 252.857 129.682 252.857 131.308C252.857 132.942 251.645 134.19 250.045 134.19C248.454 134.19 247.241 132.942 247.241 131.308C247.241 129.682 248.454 128.434 250.045 128.434ZM256.865 131.387C256.865 133.707 258.526 135.412 260.794 135.412C261.594 135.412 262.49 135.034 262.868 134.524L263 134.595C262.921 134.735 262.859 134.85 262.569 135.245L259.115 140H260.891C260.987 139.868 263.615 136.177 263.729 135.983C264.978 134.173 265.487 132.828 265.487 131.387C265.487 128.855 263.686 127.054 261.181 127.054C258.676 127.054 256.865 128.873 256.865 131.387ZM261.172 128.434C262.771 128.434 263.984 129.682 263.984 131.308C263.984 132.942 262.771 134.19 261.172 134.19C259.581 134.19 258.368 132.942 258.368 131.308C258.368 129.682 259.581 128.434 261.172 128.434ZM272.325 133.303C273.195 133.303 273.916 132.564 273.916 131.677C273.916 130.789 273.195 130.051 272.325 130.051C271.455 130.051 270.734 130.789 270.734 131.677C270.734 132.564 271.455 133.303 272.325 133.303ZM271.868 142.918L273.459 136.669H271.438L270.295 142.918H271.868ZM209.729 161V159.761H206.583V147.72H201.854V148.959H205.089V159.761H201.828V161H209.729ZM216.796 152.571C218.334 152.571 219.266 153.67 219.266 155.489H214.247C214.247 153.661 215.205 152.571 216.796 152.571ZM219.266 158.539C219.002 159.374 218.114 159.884 216.91 159.884C215.284 159.884 214.247 158.759 214.247 157.01V156.623H220.742V155.691C220.742 152.932 219.283 151.288 216.805 151.288C214.379 151.288 212.771 152.94 212.771 155.454V156.887C212.771 159.603 214.291 161.176 216.91 161.176C218.914 161.176 220.426 160.112 220.716 158.539H219.266ZM226.191 148.906V151.49H223.651V152.765H226.191V158.161C226.191 160.147 227.29 161.044 229.654 161.044C230.111 161.044 231.271 161 231.509 160.956V159.69C231.254 159.717 230.296 159.743 229.76 159.743C228.415 159.743 227.686 159.181 227.686 158.144V152.765H231.535V151.49H227.668V148.906H226.191ZM254.044 154.435C253.798 152.475 252.356 151.279 250.247 151.279C247.654 151.279 246.143 152.87 246.143 155.604V156.852C246.143 159.585 247.654 161.176 250.247 161.176C252.356 161.176 253.807 159.989 254.044 158.047H252.567C252.383 159.137 251.451 159.831 250.221 159.831C248.56 159.831 247.637 158.706 247.637 156.658V155.797C247.637 153.749 248.56 152.615 250.221 152.615C251.451 152.615 252.383 153.318 252.567 154.435H254.044ZM276.975 158.108V156.658H267.676V158.108H276.975ZM276.975 154.101V152.65H267.676V154.101H276.975ZM293.612 161.167C295.001 161.167 296.038 160.596 296.495 159.576H296.645V161.009H298.068V154.479C298.068 152.492 296.785 151.35 294.544 151.35C292.593 151.35 291.116 152.396 290.94 153.925H292.408C292.654 153.107 293.428 152.642 294.526 152.642C295.854 152.642 296.583 153.301 296.583 154.496V155.357L293.964 155.489C291.793 155.604 290.58 156.605 290.58 158.293C290.58 160.024 291.793 161.167 293.612 161.167ZM294.043 159.857C292.839 159.857 292.092 159.242 292.092 158.24C292.092 157.247 292.795 156.676 294.131 156.614L296.583 156.5V157.625C296.583 158.899 295.484 159.857 294.043 159.857ZM317.519 156.069H321.518V154.681H317.519V150.699H316.147V154.681H312.148V156.069H316.147V160.042H317.519V156.069ZM339.685 161.158C341.891 161.158 343.332 159.567 343.332 157.115V155.34C343.332 152.896 341.891 151.306 339.685 151.306C338.305 151.306 337.294 151.895 336.872 152.94H336.714V147.72H335.193V161H336.661V159.541H336.828C337.32 160.596 338.322 161.158 339.685 161.158ZM339.245 159.796C337.681 159.796 336.679 158.671 336.679 156.904V155.533C336.679 153.775 337.681 152.65 339.245 152.65C340.827 152.65 341.829 153.775 341.829 155.533V156.904C341.829 158.662 340.827 159.796 339.245 159.796ZM350.214 154.303C351.084 154.303 351.805 153.564 351.805 152.677C351.805 151.789 351.084 151.051 350.214 151.051C349.344 151.051 348.623 151.789 348.623 152.677C348.623 153.564 349.344 154.303 350.214 154.303ZM349.757 163.918L351.348 157.669H349.326L348.184 163.918H349.757Z" fill="black"/>
<path d="M261.257 23.4639L264.746 33H266.39L269.87 23.4639H268.279L265.634 31.4004H265.52L262.856 23.4639H261.257ZM275.724 33.167C277.112 33.167 278.149 32.5957 278.606 31.5762H278.756V33.0088H280.18V26.4785C280.18 24.4922 278.896 23.3496 276.655 23.3496C274.704 23.3496 273.228 24.3955 273.052 25.9248H274.52C274.766 25.1074 275.539 24.6416 276.638 24.6416C277.965 24.6416 278.694 25.3008 278.694 26.4961V27.3574L276.075 27.4893C273.904 27.6035 272.691 28.6055 272.691 30.293C272.691 32.0244 273.904 33.167 275.724 33.167ZM276.154 31.8574C274.95 31.8574 274.203 31.2422 274.203 30.2402C274.203 29.2471 274.906 28.6758 276.242 28.6143L278.694 28.5V29.625C278.694 30.8994 277.596 31.8574 276.154 31.8574ZM287.422 25.8984V23.4639H283.862V24.6592H285.98V31.8047H284.056V33H290.393V31.8047H287.439V28.7285C287.439 26.3027 288.688 24.8438 290.797 24.8438C291.315 24.8438 291.931 24.9492 292.37 25.1074V23.4287C292.054 23.2969 291.535 23.2178 290.99 23.2178C289.153 23.2178 287.967 24.1318 287.615 25.8984H287.422ZM299.111 21.126C299.814 21.126 300.351 20.5986 300.351 19.8955C300.351 19.2012 299.814 18.6738 299.111 18.6738C298.408 18.6738 297.872 19.2012 297.872 19.8955C297.872 20.5986 298.408 21.126 299.111 21.126ZM303.11 33V31.7607H299.955V23.4639H295.235V24.7031H298.479V31.7607H295.209V33H303.11ZM309.104 33.167C310.493 33.167 311.53 32.5957 311.987 31.5762H312.137V33.0088H313.561V26.4785C313.561 24.4922 312.277 23.3496 310.036 23.3496C308.085 23.3496 306.608 24.3955 306.433 25.9248H307.9C308.146 25.1074 308.92 24.6416 310.019 24.6416C311.346 24.6416 312.075 25.3008 312.075 26.4961V27.3574L309.456 27.4893C307.285 27.6035 306.072 28.6055 306.072 30.293C306.072 32.0244 307.285 33.167 309.104 33.167ZM309.535 31.8574C308.331 31.8574 307.584 31.2422 307.584 30.2402C307.584 29.2471 308.287 28.6758 309.623 28.6143L312.075 28.5V29.625C312.075 30.8994 310.977 31.8574 309.535 31.8574ZM321.796 33.1582C324.002 33.1582 325.443 31.5674 325.443 29.1152V27.3398C325.443 24.8965 324.002 23.3057 321.796 23.3057C320.416 23.3057 319.405 23.8945 318.983 24.9404H318.825V19.7197H317.305V33H318.772V31.541H318.939C319.432 32.5957 320.434 33.1582 321.796 33.1582ZM321.356 31.7959C319.792 31.7959 318.79 30.6709 318.79 28.9043V27.5332C318.79 25.7754 319.792 24.6504 321.356 24.6504C322.938 24.6504 323.94 25.7754 323.94 27.5332V28.9043C323.94 30.6621 322.938 31.7959 321.356 31.7959ZM336.491 33V31.7607H333.345V19.7197H328.616V20.959H331.851V31.7607H328.59V33H336.491ZM343.558 24.5713C345.096 24.5713 346.027 25.6699 346.027 27.4893H341.009C341.009 25.6611 341.967 24.5713 343.558 24.5713ZM346.027 30.5391C345.764 31.374 344.876 31.8838 343.672 31.8838C342.046 31.8838 341.009 30.7588 341.009 29.0098V28.623H347.504V27.6914C347.504 24.9316 346.045 23.2881 343.566 23.2881C341.141 23.2881 339.532 24.9404 339.532 27.4541V28.8867C339.532 31.6025 341.053 33.1758 343.672 33.1758C345.676 33.1758 347.188 32.1123 347.478 30.5391H346.027ZM351.107 26.0391C351.107 27.3926 351.96 28.2627 353.683 28.6582L355.098 28.9834C356.311 29.2559 356.776 29.6602 356.776 30.416C356.776 31.3301 355.95 31.9189 354.649 31.9189C353.419 31.9189 352.575 31.4092 352.355 30.5303H350.835C351.002 32.165 352.435 33.1758 354.597 33.1758C356.855 33.1758 358.323 32.0332 358.323 30.2754C358.323 28.8955 357.479 28.0869 355.625 27.665L354.28 27.3574C353.085 27.0938 352.593 26.6807 352.593 25.9512C352.593 25.0811 353.375 24.5186 354.588 24.5186C355.704 24.5186 356.504 25.0283 356.68 25.8633H358.121C357.945 24.2725 356.601 23.2793 354.614 23.2793C352.514 23.2793 351.107 24.3867 351.107 26.0391Z" fill="#AAAAAA"/>
<path d="M358.729 138V136.761H355.583V124.72H350.854V125.959H354.089V136.761H350.828V138H358.729ZM365.857 126.126C366.561 126.126 367.097 125.599 367.097 124.896C367.097 124.201 366.561 123.674 365.857 123.674C365.154 123.674 364.618 124.201 364.618 124.896C364.618 125.599 365.154 126.126 365.857 126.126ZM369.856 138V136.761H366.701V128.464H361.981V129.703H365.225V136.761H361.955V138H369.856ZM375.191 125.906V128.49H372.651V129.765H375.191V135.161C375.191 137.147 376.29 138.044 378.654 138.044C379.111 138.044 380.271 138 380.509 137.956V136.69C380.254 136.717 379.296 136.743 378.76 136.743C377.415 136.743 376.686 136.181 376.686 135.144V129.765H380.535V128.49H376.668V125.906H375.191ZM388.05 129.571C389.588 129.571 390.52 130.67 390.52 132.489H385.501C385.501 130.661 386.459 129.571 388.05 129.571ZM390.52 135.539C390.256 136.374 389.368 136.884 388.164 136.884C386.538 136.884 385.501 135.759 385.501 134.01V133.623H391.996V132.691C391.996 129.932 390.537 128.288 388.059 128.288C385.633 128.288 384.024 129.94 384.024 132.454V133.887C384.024 136.603 385.545 138.176 388.164 138.176C390.168 138.176 391.68 137.112 391.97 135.539H390.52ZM398.676 130.898V128.464H395.116V129.659H397.234V136.805H395.31V138H401.646V136.805H398.693V133.729C398.693 131.303 399.941 129.844 402.051 129.844C402.569 129.844 403.185 129.949 403.624 130.107V128.429C403.308 128.297 402.789 128.218 402.244 128.218C400.407 128.218 399.221 129.132 398.869 130.898H398.676ZM409.231 138.167C410.62 138.167 411.657 137.596 412.114 136.576H412.264V138.009H413.688V131.479C413.688 129.492 412.404 128.35 410.163 128.35C408.212 128.35 406.735 129.396 406.56 130.925H408.027C408.273 130.107 409.047 129.642 410.146 129.642C411.473 129.642 412.202 130.301 412.202 131.496V132.357L409.583 132.489C407.412 132.604 406.199 133.605 406.199 135.293C406.199 137.024 407.412 138.167 409.231 138.167ZM409.662 136.857C408.458 136.857 407.711 136.242 407.711 135.24C407.711 134.247 408.414 133.676 409.75 133.614L412.202 133.5V134.625C412.202 135.899 411.104 136.857 409.662 136.857ZM425.491 138V136.761H422.345V124.72H417.616V125.959H420.851V136.761H417.59V138H425.491ZM428.98 131.039C428.98 132.393 429.833 133.263 431.556 133.658L432.971 133.983C434.184 134.256 434.649 134.66 434.649 135.416C434.649 136.33 433.823 136.919 432.522 136.919C431.292 136.919 430.448 136.409 430.229 135.53H428.708C428.875 137.165 430.308 138.176 432.47 138.176C434.729 138.176 436.196 137.033 436.196 135.275C436.196 133.896 435.353 133.087 433.498 132.665L432.153 132.357C430.958 132.094 430.466 131.681 430.466 130.951C430.466 130.081 431.248 129.519 432.461 129.519C433.577 129.519 434.377 130.028 434.553 130.863H435.994C435.818 129.272 434.474 128.279 432.487 128.279C430.387 128.279 428.98 129.387 428.98 131.039Z" fill="#AAAAAA"/>
<path d="M254.505 65.9273C254.465 66.2005 254.654 66.4545 254.927 66.4947L259.379 67.1494C259.653 67.1896 259.907 67.0007 259.947 66.7275C259.987 66.4543 259.798 66.2002 259.525 66.16L255.567 65.5781L256.149 61.6206C256.19 61.3474 256.001 61.0934 255.727 61.0532C255.454 61.013 255.2 61.2019 255.16 61.4751L254.505 65.9273ZM293.702 36.5988L254.702 65.5988L255.298 66.4012L294.298 37.4012L293.702 36.5988Z" fill="#AAAAAA"/>
<path d="M254.501 88.0367C254.522 88.3121 254.761 88.5189 255.037 88.4986L259.525 88.168C259.8 88.1477 260.007 87.908 259.986 87.6326C259.966 87.3572 259.726 87.1504 259.451 87.1707L255.462 87.4646L255.168 83.4754C255.148 83.2 254.908 82.9932 254.633 83.0135C254.357 83.0338 254.15 83.2735 254.171 83.5489L254.501 88.0367ZM298.621 36.6734L254.621 87.6734L255.379 88.3266L299.379 37.3266L298.621 36.6734Z" fill="#AAAAAA"/>
<path d="M22.8213 71.5332C22.8213 69.7754 23.832 68.6504 25.4053 68.6504C26.9697 68.6504 27.9805 69.7754 27.9805 71.5332V72.9043C27.9805 74.6709 26.9697 75.7959 25.4053 75.7959C23.832 75.7959 22.8213 74.6621 22.8213 72.9043V71.5332ZM27.9893 75.541V77H29.457V63.7197H27.9365V68.9404H27.7783C27.3652 67.8945 26.3457 67.3057 24.9658 67.3057C22.7598 67.3057 21.3184 68.8965 21.3184 71.3398V73.1152C21.3184 75.5674 22.7598 77.1582 24.9658 77.1582C26.3281 77.1582 27.3301 76.5957 27.8223 75.541H27.9893ZM36.7959 68.5713C38.334 68.5713 39.2656 69.6699 39.2656 71.4893H34.2471C34.2471 69.6611 35.2051 68.5713 36.7959 68.5713ZM39.2656 74.5391C39.002 75.374 38.1143 75.8838 36.9102 75.8838C35.2842 75.8838 34.2471 74.7588 34.2471 73.0098V72.623H40.7422V71.6914C40.7422 68.9316 39.2832 67.2881 36.8047 67.2881C34.3789 67.2881 32.7705 68.9404 32.7705 71.4541V72.8867C32.7705 75.6025 34.291 77.1758 36.9102 77.1758C38.9141 77.1758 40.4258 76.1123 40.7158 74.5391H39.2656ZM51.79 70.4346C51.5439 68.4746 50.1025 67.2793 47.9932 67.2793C45.4004 67.2793 43.8887 68.8701 43.8887 71.6035V72.8516C43.8887 75.585 45.4004 77.1758 47.9932 77.1758C50.1025 77.1758 51.5527 75.9893 51.79 74.0469H50.3135C50.1289 75.1367 49.1973 75.8311 47.9668 75.8311C46.3057 75.8311 45.3828 74.7061 45.3828 72.6582V71.7969C45.3828 69.749 46.3057 68.6152 47.9668 68.6152C49.1973 68.6152 50.1289 69.3184 50.3135 70.4346H51.79ZM63.1104 77V75.7607H59.9639V63.7197H55.2354V64.959H58.4697V75.7607H55.209V77H63.1104ZM69.1045 77.167C70.4932 77.167 71.5303 76.5957 71.9873 75.5762H72.1367V77.0088H73.5605V70.4785C73.5605 68.4922 72.2773 67.3496 70.0361 67.3496C68.085 67.3496 66.6084 68.3955 66.4326 69.9248H67.9004C68.1465 69.1074 68.9199 68.6416 70.0186 68.6416C71.3457 68.6416 72.0752 69.3008 72.0752 70.4961V71.3574L69.4561 71.4893C67.2852 71.6035 66.0723 72.6055 66.0723 74.293C66.0723 76.0244 67.2852 77.167 69.1045 77.167ZM69.5352 75.8574C68.3311 75.8574 67.584 75.2422 67.584 74.2402C67.584 73.2471 68.2871 72.6758 69.623 72.6143L72.0752 72.5V73.625C72.0752 74.8994 70.9766 75.8574 69.5352 75.8574ZM80.8027 69.8984V67.4639H77.2432V68.6592H79.3613V75.8047H77.4365V77H83.7734V75.8047H80.8203V72.7285C80.8203 70.3027 82.0684 68.8438 84.1777 68.8438C84.6963 68.8438 85.3115 68.9492 85.751 69.1074V67.4287C85.4346 67.2969 84.916 67.2178 84.3711 67.2178C82.5342 67.2178 81.3477 68.1318 80.9961 69.8984H80.8027ZM91.3584 77.167C92.7471 77.167 93.7842 76.5957 94.2412 75.5762H94.3906V77.0088H95.8145V70.4785C95.8145 68.4922 94.5312 67.3496 92.29 67.3496C90.3389 67.3496 88.8623 68.3955 88.6865 69.9248H90.1543C90.4004 69.1074 91.1738 68.6416 92.2725 68.6416C93.5996 68.6416 94.3291 69.3008 94.3291 70.4961V71.3574L91.71 71.4893C89.5391 71.6035 88.3262 72.6055 88.3262 74.293C88.3262 76.0244 89.5391 77.167 91.3584 77.167ZM91.7891 75.8574C90.585 75.8574 89.8379 75.2422 89.8379 74.2402C89.8379 73.2471 90.541 72.6758 91.877 72.6143L94.3291 72.5V73.625C94.3291 74.8994 93.2305 75.8574 91.7891 75.8574ZM101.826 64.9062V67.4902H99.2861V68.7646H101.826V74.1611C101.826 76.1475 102.925 77.0439 105.289 77.0439C105.746 77.0439 106.906 77 107.144 76.9561V75.6904C106.889 75.7168 105.931 75.7432 105.395 75.7432C104.05 75.7432 103.32 75.1807 103.32 74.1436V68.7646H107.17V67.4902H103.303V64.9062H101.826ZM114.746 65.126C115.449 65.126 115.985 64.5986 115.985 63.8955C115.985 63.2012 115.449 62.6738 114.746 62.6738C114.043 62.6738 113.507 63.2012 113.507 63.8955C113.507 64.5986 114.043 65.126 114.746 65.126ZM118.745 77V75.7607H115.59V67.4639H110.87V68.7031H114.113V75.7607H110.844V77H118.745ZM125.706 77.1758C128.229 77.1758 129.837 75.5322 129.837 72.957V71.5156C129.837 68.9404 128.229 67.2969 125.706 67.2969C123.184 67.2969 121.575 68.9404 121.575 71.5156V72.957C121.575 75.5322 123.184 77.1758 125.706 77.1758ZM125.706 68.6152C127.341 68.6152 128.36 69.7754 128.36 71.6475V72.8164C128.36 74.6973 127.341 75.8486 125.706 75.8486C124.071 75.8486 123.052 74.6973 123.052 72.8164V71.6475C123.052 69.7754 124.071 68.6152 125.706 68.6152ZM132.931 77H134.425V71.3838C134.425 69.7578 135.479 68.6592 137.053 68.6592C138.538 68.6592 139.241 69.4678 139.241 71.1904V77H140.735V70.8125C140.735 68.5273 139.61 67.2881 137.536 67.2881C136.086 67.2881 134.996 67.9561 134.486 69.1426H134.363V67.4639H132.931V77ZM22.0918 91.0391C22.0918 92.3926 22.9443 93.2627 24.667 93.6582L26.082 93.9834C27.2949 94.2559 27.7607 94.6602 27.7607 95.416C27.7607 96.3301 26.9346 96.9189 25.6338 96.9189C24.4033 96.9189 23.5596 96.4092 23.3398 95.5303H21.8193C21.9863 97.165 23.4189 98.1758 25.5811 98.1758C27.8398 98.1758 29.3076 97.0332 29.3076 95.2754C29.3076 93.8955 28.4639 93.0869 26.6094 92.665L25.2646 92.3574C24.0693 92.0938 23.5771 91.6807 23.5771 90.9512C23.5771 90.0811 24.3594 89.5186 25.5723 89.5186C26.6885 89.5186 27.4883 90.0283 27.6641 90.8633H29.1055C28.9297 89.2725 27.585 88.2793 25.5986 88.2793C23.498 88.2793 22.0918 89.3867 22.0918 91.0391ZM35.0645 85.9062V88.4902H32.5244V89.7646H35.0645V95.1611C35.0645 97.1475 36.1631 98.0439 38.5273 98.0439C38.9844 98.0439 40.1445 98 40.3818 97.9561V96.6904C40.127 96.7168 39.1689 96.7432 38.6328 96.7432C37.2881 96.7432 36.5586 96.1807 36.5586 95.1436V89.7646H40.4082V88.4902H36.541V85.9062H35.0645ZM46.8506 98.167C48.2393 98.167 49.2764 97.5957 49.7334 96.5762H49.8828V98.0088H51.3066V91.4785C51.3066 89.4922 50.0234 88.3496 47.7822 88.3496C45.8311 88.3496 44.3545 89.3955 44.1787 90.9248H45.6465C45.8926 90.1074 46.666 89.6416 47.7646 89.6416C49.0918 89.6416 49.8213 90.3008 49.8213 91.4961V92.3574L47.2021 92.4893C45.0312 92.6035 43.8184 93.6055 43.8184 95.293C43.8184 97.0244 45.0312 98.167 46.8506 98.167ZM47.2812 96.8574C46.0771 96.8574 45.3301 96.2422 45.3301 95.2402C45.3301 94.2471 46.0332 93.6758 47.3691 93.6143L49.8213 93.5V94.625C49.8213 95.8994 48.7227 96.8574 47.2812 96.8574ZM57.3184 85.9062V88.4902H54.7783V89.7646H57.3184V95.1611C57.3184 97.1475 58.417 98.0439 60.7812 98.0439C61.2383 98.0439 62.3984 98 62.6357 97.9561V96.6904C62.3809 96.7168 61.4229 96.7432 60.8867 96.7432C59.542 96.7432 58.8125 96.1807 58.8125 95.1436V89.7646H62.6621V88.4902H58.7949V85.9062H57.3184ZM70.1768 89.5713C71.7148 89.5713 72.6465 90.6699 72.6465 92.4893H67.6279C67.6279 90.6611 68.5859 89.5713 70.1768 89.5713ZM72.6465 95.5391C72.3828 96.374 71.4951 96.8838 70.291 96.8838C68.665 96.8838 67.6279 95.7588 67.6279 94.0098V93.623H74.123V92.6914C74.123 89.9316 72.6641 88.2881 70.1855 88.2881C67.7598 88.2881 66.1514 89.9404 66.1514 92.4541V93.8867C66.1514 96.6025 67.6719 98.1758 70.291 98.1758C72.2949 98.1758 73.8066 97.1123 74.0967 95.5391H72.6465ZM85.7949 90.9775C85.7949 89.2109 85.1006 88.2881 83.7734 88.2881C82.8154 88.2881 82.0508 88.8682 81.8047 89.7822H81.6465C81.4443 88.8418 80.8115 88.2881 79.915 88.2881C79.0186 88.2881 78.333 88.8506 78.0957 89.8086H77.9375V88.4639H76.6016V98H77.9463V91.5664C77.9463 90.3799 78.4736 89.6504 79.3174 89.6504C80.126 89.6504 80.5479 90.2568 80.5479 91.4082V98H81.8838V91.5664C81.8838 90.3799 82.3936 89.6504 83.2285 89.6504C84.0283 89.6504 84.4502 90.2568 84.4502 91.417V98H85.7949V90.9775ZM92.4307 89.5713C93.9688 89.5713 94.9004 90.6699 94.9004 92.4893H89.8818C89.8818 90.6611 90.8398 89.5713 92.4307 89.5713ZM94.9004 95.5391C94.6367 96.374 93.749 96.8838 92.5449 96.8838C90.9189 96.8838 89.8818 95.7588 89.8818 94.0098V93.623H96.377V92.6914C96.377 89.9316 94.918 88.2881 92.4395 88.2881C90.0137 88.2881 88.4053 89.9404 88.4053 92.4541V93.8867C88.4053 96.6025 89.9258 98.1758 92.5449 98.1758C94.5488 98.1758 96.0605 97.1123 96.3506 95.5391H94.9004ZM99.5498 98H101.044V92.3838C101.044 90.7578 102.099 89.6592 103.672 89.6592C105.157 89.6592 105.86 90.4678 105.86 92.1904V98H107.354V91.8125C107.354 89.5273 106.229 88.2881 104.155 88.2881C102.705 88.2881 101.615 88.9561 101.105 90.1426H100.982V88.4639H99.5498V98ZM112.953 85.9062V88.4902H110.413V89.7646H112.953V95.1611C112.953 97.1475 114.052 98.0439 116.416 98.0439C116.873 98.0439 118.033 98 118.271 97.9561V96.6904C118.016 96.7168 117.058 96.7432 116.521 96.7432C115.177 96.7432 114.447 96.1807 114.447 95.1436V89.7646H118.297V88.4902H114.43V85.9062H112.953Z" fill="#AAAAAA"/>
<path d="M24.5967 124.167C25.9854 124.167 27.0225 123.596 27.4795 122.576H27.6289V124.009H29.0527V117.479C29.0527 115.492 27.7695 114.35 25.5283 114.35C23.5771 114.35 22.1006 115.396 21.9248 116.925H23.3926C23.6387 116.107 24.4121 115.642 25.5107 115.642C26.8379 115.642 27.5674 116.301 27.5674 117.496V118.357L24.9482 118.489C22.7773 118.604 21.5645 119.605 21.5645 121.293C21.5645 123.024 22.7773 124.167 24.5967 124.167ZM25.0273 122.857C23.8232 122.857 23.0762 122.242 23.0762 121.24C23.0762 120.247 23.7793 119.676 25.1152 119.614L27.5674 119.5V120.625C27.5674 121.899 26.4688 122.857 25.0273 122.857ZM33.2188 117.039C33.2188 118.393 34.0713 119.263 35.7939 119.658L37.209 119.983C38.4219 120.256 38.8877 120.66 38.8877 121.416C38.8877 122.33 38.0615 122.919 36.7607 122.919C35.5303 122.919 34.6865 122.409 34.4668 121.53H32.9463C33.1133 123.165 34.5459 124.176 36.708 124.176C38.9668 124.176 40.4346 123.033 40.4346 121.275C40.4346 119.896 39.5908 119.087 37.7363 118.665L36.3916 118.357C35.1963 118.094 34.7041 117.681 34.7041 116.951C34.7041 116.081 35.4863 115.519 36.6992 115.519C37.8154 115.519 38.6152 116.028 38.791 116.863H40.2324C40.0566 115.272 38.7119 114.279 36.7256 114.279C34.625 114.279 33.2188 115.387 33.2188 117.039ZM44.3457 117.039C44.3457 118.393 45.1982 119.263 46.9209 119.658L48.3359 119.983C49.5488 120.256 50.0146 120.66 50.0146 121.416C50.0146 122.33 49.1885 122.919 47.8877 122.919C46.6572 122.919 45.8135 122.409 45.5938 121.53H44.0732C44.2402 123.165 45.6729 124.176 47.835 124.176C50.0938 124.176 51.5615 123.033 51.5615 121.275C51.5615 119.896 50.7178 119.087 48.8633 118.665L47.5186 118.357C46.3232 118.094 45.8311 117.681 45.8311 116.951C45.8311 116.081 46.6133 115.519 47.8262 115.519C48.9424 115.519 49.7422 116.028 49.918 116.863H51.3594C51.1836 115.272 49.8389 114.279 47.8525 114.279C45.752 114.279 44.3457 115.387 44.3457 117.039ZM59.1113 112.126C59.8145 112.126 60.3506 111.599 60.3506 110.896C60.3506 110.201 59.8145 109.674 59.1113 109.674C58.4082 109.674 57.8721 110.201 57.8721 110.896C57.8721 111.599 58.4082 112.126 59.1113 112.126ZM63.1104 124V122.761H59.9551V114.464H55.2354V115.703H58.4785V122.761H55.209V124H63.1104ZM67.2324 119.843V118.533C67.2324 116.784 68.252 115.65 69.834 115.65C71.4072 115.65 72.418 116.775 72.418 118.533V119.843C72.418 121.601 71.4072 122.734 69.834 122.734C68.252 122.734 67.2324 121.592 67.2324 119.843ZM69.79 127.577C72.374 127.577 73.9033 126.241 73.9033 124V114.464H72.4268V115.94H72.2598C71.8467 114.912 70.8008 114.306 69.4209 114.306C67.1885 114.306 65.7295 115.888 65.7295 118.34V120.054C65.7295 122.497 67.1797 124.088 69.3857 124.088C70.7744 124.088 71.8291 123.481 72.251 122.479H72.4092V123.965C72.4092 125.494 71.4863 126.338 69.8164 126.338C68.542 126.338 67.584 125.819 67.3906 125.028H65.9141C66.1074 126.61 67.584 127.577 69.79 127.577ZM77.2959 124H78.79V118.384C78.79 116.758 79.8447 115.659 81.418 115.659C82.9033 115.659 83.6064 116.468 83.6064 118.19V124H85.1006V117.812C85.1006 115.527 83.9756 114.288 81.9014 114.288C80.4512 114.288 79.3613 114.956 78.8516 116.143H78.7285V114.464H77.2959V124ZM96.9219 116.978C96.9219 115.211 96.2275 114.288 94.9004 114.288C93.9424 114.288 93.1777 114.868 92.9316 115.782H92.7734C92.5713 114.842 91.9385 114.288 91.042 114.288C90.1455 114.288 89.46 114.851 89.2227 115.809H89.0645V114.464H87.7285V124H89.0732V117.566C89.0732 116.38 89.6006 115.65 90.4443 115.65C91.2529 115.65 91.6748 116.257 91.6748 117.408V124H93.0107V117.566C93.0107 116.38 93.5205 115.65 94.3555 115.65C95.1553 115.65 95.5771 116.257 95.5771 117.417V124H96.9219V116.978ZM103.558 115.571C105.096 115.571 106.027 116.67 106.027 118.489H101.009C101.009 116.661 101.967 115.571 103.558 115.571ZM106.027 121.539C105.764 122.374 104.876 122.884 103.672 122.884C102.046 122.884 101.009 121.759 101.009 120.01V119.623H107.504V118.691C107.504 115.932 106.045 114.288 103.566 114.288C101.141 114.288 99.5322 115.94 99.5322 118.454V119.887C99.5322 122.603 101.053 124.176 103.672 124.176C105.676 124.176 107.188 123.112 107.478 121.539H106.027ZM110.677 124H112.171V118.384C112.171 116.758 113.226 115.659 114.799 115.659C116.284 115.659 116.987 116.468 116.987 118.19V124H118.481V117.812C118.481 115.527 117.356 114.288 115.282 114.288C113.832 114.288 112.742 114.956 112.232 116.143H112.109V114.464H110.677V124ZM124.08 111.906V114.49H121.54V115.765H124.08V121.161C124.08 123.147 125.179 124.044 127.543 124.044C128 124.044 129.16 124 129.397 123.956V122.69C129.143 122.717 128.185 122.743 127.648 122.743C126.304 122.743 125.574 122.181 125.574 121.144V115.765H129.424V114.49H125.557V111.906H124.08ZM22.0918 138.039C22.0918 139.393 22.9443 140.263 24.667 140.658L26.082 140.983C27.2949 141.256 27.7607 141.66 27.7607 142.416C27.7607 143.33 26.9346 143.919 25.6338 143.919C24.4033 143.919 23.5596 143.409 23.3398 142.53H21.8193C21.9863 144.165 23.4189 145.176 25.5811 145.176C27.8398 145.176 29.3076 144.033 29.3076 142.275C29.3076 140.896 28.4639 140.087 26.6094 139.665L25.2646 139.357C24.0693 139.094 23.5771 138.681 23.5771 137.951C23.5771 137.081 24.3594 136.519 25.5723 136.519C26.6885 136.519 27.4883 137.028 27.6641 137.863H29.1055C28.9297 136.272 27.585 135.279 25.5986 135.279C23.498 135.279 22.0918 136.387 22.0918 138.039ZM35.0645 132.906V135.49H32.5244V136.765H35.0645V142.161C35.0645 144.147 36.1631 145.044 38.5273 145.044C38.9844 145.044 40.1445 145 40.3818 144.956V143.69C40.127 143.717 39.1689 143.743 38.6328 143.743C37.2881 143.743 36.5586 143.181 36.5586 142.144V136.765H40.4082V135.49H36.541V132.906H35.0645ZM46.8506 145.167C48.2393 145.167 49.2764 144.596 49.7334 143.576H49.8828V145.009H51.3066V138.479C51.3066 136.492 50.0234 135.35 47.7822 135.35C45.8311 135.35 44.3545 136.396 44.1787 137.925H45.6465C45.8926 137.107 46.666 136.642 47.7646 136.642C49.0918 136.642 49.8213 137.301 49.8213 138.496V139.357L47.2021 139.489C45.0312 139.604 43.8184 140.605 43.8184 142.293C43.8184 144.024 45.0312 145.167 46.8506 145.167ZM47.2812 143.857C46.0771 143.857 45.3301 143.242 45.3301 142.24C45.3301 141.247 46.0332 140.676 47.3691 140.614L49.8213 140.5V141.625C49.8213 142.899 48.7227 143.857 47.2812 143.857ZM57.3184 132.906V135.49H54.7783V136.765H57.3184V142.161C57.3184 144.147 58.417 145.044 60.7812 145.044C61.2383 145.044 62.3984 145 62.6357 144.956V143.69C62.3809 143.717 61.4229 143.743 60.8867 143.743C59.542 143.743 58.8125 143.181 58.8125 142.144V136.765H62.6621V135.49H58.7949V132.906H57.3184ZM70.1768 136.571C71.7148 136.571 72.6465 137.67 72.6465 139.489H67.6279C67.6279 137.661 68.5859 136.571 70.1768 136.571ZM72.6465 142.539C72.3828 143.374 71.4951 143.884 70.291 143.884C68.665 143.884 67.6279 142.759 67.6279 141.01V140.623H74.123V139.691C74.123 136.932 72.6641 135.288 70.1855 135.288C67.7598 135.288 66.1514 136.94 66.1514 139.454V140.887C66.1514 143.603 67.6719 145.176 70.291 145.176C72.2949 145.176 73.8066 144.112 74.0967 142.539H72.6465ZM85.7949 137.978C85.7949 136.211 85.1006 135.288 83.7734 135.288C82.8154 135.288 82.0508 135.868 81.8047 136.782H81.6465C81.4443 135.842 80.8115 135.288 79.915 135.288C79.0186 135.288 78.333 135.851 78.0957 136.809H77.9375V135.464H76.6016V145H77.9463V138.566C77.9463 137.38 78.4736 136.65 79.3174 136.65C80.126 136.65 80.5479 137.257 80.5479 138.408V145H81.8838V138.566C81.8838 137.38 82.3936 136.65 83.2285 136.65C84.0283 136.65 84.4502 137.257 84.4502 138.417V145H85.7949V137.978ZM92.4307 136.571C93.9688 136.571 94.9004 137.67 94.9004 139.489H89.8818C89.8818 137.661 90.8398 136.571 92.4307 136.571ZM94.9004 142.539C94.6367 143.374 93.749 143.884 92.5449 143.884C90.9189 143.884 89.8818 142.759 89.8818 141.01V140.623H96.377V139.691C96.377 136.932 94.918 135.288 92.4395 135.288C90.0137 135.288 88.4053 136.94 88.4053 139.454V140.887C88.4053 143.603 89.9258 145.176 92.5449 145.176C94.5488 145.176 96.0605 144.112 96.3506 142.539H94.9004ZM99.5498 145H101.044V139.384C101.044 137.758 102.099 136.659 103.672 136.659C105.157 136.659 105.86 137.468 105.86 139.19V145H107.354V138.812C107.354 136.527 106.229 135.288 104.155 135.288C102.705 135.288 101.615 135.956 101.105 137.143H100.982V135.464H99.5498V145ZM112.953 132.906V135.49H110.413V136.765H112.953V142.161C112.953 144.147 114.052 145.044 116.416 145.044C116.873 145.044 118.033 145 118.271 144.956V143.69C118.016 143.717 117.058 143.743 116.521 143.743C115.177 143.743 114.447 143.181 114.447 142.144V136.765H118.297V135.49H114.43V132.906H112.953Z" fill="#AAAAAA"/>
<path d="M195.328 71.8012C195.491 71.5784 195.442 71.2655 195.219 71.1024L191.589 68.4441C191.366 68.281 191.053 68.3293 190.89 68.5522C190.727 68.775 190.775 69.0878 190.998 69.251L194.225 71.6139L191.862 74.8414C191.699 75.0642 191.748 75.377 191.97 75.5402C192.193 75.7033 192.506 75.6549 192.669 75.4321L195.328 71.8012ZM140.076 80.4941L195 71.9999L194.848 71.0117L139.924 79.5059L140.076 80.4941Z" fill="#AAAAAA"/>
<path d="M195.328 116.295C195.491 116.073 195.442 115.76 195.219 115.597L191.589 112.938C191.366 112.775 191.053 112.824 190.89 113.046C190.727 113.269 190.775 113.582 190.998 113.745L194.225 116.108L191.862 119.336C191.699 119.558 191.748 119.871 191.97 120.034C192.193 120.197 192.506 120.149 192.669 119.926L195.328 116.295ZM140.076 124.988L195 116.494L194.848 115.506L139.924 124L140.076 124.988Z" fill="#AAAAAA"/>
<path d="M191.279 93.415C191.508 93.2609 191.569 92.9503 191.415 92.7211L188.905 88.9863C188.751 88.7571 188.44 88.6962 188.211 88.8502C187.982 89.0043 187.921 89.315 188.075 89.5441L190.306 92.8639L186.986 95.0953C186.757 95.2493 186.696 95.56 186.85 95.7892C187.004 96.0184 187.315 96.0793 187.544 95.9252L191.279 93.415ZM139.904 83.4907L190.904 93.4907L191.096 92.5093L140.096 82.5093L139.904 83.4907Z" fill="#AAAAAA"/>
<path d="M191.375 136.924C191.604 136.77 191.665 136.46 191.511 136.23L189.001 132.496C188.847 132.266 188.536 132.206 188.307 132.36C188.078 132.514 188.017 132.824 188.171 133.053L190.402 136.373L187.082 138.605C186.853 138.759 186.792 139.069 186.946 139.299C187.1 139.528 187.411 139.589 187.64 139.435L191.375 136.924ZM140 127L191 137L191.192 136.019L140.192 126.019L140 127Z" fill="#AAAAAA"/>
<path d="M268.644 132.649C268.45 132.846 268.452 133.162 268.649 133.356L271.853 136.515C272.05 136.709 272.367 136.707 272.56 136.51C272.754 136.314 272.752 135.997 272.555 135.803L269.707 132.995L272.515 130.147C272.709 129.95 272.707 129.633 272.51 129.44C272.314 129.246 271.997 129.248 271.803 129.445L268.644 132.649ZM339.961 131.999L268.996 132.5L269.004 133.5L339.968 132.999L339.961 131.999Z" fill="#AAAAAA"/>
<path d="M289.76 111.561C289.518 111.694 289.429 111.998 289.561 112.24L291.721 116.188C291.853 116.43 292.157 116.519 292.399 116.387C292.642 116.254 292.731 115.95 292.598 115.708L290.679 112.199L294.188 110.279C294.43 110.147 294.519 109.843 294.387 109.601C294.254 109.358 293.95 109.269 293.708 109.402L289.76 111.561ZM342.994 126.998L290.141 111.52L289.859 112.48L342.713 127.958L342.994 126.998Z" fill="#AAAAAA"/>
</g>
<defs>
<clipPath id="clip0_62_10">
<rect width="460" height="180" fill="white"/>
</clipPath>
</defs>
</svg>
