<svg width="900" height="340" viewBox="0 0 900 340" fill="none" xmlns="http://www.w3.org/2000/svg">
<rect width="900" height="340" fill="white"/>
<path d="M49.7295 80V78.7607H46.583V66.7197H41.8545V67.959H45.0889V78.7607H41.8281V80H49.7295ZM56.7959 71.5713C58.334 71.5713 59.2656 72.6699 59.2656 74.4893H54.2471C54.2471 72.6611 55.2051 71.5713 56.7959 71.5713ZM59.2656 77.5391C59.002 78.374 58.1143 78.8838 56.9102 78.8838C55.2842 78.8838 54.2471 77.7588 54.2471 76.0098V75.623H60.7422V74.6914C60.7422 71.9316 59.2832 70.2881 56.8047 70.2881C54.3789 70.2881 52.7705 71.9404 52.7705 74.4541V75.8867C52.7705 78.6025 54.291 80.1758 56.9102 80.1758C58.9141 80.1758 60.4258 79.1123 60.7158 77.5391H59.2656ZM66.1914 67.9062V70.4902H63.6514V71.7646H66.1914V77.1611C66.1914 79.1475 67.29 80.0439 69.6543 80.0439C70.1113 80.0439 71.2715 80 71.5088 79.9561V78.6904C71.2539 78.7168 70.2959 78.7432 69.7598 78.7432C68.415 78.7432 67.6855 78.1807 67.6855 77.1436V71.7646H71.5352V70.4902H67.668V67.9062H66.1914ZM86.1689 80H87.6631V74.3838C87.6631 72.7578 88.7178 71.6592 90.291 71.6592C91.7764 71.6592 92.4795 72.4678 92.4795 74.1904V80H93.9736V73.8125C93.9736 71.5273 92.8486 70.2881 90.7744 70.2881C89.3242 70.2881 88.2344 70.9561 87.7246 72.1426H87.6016V70.4639H86.1689V80ZM116.975 77.1084V75.6582H107.676V77.1084H116.975ZM116.975 73.1006V71.6504H107.676V73.1006H116.975ZM134.474 80.2549C137.049 80.2549 138.798 78.5146 138.798 75.9482C138.798 73.4521 137.163 71.7031 134.816 71.7031C133.7 71.7031 132.795 72.0986 132.171 72.8545H132.03L132.382 68.7148H138.095V67.3174H131.16L130.519 74.4805H131.986C132.487 73.584 133.428 73.0654 134.562 73.0654C136.188 73.0654 137.286 74.2432 137.286 75.9834C137.286 77.7061 136.196 78.8574 134.562 78.8574C133.076 78.8574 131.942 77.9434 131.802 76.6162H130.308C130.439 78.7959 132.109 80.2549 134.474 80.2549ZM145.706 73.3027C146.576 73.3027 147.297 72.5645 147.297 71.6768C147.297 70.7891 146.576 70.0508 145.706 70.0508C144.836 70.0508 144.115 70.7891 144.115 71.6768C144.115 72.5645 144.836 73.3027 145.706 73.3027ZM145.249 82.918L146.84 76.6689H144.818L143.676 82.918H145.249ZM49.7295 120V118.761H46.583V106.72H41.8545V107.959H45.0889V118.761H41.8281V120H49.7295ZM56.7959 111.571C58.334 111.571 59.2656 112.67 59.2656 114.489H54.2471C54.2471 112.661 55.2051 111.571 56.7959 111.571ZM59.2656 117.539C59.002 118.374 58.1143 118.884 56.9102 118.884C55.2842 118.884 54.2471 117.759 54.2471 116.01V115.623H60.7422V114.691C60.7422 111.932 59.2832 110.288 56.8047 110.288C54.3789 110.288 52.7705 111.94 52.7705 114.454V115.887C52.7705 118.603 54.291 120.176 56.9102 120.176C58.9141 120.176 60.4258 119.112 60.7158 117.539H59.2656ZM66.1914 107.906V110.49H63.6514V111.765H66.1914V117.161C66.1914 119.147 67.29 120.044 69.6543 120.044C70.1113 120.044 71.2715 120 71.5088 119.956V118.69C71.2539 118.717 70.2959 118.743 69.7598 118.743C68.415 118.743 67.6855 118.181 67.6855 117.144V111.765H71.5352V110.49H67.668V107.906H66.1914ZM85.7646 110.464L89.2539 120H90.8975L94.3779 110.464H92.7871L90.1416 118.4H90.0273L87.3643 110.464H85.7646ZM116.975 117.108V115.658H107.676V117.108H116.975ZM116.975 113.101V111.65H107.676V113.101H116.975ZM135.801 118.638V107.317H134.28L130.501 109.77V111.422L134.131 109.075H134.271V118.638H130.527V120H139.369V118.638H135.801ZM145.706 113.303C146.576 113.303 147.297 112.564 147.297 111.677C147.297 110.789 146.576 110.051 145.706 110.051C144.836 110.051 144.115 110.789 144.115 111.677C144.115 112.564 144.836 113.303 145.706 113.303ZM145.249 122.918L146.84 116.669H144.818L143.676 122.918H145.249ZM44.1572 160H45.6514V151.765H49.8438V150.49H45.6338V149.506C45.6338 148.548 46.3369 148.056 47.6641 148.056C48.2002 148.056 49.4307 148.091 49.8438 148.135V146.913C49.5273 146.869 48.2002 146.825 47.6465 146.825C45.2998 146.825 44.1572 147.687 44.1572 149.532V150.49H41.5996V151.765H44.1572V160ZM56.6904 160.176C59.2129 160.176 60.8213 158.532 60.8213 155.957V154.516C60.8213 151.94 59.2129 150.297 56.6904 150.297C54.168 150.297 52.5596 151.94 52.5596 154.516V155.957C52.5596 158.532 54.168 160.176 56.6904 160.176ZM56.6904 151.615C58.3252 151.615 59.3447 152.775 59.3447 154.647V155.816C59.3447 157.697 58.3252 158.849 56.6904 158.849C55.0557 158.849 54.0361 157.697 54.0361 155.816V154.647C54.0361 152.775 55.0557 151.615 56.6904 151.615ZM67.4219 152.898V150.464H63.8623V151.659H65.9805V158.805H64.0557V160H70.3926V158.805H67.4395V155.729C67.4395 153.303 68.6875 151.844 70.7969 151.844C71.3154 151.844 71.9307 151.949 72.3701 152.107V150.429C72.0537 150.297 71.5352 150.218 70.9902 150.218C69.1533 150.218 67.9668 151.132 67.6152 152.898H67.4219ZM88.1553 153.654C88.1553 156.643 89.0518 159.227 90.8008 161.213H92.2861C90.4668 158.655 89.7021 156.414 89.7021 153.654C89.7021 150.895 90.4668 148.653 92.2861 146.096H90.8008C89.0518 148.082 88.1553 150.675 88.1553 153.654ZM105.364 160V158.761H102.218V146.72H97.4893V147.959H100.724V158.761H97.4629V160H105.364ZM112.431 151.571C113.969 151.571 114.9 152.67 114.9 154.489H109.882C109.882 152.661 110.84 151.571 112.431 151.571ZM114.9 157.539C114.637 158.374 113.749 158.884 112.545 158.884C110.919 158.884 109.882 157.759 109.882 156.01V155.623H116.377V154.691C116.377 151.932 114.918 150.288 112.439 150.288C110.014 150.288 108.405 151.94 108.405 154.454V155.887C108.405 158.603 109.926 160.176 112.545 160.176C114.549 160.176 116.061 159.112 116.351 157.539H114.9ZM121.826 147.906V150.49H119.286V151.765H121.826V157.161C121.826 159.147 122.925 160.044 125.289 160.044C125.746 160.044 126.906 160 127.144 159.956V158.69C126.889 158.717 125.931 158.743 125.395 158.743C124.05 158.743 123.32 158.181 123.32 157.144V151.765H127.17V150.49H123.303V147.906H121.826ZM145.873 148.126C146.576 148.126 147.112 147.599 147.112 146.896C147.112 146.201 146.576 145.674 145.873 145.674C145.17 145.674 144.634 146.201 144.634 146.896C144.634 147.599 145.17 148.126 145.873 148.126ZM149.872 160V158.761H146.717V150.464H141.997V151.703H145.24V158.761H141.971V160H149.872ZM172.609 157.108V155.658H163.311V157.108H172.609ZM172.609 153.101V151.65H163.311V153.101H172.609ZM192.895 152.248C192.938 152.688 192.956 153.153 192.956 153.663C192.956 157.1 192.016 158.919 190.223 158.919C189.027 158.919 188.21 158.11 187.797 156.555L192.895 152.248ZM187.542 155.061C187.498 154.63 187.48 154.164 187.48 153.663C187.48 150.218 188.43 148.407 190.223 148.407C191.427 148.407 192.244 149.225 192.648 150.798L187.542 155.061ZM190.223 147.036C187.463 147.036 185.942 149.392 185.942 153.663C185.942 157.935 187.463 160.29 190.223 160.29C192.974 160.29 194.503 157.935 194.503 153.663C194.503 149.392 192.974 147.036 190.223 147.036ZM201.341 153.303C202.211 153.303 202.932 152.564 202.932 151.677C202.932 150.789 202.211 150.051 201.341 150.051C200.471 150.051 199.75 150.789 199.75 151.677C199.75 152.564 200.471 153.303 201.341 153.303ZM200.884 162.918L202.475 156.669H200.453L199.311 162.918H200.884ZM223.762 148.126C224.465 148.126 225.001 147.599 225.001 146.896C225.001 146.201 224.465 145.674 223.762 145.674C223.059 145.674 222.522 146.201 222.522 146.896C222.522 147.599 223.059 148.126 223.762 148.126ZM227.761 160V158.761H224.605V150.464H219.886V151.703H223.129V158.761H219.859V160H227.761ZM249.628 150.947V149.269L242.069 153.725V155.025L249.628 159.481V157.803L243.581 154.454V154.296L249.628 150.947ZM261.625 157.108V155.658H252.326V157.108H261.625ZM261.625 153.101V151.65H252.326V153.101H261.625ZM264.2 160H265.694V154.384C265.694 152.758 266.749 151.659 268.322 151.659C269.808 151.659 270.511 152.468 270.511 154.19V160H272.005V153.812C272.005 151.527 270.88 150.288 268.806 150.288C267.355 150.288 266.266 150.956 265.756 152.143H265.633V150.464H264.2V160ZM279.229 153.303C280.1 153.303 280.82 152.564 280.82 151.677C280.82 150.789 280.1 150.051 279.229 150.051C278.359 150.051 277.639 150.789 277.639 151.677C277.639 152.564 278.359 153.303 279.229 153.303ZM278.772 162.918L280.363 156.669H278.342L277.199 162.918H278.772ZM301.65 148.126C302.354 148.126 302.89 147.599 302.89 146.896C302.89 146.201 302.354 145.674 301.65 145.674C300.947 145.674 300.411 146.201 300.411 146.896C300.411 147.599 300.947 148.126 301.65 148.126ZM305.649 160V158.761H302.494V150.464H297.774V151.703H301.018V158.761H297.748V160H305.649ZM313.296 155.069H317.295V153.681H313.296V149.699H311.925V153.681H307.926V155.069H311.925V159.042H313.296V155.069ZM324.423 155.069H328.422V153.681H324.423V149.699H323.052V153.681H319.053V155.069H323.052V159.042H324.423V155.069ZM332.649 146.096C334.469 148.653 335.233 150.895 335.233 153.654C335.233 156.414 334.469 158.655 332.649 161.213H334.135C335.884 159.227 336.78 156.643 336.78 153.654C336.78 150.675 335.884 148.082 334.135 146.096H332.649ZM360.546 161.204V160H359.588C358.27 160 358.015 159.692 358.015 158.163V155.816C358.015 154.586 357.092 153.769 355.308 153.733V153.593C357.092 153.549 358.015 152.731 358.015 151.501V149.154C358.015 147.625 358.27 147.317 359.588 147.317H360.546V146.113H359.351C357.215 146.113 356.538 146.79 356.538 148.961V150.93C356.538 152.292 355.747 153.074 353.69 152.863V154.454C355.747 154.243 356.538 155.034 356.538 156.388V158.356C356.538 160.527 357.215 161.204 359.351 161.204H360.546ZM71.79 173.435C71.5439 171.475 70.1025 170.279 67.9932 170.279C65.4004 170.279 63.8887 171.87 63.8887 174.604V175.852C63.8887 178.585 65.4004 180.176 67.9932 180.176C70.1025 180.176 71.5527 178.989 71.79 177.047H70.3135C70.1289 178.137 69.1973 178.831 67.9668 178.831C66.3057 178.831 65.3828 177.706 65.3828 175.658V174.797C65.3828 172.749 66.3057 171.615 67.9668 171.615C69.1973 171.615 70.1289 172.318 70.3135 173.435H71.79ZM78.9443 180.176C81.4668 180.176 83.0752 178.532 83.0752 175.957V174.516C83.0752 171.94 81.4668 170.297 78.9443 170.297C76.4219 170.297 74.8135 171.94 74.8135 174.516V175.957C74.8135 178.532 76.4219 180.176 78.9443 180.176ZM78.9443 171.615C80.5791 171.615 81.5986 172.775 81.5986 174.647V175.816C81.5986 177.697 80.5791 178.849 78.9443 178.849C77.3096 178.849 76.29 177.697 76.29 175.816V174.647C76.29 172.775 77.3096 171.615 78.9443 171.615ZM86.1689 180H87.6631V174.384C87.6631 172.758 88.7178 171.659 90.291 171.659C91.7764 171.659 92.4795 172.468 92.4795 174.19V180H93.9736V173.812C93.9736 171.527 92.8486 170.288 90.7744 170.288C89.3242 170.288 88.2344 170.956 87.7246 172.143H87.6016V170.464H86.1689V180ZM97.7266 173.039C97.7266 174.393 98.5791 175.263 100.302 175.658L101.717 175.983C102.93 176.256 103.396 176.66 103.396 177.416C103.396 178.33 102.569 178.919 101.269 178.919C100.038 178.919 99.1943 178.409 98.9746 177.53H97.4541C97.6211 179.165 99.0537 180.176 101.216 180.176C103.475 180.176 104.942 179.033 104.942 177.275C104.942 175.896 104.099 175.087 102.244 174.665L100.899 174.357C99.7041 174.094 99.2119 173.681 99.2119 172.951C99.2119 172.081 99.9941 171.519 101.207 171.519C102.323 171.519 103.123 172.028 103.299 172.863H104.74C104.564 171.272 103.22 170.279 101.233 170.279C99.1328 170.279 97.7266 171.387 97.7266 173.039ZM112.325 180.176C114.848 180.176 116.456 178.532 116.456 175.957V174.516C116.456 171.94 114.848 170.297 112.325 170.297C109.803 170.297 108.194 171.94 108.194 174.516V175.957C108.194 178.532 109.803 180.176 112.325 180.176ZM112.325 171.615C113.96 171.615 114.979 172.775 114.979 174.647V175.816C114.979 177.697 113.96 178.849 112.325 178.849C110.69 178.849 109.671 177.697 109.671 175.816V174.647C109.671 172.775 110.69 171.615 112.325 171.615ZM127.618 180V178.761H124.472V166.72H119.743V167.959H122.978V178.761H119.717V180H127.618ZM134.685 171.571C136.223 171.571 137.154 172.67 137.154 174.489H132.136C132.136 172.661 133.094 171.571 134.685 171.571ZM137.154 177.539C136.891 178.374 136.003 178.884 134.799 178.884C133.173 178.884 132.136 177.759 132.136 176.01V175.623H138.631V174.691C138.631 171.932 137.172 170.288 134.693 170.288C132.268 170.288 130.659 171.94 130.659 174.454V175.887C130.659 178.603 132.18 180.176 134.799 180.176C136.803 180.176 138.314 179.112 138.604 177.539H137.154ZM145.706 180.053C146.576 180.053 147.297 179.323 147.297 178.427C147.297 177.539 146.576 176.81 145.706 176.81C144.836 176.81 144.115 177.539 144.115 178.427C144.115 179.323 144.836 180.053 145.706 180.053ZM160.999 180V178.761H157.853V166.72H153.124V167.959H156.358V178.761H153.098V180H160.999ZM167.96 180.176C170.482 180.176 172.091 178.532 172.091 175.957V174.516C172.091 171.94 170.482 170.297 167.96 170.297C165.438 170.297 163.829 171.94 163.829 174.516V175.957C163.829 178.532 165.438 180.176 167.96 180.176ZM167.96 171.615C169.595 171.615 170.614 172.775 170.614 174.647V175.816C170.614 177.697 169.595 178.849 167.96 178.849C166.325 178.849 165.306 177.697 165.306 175.816V174.647C165.306 172.775 166.325 171.615 167.96 171.615ZM176.248 175.843V174.533C176.248 172.784 177.268 171.65 178.85 171.65C180.423 171.65 181.434 172.775 181.434 174.533V175.843C181.434 177.601 180.423 178.734 178.85 178.734C177.268 178.734 176.248 177.592 176.248 175.843ZM178.806 183.577C181.39 183.577 182.919 182.241 182.919 180V170.464H181.442V171.94H181.275C180.862 170.912 179.816 170.306 178.437 170.306C176.204 170.306 174.745 171.888 174.745 174.34V176.054C174.745 178.497 176.195 180.088 178.401 180.088C179.79 180.088 180.845 179.481 181.267 178.479H181.425V179.965C181.425 181.494 180.502 182.338 178.832 182.338C177.558 182.338 176.6 181.819 176.406 181.028H174.93C175.123 182.61 176.6 183.577 178.806 183.577ZM188.298 173.654C188.298 176.643 189.194 179.227 190.943 181.213H192.429C190.609 178.655 189.845 176.414 189.845 173.654C189.845 170.895 190.609 168.653 192.429 166.096H190.943C189.194 168.082 188.298 170.675 188.298 173.654ZM197.034 170.464L200.523 180H202.167L205.647 170.464H204.057L201.411 178.4H201.297L198.634 170.464H197.034ZM210.253 166.096C212.072 168.653 212.837 170.895 212.837 173.654C212.837 176.414 212.072 178.655 210.253 181.213H211.738C213.487 179.227 214.384 176.643 214.384 173.654C214.384 170.675 213.487 168.082 211.738 166.096H210.253ZM223.595 173.303C224.465 173.303 225.186 172.564 225.186 171.677C225.186 170.789 224.465 170.051 223.595 170.051C222.725 170.051 222.004 170.789 222.004 171.677C222.004 172.564 222.725 173.303 223.595 173.303ZM223.138 182.918L224.729 176.669H222.707L221.564 182.918H223.138ZM63.5107 190.464L67 200H68.6436L72.124 190.464H70.5332L67.8877 198.4H67.7734L65.1104 190.464H63.5107ZM94.7207 197.108V195.658H85.4219V197.108H94.7207ZM94.7207 193.101V191.65H85.4219V193.101H94.7207ZM108.019 190.464L111.508 200H113.151L116.632 190.464H115.041L112.396 198.4H112.281L109.618 190.464H108.019ZM139.316 192.38L138.692 191.246L135.098 193.461L135.203 189.26H133.955L134.061 193.461L130.466 191.246L129.842 192.38L133.507 194.375L129.842 196.37L130.466 197.504L134.061 195.289L133.955 199.499H135.203L135.098 195.298L138.692 197.504L139.316 196.37L135.651 194.375L139.316 192.38ZM152.79 190.886V190.938H154.284V190.886C154.284 189.392 155.251 188.416 156.71 188.416C158.187 188.416 159.145 189.312 159.145 190.675C159.145 191.677 158.758 192.354 157.149 194.155L152.86 198.928V200H160.885V198.594H155.075V198.444L158.063 195.192C160.085 192.986 160.683 191.932 160.683 190.613C160.683 188.495 159.083 187.054 156.754 187.054C154.442 187.054 152.79 188.653 152.79 190.886ZM167.96 193.303C168.83 193.303 169.551 192.564 169.551 191.677C169.551 190.789 168.83 190.051 167.96 190.051C167.09 190.051 166.369 190.789 166.369 191.677C166.369 192.564 167.09 193.303 167.96 193.303ZM167.503 202.918L169.094 196.669H167.072L165.93 202.918H167.503ZM43.3311 221.204C45.4668 221.204 46.1436 220.527 46.1436 218.356V216.388C46.1436 215.034 46.9346 214.243 48.9912 214.454V212.863C46.9346 213.074 46.1436 212.292 46.1436 210.93V208.961C46.1436 206.79 45.4668 206.113 43.3311 206.113H42.1357V207.317H43.0938C44.4121 207.317 44.667 207.625 44.667 209.154V211.501C44.667 212.731 45.5898 213.549 47.374 213.593V213.733C45.5898 213.769 44.667 214.586 44.667 215.816V218.163C44.667 219.692 44.4121 220 43.0938 220H42.1357V221.204H43.3311Z" fill="black"/>
<path d="M684.729 80V78.7607H681.583V66.7197H676.854V67.959H680.089V78.7607H676.828V80H684.729ZM691.796 71.5713C693.334 71.5713 694.266 72.6699 694.266 74.4893H689.247C689.247 72.6611 690.205 71.5713 691.796 71.5713ZM694.266 77.5391C694.002 78.374 693.114 78.8838 691.91 78.8838C690.284 78.8838 689.247 77.7588 689.247 76.0098V75.623H695.742V74.6914C695.742 71.9316 694.283 70.2881 691.805 70.2881C689.379 70.2881 687.771 71.9404 687.771 74.4541V75.8867C687.771 78.6025 689.291 80.1758 691.91 80.1758C693.914 80.1758 695.426 79.1123 695.716 77.5391H694.266ZM701.191 67.9062V70.4902H698.651V71.7646H701.191V77.1611C701.191 79.1475 702.29 80.0439 704.654 80.0439C705.111 80.0439 706.271 80 706.509 79.9561V78.6904C706.254 78.7168 705.296 78.7432 704.76 78.7432C703.415 78.7432 702.686 78.1807 702.686 77.1436V71.7646H706.535V70.4902H702.668V67.9062H701.191ZM721.169 80H722.663V74.3838C722.663 72.7578 723.718 71.6592 725.291 71.6592C726.776 71.6592 727.479 72.4678 727.479 74.1904V80H728.974V73.8125C728.974 71.5273 727.849 70.2881 725.774 70.2881C724.324 70.2881 723.234 70.9561 722.725 72.1426H722.602V70.4639H721.169V80ZM751.975 77.1084V75.6582H742.676V77.1084H751.975ZM751.975 73.1006V71.6504H742.676V73.1006H751.975ZM769.474 80.2549C772.049 80.2549 773.798 78.5146 773.798 75.9482C773.798 73.4521 772.163 71.7031 769.816 71.7031C768.7 71.7031 767.795 72.0986 767.171 72.8545H767.03L767.382 68.7148H773.095V67.3174H766.16L765.519 74.4805H766.986C767.487 73.584 768.428 73.0654 769.562 73.0654C771.188 73.0654 772.286 74.2432 772.286 75.9834C772.286 77.7061 771.196 78.8574 769.562 78.8574C768.076 78.8574 766.942 77.9434 766.802 76.6162H765.308C765.439 78.7959 767.109 80.2549 769.474 80.2549ZM780.706 73.3027C781.576 73.3027 782.297 72.5645 782.297 71.6768C782.297 70.7891 781.576 70.0508 780.706 70.0508C779.836 70.0508 779.115 70.7891 779.115 71.6768C779.115 72.5645 779.836 73.3027 780.706 73.3027ZM780.249 82.918L781.84 76.6689H779.818L778.676 82.918H780.249ZM684.729 120V118.761H681.583V106.72H676.854V107.959H680.089V118.761H676.828V120H684.729ZM691.796 111.571C693.334 111.571 694.266 112.67 694.266 114.489H689.247C689.247 112.661 690.205 111.571 691.796 111.571ZM694.266 117.539C694.002 118.374 693.114 118.884 691.91 118.884C690.284 118.884 689.247 117.759 689.247 116.01V115.623H695.742V114.691C695.742 111.932 694.283 110.288 691.805 110.288C689.379 110.288 687.771 111.94 687.771 114.454V115.887C687.771 118.603 689.291 120.176 691.91 120.176C693.914 120.176 695.426 119.112 695.716 117.539H694.266ZM701.191 107.906V110.49H698.651V111.765H701.191V117.161C701.191 119.147 702.29 120.044 704.654 120.044C705.111 120.044 706.271 120 706.509 119.956V118.69C706.254 118.717 705.296 118.743 704.76 118.743C703.415 118.743 702.686 118.181 702.686 117.144V111.765H706.535V110.49H702.668V107.906H701.191ZM720.765 110.464L724.254 120H725.897L729.378 110.464H727.787L725.142 118.4H725.027L722.364 110.464H720.765ZM751.975 117.108V115.658H742.676V117.108H751.975ZM751.975 113.101V111.65H742.676V113.101H751.975ZM770.801 118.638V107.317H769.28L765.501 109.77V111.422L769.131 109.075H769.271V118.638H765.527V120H774.369V118.638H770.801ZM780.706 113.303C781.576 113.303 782.297 112.564 782.297 111.677C782.297 110.789 781.576 110.051 780.706 110.051C779.836 110.051 779.115 110.789 779.115 111.677C779.115 112.564 779.836 113.303 780.706 113.303ZM780.249 122.918L781.84 116.669H779.818L778.676 122.918H780.249ZM684.729 140V138.761H681.583V126.72H676.854V127.959H680.089V138.761H676.828V140H684.729ZM691.796 131.571C693.334 131.571 694.266 132.67 694.266 134.489H689.247C689.247 132.661 690.205 131.571 691.796 131.571ZM694.266 137.539C694.002 138.374 693.114 138.884 691.91 138.884C690.284 138.884 689.247 137.759 689.247 136.01V135.623H695.742V134.691C695.742 131.932 694.283 130.288 691.805 130.288C689.379 130.288 687.771 131.94 687.771 134.454V135.887C687.771 138.603 689.291 140.176 691.91 140.176C693.914 140.176 695.426 139.112 695.716 137.539H694.266ZM701.191 127.906V130.49H698.651V131.765H701.191V137.161C701.191 139.147 702.29 140.044 704.654 140.044C705.111 140.044 706.271 140 706.509 139.956V138.69C706.254 138.717 705.296 138.743 704.76 138.743C703.415 138.743 702.686 138.181 702.686 137.144V131.765H706.535V130.49H702.668V127.906H701.191ZM725.238 128.126C725.941 128.126 726.478 127.599 726.478 126.896C726.478 126.201 725.941 125.674 725.238 125.674C724.535 125.674 723.999 126.201 723.999 126.896C723.999 127.599 724.535 128.126 725.238 128.126ZM729.237 140V138.761H726.082V130.464H721.362V131.703H724.605V138.761H721.336V140H729.237ZM751.975 137.108V135.658H742.676V137.108H751.975ZM751.975 133.101V131.65H742.676V133.101H751.975ZM772.26 132.248C772.304 132.688 772.321 133.153 772.321 133.663C772.321 137.1 771.381 138.919 769.588 138.919C768.393 138.919 767.575 138.11 767.162 136.555L772.26 132.248ZM766.907 135.061C766.863 134.63 766.846 134.164 766.846 133.663C766.846 130.218 767.795 128.407 769.588 128.407C770.792 128.407 771.609 129.225 772.014 130.798L766.907 135.061ZM769.588 127.036C766.828 127.036 765.308 129.392 765.308 133.663C765.308 137.935 766.828 140.29 769.588 140.29C772.339 140.29 773.868 137.935 773.868 133.663C773.868 129.392 772.339 127.036 769.588 127.036ZM780.706 133.303C781.576 133.303 782.297 132.564 782.297 131.677C782.297 130.789 781.576 130.051 780.706 130.051C779.836 130.051 779.115 130.789 779.115 131.677C779.115 132.564 779.836 133.303 780.706 133.303ZM780.249 142.918L781.84 136.669H779.818L778.676 142.918H780.249ZM685.714 170.464H684.255L682.963 178.11H682.805L681.267 170.473H679.86L678.322 178.11H678.164L676.872 170.464H675.413L677.461 180H678.894L680.511 172.564H680.616L682.233 180H683.666L685.714 170.464ZM687.779 180H689.273V174.393C689.273 172.767 690.337 171.668 691.91 171.668C693.404 171.668 694.107 172.485 694.107 174.199V180H695.602V173.821C695.602 171.545 694.477 170.297 692.402 170.297C690.943 170.297 689.845 170.965 689.344 172.151H689.221V166.72H687.779V180ZM702.984 168.126C703.688 168.126 704.224 167.599 704.224 166.896C704.224 166.201 703.688 165.674 702.984 165.674C702.281 165.674 701.745 166.201 701.745 166.896C701.745 167.599 702.281 168.126 702.984 168.126ZM706.983 180V178.761H703.828V170.464H699.108V171.703H702.352V178.761H699.082V180H706.983ZM718.11 180V178.761H714.964V166.72H710.235V167.959H713.47V178.761H710.209V180H718.11ZM725.177 171.571C726.715 171.571 727.646 172.67 727.646 174.489H722.628C722.628 172.661 723.586 171.571 725.177 171.571ZM727.646 177.539C727.383 178.374 726.495 178.884 725.291 178.884C723.665 178.884 722.628 177.759 722.628 176.01V175.623H729.123V174.691C729.123 171.932 727.664 170.288 725.186 170.288C722.76 170.288 721.151 171.94 721.151 174.454V175.887C721.151 178.603 722.672 180.176 725.291 180.176C727.295 180.176 728.807 179.112 729.097 177.539H727.646ZM745.409 173.654C745.409 176.643 746.306 179.227 748.055 181.213H749.54C747.721 178.655 746.956 176.414 746.956 173.654C746.956 170.895 747.721 168.653 749.54 166.096H748.055C746.306 168.082 745.409 170.675 745.409 173.654ZM758.619 168.126C759.322 168.126 759.858 167.599 759.858 166.896C759.858 166.201 759.322 165.674 758.619 165.674C757.916 165.674 757.38 166.201 757.38 166.896C757.38 167.599 757.916 168.126 758.619 168.126ZM762.618 180V178.761H759.463V170.464H754.743V171.703H757.986V178.761H754.717V180H762.618ZM784.485 170.947V169.269L776.927 173.725V175.025L784.485 179.481V177.803L778.438 174.454V174.296L784.485 170.947ZM796.482 177.108V175.658H787.184V177.108H796.482ZM796.482 173.101V171.65H787.184V173.101H796.482ZM810.185 180H811.679V174.384C811.679 172.758 812.733 171.659 814.307 171.659C815.792 171.659 816.495 172.468 816.495 174.19V180H817.989V173.812C817.989 171.527 816.864 170.288 814.79 170.288C813.34 170.288 812.25 170.956 811.74 172.143H811.617V170.464H810.185V180ZM822.999 166.096C824.818 168.653 825.583 170.895 825.583 173.654C825.583 176.414 824.818 178.655 822.999 181.213H824.484C826.233 179.227 827.13 176.643 827.13 173.654C827.13 170.675 826.233 168.082 824.484 166.096H822.999ZM850.896 181.204V180H849.938C848.619 180 848.364 179.692 848.364 178.163V175.816C848.364 174.586 847.441 173.769 845.657 173.733V173.593C847.441 173.549 848.364 172.731 848.364 171.501V169.154C848.364 167.625 848.619 167.317 849.938 167.317H850.896V166.113H849.7C847.564 166.113 846.888 166.79 846.888 168.961V170.93C846.888 172.292 846.097 173.074 844.04 172.863V174.454C846.097 174.243 846.888 175.034 846.888 176.388V178.356C846.888 180.527 847.564 181.204 849.7 181.204H850.896ZM706.79 193.435C706.544 191.475 705.103 190.279 702.993 190.279C700.4 190.279 698.889 191.87 698.889 194.604V195.852C698.889 198.585 700.4 200.176 702.993 200.176C705.103 200.176 706.553 198.989 706.79 197.047H705.313C705.129 198.137 704.197 198.831 702.967 198.831C701.306 198.831 700.383 197.706 700.383 195.658V194.797C700.383 192.749 701.306 191.615 702.967 191.615C704.197 191.615 705.129 192.318 705.313 193.435H706.79ZM713.944 200.176C716.467 200.176 718.075 198.532 718.075 195.957V194.516C718.075 191.94 716.467 190.297 713.944 190.297C711.422 190.297 709.813 191.94 709.813 194.516V195.957C709.813 198.532 711.422 200.176 713.944 200.176ZM713.944 191.615C715.579 191.615 716.599 192.775 716.599 194.647V195.816C716.599 197.697 715.579 198.849 713.944 198.849C712.31 198.849 711.29 197.697 711.29 195.816V194.647C711.29 192.775 712.31 191.615 713.944 191.615ZM721.169 200H722.663V194.384C722.663 192.758 723.718 191.659 725.291 191.659C726.776 191.659 727.479 192.468 727.479 194.19V200H728.974V193.812C728.974 191.527 727.849 190.288 725.774 190.288C724.324 190.288 723.234 190.956 722.725 192.143H722.602V190.464H721.169V200ZM732.727 193.039C732.727 194.393 733.579 195.263 735.302 195.658L736.717 195.983C737.93 196.256 738.396 196.66 738.396 197.416C738.396 198.33 737.569 198.919 736.269 198.919C735.038 198.919 734.194 198.409 733.975 197.53H732.454C732.621 199.165 734.054 200.176 736.216 200.176C738.475 200.176 739.942 199.033 739.942 197.275C739.942 195.896 739.099 195.087 737.244 194.665L735.899 194.357C734.704 194.094 734.212 193.681 734.212 192.951C734.212 192.081 734.994 191.519 736.207 191.519C737.323 191.519 738.123 192.028 738.299 192.863H739.74C739.564 191.272 738.22 190.279 736.233 190.279C734.133 190.279 732.727 191.387 732.727 193.039ZM747.325 200.176C749.848 200.176 751.456 198.532 751.456 195.957V194.516C751.456 191.94 749.848 190.297 747.325 190.297C744.803 190.297 743.194 191.94 743.194 194.516V195.957C743.194 198.532 744.803 200.176 747.325 200.176ZM747.325 191.615C748.96 191.615 749.979 192.775 749.979 194.647V195.816C749.979 197.697 748.96 198.849 747.325 198.849C745.69 198.849 744.671 197.697 744.671 195.816V194.647C744.671 192.775 745.69 191.615 747.325 191.615ZM762.618 200V198.761H759.472V186.72H754.743V187.959H757.978V198.761H754.717V200H762.618ZM769.685 191.571C771.223 191.571 772.154 192.67 772.154 194.489H767.136C767.136 192.661 768.094 191.571 769.685 191.571ZM772.154 197.539C771.891 198.374 771.003 198.884 769.799 198.884C768.173 198.884 767.136 197.759 767.136 196.01V195.623H773.631V194.691C773.631 191.932 772.172 190.288 769.693 190.288C767.268 190.288 765.659 191.94 765.659 194.454V195.887C765.659 198.603 767.18 200.176 769.799 200.176C771.803 200.176 773.314 199.112 773.604 197.539H772.154ZM780.706 200.053C781.576 200.053 782.297 199.323 782.297 198.427C782.297 197.539 781.576 196.81 780.706 196.81C779.836 196.81 779.115 197.539 779.115 198.427C779.115 199.323 779.836 200.053 780.706 200.053ZM795.999 200V198.761H792.853V186.72H788.124V187.959H791.358V198.761H788.098V200H795.999ZM802.96 200.176C805.482 200.176 807.091 198.532 807.091 195.957V194.516C807.091 191.94 805.482 190.297 802.96 190.297C800.438 190.297 798.829 191.94 798.829 194.516V195.957C798.829 198.532 800.438 200.176 802.96 200.176ZM802.96 191.615C804.595 191.615 805.614 192.775 805.614 194.647V195.816C805.614 197.697 804.595 198.849 802.96 198.849C801.325 198.849 800.306 197.697 800.306 195.816V194.647C800.306 192.775 801.325 191.615 802.96 191.615ZM811.248 195.843V194.533C811.248 192.784 812.268 191.65 813.85 191.65C815.423 191.65 816.434 192.775 816.434 194.533V195.843C816.434 197.601 815.423 198.734 813.85 198.734C812.268 198.734 811.248 197.592 811.248 195.843ZM813.806 203.577C816.39 203.577 817.919 202.241 817.919 200V190.464H816.442V191.94H816.275C815.862 190.912 814.816 190.306 813.437 190.306C811.204 190.306 809.745 191.888 809.745 194.34V196.054C809.745 198.497 811.195 200.088 813.401 200.088C814.79 200.088 815.845 199.481 816.267 198.479H816.425V199.965C816.425 201.494 815.502 202.338 813.832 202.338C812.558 202.338 811.6 201.819 811.406 201.028H809.93C810.123 202.61 811.6 203.577 813.806 203.577ZM823.298 193.654C823.298 196.643 824.194 199.227 825.943 201.213H827.429C825.609 198.655 824.845 196.414 824.845 193.654C824.845 190.895 825.609 188.653 827.429 186.096H825.943C824.194 188.082 823.298 190.675 823.298 193.654ZM832.034 190.464L835.523 200H837.167L840.647 190.464H839.057L836.411 198.4H836.297L833.634 190.464H832.034ZM845.253 186.096C847.072 188.653 847.837 190.895 847.837 193.654C847.837 196.414 847.072 198.655 845.253 201.213H846.738C848.487 199.227 849.384 196.643 849.384 193.654C849.384 190.675 848.487 188.082 846.738 186.096H845.253ZM858.595 193.303C859.465 193.303 860.186 192.564 860.186 191.677C860.186 190.789 859.465 190.051 858.595 190.051C857.725 190.051 857.004 190.789 857.004 191.677C857.004 192.564 857.725 193.303 858.595 193.303ZM858.138 202.918L859.729 196.669H857.707L856.564 202.918H858.138ZM698.511 210.464L702 220H703.644L707.124 210.464H705.533L702.888 218.4H702.773L700.11 210.464H698.511ZM729.721 217.108V215.658H720.422V217.108H729.721ZM729.721 213.101V211.65H720.422V213.101H729.721ZM743.019 210.464L746.508 220H748.151L751.632 210.464H750.041L747.396 218.4H747.281L744.618 210.464H743.019ZM774.316 212.38L773.692 211.246L770.098 213.461L770.203 209.26H768.955L769.061 213.461L765.466 211.246L764.842 212.38L768.507 214.375L764.842 216.37L765.466 217.504L769.061 215.289L768.955 219.499H770.203L770.098 215.298L773.692 217.504L774.316 216.37L770.651 214.375L774.316 212.38ZM787.79 210.886V210.938H789.284V210.886C789.284 209.392 790.251 208.416 791.71 208.416C793.187 208.416 794.145 209.312 794.145 210.675C794.145 211.677 793.758 212.354 792.149 214.155L787.86 218.928V220H795.885V218.594H790.075V218.444L793.063 215.192C795.085 212.986 795.683 211.932 795.683 210.613C795.683 208.495 794.083 207.054 791.754 207.054C789.442 207.054 787.79 208.653 787.79 210.886ZM802.96 213.303C803.83 213.303 804.551 212.564 804.551 211.677C804.551 210.789 803.83 210.051 802.96 210.051C802.09 210.051 801.369 210.789 801.369 211.677C801.369 212.564 802.09 213.303 802.96 213.303ZM802.503 222.918L804.094 216.669H802.072L800.93 222.918H802.503ZM702.984 248.126C703.688 248.126 704.224 247.599 704.224 246.896C704.224 246.201 703.688 245.674 702.984 245.674C702.281 245.674 701.745 246.201 701.745 246.896C701.745 247.599 702.281 248.126 702.984 248.126ZM706.983 260V258.761H703.828V250.464H699.108V251.703H702.352V258.761H699.082V260H706.983ZM714.63 255.069H718.629V253.681H714.63V249.699H713.259V253.681H709.26V255.069H713.259V259.042H714.63V255.069ZM725.757 255.069H729.756V253.681H725.757V249.699H724.386V253.681H720.387V255.069H724.386V259.042H725.757V255.069ZM736.198 253.303C737.068 253.303 737.789 252.564 737.789 251.677C737.789 250.789 737.068 250.051 736.198 250.051C735.328 250.051 734.607 250.789 734.607 251.677C734.607 252.564 735.328 253.303 736.198 253.303ZM735.741 262.918L737.332 256.669H735.311L734.168 262.918H735.741ZM678.331 281.204C680.467 281.204 681.144 280.527 681.144 278.356V276.388C681.144 275.034 681.935 274.243 683.991 274.454V272.863C681.935 273.074 681.144 272.292 681.144 270.93V268.961C681.144 266.79 680.467 266.113 678.331 266.113H677.136V267.317H678.094C679.412 267.317 679.667 267.625 679.667 269.154V271.501C679.667 272.731 680.59 273.549 682.374 273.593V273.733C680.59 273.769 679.667 274.586 679.667 275.816V278.163C679.667 279.692 679.412 280 678.094 280H677.136V281.204H678.331Z" fill="black"/>
<path d="M390.73 108.126C391.434 108.126 391.97 107.599 391.97 106.896C391.97 106.201 391.434 105.674 390.73 105.674C390.027 105.674 389.491 106.201 389.491 106.896C389.491 107.599 390.027 108.126 390.73 108.126ZM394.729 120V118.761H391.574V110.464H386.854V111.703H390.098V118.761H386.828V120H394.729ZM397.788 120H399.282V114.384C399.282 112.758 400.337 111.659 401.91 111.659C403.396 111.659 404.099 112.468 404.099 114.19V120H405.593V113.812C405.593 111.527 404.468 110.288 402.394 110.288C400.943 110.288 399.854 110.956 399.344 112.143H399.221V110.464H397.788V120ZM412.984 108.126C413.688 108.126 414.224 107.599 414.224 106.896C414.224 106.201 413.688 105.674 412.984 105.674C412.281 105.674 411.745 106.201 411.745 106.896C411.745 107.599 412.281 108.126 412.984 108.126ZM416.983 120V118.761H413.828V110.464H409.108V111.703H412.352V118.761H409.082V120H416.983ZM422.318 107.906V110.49H419.778V111.765H422.318V117.161C422.318 119.147 423.417 120.044 425.781 120.044C426.238 120.044 427.398 120 427.636 119.956V118.69C427.381 118.717 426.423 118.743 425.887 118.743C424.542 118.743 423.812 118.181 423.812 117.144V111.765H427.662V110.49H423.795V107.906H422.318ZM435.238 108.126C435.941 108.126 436.478 107.599 436.478 106.896C436.478 106.201 435.941 105.674 435.238 105.674C434.535 105.674 433.999 106.201 433.999 106.896C433.999 107.599 434.535 108.126 435.238 108.126ZM439.237 120V118.761H436.082V110.464H431.362V111.703H434.605V118.761H431.336V120H439.237ZM445.231 120.167C446.62 120.167 447.657 119.596 448.114 118.576H448.264V120.009H449.688V113.479C449.688 111.492 448.404 110.35 446.163 110.35C444.212 110.35 442.735 111.396 442.56 112.925H444.027C444.273 112.107 445.047 111.642 446.146 111.642C447.473 111.642 448.202 112.301 448.202 113.496V114.357L445.583 114.489C443.412 114.604 442.199 115.605 442.199 117.293C442.199 119.024 443.412 120.167 445.231 120.167ZM445.662 118.857C444.458 118.857 443.711 118.242 443.711 117.24C443.711 116.247 444.414 115.676 445.75 115.614L448.202 115.5V116.625C448.202 117.899 447.104 118.857 445.662 118.857ZM461.491 120V118.761H458.345V106.72H453.616V107.959H456.851V118.761H453.59V120H461.491ZM468.619 108.126C469.322 108.126 469.858 107.599 469.858 106.896C469.858 106.201 469.322 105.674 468.619 105.674C467.916 105.674 467.38 106.201 467.38 106.896C467.38 107.599 467.916 108.126 468.619 108.126ZM472.618 120V118.761H469.463V110.464H464.743V111.703H467.986V118.761H464.717V120H472.618ZM475.87 120H483.288V118.717H477.742V118.603L483.253 111.58V110.464H475.896V111.747H481.469V111.861L475.87 118.945V120ZM489.739 120.167C491.128 120.167 492.165 119.596 492.622 118.576H492.771V120.009H494.195V113.479C494.195 111.492 492.912 110.35 490.671 110.35C488.72 110.35 487.243 111.396 487.067 112.925H488.535C488.781 112.107 489.555 111.642 490.653 111.642C491.98 111.642 492.71 112.301 492.71 113.496V114.357L490.091 114.489C487.92 114.604 486.707 115.605 486.707 117.293C486.707 119.024 487.92 120.167 489.739 120.167ZM490.17 118.857C488.966 118.857 488.219 118.242 488.219 117.24C488.219 116.247 488.922 115.676 490.258 115.614L492.71 115.5V116.625C492.71 117.899 491.611 118.857 490.17 118.857ZM500.207 107.906V110.49H497.667V111.765H500.207V117.161C500.207 119.147 501.306 120.044 503.67 120.044C504.127 120.044 505.287 120 505.524 119.956V118.69C505.27 118.717 504.312 118.743 503.775 118.743C502.431 118.743 501.701 118.181 501.701 117.144V111.765H505.551V110.49H501.684V107.906H500.207ZM513.127 108.126C513.83 108.126 514.366 107.599 514.366 106.896C514.366 106.201 513.83 105.674 513.127 105.674C512.424 105.674 511.888 106.201 511.888 106.896C511.888 107.599 512.424 108.126 513.127 108.126ZM517.126 120V118.761H513.971V110.464H509.251V111.703H512.494V118.761H509.225V120H517.126ZM524.087 120.176C526.609 120.176 528.218 118.532 528.218 115.957V114.516C528.218 111.94 526.609 110.297 524.087 110.297C521.564 110.297 519.956 111.94 519.956 114.516V115.957C519.956 118.532 521.564 120.176 524.087 120.176ZM524.087 111.615C525.722 111.615 526.741 112.775 526.741 114.647V115.816C526.741 117.697 525.722 118.849 524.087 118.849C522.452 118.849 521.433 117.697 521.433 115.816V114.647C521.433 112.775 522.452 111.615 524.087 111.615ZM531.312 120H532.806V114.384C532.806 112.758 533.86 111.659 535.434 111.659C536.919 111.659 537.622 112.468 537.622 114.19V120H539.116V113.812C539.116 111.527 537.991 110.288 535.917 110.288C534.467 110.288 533.377 110.956 532.867 112.143H532.744V110.464H531.312V120ZM553.996 113.039C553.996 114.393 554.849 115.263 556.571 115.658L557.986 115.983C559.199 116.256 559.665 116.66 559.665 117.416C559.665 118.33 558.839 118.919 557.538 118.919C556.308 118.919 555.464 118.409 555.244 117.53H553.724C553.891 119.165 555.323 120.176 557.485 120.176C559.744 120.176 561.212 119.033 561.212 117.275C561.212 115.896 560.368 115.087 558.514 114.665L557.169 114.357C555.974 114.094 555.481 113.681 555.481 112.951C555.481 112.081 556.264 111.519 557.477 111.519C558.593 111.519 559.393 112.028 559.568 112.863H561.01C560.834 111.272 559.489 110.279 557.503 110.279C555.402 110.279 553.996 111.387 553.996 113.039ZM566.969 107.906V110.49H564.429V111.765H566.969V117.161C566.969 119.147 568.067 120.044 570.432 120.044C570.889 120.044 572.049 120 572.286 119.956V118.69C572.031 118.717 571.073 118.743 570.537 118.743C569.192 118.743 568.463 118.181 568.463 117.144V111.765H572.312V110.49H568.445V107.906H566.969ZM578.755 120.167C580.144 120.167 581.181 119.596 581.638 118.576H581.787V120.009H583.211V113.479C583.211 111.492 581.928 110.35 579.687 110.35C577.735 110.35 576.259 111.396 576.083 112.925H577.551C577.797 112.107 578.57 111.642 579.669 111.642C580.996 111.642 581.726 112.301 581.726 113.496V114.357L579.106 114.489C576.936 114.604 575.723 115.605 575.723 117.293C575.723 119.024 576.936 120.167 578.755 120.167ZM579.186 118.857C577.981 118.857 577.234 118.242 577.234 117.24C577.234 116.247 577.938 115.676 579.273 115.614L581.726 115.5V116.625C581.726 117.899 580.627 118.857 579.186 118.857ZM589.223 107.906V110.49H586.683V111.765H589.223V117.161C589.223 119.147 590.321 120.044 592.686 120.044C593.143 120.044 594.303 120 594.54 119.956V118.69C594.285 118.717 593.327 118.743 592.791 118.743C591.446 118.743 590.717 118.181 590.717 117.144V111.765H594.566V110.49H590.699V107.906H589.223ZM602.081 111.571C603.619 111.571 604.551 112.67 604.551 114.489H599.532C599.532 112.661 600.49 111.571 602.081 111.571ZM604.551 117.539C604.287 118.374 603.399 118.884 602.195 118.884C600.569 118.884 599.532 117.759 599.532 116.01V115.623H606.027V114.691C606.027 111.932 604.568 110.288 602.09 110.288C599.664 110.288 598.056 111.94 598.056 114.454V115.887C598.056 118.603 599.576 120.176 602.195 120.176C604.199 120.176 605.711 119.112 606.001 117.539H604.551ZM617.699 112.978C617.699 111.211 617.005 110.288 615.678 110.288C614.72 110.288 613.955 110.868 613.709 111.782H613.551C613.349 110.842 612.716 110.288 611.819 110.288C610.923 110.288 610.237 110.851 610 111.809H609.842V110.464H608.506V120H609.851V113.566C609.851 112.38 610.378 111.65 611.222 111.65C612.03 111.65 612.452 112.257 612.452 113.408V120H613.788V113.566C613.788 112.38 614.298 111.65 615.133 111.65C615.933 111.65 616.354 112.257 616.354 113.417V120H617.699V112.978ZM624.335 111.571C625.873 111.571 626.805 112.67 626.805 114.489H621.786C621.786 112.661 622.744 111.571 624.335 111.571ZM626.805 117.539C626.541 118.374 625.653 118.884 624.449 118.884C622.823 118.884 621.786 117.759 621.786 116.01V115.623H628.281V114.691C628.281 111.932 626.822 110.288 624.344 110.288C621.918 110.288 620.31 111.94 620.31 114.454V115.887C620.31 118.603 621.83 120.176 624.449 120.176C626.453 120.176 627.965 119.112 628.255 117.539H626.805ZM631.454 120H632.948V114.384C632.948 112.758 634.003 111.659 635.576 111.659C637.062 111.659 637.765 112.468 637.765 114.19V120H639.259V113.812C639.259 111.527 638.134 110.288 636.06 110.288C634.609 110.288 633.52 110.956 633.01 112.143H632.887V110.464H631.454V120ZM644.857 107.906V110.49H642.317V111.765H644.857V117.161C644.857 119.147 645.956 120.044 648.32 120.044C648.777 120.044 649.938 120 650.175 119.956V118.69C649.92 118.717 648.962 118.743 648.426 118.743C647.081 118.743 646.352 118.181 646.352 117.144V111.765H650.201V110.49H646.334V107.906H644.857Z" fill="#AAAAAA"/>
<path d="M425.161 160.158C427.367 160.158 428.809 158.567 428.809 156.115V154.34C428.809 151.896 427.367 150.306 425.161 150.306C423.781 150.306 422.771 150.895 422.349 151.94H422.19V146.72H420.67V160H422.138V158.541H422.305C422.797 159.596 423.799 160.158 425.161 160.158ZM424.722 158.796C423.157 158.796 422.155 157.671 422.155 155.904V154.533C422.155 152.775 423.157 151.65 424.722 151.65C426.304 151.65 427.306 152.775 427.306 154.533V155.904C427.306 157.662 426.304 158.796 424.722 158.796ZM435.69 160.176C438.213 160.176 439.821 158.532 439.821 155.957V154.516C439.821 151.94 438.213 150.297 435.69 150.297C433.168 150.297 431.56 151.94 431.56 154.516V155.957C431.56 158.532 433.168 160.176 435.69 160.176ZM435.69 151.615C437.325 151.615 438.345 152.775 438.345 154.647V155.816C438.345 157.697 437.325 158.849 435.69 158.849C434.056 158.849 433.036 157.697 433.036 155.816V154.647C433.036 152.775 434.056 151.615 435.69 151.615ZM446.817 160.176C449.34 160.176 450.948 158.532 450.948 155.957V154.516C450.948 151.94 449.34 150.297 446.817 150.297C444.295 150.297 442.687 151.94 442.687 154.516V155.957C442.687 158.532 444.295 160.176 446.817 160.176ZM446.817 151.615C448.452 151.615 449.472 152.775 449.472 154.647V155.816C449.472 157.697 448.452 158.849 446.817 158.849C445.183 158.849 444.163 157.697 444.163 155.816V154.647C444.163 152.775 445.183 151.615 446.817 151.615ZM462.11 160V158.761H458.964V146.72H454.235V147.959H457.47V158.761H454.209V160H462.11ZM469.177 151.571C470.715 151.571 471.646 152.67 471.646 154.489H466.628C466.628 152.661 467.586 151.571 469.177 151.571ZM471.646 157.539C471.383 158.374 470.495 158.884 469.291 158.884C467.665 158.884 466.628 157.759 466.628 156.01V155.623H473.123V154.691C473.123 151.932 471.664 150.288 469.186 150.288C466.76 150.288 465.151 151.94 465.151 154.454V155.887C465.151 158.603 466.672 160.176 469.291 160.176C471.295 160.176 472.807 159.112 473.097 157.539H471.646ZM479.231 160.167C480.62 160.167 481.657 159.596 482.114 158.576H482.264V160.009H483.688V153.479C483.688 151.492 482.404 150.35 480.163 150.35C478.212 150.35 476.735 151.396 476.56 152.925H478.027C478.273 152.107 479.047 151.642 480.146 151.642C481.473 151.642 482.202 152.301 482.202 153.496V154.357L479.583 154.489C477.412 154.604 476.199 155.605 476.199 157.293C476.199 159.024 477.412 160.167 479.231 160.167ZM479.662 158.857C478.458 158.857 477.711 158.242 477.711 157.24C477.711 156.247 478.414 155.676 479.75 155.614L482.202 155.5V156.625C482.202 157.899 481.104 158.857 479.662 158.857ZM487.423 160H488.917V154.384C488.917 152.758 489.972 151.659 491.545 151.659C493.03 151.659 493.733 152.468 493.733 154.19V160H495.228V153.812C495.228 151.527 494.103 150.288 492.028 150.288C490.578 150.288 489.488 150.956 488.979 152.143H488.855V150.464H487.423V160ZM513.685 151.571C515.223 151.571 516.154 152.67 516.154 154.489H511.136C511.136 152.661 512.094 151.571 513.685 151.571ZM516.154 157.539C515.891 158.374 515.003 158.884 513.799 158.884C512.173 158.884 511.136 157.759 511.136 156.01V155.623H517.631V154.691C517.631 151.932 516.172 150.288 513.693 150.288C511.268 150.288 509.659 151.94 509.659 154.454V155.887C509.659 158.603 511.18 160.176 513.799 160.176C515.803 160.176 517.314 159.112 517.604 157.539H516.154ZM524.741 156.326L527.141 160H528.872L525.585 155.166L528.846 150.464H527.167L524.803 154.076H524.68L522.307 150.464H520.54L523.836 155.228L520.566 160H522.219L524.627 156.326H524.741ZM536.431 150.306C535.068 150.306 534.075 150.868 533.574 151.923H533.416V150.464H531.939V163.217H533.46V158.523H533.627C534.04 159.569 535.051 160.158 536.431 160.158C538.637 160.158 540.078 158.567 540.078 156.124V154.349C540.078 151.896 538.637 150.306 536.431 150.306ZM536 151.677C537.573 151.677 538.575 152.802 538.575 154.56V155.931C538.575 157.688 537.573 158.822 536 158.822C534.427 158.822 533.425 157.697 533.425 155.931V154.56C533.425 152.802 534.427 151.677 536 151.677ZM546.564 152.898V150.464H543.005V151.659H545.123V158.805H543.198V160H549.535V158.805H546.582V155.729C546.582 153.303 547.83 151.844 549.939 151.844C550.458 151.844 551.073 151.949 551.513 152.107V150.429C551.196 150.297 550.678 150.218 550.133 150.218C548.296 150.218 547.109 151.132 546.758 152.898H546.564ZM558.192 151.571C559.73 151.571 560.662 152.67 560.662 154.489H555.644C555.644 152.661 556.602 151.571 558.192 151.571ZM560.662 157.539C560.398 158.374 559.511 158.884 558.307 158.884C556.681 158.884 555.644 157.759 555.644 156.01V155.623H562.139V154.691C562.139 151.932 560.68 150.288 558.201 150.288C555.775 150.288 554.167 151.94 554.167 154.454V155.887C554.167 158.603 555.688 160.176 558.307 160.176C560.311 160.176 561.822 159.112 562.112 157.539H560.662ZM565.742 153.039C565.742 154.393 566.595 155.263 568.317 155.658L569.732 155.983C570.945 156.256 571.411 156.66 571.411 157.416C571.411 158.33 570.585 158.919 569.284 158.919C568.054 158.919 567.21 158.409 566.99 157.53H565.47C565.637 159.165 567.069 160.176 569.231 160.176C571.49 160.176 572.958 159.033 572.958 157.275C572.958 155.896 572.114 155.087 570.26 154.665L568.915 154.357C567.72 154.094 567.228 153.681 567.228 152.951C567.228 152.081 568.01 151.519 569.223 151.519C570.339 151.519 571.139 152.028 571.314 152.863H572.756C572.58 151.272 571.235 150.279 569.249 150.279C567.148 150.279 565.742 151.387 565.742 153.039ZM576.869 153.039C576.869 154.393 577.722 155.263 579.444 155.658L580.859 155.983C582.072 156.256 582.538 156.66 582.538 157.416C582.538 158.33 581.712 158.919 580.411 158.919C579.181 158.919 578.337 158.409 578.117 157.53H576.597C576.764 159.165 578.196 160.176 580.358 160.176C582.617 160.176 584.085 159.033 584.085 157.275C584.085 155.896 583.241 155.087 581.387 154.665L580.042 154.357C578.847 154.094 578.354 153.681 578.354 152.951C578.354 152.081 579.137 151.519 580.35 151.519C581.466 151.519 582.266 152.028 582.441 152.863H583.883C583.707 151.272 582.362 150.279 580.376 150.279C578.275 150.279 576.869 151.387 576.869 153.039ZM591.635 148.126C592.338 148.126 592.874 147.599 592.874 146.896C592.874 146.201 592.338 145.674 591.635 145.674C590.932 145.674 590.396 146.201 590.396 146.896C590.396 147.599 590.932 148.126 591.635 148.126ZM595.634 160V158.761H592.479V150.464H587.759V151.703H591.002V158.761H587.732V160H595.634ZM602.595 160.176C605.117 160.176 606.726 158.532 606.726 155.957V154.516C606.726 151.94 605.117 150.297 602.595 150.297C600.072 150.297 598.464 151.94 598.464 154.516V155.957C598.464 158.532 600.072 160.176 602.595 160.176ZM602.595 151.615C604.229 151.615 605.249 152.775 605.249 154.647V155.816C605.249 157.697 604.229 158.849 602.595 158.849C600.96 158.849 599.94 157.697 599.94 155.816V154.647C599.94 152.775 600.96 151.615 602.595 151.615ZM609.819 160H611.313V154.384C611.313 152.758 612.368 151.659 613.941 151.659C615.427 151.659 616.13 152.468 616.13 154.19V160H617.624V153.812C617.624 151.527 616.499 150.288 614.425 150.288C612.975 150.288 611.885 150.956 611.375 152.143H611.252V150.464H609.819V160Z" fill="#AAAAAA"/>
<path d="M418.73 188.126C419.434 188.126 419.97 187.599 419.97 186.896C419.97 186.201 419.434 185.674 418.73 185.674C418.027 185.674 417.491 186.201 417.491 186.896C417.491 187.599 418.027 188.126 418.73 188.126ZM422.729 200V198.761H419.574V190.464H414.854V191.703H418.098V198.761H414.828V200H422.729ZM425.788 200H427.282V194.384C427.282 192.758 428.337 191.659 429.91 191.659C431.396 191.659 432.099 192.468 432.099 194.19V200H433.593V193.812C433.593 191.527 432.468 190.288 430.394 190.288C428.943 190.288 427.854 190.956 427.344 192.143H427.221V190.464H425.788V200ZM444.79 193.435C444.544 191.475 443.103 190.279 440.993 190.279C438.4 190.279 436.889 191.87 436.889 194.604V195.852C436.889 198.585 438.4 200.176 440.993 200.176C443.103 200.176 444.553 198.989 444.79 197.047H443.313C443.129 198.137 442.197 198.831 440.967 198.831C439.306 198.831 438.383 197.706 438.383 195.658V194.797C438.383 192.749 439.306 191.615 440.967 191.615C442.197 191.615 443.129 192.318 443.313 193.435H444.79ZM451.549 192.898V190.464H447.989V191.659H450.107V198.805H448.183V200H454.52V198.805H451.566V195.729C451.566 193.303 452.814 191.844 454.924 191.844C455.442 191.844 456.058 191.949 456.497 192.107V190.429C456.181 190.297 455.662 190.218 455.117 190.218C453.28 190.218 452.094 191.132 451.742 192.898H451.549ZM463.177 191.571C464.715 191.571 465.646 192.67 465.646 194.489H460.628C460.628 192.661 461.586 191.571 463.177 191.571ZM465.646 197.539C465.383 198.374 464.495 198.884 463.291 198.884C461.665 198.884 460.628 197.759 460.628 196.01V195.623H467.123V194.691C467.123 191.932 465.664 190.288 463.186 190.288C460.76 190.288 459.151 191.94 459.151 194.454V195.887C459.151 198.603 460.672 200.176 463.291 200.176C465.295 200.176 466.807 199.112 467.097 197.539H465.646ZM478.795 192.978C478.795 191.211 478.101 190.288 476.773 190.288C475.815 190.288 475.051 190.868 474.805 191.782H474.646C474.444 190.842 473.812 190.288 472.915 190.288C472.019 190.288 471.333 190.851 471.096 191.809H470.938V190.464H469.602V200H470.946V193.566C470.946 192.38 471.474 191.65 472.317 191.65C473.126 191.65 473.548 192.257 473.548 193.408V200H474.884V193.566C474.884 192.38 475.394 191.65 476.229 191.65C477.028 191.65 477.45 192.257 477.45 193.417V200H478.795V192.978ZM485.431 191.571C486.969 191.571 487.9 192.67 487.9 194.489H482.882C482.882 192.661 483.84 191.571 485.431 191.571ZM487.9 197.539C487.637 198.374 486.749 198.884 485.545 198.884C483.919 198.884 482.882 197.759 482.882 196.01V195.623H489.377V194.691C489.377 191.932 487.918 190.288 485.439 190.288C483.014 190.288 481.405 191.94 481.405 194.454V195.887C481.405 198.603 482.926 200.176 485.545 200.176C487.549 200.176 489.061 199.112 489.351 197.539H487.9ZM492.55 200H494.044V194.384C494.044 192.758 495.099 191.659 496.672 191.659C498.157 191.659 498.86 192.468 498.86 194.19V200H500.354V193.812C500.354 191.527 499.229 190.288 497.155 190.288C495.705 190.288 494.615 190.956 494.105 192.143H493.982V190.464H492.55V200ZM505.953 187.906V190.49H503.413V191.765H505.953V197.161C505.953 199.147 507.052 200.044 509.416 200.044C509.873 200.044 511.033 200 511.271 199.956V198.69C511.016 198.717 510.058 198.743 509.521 198.743C508.177 198.743 507.447 198.181 507.447 197.144V191.765H511.297V190.49H507.43V187.906H505.953ZM526.361 193.039C526.361 194.393 527.214 195.263 528.937 195.658L530.352 195.983C531.564 196.256 532.03 196.66 532.03 197.416C532.03 198.33 531.204 198.919 529.903 198.919C528.673 198.919 527.829 198.409 527.609 197.53H526.089C526.256 199.165 527.688 200.176 529.851 200.176C532.109 200.176 533.577 199.033 533.577 197.275C533.577 195.896 532.733 195.087 530.879 194.665L529.534 194.357C528.339 194.094 527.847 193.681 527.847 192.951C527.847 192.081 528.629 191.519 529.842 191.519C530.958 191.519 531.758 192.028 531.934 192.863H533.375C533.199 191.272 531.854 190.279 529.868 190.279C527.768 190.279 526.361 191.387 526.361 193.039ZM539.334 187.906V190.49H536.794V191.765H539.334V197.161C539.334 199.147 540.433 200.044 542.797 200.044C543.254 200.044 544.414 200 544.651 199.956V198.69C544.396 198.717 543.438 198.743 542.902 198.743C541.558 198.743 540.828 198.181 540.828 197.144V191.765H544.678V190.49H540.811V187.906H539.334ZM551.12 200.167C552.509 200.167 553.546 199.596 554.003 198.576H554.152V200.009H555.576V193.479C555.576 191.492 554.293 190.35 552.052 190.35C550.101 190.35 548.624 191.396 548.448 192.925H549.916C550.162 192.107 550.936 191.642 552.034 191.642C553.361 191.642 554.091 192.301 554.091 193.496V194.357L551.472 194.489C549.301 194.604 548.088 195.605 548.088 197.293C548.088 199.024 549.301 200.167 551.12 200.167ZM551.551 198.857C550.347 198.857 549.6 198.242 549.6 197.24C549.6 196.247 550.303 195.676 551.639 195.614L554.091 195.5V196.625C554.091 197.899 552.992 198.857 551.551 198.857ZM561.588 187.906V190.49H559.048V191.765H561.588V197.161C561.588 199.147 562.687 200.044 565.051 200.044C565.508 200.044 566.668 200 566.905 199.956V198.69C566.65 198.717 565.692 198.743 565.156 198.743C563.812 198.743 563.082 198.181 563.082 197.144V191.765H566.932V190.49H563.064V187.906H561.588ZM574.446 191.571C575.984 191.571 576.916 192.67 576.916 194.489H571.897C571.897 192.661 572.855 191.571 574.446 191.571ZM576.916 197.539C576.652 198.374 575.765 198.884 574.561 198.884C572.935 198.884 571.897 197.759 571.897 196.01V195.623H578.393V194.691C578.393 191.932 576.934 190.288 574.455 190.288C572.029 190.288 570.421 191.94 570.421 194.454V195.887C570.421 198.603 571.941 200.176 574.561 200.176C576.564 200.176 578.076 199.112 578.366 197.539H576.916ZM590.064 192.978C590.064 191.211 589.37 190.288 588.043 190.288C587.085 190.288 586.32 190.868 586.074 191.782H585.916C585.714 190.842 585.081 190.288 584.185 190.288C583.288 190.288 582.603 190.851 582.365 191.809H582.207V190.464H580.871V200H582.216V193.566C582.216 192.38 582.743 191.65 583.587 191.65C584.396 191.65 584.817 192.257 584.817 193.408V200H586.153V193.566C586.153 192.38 586.663 191.65 587.498 191.65C588.298 191.65 588.72 192.257 588.72 193.417V200H590.064V192.978ZM596.7 191.571C598.238 191.571 599.17 192.67 599.17 194.489H594.151C594.151 192.661 595.109 191.571 596.7 191.571ZM599.17 197.539C598.906 198.374 598.019 198.884 596.814 198.884C595.188 198.884 594.151 197.759 594.151 196.01V195.623H600.646V194.691C600.646 191.932 599.188 190.288 596.709 190.288C594.283 190.288 592.675 191.94 592.675 194.454V195.887C592.675 198.603 594.195 200.176 596.814 200.176C598.818 200.176 600.33 199.112 600.62 197.539H599.17ZM603.819 200H605.313V194.384C605.313 192.758 606.368 191.659 607.941 191.659C609.427 191.659 610.13 192.468 610.13 194.19V200H611.624V193.812C611.624 191.527 610.499 190.288 608.425 190.288C606.975 190.288 605.885 190.956 605.375 192.143H605.252V190.464H603.819V200ZM617.223 187.906V190.49H614.683V191.765H617.223V197.161C617.223 199.147 618.321 200.044 620.686 200.044C621.143 200.044 622.303 200 622.54 199.956V198.69C622.285 198.717 621.327 198.743 620.791 198.743C619.446 198.743 618.717 198.181 618.717 197.144V191.765H622.566V190.49H618.699V187.906H617.223Z" fill="#AAAAAA"/>
<path d="M380.5 114.5H165.5V140.5H196H96.5" stroke="#AAAAAA"/>
<path d="M659.5 112.5H669V145.5H741.5V142.5H774.5H677" stroke="#AAAAAA"/>
<path d="M414 154H372V130.5H239V140.5H219.5H273.5" stroke="#AAAAAA"/>
<path d="M621 153.5H780V161H817H753.5" stroke="#AAAAAA"/>
<path d="M411 193.5H315V163H329H296.5" stroke="#AAAAAA"/>
<path d="M626.5 193.5H674.5V234H716V242.5H730.5H697.5" stroke="#AAAAAA"/>
</svg>
