<svg width="360" height="400" viewBox="0 0 360 400" fill="none" xmlns="http://www.w3.org/2000/svg">
<rect width="360" height="400" fill="white"/>
<path d="M119.095 40V38.7607H115.948V26.7197H111.22V27.959H114.454V38.7607H111.193V40H119.095ZM126.161 31.5713C127.699 31.5713 128.631 32.6699 128.631 34.4893H123.612C123.612 32.6611 124.57 31.5713 126.161 31.5713ZM128.631 37.5391C128.367 38.374 127.479 38.8838 126.275 38.8838C124.649 38.8838 123.612 37.7588 123.612 36.0098V35.623H130.107V34.6914C130.107 31.9316 128.648 30.2881 126.17 30.2881C123.744 30.2881 122.136 31.9404 122.136 34.4541V35.8867C122.136 38.6025 123.656 40.1758 126.275 40.1758C128.279 40.1758 129.791 39.1123 130.081 37.5391H128.631ZM135.557 27.9062V30.4902H133.017V31.7646H135.557V37.1611C135.557 39.1475 136.655 40.0439 139.02 40.0439C139.477 40.0439 140.637 40 140.874 39.9561V38.6904C140.619 38.7168 139.661 38.7432 139.125 38.7432C137.78 38.7432 137.051 38.1807 137.051 37.1436V31.7646H140.9V30.4902H137.033V27.9062H135.557ZM155.534 40H157.028V34.3838C157.028 32.7578 158.083 31.6592 159.656 31.6592C161.142 31.6592 161.845 32.4678 161.845 34.1904V40H163.339V33.8125C163.339 31.5273 162.214 30.2881 160.14 30.2881C158.689 30.2881 157.6 30.9561 157.09 32.1426H156.967V30.4639H155.534V40ZM186.34 37.1084V35.6582H177.041V37.1084H186.34ZM186.34 33.1006V31.6504H177.041V33.1006H186.34ZM203.839 40.2549C206.414 40.2549 208.163 38.5146 208.163 35.9482C208.163 33.4521 206.528 31.7031 204.182 31.7031C203.065 31.7031 202.16 32.0986 201.536 32.8545H201.396L201.747 28.7148H207.46V27.3174H200.525L199.884 34.4805H201.352C201.853 33.584 202.793 33.0654 203.927 33.0654C205.553 33.0654 206.651 34.2432 206.651 35.9834C206.651 37.7061 205.562 38.8574 203.927 38.8574C202.441 38.8574 201.308 37.9434 201.167 36.6162H199.673C199.805 38.7959 201.475 40.2549 203.839 40.2549ZM215.071 33.3027C215.941 33.3027 216.662 32.5645 216.662 31.6768C216.662 30.7891 215.941 30.0508 215.071 30.0508C214.201 30.0508 213.48 30.7891 213.48 31.6768C213.48 32.5645 214.201 33.3027 215.071 33.3027ZM214.614 42.918L216.205 36.6689H214.184L213.041 42.918H214.614Z" fill="black"/>
<path d="M119.095 80V78.7607H115.948V66.7197H111.22V67.959H114.454V78.7607H111.193V80H119.095ZM126.161 71.5713C127.699 71.5713 128.631 72.6699 128.631 74.4893H123.612C123.612 72.6611 124.57 71.5713 126.161 71.5713ZM128.631 77.5391C128.367 78.374 127.479 78.8838 126.275 78.8838C124.649 78.8838 123.612 77.7588 123.612 76.0098V75.623H130.107V74.6914C130.107 71.9316 128.648 70.2881 126.17 70.2881C123.744 70.2881 122.136 71.9404 122.136 74.4541V75.8867C122.136 78.6025 123.656 80.1758 126.275 80.1758C128.279 80.1758 129.791 79.1123 130.081 77.5391H128.631ZM135.557 67.9062V70.4902H133.017V71.7646H135.557V77.1611C135.557 79.1475 136.655 80.0439 139.02 80.0439C139.477 80.0439 140.637 80 140.874 79.9561V78.6904C140.619 78.7168 139.661 78.7432 139.125 78.7432C137.78 78.7432 137.051 78.1807 137.051 77.1436V71.7646H140.9V70.4902H137.033V67.9062H135.557ZM159.604 68.126C160.307 68.126 160.843 67.5986 160.843 66.8955C160.843 66.2012 160.307 65.6738 159.604 65.6738C158.9 65.6738 158.364 66.2012 158.364 66.8955C158.364 67.5986 158.9 68.126 159.604 68.126ZM163.603 80V78.7607H160.447V70.4639H155.728V71.7031H158.971V78.7607H155.701V80H163.603ZM186.34 77.1084V75.6582H177.041V77.1084H186.34ZM186.34 73.1006V71.6504H177.041V73.1006H186.34ZM206.625 72.248C206.669 72.6875 206.687 73.1533 206.687 73.6631C206.687 77.0996 205.746 78.9189 203.953 78.9189C202.758 78.9189 201.94 78.1104 201.527 76.5547L206.625 72.248ZM201.272 75.0605C201.229 74.6299 201.211 74.1641 201.211 73.6631C201.211 70.2178 202.16 68.4072 203.953 68.4072C205.157 68.4072 205.975 69.2246 206.379 70.7979L201.272 75.0605ZM203.953 67.0361C201.193 67.0361 199.673 69.3916 199.673 73.6631C199.673 77.9346 201.193 80.29 203.953 80.29C206.704 80.29 208.233 77.9346 208.233 73.6631C208.233 69.3916 206.704 67.0361 203.953 67.0361ZM215.071 73.3027C215.941 73.3027 216.662 72.5645 216.662 71.6768C216.662 70.7891 215.941 70.0508 215.071 70.0508C214.201 70.0508 213.48 70.7891 213.48 71.6768C213.48 72.5645 214.201 73.3027 215.071 73.3027ZM214.614 82.918L216.205 76.6689H214.184L213.041 82.918H214.614Z" fill="black"/>
<path d="M119.095 120V118.761H115.948V106.72H111.22V107.959H114.454V118.761H111.193V120H119.095ZM126.161 111.571C127.699 111.571 128.631 112.67 128.631 114.489H123.612C123.612 112.661 124.57 111.571 126.161 111.571ZM128.631 117.539C128.367 118.374 127.479 118.884 126.275 118.884C124.649 118.884 123.612 117.759 123.612 116.01V115.623H130.107V114.691C130.107 111.932 128.648 110.288 126.17 110.288C123.744 110.288 122.136 111.94 122.136 114.454V115.887C122.136 118.603 123.656 120.176 126.275 120.176C128.279 120.176 129.791 119.112 130.081 117.539H128.631ZM135.557 107.906V110.49H133.017V111.765H135.557V117.161C135.557 119.147 136.655 120.044 139.02 120.044C139.477 120.044 140.637 120 140.874 119.956V118.69C140.619 118.717 139.661 118.743 139.125 118.743C137.78 118.743 137.051 118.181 137.051 117.144V111.765H140.9V110.49H137.033V107.906H135.557ZM155.13 110.464L158.619 120H160.263L163.743 110.464H162.152L159.507 118.4H159.393L156.729 110.464H155.13ZM186.34 117.108V115.658H177.041V117.108H186.34ZM186.34 113.101V111.65H177.041V113.101H186.34ZM205.166 118.638V107.317H203.646L199.866 109.77V111.422L203.496 109.075H203.637V118.638H199.893V120H208.734V118.638H205.166ZM215.071 113.303C215.941 113.303 216.662 112.564 216.662 111.677C216.662 110.789 215.941 110.051 215.071 110.051C214.201 110.051 213.48 110.789 213.48 111.677C213.48 112.564 214.201 113.303 215.071 113.303ZM214.614 122.918L216.205 116.669H214.184L213.041 122.918H214.614Z" fill="black"/>
<path d="M126.223 148.126C126.926 148.126 127.462 147.599 127.462 146.896C127.462 146.201 126.926 145.674 126.223 145.674C125.52 145.674 124.983 146.201 124.983 146.896C124.983 147.599 125.52 148.126 126.223 148.126ZM130.222 160V158.761H127.066V150.464H122.347V151.703H125.59V158.761H122.32V160H130.222ZM152.089 150.947V149.269L144.53 153.725V155.025L152.089 159.481V157.803L146.042 154.454V154.296L152.089 150.947ZM164.086 157.108V155.658H154.787V157.108H164.086ZM164.086 153.101V151.65H154.787V153.101H164.086ZM177.788 160H179.282V154.384C179.282 152.758 180.337 151.659 181.91 151.659C183.396 151.659 184.099 152.468 184.099 154.19V160H185.593V153.812C185.593 151.527 184.468 150.288 182.394 150.288C180.943 150.288 179.854 150.956 179.344 152.143H179.221V150.464H177.788V160ZM200.253 150.622H201.738C201.844 149.365 202.661 148.601 203.936 148.601C205.166 148.601 206.01 149.356 206.01 150.464C206.01 151.387 205.641 151.94 204.63 152.573C203.443 153.303 202.907 154.085 202.925 155.254V156.054H204.454V155.482C204.454 154.551 204.779 154.067 205.852 153.408C207.047 152.679 207.645 151.668 207.645 150.385C207.645 148.521 206.124 147.194 203.997 147.194C201.8 147.194 200.358 148.504 200.253 150.622ZM203.751 160.167C204.419 160.167 204.955 159.613 204.955 158.919C204.955 158.225 204.419 157.671 203.751 157.671C203.083 157.671 202.547 158.225 202.547 158.919C202.547 159.613 203.083 160.167 203.751 160.167Z" fill="black"/>
<path d="M90.584 213.435C90.3379 211.475 88.8965 210.279 86.7871 210.279C84.1943 210.279 82.6826 211.87 82.6826 214.604V215.852C82.6826 218.585 84.1943 220.176 86.7871 220.176C88.8965 220.176 90.3467 218.989 90.584 217.047H89.1074C88.9229 218.137 87.9912 218.831 86.7607 218.831C85.0996 218.831 84.1768 217.706 84.1768 215.658V214.797C84.1768 212.749 85.0996 211.615 86.7607 211.615C87.9912 211.615 88.9229 212.318 89.1074 213.435H90.584ZM97.7383 220.176C100.261 220.176 101.869 218.532 101.869 215.957V214.516C101.869 211.94 100.261 210.297 97.7383 210.297C95.2158 210.297 93.6074 211.94 93.6074 214.516V215.957C93.6074 218.532 95.2158 220.176 97.7383 220.176ZM97.7383 211.615C99.373 211.615 100.393 212.775 100.393 214.647V215.816C100.393 217.697 99.373 218.849 97.7383 218.849C96.1035 218.849 95.084 217.697 95.084 215.816V214.647C95.084 212.775 96.1035 211.615 97.7383 211.615ZM104.963 220H106.457V214.384C106.457 212.758 107.512 211.659 109.085 211.659C110.57 211.659 111.273 212.468 111.273 214.19V220H112.768V213.812C112.768 211.527 111.643 210.288 109.568 210.288C108.118 210.288 107.028 210.956 106.519 212.143H106.396V210.464H104.963V220ZM116.521 213.039C116.521 214.393 117.373 215.263 119.096 215.658L120.511 215.983C121.724 216.256 122.189 216.66 122.189 217.416C122.189 218.33 121.363 218.919 120.062 218.919C118.832 218.919 117.988 218.409 117.769 217.53H116.248C116.415 219.165 117.848 220.176 120.01 220.176C122.269 220.176 123.736 219.033 123.736 217.275C123.736 215.896 122.893 215.087 121.038 214.665L119.693 214.357C118.498 214.094 118.006 213.681 118.006 212.951C118.006 212.081 118.788 211.519 120.001 211.519C121.117 211.519 121.917 212.028 122.093 212.863H123.534C123.358 211.272 122.014 210.279 120.027 210.279C117.927 210.279 116.521 211.387 116.521 213.039ZM131.119 220.176C133.642 220.176 135.25 218.532 135.25 215.957V214.516C135.25 211.94 133.642 210.297 131.119 210.297C128.597 210.297 126.988 211.94 126.988 214.516V215.957C126.988 218.532 128.597 220.176 131.119 220.176ZM131.119 211.615C132.754 211.615 133.773 212.775 133.773 214.647V215.816C133.773 217.697 132.754 218.849 131.119 218.849C129.484 218.849 128.465 217.697 128.465 215.816V214.647C128.465 212.775 129.484 211.615 131.119 211.615ZM146.412 220V218.761H143.266V206.72H138.537V207.959H141.771V218.761H138.511V220H146.412ZM153.479 211.571C155.017 211.571 155.948 212.67 155.948 214.489H150.93C150.93 212.661 151.888 211.571 153.479 211.571ZM155.948 217.539C155.685 218.374 154.797 218.884 153.593 218.884C151.967 218.884 150.93 217.759 150.93 216.01V215.623H157.425V214.691C157.425 211.932 155.966 210.288 153.487 210.288C151.062 210.288 149.453 211.94 149.453 214.454V215.887C149.453 218.603 150.974 220.176 153.593 220.176C155.597 220.176 157.108 219.112 157.398 217.539H155.948ZM164.5 220.053C165.37 220.053 166.091 219.323 166.091 218.427C166.091 217.539 165.37 216.81 164.5 216.81C163.63 216.81 162.909 217.539 162.909 218.427C162.909 219.323 163.63 220.053 164.5 220.053ZM179.793 220V218.761H176.646V206.72H171.918V207.959H175.152V218.761H171.892V220H179.793ZM186.754 220.176C189.276 220.176 190.885 218.532 190.885 215.957V214.516C190.885 211.94 189.276 210.297 186.754 210.297C184.231 210.297 182.623 211.94 182.623 214.516V215.957C182.623 218.532 184.231 220.176 186.754 220.176ZM186.754 211.615C188.389 211.615 189.408 212.775 189.408 214.647V215.816C189.408 217.697 188.389 218.849 186.754 218.849C185.119 218.849 184.1 217.697 184.1 215.816V214.647C184.1 212.775 185.119 211.615 186.754 211.615ZM195.042 215.843V214.533C195.042 212.784 196.062 211.65 197.644 211.65C199.217 211.65 200.228 212.775 200.228 214.533V215.843C200.228 217.601 199.217 218.734 197.644 218.734C196.062 218.734 195.042 217.592 195.042 215.843ZM197.6 223.577C200.184 223.577 201.713 222.241 201.713 220V210.464H200.236V211.94H200.069C199.656 210.912 198.61 210.306 197.23 210.306C194.998 210.306 193.539 211.888 193.539 214.34V216.054C193.539 218.497 194.989 220.088 197.195 220.088C198.584 220.088 199.639 219.481 200.061 218.479H200.219V219.965C200.219 221.494 199.296 222.338 197.626 222.338C196.352 222.338 195.394 221.819 195.2 221.028H193.724C193.917 222.61 195.394 223.577 197.6 223.577ZM207.092 213.654C207.092 216.643 207.988 219.227 209.737 221.213H211.223C209.403 218.655 208.639 216.414 208.639 213.654C208.639 210.895 209.403 208.653 211.223 206.096H209.737C207.988 208.082 207.092 210.675 207.092 213.654ZM215.828 210.464L219.317 220H220.961L224.441 210.464H222.851L220.205 218.4H220.091L217.428 210.464H215.828ZM229.047 206.096C230.866 208.653 231.631 210.895 231.631 213.654C231.631 216.414 230.866 218.655 229.047 221.213H230.532C232.281 219.227 233.178 216.643 233.178 213.654C233.178 210.675 232.281 208.082 230.532 206.096H229.047ZM242.389 213.303C243.259 213.303 243.979 212.564 243.979 211.677C243.979 210.789 243.259 210.051 242.389 210.051C241.519 210.051 240.798 210.789 240.798 211.677C240.798 212.564 241.519 213.303 242.389 213.303ZM241.932 222.918L243.522 216.669H241.501L240.358 222.918H241.932Z" fill="black"/>
<path d="M115.096 248.126C115.799 248.126 116.335 247.599 116.335 246.896C116.335 246.201 115.799 245.674 115.096 245.674C114.393 245.674 113.856 246.201 113.856 246.896C113.856 247.599 114.393 248.126 115.096 248.126ZM119.095 260V258.761H115.939V250.464H111.22V251.703H114.463V258.761H111.193V260H119.095ZM141.832 257.108V255.658H132.533V257.108H141.832ZM141.832 253.101V251.65H132.533V253.101H141.832ZM159.604 248.126C160.307 248.126 160.843 247.599 160.843 246.896C160.843 246.201 160.307 245.674 159.604 245.674C158.9 245.674 158.364 246.201 158.364 246.896C158.364 247.599 158.9 248.126 159.604 248.126ZM163.603 260V258.761H160.447V250.464H155.728V251.703H158.971V258.761H155.701V260H163.603ZM182.376 255.069H186.375V253.681H182.376V249.699H181.005V253.681H177.006V255.069H181.005V259.042H182.376V255.069ZM205.166 258.638V247.317H203.646L199.866 249.77V251.422L203.496 249.075H203.637V258.638H199.893V260H208.734V258.638H205.166ZM215.071 253.303C215.941 253.303 216.662 252.564 216.662 251.677C216.662 250.789 215.941 250.051 215.071 250.051C214.201 250.051 213.48 250.789 213.48 251.677C213.48 252.564 214.201 253.303 215.071 253.303ZM214.614 262.918L216.205 256.669H214.184L213.041 262.918H214.614Z" fill="black"/>
<path d="M110.622 290.464L114.111 300H115.755L119.235 290.464H117.645L114.999 298.4H114.885L112.222 290.464H110.622ZM141.832 297.108V295.658H132.533V297.108H141.832ZM141.832 293.101V291.65H132.533V293.101H141.832ZM155.13 290.464L158.619 300H160.263L163.743 290.464H162.152L159.507 298.4H159.393L156.729 290.464H155.13ZM186.428 292.38L185.804 291.246L182.209 293.461L182.314 289.26H181.066L181.172 293.461L177.577 291.246L176.953 292.38L180.618 294.375L176.953 296.37L177.577 297.504L181.172 295.289L181.066 299.499H182.314L182.209 295.298L185.804 297.504L186.428 296.37L182.763 294.375L186.428 292.38ZM199.901 290.886V290.938H201.396V290.886C201.396 289.392 202.362 288.416 203.821 288.416C205.298 288.416 206.256 289.312 206.256 290.675C206.256 291.677 205.869 292.354 204.261 294.155L199.972 298.928V300H207.996V298.594H202.187V298.444L205.175 295.192C207.196 292.986 207.794 291.932 207.794 290.613C207.794 288.495 206.194 287.054 203.865 287.054C201.554 287.054 199.901 288.653 199.901 290.886ZM215.071 293.303C215.941 293.303 216.662 292.564 216.662 291.677C216.662 290.789 215.941 290.051 215.071 290.051C214.201 290.051 213.48 290.789 213.48 291.677C213.48 292.564 214.201 293.303 215.071 293.303ZM214.614 302.918L216.205 296.669H214.184L213.041 302.918H214.614Z" fill="black"/>
<path d="M62.7666 373.435C62.5205 371.475 61.0791 370.279 58.9697 370.279C56.377 370.279 54.8652 371.87 54.8652 374.604V375.852C54.8652 378.585 56.377 380.176 58.9697 380.176C61.0791 380.176 62.5293 378.989 62.7666 377.047H61.29C61.1055 378.137 60.1738 378.831 58.9434 378.831C57.2822 378.831 56.3594 377.706 56.3594 375.658V374.797C56.3594 372.749 57.2822 371.615 58.9434 371.615C60.1738 371.615 61.1055 372.318 61.29 373.435H62.7666ZM69.9209 380.176C72.4434 380.176 74.0518 378.532 74.0518 375.957V374.516C74.0518 371.94 72.4434 370.297 69.9209 370.297C67.3984 370.297 65.79 371.94 65.79 374.516V375.957C65.79 378.532 67.3984 380.176 69.9209 380.176ZM69.9209 371.615C71.5557 371.615 72.5752 372.775 72.5752 374.647V375.816C72.5752 377.697 71.5557 378.849 69.9209 378.849C68.2861 378.849 67.2666 377.697 67.2666 375.816V374.647C67.2666 372.775 68.2861 371.615 69.9209 371.615ZM77.1455 380H78.6396V374.384C78.6396 372.758 79.6943 371.659 81.2676 371.659C82.7529 371.659 83.4561 372.468 83.4561 374.19V380H84.9502V373.812C84.9502 371.527 83.8252 370.288 81.751 370.288C80.3008 370.288 79.2109 370.956 78.7012 372.143H78.5781V370.464H77.1455V380ZM88.7031 373.039C88.7031 374.393 89.5557 375.263 91.2783 375.658L92.6934 375.983C93.9062 376.256 94.3721 376.66 94.3721 377.416C94.3721 378.33 93.5459 378.919 92.2451 378.919C91.0146 378.919 90.1709 378.409 89.9512 377.53H88.4307C88.5977 379.165 90.0303 380.176 92.1924 380.176C94.4512 380.176 95.9189 379.033 95.9189 377.275C95.9189 375.896 95.0752 375.087 93.2207 374.665L91.876 374.357C90.6807 374.094 90.1885 373.681 90.1885 372.951C90.1885 372.081 90.9707 371.519 92.1836 371.519C93.2998 371.519 94.0996 372.028 94.2754 372.863H95.7168C95.541 371.272 94.1963 370.279 92.21 370.279C90.1094 370.279 88.7031 371.387 88.7031 373.039ZM103.302 380.176C105.824 380.176 107.433 378.532 107.433 375.957V374.516C107.433 371.94 105.824 370.297 103.302 370.297C100.779 370.297 99.1709 371.94 99.1709 374.516V375.957C99.1709 378.532 100.779 380.176 103.302 380.176ZM103.302 371.615C104.937 371.615 105.956 372.775 105.956 374.647V375.816C105.956 377.697 104.937 378.849 103.302 378.849C101.667 378.849 100.647 377.697 100.647 375.816V374.647C100.647 372.775 101.667 371.615 103.302 371.615ZM118.595 380V378.761H115.448V366.72H110.72V367.959H113.954V378.761H110.693V380H118.595ZM125.661 371.571C127.199 371.571 128.131 372.67 128.131 374.489H123.112C123.112 372.661 124.07 371.571 125.661 371.571ZM128.131 377.539C127.867 378.374 126.979 378.884 125.775 378.884C124.149 378.884 123.112 377.759 123.112 376.01V375.623H129.607V374.691C129.607 371.932 128.148 370.288 125.67 370.288C123.244 370.288 121.636 371.94 121.636 374.454V375.887C121.636 378.603 123.156 380.176 125.775 380.176C127.779 380.176 129.291 379.112 129.581 377.539H128.131ZM136.683 380.053C137.553 380.053 138.273 379.323 138.273 378.427C138.273 377.539 137.553 376.81 136.683 376.81C135.812 376.81 135.092 377.539 135.092 378.427C135.092 379.323 135.812 380.053 136.683 380.053ZM151.976 380V378.761H148.829V366.72H144.101V367.959H147.335V378.761H144.074V380H151.976ZM158.937 380.176C161.459 380.176 163.067 378.532 163.067 375.957V374.516C163.067 371.94 161.459 370.297 158.937 370.297C156.414 370.297 154.806 371.94 154.806 374.516V375.957C154.806 378.532 156.414 380.176 158.937 380.176ZM158.937 371.615C160.571 371.615 161.591 372.775 161.591 374.647V375.816C161.591 377.697 160.571 378.849 158.937 378.849C157.302 378.849 156.282 377.697 156.282 375.816V374.647C156.282 372.775 157.302 371.615 158.937 371.615ZM167.225 375.843V374.533C167.225 372.784 168.244 371.65 169.826 371.65C171.399 371.65 172.41 372.775 172.41 374.533V375.843C172.41 377.601 171.399 378.734 169.826 378.734C168.244 378.734 167.225 377.592 167.225 375.843ZM169.782 383.577C172.366 383.577 173.896 382.241 173.896 380V370.464H172.419V371.94H172.252C171.839 370.912 170.793 370.306 169.413 370.306C167.181 370.306 165.722 371.888 165.722 374.34V376.054C165.722 378.497 167.172 380.088 169.378 380.088C170.767 380.088 171.821 379.481 172.243 378.479H172.401V379.965C172.401 381.494 171.479 382.338 169.809 382.338C168.534 382.338 167.576 381.819 167.383 381.028H165.906C166.1 382.61 167.576 383.577 169.782 383.577ZM179.274 373.654C179.274 376.643 180.171 379.227 181.92 381.213H183.405C181.586 378.655 180.821 376.414 180.821 373.654C180.821 370.895 181.586 368.653 183.405 366.096H181.92C180.171 368.082 179.274 370.675 179.274 373.654ZM193.108 372.872V367.317H191.535V372.872H193.108ZM200.702 374.533C200.702 372.775 201.713 371.65 203.286 371.65C204.851 371.65 205.861 372.775 205.861 374.533V375.904C205.861 377.671 204.851 378.796 203.286 378.796C201.713 378.796 200.702 377.662 200.702 375.904V374.533ZM205.87 378.541V380H207.338V366.72H205.817V371.94H205.659C205.246 370.895 204.227 370.306 202.847 370.306C200.641 370.306 199.199 371.896 199.199 374.34V376.115C199.199 378.567 200.641 380.158 202.847 380.158C204.209 380.158 205.211 379.596 205.703 378.541H205.87ZM214.571 380.176C217.094 380.176 218.702 378.532 218.702 375.957V374.516C218.702 371.94 217.094 370.297 214.571 370.297C212.049 370.297 210.44 371.94 210.44 374.516V375.957C210.44 378.532 212.049 380.176 214.571 380.176ZM214.571 371.615C216.206 371.615 217.226 372.775 217.226 374.647V375.816C217.226 377.697 216.206 378.849 214.571 378.849C212.937 378.849 211.917 377.697 211.917 375.816V374.647C211.917 372.775 212.937 371.615 214.571 371.615ZM221.796 380H223.29V374.384C223.29 372.758 224.345 371.659 225.918 371.659C227.403 371.659 228.106 372.468 228.106 374.19V380H229.601V373.812C229.601 371.527 228.476 370.288 226.401 370.288C224.951 370.288 223.861 370.956 223.352 372.143H223.229V370.464H221.796V380ZM236.931 371.571C238.469 371.571 239.4 372.67 239.4 374.489H234.382C234.382 372.661 235.34 371.571 236.931 371.571ZM239.4 377.539C239.137 378.374 238.249 378.884 237.045 378.884C235.419 378.884 234.382 377.759 234.382 376.01V375.623H240.877V374.691C240.877 371.932 239.418 370.288 236.939 370.288C234.514 370.288 232.905 371.94 232.905 374.454V375.887C232.905 378.603 234.426 380.176 237.045 380.176C239.049 380.176 240.561 379.112 240.851 377.539H239.4ZM248.743 372.872V367.317H247.17V372.872H248.743ZM256.864 366.096C258.684 368.653 259.448 370.895 259.448 373.654C259.448 376.414 258.684 378.655 256.864 381.213H258.35C260.099 379.227 260.995 376.643 260.995 373.654C260.995 370.675 260.099 368.082 258.35 366.096H256.864ZM270.206 373.303C271.076 373.303 271.797 372.564 271.797 371.677C271.797 370.789 271.076 370.051 270.206 370.051C269.336 370.051 268.615 370.789 268.615 371.677C268.615 372.564 269.336 373.303 270.206 373.303ZM269.749 382.918L271.34 376.669H269.318L268.176 382.918H269.749Z" fill="black"/>
<path d="M159.646 58.3536C159.842 58.5488 160.158 58.5488 160.354 58.3536L163.536 55.1716C163.731 54.9763 163.731 54.6597 163.536 54.4645C163.34 54.2692 163.024 54.2692 162.828 54.4645L160 57.2929L157.172 54.4645C156.976 54.2692 156.66 54.2692 156.464 54.4645C156.269 54.6597 156.269 54.9763 156.464 55.1716L159.646 58.3536ZM159.5 46L159.5 58L160.5 58L160.5 46L159.5 46Z" fill="#AAAAAA"/>
<path d="M159.646 98.3536C159.842 98.5488 160.158 98.5488 160.354 98.3536L163.536 95.1716C163.731 94.9763 163.731 94.6597 163.536 94.4645C163.34 94.2692 163.024 94.2692 162.828 94.4645L160 97.2929L157.172 94.4645C156.976 94.2692 156.66 94.2692 156.464 94.4645C156.269 94.6597 156.269 94.9763 156.464 95.1716L159.646 98.3536ZM159.5 86L159.5 98L160.5 98L160.5 86L159.5 86Z" fill="#AAAAAA"/>
<path d="M159.646 138.354C159.842 138.549 160.158 138.549 160.354 138.354L163.536 135.172C163.731 134.976 163.731 134.66 163.536 134.464C163.34 134.269 163.024 134.269 162.828 134.464L160 137.293L157.172 134.464C156.976 134.269 156.66 134.269 156.464 134.464C156.269 134.66 156.269 134.976 156.464 135.172L159.646 138.354ZM159.5 126L159.5 138L160.5 138L160.5 126L159.5 126Z" fill="#AAAAAA"/>
<path d="M159.646 238.354C159.842 238.549 160.158 238.549 160.354 238.354L163.536 235.172C163.731 234.976 163.731 234.66 163.536 234.464C163.34 234.269 163.024 234.269 162.828 234.464L160 237.293L157.172 234.464C156.976 234.269 156.66 234.269 156.464 234.464C156.269 234.66 156.269 234.976 156.464 235.172L159.646 238.354ZM159.5 226L159.5 238L160.5 238L160.5 226L159.5 226Z" fill="#AAAAAA"/>
<path d="M159.646 278.354C159.842 278.549 160.158 278.549 160.354 278.354L163.536 275.172C163.731 274.976 163.731 274.66 163.536 274.464C163.34 274.269 163.024 274.269 162.828 274.464L160 277.293L157.172 274.464C156.976 274.269 156.66 274.269 156.464 274.464C156.269 274.66 156.269 274.976 156.464 275.172L159.646 278.354ZM159.5 266L159.5 278L160.5 278L160.5 266L159.5 266Z" fill="#AAAAAA"/>
<path d="M159.646 198.354C159.842 198.549 160.158 198.549 160.354 198.354L163.536 195.172C163.731 194.976 163.731 194.66 163.536 194.464C163.34 194.269 163.024 194.269 162.828 194.464L160 197.293L157.172 194.464C156.976 194.269 156.66 194.269 156.464 194.464C156.269 194.66 156.269 194.976 156.464 195.172L159.646 198.354ZM159.5 166V198H160.5V166H159.5Z" fill="#AAAAAA"/>
<path d="M171.311 173.906L170.862 176.49H168.313L168.103 177.765H170.643L169.676 183.003C169.623 183.293 169.597 183.557 169.597 183.768C169.597 185.253 170.625 186.044 172.532 186.044C173.007 186.044 174.281 186 174.51 185.956L174.721 184.69C174.483 184.717 173.543 184.743 172.954 184.743C171.706 184.743 171.126 184.321 171.126 183.442C171.126 183.311 171.135 183.17 171.17 182.994L172.137 177.765H175.986L176.206 176.49H172.339L172.787 173.906H171.311ZM182.798 178.898L183.22 176.464H179.66L179.458 177.659H181.567L180.311 184.805H178.386L178.175 186H184.512L184.723 184.805H181.761L182.314 181.711C182.745 179.294 184.204 177.844 186.19 177.844C186.823 177.844 187.359 177.949 187.737 178.169L188.019 176.508C187.658 176.323 187.175 176.218 186.612 176.218C184.89 176.218 183.615 177.149 182.991 178.898H182.798ZM198.645 176.464H197.15L196.157 182.098C195.858 183.75 194.733 184.805 193.318 184.805C192.07 184.805 191.288 184.005 191.288 182.792C191.288 182.537 191.323 182.186 191.394 181.816L192.334 176.464H190.84L189.908 181.834C189.794 182.484 189.759 182.818 189.759 183.144C189.759 184.954 190.954 186.176 192.773 186.176C194.136 186.176 195.226 185.481 195.718 184.365H195.823L195.533 186H196.966L198.645 176.464ZM205.597 177.571C207.091 177.571 208.014 178.608 207.838 180.076C207.838 180.129 207.794 180.454 207.794 180.489H202.723C202.731 180.463 202.828 179.918 202.837 179.9C203.109 178.45 204.164 177.571 205.597 177.571ZM208.655 183.539H207.179C206.968 184.321 205.992 184.884 204.867 184.884C203.294 184.884 202.345 183.838 202.503 182.247C202.503 182.212 202.556 181.685 202.573 181.623H209.086L209.191 180.858C209.2 180.779 209.279 180.164 209.279 180.059C209.508 177.896 207.987 176.288 205.711 176.288C203.364 176.288 201.703 177.694 201.352 179.953L201.167 181.148C201.07 181.79 201.035 182.15 201.035 182.502C201.035 184.778 202.459 186.176 204.788 186.176C206.748 186.176 208.409 185.051 208.655 183.539Z" fill="#AAAAAA"/>
<path d="M288.34 186H289.834L291.293 177.765H295.485L295.696 176.49H291.495L291.671 175.506C291.847 174.504 292.62 173.994 293.965 173.994C294.466 173.994 295.714 174.091 296.136 174.196L296.347 172.948C295.881 172.825 294.677 172.746 294.149 172.746C291.803 172.746 290.511 173.634 290.194 175.532L290.019 176.49H287.461L287.241 177.765H289.799L288.34 186ZM300.284 186.158C301.541 186.158 302.613 185.569 303.088 184.629H303.176L302.938 186H304.362L305.329 180.498C305.487 179.654 305.514 179.417 305.514 179.013C305.514 177.404 304.195 176.341 302.209 176.341C300.267 176.341 298.72 177.396 298.421 178.916H299.915C300.161 178.151 301.04 177.633 302.068 177.633C303.255 177.633 304.02 178.257 304.02 179.232C304.02 179.426 304.002 179.575 303.949 179.865L303.861 180.349L301.488 180.366C298.852 180.393 297.393 181.5 297.41 183.478C297.428 185.068 298.597 186.158 300.284 186.158ZM300.803 184.849C299.669 184.849 298.948 184.233 298.957 183.267C298.966 182.159 299.871 181.526 301.479 181.518L303.668 181.509L303.457 182.634C303.229 183.908 302.095 184.849 300.803 184.849ZM316.166 186L316.377 184.761H313.23L315.357 172.72H310.638L310.427 173.959H313.661L311.736 184.761H308.476L308.265 186H316.166ZM324.366 182.01C325.395 182.344 325.808 182.739 325.808 183.39C325.808 184.312 324.92 184.928 323.593 184.928C322.274 184.928 321.448 184.365 321.316 183.372V183.354H319.84V183.442C319.901 185.121 321.352 186.185 323.558 186.185C325.834 186.185 327.372 184.963 327.372 183.161C327.372 182.001 326.704 181.28 325.104 180.753L323.848 180.34C322.802 179.997 322.389 179.61 322.389 178.986C322.389 178.116 323.25 177.51 324.489 177.51C325.676 177.51 326.388 178.046 326.493 179.013V179.039H327.943C327.943 179.004 327.952 178.969 327.952 178.916C327.873 177.281 326.572 176.279 324.524 176.279C322.371 176.279 320.877 177.457 320.877 179.18C320.877 180.331 321.554 181.078 323.048 181.579L324.366 182.01ZM335.66 177.571C337.154 177.571 338.077 178.608 337.901 180.076C337.901 180.129 337.857 180.454 337.857 180.489H332.786C332.795 180.463 332.892 179.918 332.9 179.9C333.173 178.45 334.228 177.571 335.66 177.571ZM338.719 183.539H337.242C337.031 184.321 336.056 184.884 334.931 184.884C333.357 184.884 332.408 183.838 332.566 182.247C332.566 182.212 332.619 181.685 332.637 181.623H339.149L339.255 180.858C339.264 180.779 339.343 180.164 339.343 180.059C339.571 177.896 338.051 176.288 335.774 176.288C333.428 176.288 331.767 177.694 331.415 179.953L331.23 181.148C331.134 181.79 331.099 182.15 331.099 182.502C331.099 184.778 332.522 186.176 334.852 186.176C336.812 186.176 338.473 185.051 338.719 183.539Z" fill="#AAAAAA"/>
<path d="M160 329V329.5H160.5V329H160ZM40 329H39.5V329.5H40V329ZM40 215V214.5H39.5V215H40ZM78.3536 215.354C78.5488 215.158 78.5488 214.842 78.3536 214.646L75.1716 211.464C74.9763 211.269 74.6597 211.269 74.4645 211.464C74.2692 211.66 74.2692 211.976 74.4645 212.172L77.2929 215L74.4645 217.828C74.2692 218.024 74.2692 218.34 74.4645 218.536C74.6597 218.731 74.9763 218.731 75.1716 218.536L78.3536 215.354ZM159.5 306V329H160.5V306H159.5ZM160 328.5H40V329.5H160V328.5ZM40.5 329V215H39.5V329H40.5ZM40 215.5H78V214.5H40V215.5Z" fill="#AAAAAA"/>
<path d="M280 154H280.5V153.5H280V154ZM280 340V340.5H280.5V340H280ZM160 340V339.5H159.5V340H160ZM159.646 357.854C159.842 358.049 160.158 358.049 160.354 357.854L163.536 354.672C163.731 354.476 163.731 354.16 163.536 353.964C163.34 353.769 163.024 353.769 162.828 353.964L160 356.793L157.172 353.964C156.976 353.769 156.66 353.769 156.464 353.964C156.269 354.16 156.269 354.476 156.464 354.672L159.646 357.854ZM214 154.5H280V153.5H214V154.5ZM279.5 154V340H280.5V154H279.5ZM280 339.5H160V340.5H280V339.5ZM159.5 340V357.5H160.5V340H159.5Z" fill="#AAAAAA"/>
</svg>
