<svg width="1080" height="340" viewBox="0 0 1080 340" fill="none" xmlns="http://www.w3.org/2000/svg">
<rect width="1080" height="340" fill="white"/>
<rect x="120" y="80" width="120" height="20" stroke="black"/>
<rect x="360" y="80" width="120" height="20" stroke="black"/>
<rect x="901" y="80" width="120" height="20" stroke="#AAAAAA"/>
<rect x="641" y="80" width="120" height="20" stroke="black"/>
<rect x="120" y="100" width="120" height="20" stroke="black"/>
<rect x="360" y="100" width="120" height="20" stroke="black"/>
<rect x="901" y="100" width="120" height="20" stroke="#AAAAAA"/>
<rect x="641" y="100" width="120" height="20" stroke="black"/>
<rect x="120" y="120" width="120" height="20" stroke="black"/>
<rect x="360" y="120" width="120" height="20" stroke="black"/>
<rect x="901" y="120" width="120" height="20" stroke="#AAAAAA"/>
<rect x="641" y="120" width="120" height="20" stroke="black"/>
<rect x="120" y="140" width="120" height="20" stroke="black"/>
<rect x="360" y="140" width="120" height="20" stroke="black"/>
<rect x="901" y="140" width="120" height="20" stroke="#AAAAAA"/>
<rect x="641" y="140" width="120" height="20" stroke="black"/>
<rect x="120" y="160" width="120" height="20" stroke="black"/>
<rect x="360" y="160" width="120" height="20" stroke="black"/>
<rect x="901" y="160" width="120" height="20" stroke="#AAAAAA"/>
<rect x="120" y="180" width="120" height="20" stroke="black"/>
<rect x="901" y="180" width="120" height="20" stroke="#AAAAAA"/>
<rect x="641" y="180" width="120" height="20" stroke="#AAAAAA"/>
<rect x="120" y="200" width="120" height="20" stroke="black"/>
<rect x="360" y="200" width="120" height="20" stroke="black"/>
<rect x="901" y="200" width="120" height="20" stroke="black"/>
<rect x="641" y="200" width="120" height="20" stroke="#AAAAAA"/>
<rect x="120" y="220" width="120" height="20" stroke="black"/>
<rect x="360" y="220" width="120" height="20" stroke="black"/>
<rect x="901" y="220" width="120" height="20" stroke="black"/>
<rect x="641" y="220" width="120" height="20" stroke="#AAAAAA"/>
<rect x="120" y="240" width="120" height="20" stroke="black"/>
<rect x="360" y="240" width="120" height="20" stroke="black"/>
<rect x="901" y="240" width="120" height="20" stroke="black"/>
<rect x="641" y="240" width="120" height="20" stroke="#AAAAAA"/>
<rect x="120" y="260" width="120" height="20" stroke="black"/>
<rect x="360" y="260" width="120" height="20" stroke="black"/>
<rect x="901" y="260" width="120" height="20" stroke="black"/>
<rect x="641" y="260" width="120" height="20" stroke="#AAAAAA"/>
<path d="M50.822 86.878H46.106V88.102H49.364V98.776H46.106V100H53.72V98.776H50.822V86.878ZM60.689 90.28C57.791 90.28 56.423 92.44 56.423 95.302C56.423 98.164 57.791 100.324 60.689 100.324C63.587 100.324 64.955 98.164 64.955 95.302C64.955 92.44 63.587 90.28 60.689 90.28ZM60.689 91.666C62.597 91.666 63.389 93.376 63.389 95.302C63.389 97.228 62.597 98.938 60.689 98.938C58.781 98.938 57.989 97.228 57.989 95.302C57.989 93.376 58.781 91.666 60.689 91.666ZM90.9378 97.822L91.8738 98.758L97.1118 93.52L91.8738 88.282L90.9378 89.218L94.6098 92.818H79.7238V94.222H94.6098L90.9378 97.822Z" fill="#AAAAAA"/>
<path d="M290.822 86.878H286.106V88.102H289.364V98.776H286.106V100H293.72V98.776H290.822V86.878ZM300.689 90.28C297.791 90.28 296.423 92.44 296.423 95.302C296.423 98.164 297.791 100.324 300.689 100.324C303.587 100.324 304.955 98.164 304.955 95.302C304.955 92.44 303.587 90.28 300.689 90.28ZM300.689 91.666C302.597 91.666 303.389 93.376 303.389 95.302C303.389 97.228 302.597 98.938 300.689 98.938C298.781 98.938 297.989 97.228 297.989 95.302C297.989 93.376 298.781 91.666 300.689 91.666ZM330.938 97.822L331.874 98.758L337.112 93.52L331.874 88.282L330.938 89.218L334.61 92.818H319.724V94.222H334.61L330.938 97.822Z" fill="#AAAAAA"/>
<path d="M831.822 86.878H827.106V88.102H830.364V98.776H827.106V100H834.72V98.776H831.822V86.878ZM841.689 90.28C838.791 90.28 837.423 92.44 837.423 95.302C837.423 98.164 838.791 100.324 841.689 100.324C844.587 100.324 845.955 98.164 845.955 95.302C845.955 92.44 844.587 90.28 841.689 90.28ZM841.689 91.666C843.597 91.666 844.389 93.376 844.389 95.302C844.389 97.228 843.597 98.938 841.689 98.938C839.781 98.938 838.989 97.228 838.989 95.302C838.989 93.376 839.781 91.666 841.689 91.666ZM871.938 97.822L872.874 98.758L878.112 93.52L872.874 88.282L871.938 89.218L875.61 92.818H860.724V94.222H875.61L871.938 97.822Z" fill="#AAAAAA"/>
<rect x="641" y="160" width="120" height="20" stroke="black"/>
<rect x="360" y="180" width="120" height="20" stroke="#0000FF"/>
<path d="M571.822 86.878H567.106V88.102H570.364V98.776H567.106V100H574.72V98.776H571.822V86.878ZM581.689 90.28C578.791 90.28 577.423 92.44 577.423 95.302C577.423 98.164 578.791 100.324 581.689 100.324C584.587 100.324 585.955 98.164 585.955 95.302C585.955 92.44 584.587 90.28 581.689 90.28ZM581.689 91.666C583.597 91.666 584.389 93.376 584.389 95.302C584.389 97.228 583.597 98.938 581.689 98.938C579.781 98.938 578.989 97.228 578.989 95.302C578.989 93.376 579.781 91.666 581.689 91.666ZM611.938 97.822L612.874 98.758L618.112 93.52L612.874 88.282L611.938 89.218L615.61 92.818H600.724V94.222H615.61L611.938 97.822Z" fill="#AAAAAA"/>
<path d="M273.702 200H275.178V193.196C275.178 192.206 275.772 191.612 276.78 191.612C277.392 191.612 277.824 191.954 277.824 192.62V200H279.3V193.196C279.3 192.206 279.894 191.612 280.902 191.612C281.514 191.612 281.946 191.954 281.946 192.62V200H283.422V192.314C283.422 191.126 282.558 190.352 281.388 190.352C280.326 190.352 279.57 190.982 279.192 191.612C278.922 190.838 278.184 190.352 277.266 190.352C276.258 190.352 275.502 190.946 275.106 191.54V190.568H273.702V200ZM288.951 189.218H290.751V187.418H288.951V189.218ZM290.589 190.568H285.873V191.792H289.113V198.776H285.873V200H293.487V198.776H290.589V190.568ZM303.318 186.878V191.738C302.67 190.766 301.698 190.28 300.42 190.28C297.738 190.28 296.37 192.476 296.37 195.194C296.37 198.092 297.684 200.324 300.474 200.324C301.716 200.324 302.724 199.766 303.48 198.668V200H304.812V186.878H303.318ZM300.672 191.684C302.562 191.684 303.318 193.466 303.318 195.356C303.318 197.102 302.58 198.92 300.69 198.92C298.764 198.92 297.936 197.228 297.936 195.302C297.936 193.268 298.908 191.684 300.672 191.684ZM331.065 197.822L332.001 198.758L337.239 193.52L332.001 188.282L331.065 189.218L334.737 192.818H319.851V194.222H334.737L331.065 197.822Z" fill="#AAAAAA"/>
<path d="M814.702 200H816.178V193.196C816.178 192.206 816.772 191.612 817.78 191.612C818.392 191.612 818.824 191.954 818.824 192.62V200H820.3V193.196C820.3 192.206 820.894 191.612 821.902 191.612C822.514 191.612 822.946 191.954 822.946 192.62V200H824.422V192.314C824.422 191.126 823.558 190.352 822.388 190.352C821.326 190.352 820.57 190.982 820.192 191.612C819.922 190.838 819.184 190.352 818.266 190.352C817.258 190.352 816.502 190.946 816.106 191.54V190.568H814.702V200ZM829.951 189.218H831.751V187.418H829.951V189.218ZM831.589 190.568H826.873V191.792H830.113V198.776H826.873V200H834.487V198.776H831.589V190.568ZM844.318 186.878V191.738C843.67 190.766 842.698 190.28 841.42 190.28C838.738 190.28 837.37 192.476 837.37 195.194C837.37 198.092 838.684 200.324 841.474 200.324C842.716 200.324 843.724 199.766 844.48 198.668V200H845.812V186.878H844.318ZM841.672 191.684C843.562 191.684 844.318 193.466 844.318 195.356C844.318 197.102 843.58 198.92 841.69 198.92C839.764 198.92 838.936 197.228 838.936 195.302C838.936 193.268 839.908 191.684 841.672 191.684ZM872.065 197.822L873.001 198.758L878.239 193.52L873.001 188.282L872.065 189.218L875.737 192.818H860.851V194.222H875.737L872.065 197.822Z" fill="#AAAAAA"/>
<path d="M792.702 220H794.178V213.196C794.178 212.206 794.772 211.612 795.78 211.612C796.392 211.612 796.824 211.954 796.824 212.62V220H798.3V213.196C798.3 212.206 798.894 211.612 799.902 211.612C800.514 211.612 800.946 211.954 800.946 212.62V220H802.422V212.314C802.422 211.126 801.558 210.352 800.388 210.352C799.326 210.352 798.57 210.982 798.192 211.612C797.922 210.838 797.184 210.352 796.266 210.352C795.258 210.352 794.502 210.946 794.106 211.54V210.568H792.702V220ZM807.951 209.218H809.751V207.418H807.951V209.218ZM809.589 210.568H804.873V211.792H808.113V218.776H804.873V220H812.487V218.776H809.589V210.568ZM822.318 206.878V211.738C821.67 210.766 820.698 210.28 819.42 210.28C816.738 210.28 815.37 212.476 815.37 215.194C815.37 218.092 816.684 220.324 819.474 220.324C820.716 220.324 821.724 219.766 822.48 218.668V220H823.812V206.878H822.318ZM819.672 211.684C821.562 211.684 822.318 213.466 822.318 215.356C822.318 217.102 821.58 218.92 819.69 218.92C817.764 218.92 816.936 217.228 816.936 215.302C816.936 213.268 817.908 211.684 819.672 211.684ZM831.573 213.574V209.848H830.313V213.574H826.587V214.834H830.313V218.56H831.573V214.834H835.299V213.574H831.573ZM841.962 220H843.546V207.274H842.358C841.818 209.38 841.566 209.56 838.596 209.686V210.874H841.962V220ZM872.319 217.822L873.255 218.758L878.493 213.52L873.255 208.282L872.319 209.218L875.991 212.818H861.105V214.222H875.991L872.319 217.822Z" fill="#AAAAAA"/>
<path d="M554.702 200H556.178V193.196C556.178 192.206 556.772 191.612 557.78 191.612C558.392 191.612 558.824 191.954 558.824 192.62V200H560.3V193.196C560.3 192.206 560.894 191.612 561.902 191.612C562.514 191.612 562.946 191.954 562.946 192.62V200H564.422V192.314C564.422 191.126 563.558 190.352 562.388 190.352C561.326 190.352 560.57 190.982 560.192 191.612C559.922 190.838 559.184 190.352 558.266 190.352C557.258 190.352 556.502 190.946 556.106 191.54V190.568H554.702V200ZM569.951 189.218H571.751V187.418H569.951V189.218ZM571.589 190.568H566.873V191.792H570.113V198.776H566.873V200H574.487V198.776H571.589V190.568ZM584.318 186.878V191.738C583.67 190.766 582.698 190.28 581.42 190.28C578.738 190.28 577.37 192.476 577.37 195.194C577.37 198.092 578.684 200.324 581.474 200.324C582.716 200.324 583.724 199.766 584.48 198.668V200H585.812V186.878H584.318ZM581.672 191.684C583.562 191.684 584.318 193.466 584.318 195.356C584.318 197.102 583.58 198.92 581.69 198.92C579.764 198.92 578.936 197.228 578.936 195.302C578.936 193.268 579.908 191.684 581.672 191.684ZM612.065 197.822L613.001 198.758L618.239 193.52L613.001 188.282L612.065 189.218L615.737 192.818H600.851V194.222H615.737L612.065 197.822Z" fill="#AAAAAA"/>
<path d="M65.936 51.054V50.82C65.936 48.732 64.352 47.13 61.724 47.13C59.024 47.13 57.332 48.606 57.332 50.712C57.332 52.44 58.322 53.574 60.14 54.006L62.75 54.618C63.992 54.906 64.604 55.536 64.604 56.652C64.604 57.93 63.758 58.83 61.868 58.83C59.744 58.83 58.628 57.66 58.61 55.986H56.99C57.026 58.668 58.7 60.324 61.832 60.324C64.478 60.324 66.296 58.92 66.296 56.418C66.296 54.798 65.27 53.502 63.308 53.052L60.734 52.458C59.564 52.188 59.024 51.594 59.024 50.55C59.024 49.416 59.942 48.552 61.67 48.552C63.416 48.552 64.262 49.614 64.316 51.054H65.936ZM76.793 57.084H75.281C74.867 58.344 74.039 58.938 72.815 58.938C70.997 58.938 70.097 57.588 70.043 55.734H76.991C76.991 52.458 75.713 50.28 72.797 50.28C70.187 50.28 68.477 52.224 68.477 55.374C68.477 58.254 69.917 60.324 72.761 60.324C74.975 60.324 76.469 59.064 76.793 57.084ZM72.779 51.666C74.399 51.666 75.371 52.944 75.371 54.51H70.079C70.205 52.926 71.087 51.666 72.779 51.666ZM88.4959 59.01C88.4059 59.028 88.2619 59.046 88.1719 59.046C87.6319 59.046 87.3619 58.794 87.3619 58.308V52.872C87.3619 51.198 86.1379 50.298 83.8159 50.298C81.5839 50.298 80.0719 51.18 80.0359 53.358H81.5479C81.6739 52.206 82.3579 51.684 83.7439 51.684C85.1659 51.684 85.9039 52.152 85.9039 53.088V53.412C85.9039 54.024 85.5079 54.258 84.3019 54.42C83.2399 54.564 82.5379 54.672 82.2139 54.726C81.1159 54.906 79.6399 55.608 79.6399 57.552C79.6399 59.298 80.8819 60.324 82.7179 60.324C83.9239 60.324 84.8599 59.928 85.9219 58.884C86.0299 59.856 86.5519 60.306 87.5959 60.306C87.8299 60.306 88.1179 60.252 88.4959 60.144V59.01ZM85.9039 56.724C85.9039 58.038 84.4099 59.01 83.0959 59.01C81.8899 59.01 81.1699 58.452 81.1699 57.516C81.1699 56.328 82.0519 55.932 83.4559 55.77C84.2479 55.68 85.2739 55.518 85.9039 55.23V56.724ZM91.6129 60H93.1249V55.428C93.1249 53.214 94.3489 51.612 96.2389 51.612C97.5169 51.612 98.1289 52.224 98.3449 53.358H99.8389C99.6589 51.486 98.5429 50.298 96.3829 50.298C94.8349 50.298 93.6289 51.252 92.9989 52.602V50.568H91.6129V60ZM110.102 53.682C110.048 51.684 108.608 50.28 106.304 50.28C103.496 50.28 102.02 52.566 102.02 55.392C102.02 58.164 103.532 60.324 106.286 60.324C108.608 60.324 110.012 58.974 110.21 56.706H108.698C108.446 58.2 107.636 58.938 106.322 58.938C104.432 58.938 103.586 57.264 103.586 55.392C103.586 53.52 104.342 51.666 106.286 51.666C107.6 51.666 108.428 52.44 108.59 53.682H110.102ZM113.453 60H114.947V54.69C114.947 53.07 115.829 51.612 117.521 51.612C118.565 51.612 119.465 52.206 119.465 53.466V60H120.959V52.872C120.959 51.126 119.609 50.298 117.971 50.298C116.477 50.298 115.613 50.982 114.947 51.972V46.878H113.453V60ZM144.131 59.01C144.041 59.028 143.897 59.046 143.807 59.046C143.267 59.046 142.997 58.794 142.997 58.308V52.872C142.997 51.198 141.773 50.298 139.451 50.298C137.219 50.298 135.707 51.18 135.671 53.358H137.183C137.309 52.206 137.993 51.684 139.379 51.684C140.801 51.684 141.539 52.152 141.539 53.088V53.412C141.539 54.024 141.143 54.258 139.937 54.42C138.875 54.564 138.173 54.672 137.849 54.726C136.751 54.906 135.275 55.608 135.275 57.552C135.275 59.298 136.517 60.324 138.353 60.324C139.559 60.324 140.495 59.928 141.557 58.884C141.665 59.856 142.187 60.306 143.231 60.306C143.465 60.306 143.753 60.252 144.131 60.144V59.01ZM141.539 56.724C141.539 58.038 140.045 59.01 138.731 59.01C137.525 59.01 136.805 58.452 136.805 57.516C136.805 56.328 137.687 55.932 139.091 55.77C139.883 55.68 140.909 55.518 141.539 55.23V56.724ZM149.444 45.978V61.44H153.152V60.252H150.74V47.166H153.152V45.978H149.444ZM162.965 46.878H158.249V48.102H161.507V58.776H158.249V60H165.863V58.776H162.965V46.878ZM172.832 50.28C169.934 50.28 168.566 52.44 168.566 55.302C168.566 58.164 169.934 60.324 172.832 60.324C175.73 60.324 177.098 58.164 177.098 55.302C177.098 52.44 175.73 50.28 172.832 50.28ZM172.832 51.666C174.74 51.666 175.532 53.376 175.532 55.302C175.532 57.228 174.74 58.938 172.832 58.938C170.924 58.938 170.132 57.228 170.132 55.302C170.132 53.376 170.924 51.666 172.832 51.666ZM182.734 60H184.174V60.684C184.174 61.602 183.724 62.052 182.752 62.052H182.464V62.97H182.788C184.372 62.97 185.182 62.07 185.182 60.63V57.552H182.734V60ZM202.468 60H203.962V54.69C203.962 53.07 204.844 51.612 206.536 51.612C207.58 51.612 208.48 52.206 208.48 53.466V60H209.974V52.872C209.974 51.126 208.624 50.298 206.986 50.298C205.492 50.298 204.628 50.982 203.962 51.972V46.878H202.468V60ZM216.601 49.218H218.401V47.418H216.601V49.218ZM218.239 50.568H213.523V51.792H216.763V58.776H213.523V60H221.137V58.776H218.239V50.568ZM227.242 61.458C228.97 59.514 230.086 56.688 230.086 53.718C230.086 50.748 228.97 47.922 227.242 45.978H225.622C227.602 48.246 228.628 50.874 228.628 53.718C228.628 56.562 227.602 59.19 225.622 61.458H227.242Z" fill="black"/>
<path d="M296.702 60H298.178V53.196C298.178 52.206 298.772 51.612 299.78 51.612C300.392 51.612 300.824 51.954 300.824 52.62V60H302.3V53.196C302.3 52.206 302.894 51.612 303.902 51.612C304.514 51.612 304.946 51.954 304.946 52.62V60H306.422V52.314C306.422 51.126 305.558 50.352 304.388 50.352C303.326 50.352 302.57 50.982 302.192 51.612C301.922 50.838 301.184 50.352 300.266 50.352C299.258 50.352 298.502 50.946 298.106 51.54V50.568H296.702V60ZM311.951 49.218H313.751V47.418H311.951V49.218ZM313.589 50.568H308.873V51.792H312.113V58.776H308.873V60H316.487V58.776H313.589V50.568ZM326.318 46.878V51.738C325.67 50.766 324.698 50.28 323.42 50.28C320.738 50.28 319.37 52.476 319.37 55.194C319.37 58.092 320.684 60.324 323.474 60.324C324.716 60.324 325.724 59.766 326.48 58.668V60H327.812V46.878H326.318ZM323.672 51.684C325.562 51.684 326.318 53.466 326.318 55.356C326.318 57.102 325.58 58.92 323.69 58.92C321.764 58.92 320.936 57.228 320.936 55.302C320.936 53.268 321.908 51.684 323.672 51.684ZM341.894 51.288V52.548H350.246V51.288H341.894ZM341.894 55.824V57.084H350.246V55.824H341.894ZM369.584 46.878H364.868V48.102H368.126V58.776H364.868V60H372.482V58.776H369.584V46.878ZM379.451 50.28C376.553 50.28 375.185 52.44 375.185 55.302C375.185 58.164 376.553 60.324 379.451 60.324C382.349 60.324 383.717 58.164 383.717 55.302C383.717 52.44 382.349 50.28 379.451 50.28ZM379.451 51.666C381.359 51.666 382.151 53.376 382.151 55.302C382.151 57.228 381.359 58.938 379.451 58.938C377.543 58.938 376.751 57.228 376.751 55.302C376.751 53.376 377.543 51.666 379.451 51.666ZM402.335 53.574V49.848H401.075V53.574H397.349V54.834H401.075V58.56H402.335V54.834H406.061V53.574H402.335ZM425.182 45.96C423.454 47.904 422.338 50.73 422.338 53.7C422.338 56.67 423.454 59.496 425.182 61.44H426.802C424.822 59.172 423.796 56.544 423.796 53.7C423.796 50.856 424.822 48.228 426.802 45.96H425.182ZM431.341 60H432.835V54.69C432.835 53.07 433.717 51.612 435.409 51.612C436.453 51.612 437.353 52.206 437.353 53.466V60H438.847V52.872C438.847 51.126 437.497 50.298 435.859 50.298C434.365 50.298 433.501 50.982 432.835 51.972V46.878H431.341V60ZM445.474 49.218H447.274V47.418H445.474V49.218ZM447.112 50.568H442.396V51.792H445.636V58.776H442.396V60H450.01V58.776H447.112V50.568ZM453.937 53.556V54.852H460.741V53.556H453.937ZM469.726 46.878H465.01V48.102H468.268V58.776H465.01V60H472.624V58.776H469.726V46.878ZM479.593 50.28C476.695 50.28 475.327 52.44 475.327 55.302C475.327 58.164 476.695 60.324 479.593 60.324C482.491 60.324 483.859 58.164 483.859 55.302C483.859 52.44 482.491 50.28 479.593 50.28ZM479.593 51.666C481.501 51.666 482.293 53.376 482.293 55.302C482.293 57.228 481.501 58.938 479.593 58.938C477.685 58.938 476.893 57.228 476.893 55.302C476.893 53.376 477.685 51.666 479.593 51.666ZM489.496 61.458C491.224 59.514 492.34 56.688 492.34 53.718C492.34 50.748 491.224 47.922 489.496 45.978H487.876C489.856 48.246 490.882 50.874 490.882 53.718C490.882 56.562 489.856 59.19 487.876 61.458H489.496ZM498.049 61.44H499.579L505.645 45.708H504.115L498.049 61.44ZM517.186 58.614H510.472C510.58 57.426 511.282 56.526 512.794 55.716L514.594 54.762C516.394 53.808 517.276 52.548 517.276 50.928C517.276 48.822 515.926 47.13 513.352 47.13C510.508 47.13 509.068 48.75 508.978 51.63H510.562C510.688 49.776 511.444 48.516 513.298 48.516C514.9 48.516 515.656 49.506 515.656 50.928C515.656 52.026 515.08 52.836 513.946 53.466L512.272 54.384C509.68 55.806 508.888 57.048 508.69 60H517.186V58.614Z" fill="black"/>
<path d="M845.262 56.058C845.262 58.218 844.002 58.848 842.544 58.848C841.104 58.848 839.862 58.254 839.862 56.058V47.418H838.188V56.292C838.188 59.154 840.096 60.324 842.544 60.324C844.92 60.324 846.936 59.208 846.936 56.292V47.418H845.262V56.058ZM851.205 63.924V58.92C851.997 59.91 852.879 60.324 854.103 60.324C856.803 60.324 858.135 58.092 858.135 55.392C858.135 52.674 856.893 50.28 854.085 50.28C852.771 50.28 851.781 50.838 851.079 51.972V50.568H849.693V63.924H851.205ZM853.833 51.684C855.741 51.684 856.569 53.448 856.569 55.356C856.569 57.174 855.723 58.92 853.833 58.92C851.961 58.92 851.205 57.138 851.205 55.302C851.205 53.466 851.961 51.684 853.833 51.684ZM862.332 63.924V58.92C863.124 59.91 864.006 60.324 865.23 60.324C867.93 60.324 869.262 58.092 869.262 55.392C869.262 52.674 868.02 50.28 865.212 50.28C863.898 50.28 862.908 50.838 862.206 51.972V50.568H860.82V63.924H862.332ZM864.96 51.684C866.868 51.684 867.696 53.448 867.696 55.356C867.696 57.174 866.85 58.92 864.96 58.92C863.088 58.92 862.332 57.138 862.332 55.302C862.332 53.466 863.088 51.684 864.96 51.684ZM880.047 57.084H878.535C878.121 58.344 877.293 58.938 876.069 58.938C874.251 58.938 873.351 57.588 873.297 55.734H880.245C880.245 52.458 878.967 50.28 876.051 50.28C873.441 50.28 871.731 52.224 871.731 55.374C871.731 58.254 873.171 60.324 876.015 60.324C878.229 60.324 879.723 59.064 880.047 57.084ZM876.033 51.666C877.653 51.666 878.625 52.944 878.625 54.51H873.333C873.459 52.926 874.341 51.666 876.033 51.666ZM883.74 60H885.252V55.428C885.252 53.214 886.476 51.612 888.366 51.612C889.644 51.612 890.256 52.224 890.472 53.358H891.966C891.786 51.486 890.67 50.298 888.51 50.298C886.962 50.298 885.756 51.252 885.126 52.602V50.568H883.74V60ZM899.421 53.016V50.568H896.973V53.016H899.421ZM896.973 57.552V60H899.421V57.552H896.973ZM925.131 59.01C925.041 59.028 924.897 59.046 924.807 59.046C924.267 59.046 923.997 58.794 923.997 58.308V52.872C923.997 51.198 922.773 50.298 920.451 50.298C918.219 50.298 916.707 51.18 916.671 53.358H918.183C918.309 52.206 918.993 51.684 920.379 51.684C921.801 51.684 922.539 52.152 922.539 53.088V53.412C922.539 54.024 922.143 54.258 920.937 54.42C919.875 54.564 919.173 54.672 918.849 54.726C917.751 54.906 916.275 55.608 916.275 57.552C916.275 59.298 917.517 60.324 919.353 60.324C920.559 60.324 921.495 59.928 922.557 58.884C922.665 59.856 923.187 60.306 924.231 60.306C924.465 60.306 924.753 60.252 925.131 60.144V59.01ZM922.539 56.724C922.539 58.038 921.045 59.01 919.731 59.01C918.525 59.01 917.805 58.452 917.805 57.516C917.805 56.328 918.687 55.932 920.091 55.77C920.883 55.68 921.909 55.518 922.539 55.23V56.724ZM930.444 45.978V61.44H934.152V60.252H931.74V47.166H934.152V45.978H930.444ZM937.845 60H939.321V53.196C939.321 52.206 939.915 51.612 940.923 51.612C941.535 51.612 941.967 51.954 941.967 52.62V60H943.443V53.196C943.443 52.206 944.037 51.612 945.045 51.612C945.657 51.612 946.089 51.954 946.089 52.62V60H947.565V52.314C947.565 51.126 946.701 50.352 945.531 50.352C944.469 50.352 943.713 50.982 943.335 51.612C943.065 50.838 942.327 50.352 941.409 50.352C940.401 50.352 939.645 50.946 939.249 51.54V50.568H937.845V60ZM953.094 49.218H954.894V47.418H953.094V49.218ZM954.732 50.568H950.016V51.792H953.256V58.776H950.016V60H957.63V58.776H954.732V50.568ZM967.46 46.878V51.738C966.812 50.766 965.84 50.28 964.562 50.28C961.88 50.28 960.512 52.476 960.512 55.194C960.512 58.092 961.826 60.324 964.616 60.324C965.858 60.324 966.866 59.766 967.622 58.668V60H968.954V46.878H967.46ZM964.814 51.684C966.704 51.684 967.46 53.466 967.46 55.356C967.46 57.102 966.722 58.92 964.832 58.92C962.906 58.92 962.078 57.228 962.078 55.302C962.078 53.268 963.05 51.684 964.814 51.684ZM976.715 53.574V49.848H975.455V53.574H971.729V54.834H975.455V58.56H976.715V54.834H980.441V53.574H976.715ZM987.104 60H988.688V47.274H987.5C986.96 49.38 986.708 49.56 983.738 49.686V50.874H987.104V60ZM997.115 60H998.555V60.684C998.555 61.602 998.105 62.052 997.133 62.052H996.845V62.97H997.169C998.753 62.97 999.563 62.07 999.563 60.63V57.552H997.115V60ZM1016.85 60H1018.34V54.69C1018.34 53.07 1019.23 51.612 1020.92 51.612C1021.96 51.612 1022.86 52.206 1022.86 53.466V60H1024.36V52.872C1024.36 51.126 1023.01 50.298 1021.37 50.298C1019.87 50.298 1019.01 50.982 1018.34 51.972V46.878H1016.85V60ZM1030.98 49.218H1032.78V47.418H1030.98V49.218ZM1032.62 50.568H1027.9V51.792H1031.14V58.776H1027.9V60H1035.52V58.776H1032.62V50.568ZM1041.62 61.458C1043.35 59.514 1044.47 56.688 1044.47 53.718C1044.47 50.748 1043.35 47.922 1041.62 45.978H1040C1041.98 48.246 1043.01 50.874 1043.01 53.718C1043.01 56.562 1041.98 59.19 1040 61.458H1041.62Z" fill="black"/>
<path d="M579.232 47.418V60H586.9V58.524H580.906V47.418H579.232ZM593.689 50.28C590.791 50.28 589.423 52.44 589.423 55.302C589.423 58.164 590.791 60.324 593.689 60.324C596.587 60.324 597.955 58.164 597.955 55.302C597.955 52.44 596.587 50.28 593.689 50.28ZM593.689 51.666C595.597 51.666 596.389 53.376 596.389 55.302C596.389 57.228 595.597 58.938 593.689 58.938C591.781 58.938 590.989 57.228 590.989 55.302C590.989 53.376 591.781 51.666 593.689 51.666ZM601.612 60H603.412L604.78 51.882H604.798L606.184 60H607.984L609.982 50.568H608.488L607.138 58.488H607.12L605.752 50.568H603.844L602.53 58.47H602.512L601.162 50.568H599.65L601.612 60ZM620.047 57.084H618.535C618.121 58.344 617.293 58.938 616.069 58.938C614.251 58.938 613.351 57.588 613.297 55.734H620.245C620.245 52.458 618.967 50.28 616.051 50.28C613.441 50.28 611.731 52.224 611.731 55.374C611.731 58.254 613.171 60.324 616.015 60.324C618.229 60.324 619.723 59.064 620.047 57.084ZM616.033 51.666C617.653 51.666 618.625 52.944 618.625 54.51H613.333C613.459 52.926 614.341 51.666 616.033 51.666ZM623.74 60H625.252V55.428C625.252 53.214 626.476 51.612 628.366 51.612C629.644 51.612 630.256 52.224 630.472 53.358H631.966C631.786 51.486 630.67 50.298 628.51 50.298C626.962 50.298 625.756 51.252 625.126 52.602V50.568H623.74V60ZM639.421 53.016V50.568H636.973V53.016H639.421ZM636.973 57.552V60H639.421V57.552H636.973ZM665.131 59.01C665.041 59.028 664.897 59.046 664.807 59.046C664.267 59.046 663.997 58.794 663.997 58.308V52.872C663.997 51.198 662.773 50.298 660.451 50.298C658.219 50.298 656.707 51.18 656.671 53.358H658.183C658.309 52.206 658.993 51.684 660.379 51.684C661.801 51.684 662.539 52.152 662.539 53.088V53.412C662.539 54.024 662.143 54.258 660.937 54.42C659.875 54.564 659.173 54.672 658.849 54.726C657.751 54.906 656.275 55.608 656.275 57.552C656.275 59.298 657.517 60.324 659.353 60.324C660.559 60.324 661.495 59.928 662.557 58.884C662.665 59.856 663.187 60.306 664.231 60.306C664.465 60.306 664.753 60.252 665.131 60.144V59.01ZM662.539 56.724C662.539 58.038 661.045 59.01 659.731 59.01C658.525 59.01 657.805 58.452 657.805 57.516C657.805 56.328 658.687 55.932 660.091 55.77C660.883 55.68 661.909 55.518 662.539 55.23V56.724ZM670.444 45.978V61.44H674.152V60.252H671.74V47.166H674.152V45.978H670.444ZM683.965 46.878H679.249V48.102H682.507V58.776H679.249V60H686.863V58.776H683.965V46.878ZM693.832 50.28C690.934 50.28 689.566 52.44 689.566 55.302C689.566 58.164 690.934 60.324 693.832 60.324C696.73 60.324 698.098 58.164 698.098 55.302C698.098 52.44 696.73 50.28 693.832 50.28ZM693.832 51.666C695.74 51.666 696.532 53.376 696.532 55.302C696.532 57.228 695.74 58.938 693.832 58.938C691.924 58.938 691.132 57.228 691.132 55.302C691.132 53.376 691.924 51.666 693.832 51.666ZM703.734 60H705.174V60.684C705.174 61.602 704.724 62.052 703.752 62.052H703.464V62.97H703.788C705.372 62.97 706.182 62.07 706.182 60.63V57.552H703.734V60ZM711.225 60H712.701V53.196C712.701 52.206 713.295 51.612 714.303 51.612C714.915 51.612 715.347 51.954 715.347 52.62V60H716.823V53.196C716.823 52.206 717.417 51.612 718.425 51.612C719.037 51.612 719.469 51.954 719.469 52.62V60H720.945V52.314C720.945 51.126 720.081 50.352 718.911 50.352C717.849 50.352 717.093 50.982 716.715 51.612C716.445 50.838 715.707 50.352 714.789 50.352C713.781 50.352 713.025 50.946 712.629 51.54V50.568H711.225V60ZM726.474 49.218H728.274V47.418H726.474V49.218ZM728.112 50.568H723.396V51.792H726.636V58.776H723.396V60H731.01V58.776H728.112V50.568ZM740.841 46.878V51.738C740.193 50.766 739.221 50.28 737.943 50.28C735.261 50.28 733.893 52.476 733.893 55.194C733.893 58.092 735.207 60.324 737.997 60.324C739.239 60.324 740.247 59.766 741.003 58.668V60H742.335V46.878H740.841ZM738.195 51.684C740.085 51.684 740.841 53.466 740.841 55.356C740.841 57.102 740.103 58.92 738.213 58.92C736.287 58.92 735.459 57.228 735.459 55.302C735.459 53.268 736.431 51.684 738.195 51.684ZM748.242 61.458C749.97 59.514 751.086 56.688 751.086 53.718C751.086 50.748 749.97 47.922 748.242 45.978H746.622C748.602 48.246 749.628 50.874 749.628 53.718C749.628 56.562 748.602 59.19 746.622 61.458H748.242Z" fill="black"/>
<path d="M45.818 300H47.312V294.69C47.312 293.07 48.194 291.612 49.886 291.612C50.93 291.612 51.83 292.206 51.83 293.466V300H53.324V292.872C53.324 291.126 51.974 290.298 50.336 290.298C48.842 290.298 47.978 290.982 47.312 291.972V286.878H45.818V300ZM59.951 289.218H61.751V287.418H59.951V289.218ZM61.589 290.568H56.873V291.792H60.113V298.776H56.873V300H64.487V298.776H61.589V290.568ZM90.9378 297.822L91.8738 298.758L97.1118 293.52L91.8738 288.282L90.9378 289.218L94.6098 292.818H79.7238V294.222H94.6098L90.9378 297.822Z" fill="#AAAAAA"/>
<path d="M285.818 300H287.312V294.69C287.312 293.07 288.194 291.612 289.886 291.612C290.93 291.612 291.83 292.206 291.83 293.466V300H293.324V292.872C293.324 291.126 291.974 290.298 290.336 290.298C288.842 290.298 287.978 290.982 287.312 291.972V286.878H285.818V300ZM299.951 289.218H301.751V287.418H299.951V289.218ZM301.589 290.568H296.873V291.792H300.113V298.776H296.873V300H304.487V298.776H301.589V290.568ZM330.938 297.822L331.874 298.758L337.112 293.52L331.874 288.282L330.938 289.218L334.61 292.818H319.724V294.222H334.61L330.938 297.822Z" fill="#AAAAAA"/>
<path d="M826.818 300H828.312V294.69C828.312 293.07 829.194 291.612 830.886 291.612C831.93 291.612 832.83 292.206 832.83 293.466V300H834.324V292.872C834.324 291.126 832.974 290.298 831.336 290.298C829.842 290.298 828.978 290.982 828.312 291.972V286.878H826.818V300ZM840.951 289.218H842.751V287.418H840.951V289.218ZM842.589 290.568H837.873V291.792H841.113V298.776H837.873V300H845.487V298.776H842.589V290.568ZM871.938 297.822L872.874 298.758L878.112 293.52L872.874 288.282L871.938 289.218L875.61 292.818H860.724V294.222H875.61L871.938 297.822Z" fill="#AAAAAA"/>
<path d="M566.818 300H568.312V294.69C568.312 293.07 569.194 291.612 570.886 291.612C571.93 291.612 572.83 292.206 572.83 293.466V300H574.324V292.872C574.324 291.126 572.974 290.298 571.336 290.298C569.842 290.298 568.978 290.982 568.312 291.972V286.878H566.818V300ZM580.951 289.218H582.751V287.418H580.951V289.218ZM582.589 290.568H577.873V291.792H581.113V298.776H577.873V300H585.487V298.776H582.589V290.568ZM611.938 297.822L612.874 298.758L618.112 293.52L612.874 288.282L611.938 289.218L615.61 292.818H600.724V294.222H615.61L611.938 297.822Z" fill="#AAAAAA"/>
</svg>
