<svg width="920" height="180" viewBox="0 0 920 180" fill="none" xmlns="http://www.w3.org/2000/svg">
<rect width="920" height="180" fill="white"/>
<path d="M42.0918 53.0391C42.0918 54.3926 42.9443 55.2627 44.667 55.6582L46.082 55.9834C47.2949 56.2559 47.7607 56.6602 47.7607 57.416C47.7607 58.3301 46.9346 58.9189 45.6338 58.9189C44.4033 58.9189 43.5596 58.4092 43.3398 57.5303H41.8193C41.9863 59.165 43.4189 60.1758 45.5811 60.1758C47.8398 60.1758 49.3076 59.0332 49.3076 57.2754C49.3076 55.8955 48.4639 55.0869 46.6094 54.665L45.2646 54.3574C44.0693 54.0938 43.5771 53.6807 43.5771 52.9512C43.5771 52.0811 44.3594 51.5186 45.5723 51.5186C46.6885 51.5186 47.4883 52.0283 47.6641 52.8633H49.1055C48.9297 51.2725 47.585 50.2793 45.5986 50.2793C43.498 50.2793 42.0918 51.3867 42.0918 53.0391ZM60.5928 50.4639H59.0986V56.0801C59.0986 57.7061 58.0439 58.8047 56.4707 58.8047C54.9854 58.8047 54.2822 57.9961 54.2822 56.2734V50.4639H52.7881V56.6514C52.7881 58.9365 53.9131 60.1758 55.9873 60.1758C57.4375 60.1758 58.5273 59.5078 59.0371 58.3213H59.1602V60H60.5928V50.4639ZM72.4141 52.9775C72.4141 51.2109 71.7197 50.2881 70.3926 50.2881C69.4346 50.2881 68.6699 50.8682 68.4238 51.7822H68.2656C68.0635 50.8418 67.4307 50.2881 66.5342 50.2881C65.6377 50.2881 64.9521 50.8506 64.7148 51.8086H64.5566V50.4639H63.2207V60H64.5654V53.5664C64.5654 52.3799 65.0928 51.6504 65.9365 51.6504C66.7451 51.6504 67.167 52.2568 67.167 53.4082V60H68.5029V53.5664C68.5029 52.3799 69.0127 51.6504 69.8477 51.6504C70.6475 51.6504 71.0693 52.2568 71.0693 53.417V60H72.4141V52.9775ZM77.0283 53.6543C77.0283 56.6426 77.9248 59.2266 79.6738 61.2129H81.1592C79.3398 58.6553 78.5752 56.4141 78.5752 53.6543C78.5752 50.8945 79.3398 48.6533 81.1592 46.0957H79.6738C77.9248 48.082 77.0283 50.6748 77.0283 53.6543ZM86.1689 60H87.6631V54.3838C87.6631 52.7578 88.7178 51.6592 90.291 51.6592C91.7764 51.6592 92.4795 52.4678 92.4795 54.1904V60H93.9736V53.8125C93.9736 51.5273 92.8486 50.2881 90.7744 50.2881C89.3242 50.2881 88.2344 50.9561 87.7246 52.1426H87.6016V50.4639H86.1689V60ZM98.9834 46.0957C100.803 48.6533 101.567 50.8945 101.567 53.6543C101.567 56.4141 100.803 58.6553 98.9834 61.2129H100.469C102.218 59.2266 103.114 56.6426 103.114 53.6543C103.114 50.6748 102.218 48.082 100.469 46.0957H98.9834ZM64.3457 73.0391C64.3457 74.3926 65.1982 75.2627 66.9209 75.6582L68.3359 75.9834C69.5488 76.2559 70.0146 76.6602 70.0146 77.416C70.0146 78.3301 69.1885 78.9189 67.8877 78.9189C66.6572 78.9189 65.8135 78.4092 65.5938 77.5303H64.0732C64.2402 79.165 65.6729 80.1758 67.835 80.1758C70.0938 80.1758 71.5615 79.0332 71.5615 77.2754C71.5615 75.8955 70.7178 75.0869 68.8633 74.665L67.5186 74.3574C66.3232 74.0938 65.8311 73.6807 65.8311 72.9512C65.8311 72.0811 66.6133 71.5186 67.8262 71.5186C68.9424 71.5186 69.7422 72.0283 69.918 72.8633H71.3594C71.1836 71.2725 69.8389 70.2793 67.8525 70.2793C65.752 70.2793 64.3457 71.3867 64.3457 73.0391ZM82.8467 70.4639H81.3525V76.0801C81.3525 77.7061 80.2979 78.8047 78.7246 78.8047C77.2393 78.8047 76.5361 77.9961 76.5361 76.2734V70.4639H75.042V76.6514C75.042 78.9365 76.167 80.1758 78.2412 80.1758C79.6914 80.1758 80.7812 79.5078 81.291 78.3213H81.4141V80H82.8467V70.4639ZM94.668 72.9775C94.668 71.2109 93.9736 70.2881 92.6465 70.2881C91.6885 70.2881 90.9238 70.8682 90.6777 71.7822H90.5195C90.3174 70.8418 89.6846 70.2881 88.7881 70.2881C87.8916 70.2881 87.2061 70.8506 86.9688 71.8086H86.8105V70.4639H85.4746V80H86.8193V73.5664C86.8193 72.3799 87.3467 71.6504 88.1904 71.6504C88.999 71.6504 89.4209 72.2568 89.4209 73.4082V80H90.7568V73.5664C90.7568 72.3799 91.2666 71.6504 92.1016 71.6504C92.9014 71.6504 93.3232 72.2568 93.3232 73.417V80H94.668V72.9775ZM99.2822 73.6543C99.2822 76.6426 100.179 79.2266 101.928 81.2129H103.413C101.594 78.6553 100.829 76.4141 100.829 73.6543C100.829 70.8945 101.594 68.6533 103.413 66.0957H101.928C100.179 68.082 99.2822 70.6748 99.2822 73.6543ZM108.423 80H109.917V74.3838C109.917 72.7578 110.972 71.6592 112.545 71.6592C114.03 71.6592 114.733 72.4678 114.733 74.1904V80H116.228V73.8125C116.228 71.5273 115.103 70.2881 113.028 70.2881C111.578 70.2881 110.488 70.9561 109.979 72.1426H109.855V70.4639H108.423V80ZM128.102 75.0693V73.6807H118.803V75.0693H128.102ZM135.801 78.6377V67.3174H134.28L130.501 69.7695V71.4219L134.131 69.0752H134.271V78.6377H130.527V80H139.369V78.6377H135.801ZM143.491 66.0957C145.311 68.6533 146.075 70.8945 146.075 73.6543C146.075 76.4141 145.311 78.6553 143.491 81.2129H144.977C146.726 79.2266 147.622 76.6426 147.622 73.6543C147.622 70.6748 146.726 68.082 144.977 66.0957H143.491ZM86.5996 93.0391C86.5996 94.3926 87.4521 95.2627 89.1748 95.6582L90.5898 95.9834C91.8027 96.2559 92.2686 96.6602 92.2686 97.416C92.2686 98.3301 91.4424 98.9189 90.1416 98.9189C88.9111 98.9189 88.0674 98.4092 87.8477 97.5303H86.3271C86.4941 99.165 87.9268 100.176 90.0889 100.176C92.3477 100.176 93.8154 99.0332 93.8154 97.2754C93.8154 95.8955 92.9717 95.0869 91.1172 94.665L89.7725 94.3574C88.5771 94.0938 88.085 93.6807 88.085 92.9512C88.085 92.0811 88.8672 91.5186 90.0801 91.5186C91.1963 91.5186 91.9961 92.0283 92.1719 92.8633H93.6133C93.4375 91.2725 92.0928 90.2793 90.1064 90.2793C88.0059 90.2793 86.5996 91.3867 86.5996 93.0391ZM105.101 90.4639H103.606V96.0801C103.606 97.7061 102.552 98.8047 100.979 98.8047C99.4932 98.8047 98.79 97.9961 98.79 96.2734V90.4639H97.2959V96.6514C97.2959 98.9365 98.4209 100.176 100.495 100.176C101.945 100.176 103.035 99.5078 103.545 98.3213H103.668V100H105.101V90.4639ZM116.922 92.9775C116.922 91.2109 116.228 90.2881 114.9 90.2881C113.942 90.2881 113.178 90.8682 112.932 91.7822H112.773C112.571 90.8418 111.938 90.2881 111.042 90.2881C110.146 90.2881 109.46 90.8506 109.223 91.8086H109.064V90.4639H107.729V100H109.073V93.5664C109.073 92.3799 109.601 91.6504 110.444 91.6504C111.253 91.6504 111.675 92.2568 111.675 93.4082V100H113.011V93.5664C113.011 92.3799 113.521 91.6504 114.355 91.6504C115.155 91.6504 115.577 92.2568 115.577 93.417V100H116.922V92.9775ZM121.536 93.6543C121.536 96.6426 122.433 99.2266 124.182 101.213H125.667C123.848 98.6553 123.083 96.4141 123.083 93.6543C123.083 90.8945 123.848 88.6533 125.667 86.0957H124.182C122.433 88.082 121.536 90.6748 121.536 93.6543ZM130.677 100H132.171V94.3838C132.171 92.7578 133.226 91.6592 134.799 91.6592C136.284 91.6592 136.987 92.4678 136.987 94.1904V100H138.481V93.8125C138.481 91.5273 137.356 90.2881 135.282 90.2881C133.832 90.2881 132.742 90.9561 132.232 92.1426H132.109V90.4639H130.677V100ZM150.355 95.0693V93.6807H141.057V95.0693H150.355ZM158.055 98.6377V87.3174H156.534L152.755 89.7695V91.4219L156.385 89.0752H156.525V98.6377H152.781V100H161.623V98.6377H158.055ZM172.609 95.0693V93.6807H163.311V95.0693H172.609ZM180.309 98.6377V87.3174H178.788L175.009 89.7695V91.4219L178.639 89.0752H178.779V98.6377H175.035V100H183.877V98.6377H180.309ZM187.999 86.0957C189.818 88.6533 190.583 90.8945 190.583 93.6543C190.583 96.4141 189.818 98.6553 187.999 101.213H189.484C191.233 99.2266 192.13 96.6426 192.13 93.6543C192.13 90.6748 191.233 88.082 189.484 86.0957H187.999ZM112.325 120.053C113.195 120.053 113.916 119.323 113.916 118.427C113.916 117.539 113.195 116.81 112.325 116.81C111.455 116.81 110.734 117.539 110.734 118.427C110.734 119.323 111.455 120.053 112.325 120.053ZM123.452 120.053C124.322 120.053 125.043 119.323 125.043 118.427C125.043 117.539 124.322 116.81 123.452 116.81C122.582 116.81 121.861 117.539 121.861 118.427C121.861 119.323 122.582 120.053 123.452 120.053ZM134.579 120.053C135.449 120.053 136.17 119.323 136.17 118.427C136.17 117.539 135.449 116.81 134.579 116.81C133.709 116.81 132.988 117.539 132.988 118.427C132.988 119.323 133.709 120.053 134.579 120.053ZM131.107 133.039C131.107 134.393 131.96 135.263 133.683 135.658L135.098 135.983C136.311 136.256 136.776 136.66 136.776 137.416C136.776 138.33 135.95 138.919 134.649 138.919C133.419 138.919 132.575 138.409 132.355 137.53H130.835C131.002 139.165 132.435 140.176 134.597 140.176C136.855 140.176 138.323 139.033 138.323 137.275C138.323 135.896 137.479 135.087 135.625 134.665L134.28 134.357C133.085 134.094 132.593 133.681 132.593 132.951C132.593 132.081 133.375 131.519 134.588 131.519C135.704 131.519 136.504 132.028 136.68 132.863H138.121C137.945 131.272 136.601 130.279 134.614 130.279C132.514 130.279 131.107 131.387 131.107 133.039ZM149.608 130.464H148.114V136.08C148.114 137.706 147.06 138.805 145.486 138.805C144.001 138.805 143.298 137.996 143.298 136.273V130.464H141.804V136.651C141.804 138.937 142.929 140.176 145.003 140.176C146.453 140.176 147.543 139.508 148.053 138.321H148.176V140H149.608V130.464ZM161.43 132.978C161.43 131.211 160.735 130.288 159.408 130.288C158.45 130.288 157.686 130.868 157.439 131.782H157.281C157.079 130.842 156.446 130.288 155.55 130.288C154.653 130.288 153.968 130.851 153.73 131.809H153.572V130.464H152.236V140H153.581V133.566C153.581 132.38 154.108 131.65 154.952 131.65C155.761 131.65 156.183 132.257 156.183 133.408V140H157.519V133.566C157.519 132.38 158.028 131.65 158.863 131.65C159.663 131.65 160.085 132.257 160.085 133.417V140H161.43V132.978ZM166.044 133.654C166.044 136.643 166.94 139.227 168.689 141.213H170.175C168.355 138.655 167.591 136.414 167.591 133.654C167.591 130.895 168.355 128.653 170.175 126.096H168.689C166.94 128.082 166.044 130.675 166.044 133.654ZM180.309 138.638V127.317H178.788L175.009 129.77V131.422L178.639 129.075H178.779V138.638H175.035V140H183.877V138.638H180.309ZM187.999 126.096C189.818 128.653 190.583 130.895 190.583 133.654C190.583 136.414 189.818 138.655 187.999 141.213H189.484C191.233 139.227 192.13 136.643 192.13 133.654C192.13 130.675 191.233 128.082 189.484 126.096H187.999Z" fill="black"/>
<path d="M134.184 52.8984V50.4639H130.624V51.6592H132.742V58.8047H130.817V60H137.154V58.8047H134.201V55.7285C134.201 53.3027 135.449 51.8438 137.559 51.8438C138.077 51.8438 138.692 51.9492 139.132 52.1074V50.4287C138.815 50.2969 138.297 50.2178 137.752 50.2178C135.915 50.2178 134.729 51.1318 134.377 52.8984H134.184ZM145.812 51.5713C147.35 51.5713 148.281 52.6699 148.281 54.4893H143.263C143.263 52.6611 144.221 51.5713 145.812 51.5713ZM148.281 57.5391C148.018 58.374 147.13 58.8838 145.926 58.8838C144.3 58.8838 143.263 57.7588 143.263 56.0098V55.623H149.758V54.6914C149.758 51.9316 148.299 50.2881 145.82 50.2881C143.395 50.2881 141.786 51.9404 141.786 54.4541V55.8867C141.786 58.6025 143.307 60.1758 145.926 60.1758C147.93 60.1758 149.441 59.1123 149.731 57.5391H148.281ZM155.207 47.9062V50.4902H152.667V51.7646H155.207V57.1611C155.207 59.1475 156.306 60.0439 158.67 60.0439C159.127 60.0439 160.287 60 160.524 59.9561V58.6904C160.27 58.7168 159.312 58.7432 158.775 58.7432C157.431 58.7432 156.701 58.1807 156.701 57.1436V51.7646H160.551V50.4902H156.684V47.9062H155.207ZM171.862 50.4639H170.368V56.0801C170.368 57.7061 169.313 58.8047 167.74 58.8047C166.255 58.8047 165.552 57.9961 165.552 56.2734V50.4639H164.058V56.6514C164.058 58.9365 165.183 60.1758 167.257 60.1758C168.707 60.1758 169.797 59.5078 170.307 58.3213H170.43V60H171.862V50.4639ZM178.691 52.8984V50.4639H175.132V51.6592H177.25V58.8047H175.325V60H181.662V58.8047H178.709V55.7285C178.709 53.3027 179.957 51.8438 182.066 51.8438C182.585 51.8438 183.2 51.9492 183.64 52.1074V50.4287C183.323 50.2969 182.805 50.2178 182.26 50.2178C180.423 50.2178 179.236 51.1318 178.885 52.8984H178.691ZM186.312 60H187.806V54.3838C187.806 52.7578 188.86 51.6592 190.434 51.6592C191.919 51.6592 192.622 52.4678 192.622 54.1904V60H194.116V53.8125C194.116 51.5273 192.991 50.2881 190.917 50.2881C189.467 50.2881 188.377 50.9561 187.867 52.1426H187.744V50.4639H186.312V60ZM208.565 60H210.06V54.3838C210.06 52.7578 211.114 51.6592 212.688 51.6592C214.173 51.6592 214.876 52.4678 214.876 54.1904V60H216.37V53.8125C216.37 51.5273 215.245 50.2881 213.171 50.2881C211.721 50.2881 210.631 50.9561 210.121 52.1426H209.998V50.4639H208.565V60ZM235.407 55.0693H239.406V53.6807H235.407V49.6992H234.036V53.6807H230.037V55.0693H234.036V59.042H235.407V55.0693ZM253.504 53.0391C253.504 54.3926 254.356 55.2627 256.079 55.6582L257.494 55.9834C258.707 56.2559 259.173 56.6602 259.173 57.416C259.173 58.3301 258.347 58.9189 257.046 58.9189C255.815 58.9189 254.972 58.4092 254.752 57.5303H253.231C253.398 59.165 254.831 60.1758 256.993 60.1758C259.252 60.1758 260.72 59.0332 260.72 57.2754C260.72 55.8955 259.876 55.0869 258.021 54.665L256.677 54.3574C255.481 54.0938 254.989 53.6807 254.989 52.9512C254.989 52.0811 255.771 51.5186 256.984 51.5186C258.101 51.5186 258.9 52.0283 259.076 52.8633H260.518C260.342 51.2725 258.997 50.2793 257.011 50.2793C254.91 50.2793 253.504 51.3867 253.504 53.0391ZM272.005 50.4639H270.511V56.0801C270.511 57.7061 269.456 58.8047 267.883 58.8047C266.397 58.8047 265.694 57.9961 265.694 56.2734V50.4639H264.2V56.6514C264.2 58.9365 265.325 60.1758 267.399 60.1758C268.85 60.1758 269.939 59.5078 270.449 58.3213H270.572V60H272.005V50.4639ZM283.826 52.9775C283.826 51.2109 283.132 50.2881 281.805 50.2881C280.847 50.2881 280.082 50.8682 279.836 51.7822H279.678C279.476 50.8418 278.843 50.2881 277.946 50.2881C277.05 50.2881 276.364 50.8506 276.127 51.8086H275.969V50.4639H274.633V60H275.978V53.5664C275.978 52.3799 276.505 51.6504 277.349 51.6504C278.157 51.6504 278.579 52.2568 278.579 53.4082V60H279.915V53.5664C279.915 52.3799 280.425 51.6504 281.26 51.6504C282.06 51.6504 282.481 52.2568 282.481 53.417V60H283.826V52.9775ZM288.44 53.6543C288.44 56.6426 289.337 59.2266 291.086 61.2129H292.571C290.752 58.6553 289.987 56.4141 289.987 53.6543C289.987 50.8945 290.752 48.6533 292.571 46.0957H291.086C289.337 48.082 288.44 50.6748 288.44 53.6543ZM297.581 60H299.075V54.3838C299.075 52.7578 300.13 51.6592 301.703 51.6592C303.188 51.6592 303.892 52.4678 303.892 54.1904V60H305.386V53.8125C305.386 51.5273 304.261 50.2881 302.187 50.2881C300.736 50.2881 299.646 50.9561 299.137 52.1426H299.014V50.4639H297.581V60ZM317.26 55.0693V53.6807H307.961V55.0693H317.26ZM324.959 58.6377V47.3174H323.438L319.659 49.7695V51.4219L323.289 49.0752H323.43V58.6377H319.686V60H328.527V58.6377H324.959ZM332.649 46.0957C334.469 48.6533 335.233 50.8945 335.233 53.6543C335.233 56.4141 334.469 58.6553 332.649 61.2129H334.135C335.884 59.2266 336.78 56.6426 336.78 53.6543C336.78 50.6748 335.884 48.082 334.135 46.0957H332.649ZM178.691 72.8984V70.4639H175.132V71.6592H177.25V78.8047H175.325V80H181.662V78.8047H178.709V75.7285C178.709 73.3027 179.957 71.8438 182.066 71.8438C182.585 71.8438 183.2 71.9492 183.64 72.1074V70.4287C183.323 70.2969 182.805 70.2178 182.26 70.2178C180.423 70.2178 179.236 71.1318 178.885 72.8984H178.691ZM190.319 71.5713C191.857 71.5713 192.789 72.6699 192.789 74.4893H187.771C187.771 72.6611 188.729 71.5713 190.319 71.5713ZM192.789 77.5391C192.525 78.374 191.638 78.8838 190.434 78.8838C188.808 78.8838 187.771 77.7588 187.771 76.0098V75.623H194.266V74.6914C194.266 71.9316 192.807 70.2881 190.328 70.2881C187.902 70.2881 186.294 71.9404 186.294 74.4541V75.8867C186.294 78.6025 187.814 80.1758 190.434 80.1758C192.438 80.1758 193.949 79.1123 194.239 77.5391H192.789ZM199.715 67.9062V70.4902H197.175V71.7646H199.715V77.1611C199.715 79.1475 200.813 80.0439 203.178 80.0439C203.635 80.0439 204.795 80 205.032 79.9561V78.6904C204.777 78.7168 203.819 78.7432 203.283 78.7432C201.938 78.7432 201.209 78.1807 201.209 77.1436V71.7646H205.059V70.4902H201.191V67.9062H199.715ZM216.37 70.4639H214.876V76.0801C214.876 77.7061 213.821 78.8047 212.248 78.8047C210.763 78.8047 210.06 77.9961 210.06 76.2734V70.4639H208.565V76.6514C208.565 78.9365 209.69 80.1758 211.765 80.1758C213.215 80.1758 214.305 79.5078 214.814 78.3213H214.938V80H216.37V70.4639ZM223.199 72.8984V70.4639H219.64V71.6592H221.758V78.8047H219.833V80H226.17V78.8047H223.217V75.7285C223.217 73.3027 224.465 71.8438 226.574 71.8438C227.093 71.8438 227.708 71.9492 228.147 72.1074V70.4287C227.831 70.2969 227.312 70.2178 226.768 70.2178C224.931 70.2178 223.744 71.1318 223.393 72.8984H223.199ZM230.819 80H232.313V74.3838C232.313 72.7578 233.368 71.6592 234.941 71.6592C236.427 71.6592 237.13 72.4678 237.13 74.1904V80H238.624V73.8125C238.624 71.5273 237.499 70.2881 235.425 70.2881C233.975 70.2881 232.885 70.9561 232.375 72.1426H232.252V70.4639H230.819V80ZM253.073 80H254.567V74.3838C254.567 72.7578 255.622 71.6592 257.195 71.6592C258.681 71.6592 259.384 72.4678 259.384 74.1904V80H260.878V73.8125C260.878 71.5273 259.753 70.2881 257.679 70.2881C256.229 70.2881 255.139 70.9561 254.629 72.1426H254.506V70.4639H253.073V80ZM272.752 75.0693V73.6807H263.453V75.0693H272.752ZM280.451 78.6377V67.3174H278.931L275.151 69.7695V71.4219L278.781 69.0752H278.922V78.6377H275.178V80H284.02V78.6377H280.451ZM302.169 75.0693H306.168V73.6807H302.169V69.6992H300.798V73.6807H296.799V75.0693H300.798V79.042H302.169V75.0693ZM320.266 73.0391C320.266 74.3926 321.118 75.2627 322.841 75.6582L324.256 75.9834C325.469 76.2559 325.935 76.6602 325.935 77.416C325.935 78.3301 325.108 78.9189 323.808 78.9189C322.577 78.9189 321.733 78.4092 321.514 77.5303H319.993C320.16 79.165 321.593 80.1758 323.755 80.1758C326.014 80.1758 327.481 79.0332 327.481 77.2754C327.481 75.8955 326.638 75.0869 324.783 74.665L323.438 74.3574C322.243 74.0938 321.751 73.6807 321.751 72.9512C321.751 72.0811 322.533 71.5186 323.746 71.5186C324.862 71.5186 325.662 72.0283 325.838 72.8633H327.279C327.104 71.2725 325.759 70.2793 323.772 70.2793C321.672 70.2793 320.266 71.3867 320.266 73.0391ZM338.767 70.4639H337.272V76.0801C337.272 77.7061 336.218 78.8047 334.645 78.8047C333.159 78.8047 332.456 77.9961 332.456 76.2734V70.4639H330.962V76.6514C330.962 78.9365 332.087 80.1758 334.161 80.1758C335.611 80.1758 336.701 79.5078 337.211 78.3213H337.334V80H338.767V70.4639ZM350.588 72.9775C350.588 71.2109 349.894 70.2881 348.566 70.2881C347.608 70.2881 346.844 70.8682 346.598 71.7822H346.439C346.237 70.8418 345.604 70.2881 344.708 70.2881C343.812 70.2881 343.126 70.8506 342.889 71.8086H342.73V70.4639H341.395V80H342.739V73.5664C342.739 72.3799 343.267 71.6504 344.11 71.6504C344.919 71.6504 345.341 72.2568 345.341 73.4082V80H346.677V73.5664C346.677 72.3799 347.187 71.6504 348.021 71.6504C348.821 71.6504 349.243 72.2568 349.243 73.417V80H350.588V72.9775ZM355.202 73.6543C355.202 76.6426 356.099 79.2266 357.848 81.2129H359.333C357.514 78.6553 356.749 76.4141 356.749 73.6543C356.749 70.8945 357.514 68.6533 359.333 66.0957H357.848C356.099 68.082 355.202 70.6748 355.202 73.6543ZM364.343 80H365.837V74.3838C365.837 72.7578 366.892 71.6592 368.465 71.6592C369.95 71.6592 370.653 72.4678 370.653 74.1904V80H372.147V73.8125C372.147 71.5273 371.022 70.2881 368.948 70.2881C367.498 70.2881 366.408 70.9561 365.898 72.1426H365.775V70.4639H364.343V80ZM384.021 75.0693V73.6807H374.723V75.0693H384.021ZM391.721 78.6377V67.3174H390.2L386.421 69.7695V71.4219L390.051 69.0752H390.191V78.6377H386.447V80H395.289V78.6377H391.721ZM406.275 75.0693V73.6807H396.977V75.0693H406.275ZM413.975 78.6377V67.3174H412.454L408.675 69.7695V71.4219L412.305 69.0752H412.445V78.6377H408.701V80H417.543V78.6377H413.975ZM421.665 66.0957C423.484 68.6533 424.249 70.8945 424.249 73.6543C424.249 76.4141 423.484 78.6553 421.665 81.2129H423.15C424.899 79.2266 425.796 76.6426 425.796 73.6543C425.796 70.6748 424.899 68.082 423.15 66.0957H421.665ZM223.199 92.8984V90.4639H219.64V91.6592H221.758V98.8047H219.833V100H226.17V98.8047H223.217V95.7285C223.217 93.3027 224.465 91.8438 226.574 91.8438C227.093 91.8438 227.708 91.9492 228.147 92.1074V90.4287C227.831 90.2969 227.312 90.2178 226.768 90.2178C224.931 90.2178 223.744 91.1318 223.393 92.8984H223.199ZM234.827 91.5713C236.365 91.5713 237.297 92.6699 237.297 94.4893H232.278C232.278 92.6611 233.236 91.5713 234.827 91.5713ZM237.297 97.5391C237.033 98.374 236.146 98.8838 234.941 98.8838C233.315 98.8838 232.278 97.7588 232.278 96.0098V95.623H238.773V94.6914C238.773 91.9316 237.314 90.2881 234.836 90.2881C232.41 90.2881 230.802 91.9404 230.802 94.4541V95.8867C230.802 98.6025 232.322 100.176 234.941 100.176C236.945 100.176 238.457 99.1123 238.747 97.5391H237.297ZM244.223 87.9062V90.4902H241.683V91.7646H244.223V97.1611C244.223 99.1475 245.321 100.044 247.686 100.044C248.143 100.044 249.303 100 249.54 99.9561V98.6904C249.285 98.7168 248.327 98.7432 247.791 98.7432C246.446 98.7432 245.717 98.1807 245.717 97.1436V91.7646H249.566V90.4902H245.699V87.9062H244.223ZM260.878 90.4639H259.384V96.0801C259.384 97.7061 258.329 98.8047 256.756 98.8047C255.271 98.8047 254.567 97.9961 254.567 96.2734V90.4639H253.073V96.6514C253.073 98.9365 254.198 100.176 256.272 100.176C257.723 100.176 258.812 99.5078 259.322 98.3213H259.445V100H260.878V90.4639ZM267.707 92.8984V90.4639H264.147V91.6592H266.266V98.8047H264.341V100H270.678V98.8047H267.725V95.7285C267.725 93.3027 268.973 91.8438 271.082 91.8438C271.601 91.8438 272.216 91.9492 272.655 92.1074V90.4287C272.339 90.2969 271.82 90.2178 271.275 90.2178C269.438 90.2178 268.252 91.1318 267.9 92.8984H267.707ZM275.327 100H276.821V94.3838C276.821 92.7578 277.876 91.6592 279.449 91.6592C280.935 91.6592 281.638 92.4678 281.638 94.1904V100H283.132V93.8125C283.132 91.5273 282.007 90.2881 279.933 90.2881C278.482 90.2881 277.393 90.9561 276.883 92.1426H276.76V90.4639H275.327V100ZM297.581 100H299.075V94.3838C299.075 92.7578 300.13 91.6592 301.703 91.6592C303.188 91.6592 303.892 92.4678 303.892 94.1904V100H305.386V93.8125C305.386 91.5273 304.261 90.2881 302.187 90.2881C300.736 90.2881 299.646 90.9561 299.137 92.1426H299.014V90.4639H297.581V100ZM317.26 95.0693V93.6807H307.961V95.0693H317.26ZM324.959 98.6377V87.3174H323.438L319.659 89.7695V91.4219L323.289 89.0752H323.43V98.6377H319.686V100H328.527V98.6377H324.959ZM339.514 95.0693V93.6807H330.215V95.0693H339.514ZM347.213 98.6377V87.3174H345.692L341.913 89.7695V91.4219L345.543 89.0752H345.684V98.6377H341.939V100H350.781V98.6377H347.213ZM368.931 95.0693H372.93V93.6807H368.931V89.6992H367.56V93.6807H363.561V95.0693H367.56V99.042H368.931V95.0693ZM387.027 93.0391C387.027 94.3926 387.88 95.2627 389.603 95.6582L391.018 95.9834C392.23 96.2559 392.696 96.6602 392.696 97.416C392.696 98.3301 391.87 98.9189 390.569 98.9189C389.339 98.9189 388.495 98.4092 388.275 97.5303H386.755C386.922 99.165 388.354 100.176 390.517 100.176C392.775 100.176 394.243 99.0332 394.243 97.2754C394.243 95.8955 393.399 95.0869 391.545 94.665L390.2 94.3574C389.005 94.0938 388.513 93.6807 388.513 92.9512C388.513 92.0811 389.295 91.5186 390.508 91.5186C391.624 91.5186 392.424 92.0283 392.6 92.8633H394.041C393.865 91.2725 392.521 90.2793 390.534 90.2793C388.434 90.2793 387.027 91.3867 387.027 93.0391ZM405.528 90.4639H404.034V96.0801C404.034 97.7061 402.979 98.8047 401.406 98.8047C399.921 98.8047 399.218 97.9961 399.218 96.2734V90.4639H397.724V96.6514C397.724 98.9365 398.849 100.176 400.923 100.176C402.373 100.176 403.463 99.5078 403.973 98.3213H404.096V100H405.528V90.4639ZM417.35 92.9775C417.35 91.2109 416.655 90.2881 415.328 90.2881C414.37 90.2881 413.605 90.8682 413.359 91.7822H413.201C412.999 90.8418 412.366 90.2881 411.47 90.2881C410.573 90.2881 409.888 90.8506 409.65 91.8086H409.492V90.4639H408.156V100H409.501V93.5664C409.501 92.3799 410.028 91.6504 410.872 91.6504C411.681 91.6504 412.103 92.2568 412.103 93.4082V100H413.438V93.5664C413.438 92.3799 413.948 91.6504 414.783 91.6504C415.583 91.6504 416.005 92.2568 416.005 93.417V100H417.35V92.9775ZM421.964 93.6543C421.964 96.6426 422.86 99.2266 424.609 101.213H426.095C424.275 98.6553 423.511 96.4141 423.511 93.6543C423.511 90.8945 424.275 88.6533 426.095 86.0957H424.609C422.86 88.082 421.964 90.6748 421.964 93.6543ZM431.104 100H432.599V94.3838C432.599 92.7578 433.653 91.6592 435.227 91.6592C436.712 91.6592 437.415 92.4678 437.415 94.1904V100H438.909V93.8125C438.909 91.5273 437.784 90.2881 435.71 90.2881C434.26 90.2881 433.17 90.9561 432.66 92.1426H432.537V90.4639H431.104V100ZM450.783 95.0693V93.6807H441.484V95.0693H450.783ZM458.482 98.6377V87.3174H456.962L453.183 89.7695V91.4219L456.812 89.0752H456.953V98.6377H453.209V100H462.051V98.6377H458.482ZM473.037 95.0693V93.6807H463.738V95.0693H473.037ZM480.736 98.6377V87.3174H479.216L475.437 89.7695V91.4219L479.066 89.0752H479.207V98.6377H475.463V100H484.305V98.6377H480.736ZM495.291 95.0693V93.6807H485.992V95.0693H495.291ZM502.99 98.6377V87.3174H501.47L497.69 89.7695V91.4219L501.32 89.0752H501.461V98.6377H497.717V100H506.559V98.6377H502.99ZM510.681 86.0957C512.5 88.6533 513.265 90.8945 513.265 93.6543C513.265 96.4141 512.5 98.6553 510.681 101.213H512.166C513.915 99.2266 514.812 96.6426 514.812 93.6543C514.812 90.6748 513.915 88.082 512.166 86.0957H510.681ZM223.199 132.898V130.464H219.64V131.659H221.758V138.805H219.833V140H226.17V138.805H223.217V135.729C223.217 133.303 224.465 131.844 226.574 131.844C227.093 131.844 227.708 131.949 228.147 132.107V130.429C227.831 130.297 227.312 130.218 226.768 130.218C224.931 130.218 223.744 131.132 223.393 132.898H223.199ZM234.827 131.571C236.365 131.571 237.297 132.67 237.297 134.489H232.278C232.278 132.661 233.236 131.571 234.827 131.571ZM237.297 137.539C237.033 138.374 236.146 138.884 234.941 138.884C233.315 138.884 232.278 137.759 232.278 136.01V135.623H238.773V134.691C238.773 131.932 237.314 130.288 234.836 130.288C232.41 130.288 230.802 131.94 230.802 134.454V135.887C230.802 138.603 232.322 140.176 234.941 140.176C236.945 140.176 238.457 139.112 238.747 137.539H237.297ZM244.223 127.906V130.49H241.683V131.765H244.223V137.161C244.223 139.147 245.321 140.044 247.686 140.044C248.143 140.044 249.303 140 249.54 139.956V138.69C249.285 138.717 248.327 138.743 247.791 138.743C246.446 138.743 245.717 138.181 245.717 137.144V131.765H249.566V130.49H245.699V127.906H244.223ZM260.878 130.464H259.384V136.08C259.384 137.706 258.329 138.805 256.756 138.805C255.271 138.805 254.567 137.996 254.567 136.273V130.464H253.073V136.651C253.073 138.937 254.198 140.176 256.272 140.176C257.723 140.176 258.812 139.508 259.322 138.321H259.445V140H260.878V130.464ZM267.707 132.898V130.464H264.147V131.659H266.266V138.805H264.341V140H270.678V138.805H267.725V135.729C267.725 133.303 268.973 131.844 271.082 131.844C271.601 131.844 272.216 131.949 272.655 132.107V130.429C272.339 130.297 271.82 130.218 271.275 130.218C269.438 130.218 268.252 131.132 267.9 132.898H267.707ZM275.327 140H276.821V134.384C276.821 132.758 277.876 131.659 279.449 131.659C280.935 131.659 281.638 132.468 281.638 134.19V140H283.132V133.812C283.132 131.527 282.007 130.288 279.933 130.288C278.482 130.288 277.393 130.956 276.883 132.143H276.76V130.464H275.327V140ZM302.705 138.638V127.317H301.185L297.405 129.77V131.422L301.035 129.075H301.176V138.638H297.432V140H306.273V138.638H302.705Z" fill="#AAAAAA"/>
<path d="M542.092 53.0391C542.092 54.3926 542.944 55.2627 544.667 55.6582L546.082 55.9834C547.295 56.2559 547.761 56.6602 547.761 57.416C547.761 58.3301 546.935 58.9189 545.634 58.9189C544.403 58.9189 543.56 58.4092 543.34 57.5303H541.819C541.986 59.165 543.419 60.1758 545.581 60.1758C547.84 60.1758 549.308 59.0332 549.308 57.2754C549.308 55.8955 548.464 55.0869 546.609 54.665L545.265 54.3574C544.069 54.0938 543.577 53.6807 543.577 52.9512C543.577 52.0811 544.359 51.5186 545.572 51.5186C546.688 51.5186 547.488 52.0283 547.664 52.8633H549.105C548.93 51.2725 547.585 50.2793 545.599 50.2793C543.498 50.2793 542.092 51.3867 542.092 53.0391ZM560.593 50.4639H559.099V56.0801C559.099 57.7061 558.044 58.8047 556.471 58.8047C554.985 58.8047 554.282 57.9961 554.282 56.2734V50.4639H552.788V56.6514C552.788 58.9365 553.913 60.1758 555.987 60.1758C557.438 60.1758 558.527 59.5078 559.037 58.3213H559.16V60H560.593V50.4639ZM572.414 52.9775C572.414 51.2109 571.72 50.2881 570.393 50.2881C569.435 50.2881 568.67 50.8682 568.424 51.7822H568.266C568.063 50.8418 567.431 50.2881 566.534 50.2881C565.638 50.2881 564.952 50.8506 564.715 51.8086H564.557V50.4639H563.221V60H564.565V53.5664C564.565 52.3799 565.093 51.6504 565.937 51.6504C566.745 51.6504 567.167 52.2568 567.167 53.4082V60H568.503V53.5664C568.503 52.3799 569.013 51.6504 569.848 51.6504C570.647 51.6504 571.069 52.2568 571.069 53.417V60H572.414V52.9775ZM577.028 53.6543C577.028 56.6426 577.925 59.2266 579.674 61.2129H581.159C579.34 58.6553 578.575 56.4141 578.575 53.6543C578.575 50.8945 579.34 48.6533 581.159 46.0957H579.674C577.925 48.082 577.028 50.6748 577.028 53.6543ZM589.966 60.2549C592.541 60.2549 594.29 58.5146 594.29 55.9482C594.29 53.4521 592.655 51.7031 590.309 51.7031C589.192 51.7031 588.287 52.0986 587.663 52.8545H587.522L587.874 48.7148H593.587V47.3174H586.652L586.011 54.4805H587.479C587.979 53.584 588.92 53.0654 590.054 53.0654C591.68 53.0654 592.778 54.2432 592.778 55.9834C592.778 57.7061 591.688 58.8574 590.054 58.8574C588.568 58.8574 587.435 57.9434 587.294 56.6162H585.8C585.932 58.7959 587.602 60.2549 589.966 60.2549ZM598.983 46.0957C600.803 48.6533 601.567 50.8945 601.567 53.6543C601.567 56.4141 600.803 58.6553 598.983 61.2129H600.469C602.218 59.2266 603.114 56.6426 603.114 53.6543C603.114 50.6748 602.218 48.082 600.469 46.0957H598.983ZM564.346 73.0391C564.346 74.3926 565.198 75.2627 566.921 75.6582L568.336 75.9834C569.549 76.2559 570.015 76.6602 570.015 77.416C570.015 78.3301 569.188 78.9189 567.888 78.9189C566.657 78.9189 565.813 78.4092 565.594 77.5303H564.073C564.24 79.165 565.673 80.1758 567.835 80.1758C570.094 80.1758 571.562 79.0332 571.562 77.2754C571.562 75.8955 570.718 75.0869 568.863 74.665L567.519 74.3574C566.323 74.0938 565.831 73.6807 565.831 72.9512C565.831 72.0811 566.613 71.5186 567.826 71.5186C568.942 71.5186 569.742 72.0283 569.918 72.8633H571.359C571.184 71.2725 569.839 70.2793 567.853 70.2793C565.752 70.2793 564.346 71.3867 564.346 73.0391ZM582.847 70.4639H581.353V76.0801C581.353 77.7061 580.298 78.8047 578.725 78.8047C577.239 78.8047 576.536 77.9961 576.536 76.2734V70.4639H575.042V76.6514C575.042 78.9365 576.167 80.1758 578.241 80.1758C579.691 80.1758 580.781 79.5078 581.291 78.3213H581.414V80H582.847V70.4639ZM594.668 72.9775C594.668 71.2109 593.974 70.2881 592.646 70.2881C591.688 70.2881 590.924 70.8682 590.678 71.7822H590.52C590.317 70.8418 589.685 70.2881 588.788 70.2881C587.892 70.2881 587.206 70.8506 586.969 71.8086H586.811V70.4639H585.475V80H586.819V73.5664C586.819 72.3799 587.347 71.6504 588.19 71.6504C588.999 71.6504 589.421 72.2568 589.421 73.4082V80H590.757V73.5664C590.757 72.3799 591.267 71.6504 592.102 71.6504C592.901 71.6504 593.323 72.2568 593.323 73.417V80H594.668V72.9775ZM599.282 73.6543C599.282 76.6426 600.179 79.2266 601.928 81.2129H603.413C601.594 78.6553 600.829 76.4141 600.829 73.6543C600.829 70.8945 601.594 68.6533 603.413 66.0957H601.928C600.179 68.082 599.282 70.6748 599.282 73.6543ZM613.811 80H615.226V77.3193H617.168V75.957H615.234V72.3535H613.828V75.9746H609.671V75.8604L613.916 67.3174H612.334L608.027 76.0625V77.3193H613.811V80ZM621.237 66.0957C623.057 68.6533 623.821 70.8945 623.821 73.6543C623.821 76.4141 623.057 78.6553 621.237 81.2129H622.723C624.472 79.2266 625.368 76.6426 625.368 73.6543C625.368 70.6748 624.472 68.082 622.723 66.0957H621.237ZM586.6 93.0391C586.6 94.3926 587.452 95.2627 589.175 95.6582L590.59 95.9834C591.803 96.2559 592.269 96.6602 592.269 97.416C592.269 98.3301 591.442 98.9189 590.142 98.9189C588.911 98.9189 588.067 98.4092 587.848 97.5303H586.327C586.494 99.165 587.927 100.176 590.089 100.176C592.348 100.176 593.815 99.0332 593.815 97.2754C593.815 95.8955 592.972 95.0869 591.117 94.665L589.772 94.3574C588.577 94.0938 588.085 93.6807 588.085 92.9512C588.085 92.0811 588.867 91.5186 590.08 91.5186C591.196 91.5186 591.996 92.0283 592.172 92.8633H593.613C593.438 91.2725 592.093 90.2793 590.106 90.2793C588.006 90.2793 586.6 91.3867 586.6 93.0391ZM605.101 90.4639H603.606V96.0801C603.606 97.7061 602.552 98.8047 600.979 98.8047C599.493 98.8047 598.79 97.9961 598.79 96.2734V90.4639H597.296V96.6514C597.296 98.9365 598.421 100.176 600.495 100.176C601.945 100.176 603.035 99.5078 603.545 98.3213H603.668V100H605.101V90.4639ZM616.922 92.9775C616.922 91.2109 616.228 90.2881 614.9 90.2881C613.942 90.2881 613.178 90.8682 612.932 91.7822H612.773C612.571 90.8418 611.938 90.2881 611.042 90.2881C610.146 90.2881 609.46 90.8506 609.223 91.8086H609.064V90.4639H607.729V100H609.073V93.5664C609.073 92.3799 609.601 91.6504 610.444 91.6504C611.253 91.6504 611.675 92.2568 611.675 93.4082V100H613.011V93.5664C613.011 92.3799 613.521 91.6504 614.355 91.6504C615.155 91.6504 615.577 92.2568 615.577 93.417V100H616.922V92.9775ZM621.536 93.6543C621.536 96.6426 622.433 99.2266 624.182 101.213H625.667C623.848 98.6553 623.083 96.4141 623.083 93.6543C623.083 90.8945 623.848 88.6533 625.667 86.0957H624.182C622.433 88.082 621.536 90.6748 621.536 93.6543ZM633.032 94.1201H634.482C636.24 94.1201 637.356 95.0605 637.356 96.5371C637.356 97.9697 636.275 98.8662 634.535 98.8662C632.953 98.8662 631.828 97.9873 631.688 96.6338H630.22C630.334 98.8223 632.074 100.264 634.579 100.264C637.11 100.264 638.921 98.7256 638.921 96.5723C638.921 94.8408 637.919 93.6543 636.231 93.4346V93.2939C637.594 92.96 638.394 91.8701 638.394 90.3408C638.394 88.416 636.776 87.0537 634.509 87.0537C632.162 87.0537 630.615 88.416 630.466 90.6133H631.951C632.074 89.251 633.023 88.416 634.447 88.416C635.88 88.416 636.829 89.2686 636.829 90.5605C636.829 91.8877 635.836 92.8193 634.412 92.8193H633.032V94.1201ZM643.491 86.0957C645.311 88.6533 646.075 90.8945 646.075 93.6543C646.075 96.4141 645.311 98.6553 643.491 101.213H644.977C646.726 99.2266 647.622 96.6426 647.622 93.6543C647.622 90.6748 646.726 88.082 644.977 86.0957H643.491ZM608.854 113.039C608.854 114.393 609.706 115.263 611.429 115.658L612.844 115.983C614.057 116.256 614.522 116.66 614.522 117.416C614.522 118.33 613.696 118.919 612.396 118.919C611.165 118.919 610.321 118.409 610.102 117.53H608.581C608.748 119.165 610.181 120.176 612.343 120.176C614.602 120.176 616.069 119.033 616.069 117.275C616.069 115.896 615.226 115.087 613.371 114.665L612.026 114.357C610.831 114.094 610.339 113.681 610.339 112.951C610.339 112.081 611.121 111.519 612.334 111.519C613.45 111.519 614.25 112.028 614.426 112.863H615.867C615.691 111.272 614.347 110.279 612.36 110.279C610.26 110.279 608.854 111.387 608.854 113.039ZM627.354 110.464H625.86V116.08C625.86 117.706 624.806 118.805 623.232 118.805C621.747 118.805 621.044 117.996 621.044 116.273V110.464H619.55V116.651C619.55 118.937 620.675 120.176 622.749 120.176C624.199 120.176 625.289 119.508 625.799 118.321H625.922V120H627.354V110.464ZM639.176 112.978C639.176 111.211 638.481 110.288 637.154 110.288C636.196 110.288 635.432 110.868 635.186 111.782H635.027C634.825 110.842 634.192 110.288 633.296 110.288C632.399 110.288 631.714 110.851 631.477 111.809H631.318V110.464H629.982V120H631.327V113.566C631.327 112.38 631.854 111.65 632.698 111.65C633.507 111.65 633.929 112.257 633.929 113.408V120H635.265V113.566C635.265 112.38 635.774 111.65 636.609 111.65C637.409 111.65 637.831 112.257 637.831 113.417V120H639.176V112.978ZM643.79 113.654C643.79 116.643 644.687 119.227 646.436 121.213H647.921C646.102 118.655 645.337 116.414 645.337 113.654C645.337 110.895 646.102 108.653 647.921 106.096H646.436C644.687 108.082 643.79 110.675 643.79 113.654ZM652.79 110.886V110.938H654.284V110.886C654.284 109.392 655.251 108.416 656.71 108.416C658.187 108.416 659.145 109.312 659.145 110.675C659.145 111.677 658.758 112.354 657.149 114.155L652.86 118.928V120H660.885V118.594H655.075V118.444L658.063 115.192C660.085 112.986 660.683 111.932 660.683 110.613C660.683 108.495 659.083 107.054 656.754 107.054C654.442 107.054 652.79 108.653 652.79 110.886ZM665.745 106.096C667.564 108.653 668.329 110.895 668.329 113.654C668.329 116.414 667.564 118.655 665.745 121.213H667.23C668.979 119.227 669.876 116.643 669.876 113.654C669.876 110.675 668.979 108.082 667.23 106.096H665.745ZM631.107 133.039C631.107 134.393 631.96 135.263 633.683 135.658L635.098 135.983C636.311 136.256 636.776 136.66 636.776 137.416C636.776 138.33 635.95 138.919 634.649 138.919C633.419 138.919 632.575 138.409 632.355 137.53H630.835C631.002 139.165 632.435 140.176 634.597 140.176C636.855 140.176 638.323 139.033 638.323 137.275C638.323 135.896 637.479 135.087 635.625 134.665L634.28 134.357C633.085 134.094 632.593 133.681 632.593 132.951C632.593 132.081 633.375 131.519 634.588 131.519C635.704 131.519 636.504 132.028 636.68 132.863H638.121C637.945 131.272 636.601 130.279 634.614 130.279C632.514 130.279 631.107 131.387 631.107 133.039ZM649.608 130.464H648.114V136.08C648.114 137.706 647.06 138.805 645.486 138.805C644.001 138.805 643.298 137.996 643.298 136.273V130.464H641.804V136.651C641.804 138.937 642.929 140.176 645.003 140.176C646.453 140.176 647.543 139.508 648.053 138.321H648.176V140H649.608V130.464ZM661.43 132.978C661.43 131.211 660.735 130.288 659.408 130.288C658.45 130.288 657.686 130.868 657.439 131.782H657.281C657.079 130.842 656.446 130.288 655.55 130.288C654.653 130.288 653.968 130.851 653.73 131.809H653.572V130.464H652.236V140H653.581V133.566C653.581 132.38 654.108 131.65 654.952 131.65C655.761 131.65 656.183 132.257 656.183 133.408V140H657.519V133.566C657.519 132.38 658.028 131.65 658.863 131.65C659.663 131.65 660.085 132.257 660.085 133.417V140H661.43V132.978ZM666.044 133.654C666.044 136.643 666.94 139.227 668.689 141.213H670.175C668.355 138.655 667.591 136.414 667.591 133.654C667.591 130.895 668.355 128.653 670.175 126.096H668.689C666.94 128.082 666.044 130.675 666.044 133.654ZM680.309 138.638V127.317H678.788L675.009 129.77V131.422L678.639 129.075H678.779V138.638H675.035V140H683.877V138.638H680.309ZM687.999 126.096C689.818 128.653 690.583 130.895 690.583 133.654C690.583 136.414 689.818 138.655 687.999 141.213H689.484C691.233 139.227 692.13 136.643 692.13 133.654C692.13 130.675 691.233 128.082 689.484 126.096H687.999Z" fill="black"/>
<path d="M634.184 52.8984V50.4639H630.624V51.6592H632.742V58.8047H630.817V60H637.154V58.8047H634.201V55.7285C634.201 53.3027 635.449 51.8438 637.559 51.8438C638.077 51.8438 638.692 51.9492 639.132 52.1074V50.4287C638.815 50.2969 638.297 50.2178 637.752 50.2178C635.915 50.2178 634.729 51.1318 634.377 52.8984H634.184ZM645.812 51.5713C647.35 51.5713 648.281 52.6699 648.281 54.4893H643.263C643.263 52.6611 644.221 51.5713 645.812 51.5713ZM648.281 57.5391C648.018 58.374 647.13 58.8838 645.926 58.8838C644.3 58.8838 643.263 57.7588 643.263 56.0098V55.623H649.758V54.6914C649.758 51.9316 648.299 50.2881 645.82 50.2881C643.395 50.2881 641.786 51.9404 641.786 54.4541V55.8867C641.786 58.6025 643.307 60.1758 645.926 60.1758C647.93 60.1758 649.441 59.1123 649.731 57.5391H648.281ZM655.207 47.9062V50.4902H652.667V51.7646H655.207V57.1611C655.207 59.1475 656.306 60.0439 658.67 60.0439C659.127 60.0439 660.287 60 660.524 59.9561V58.6904C660.27 58.7168 659.312 58.7432 658.775 58.7432C657.431 58.7432 656.701 58.1807 656.701 57.1436V51.7646H660.551V50.4902H656.684V47.9062H655.207ZM671.862 50.4639H670.368V56.0801C670.368 57.7061 669.313 58.8047 667.74 58.8047C666.255 58.8047 665.552 57.9961 665.552 56.2734V50.4639H664.058V56.6514C664.058 58.9365 665.183 60.1758 667.257 60.1758C668.707 60.1758 669.797 59.5078 670.307 58.3213H670.43V60H671.862V50.4639ZM678.691 52.8984V50.4639H675.132V51.6592H677.25V58.8047H675.325V60H681.662V58.8047H678.709V55.7285C678.709 53.3027 679.957 51.8438 682.066 51.8438C682.585 51.8438 683.2 51.9492 683.64 52.1074V50.4287C683.323 50.2969 682.805 50.2178 682.26 50.2178C680.423 50.2178 679.236 51.1318 678.885 52.8984H678.691ZM686.312 60H687.806V54.3838C687.806 52.7578 688.86 51.6592 690.434 51.6592C691.919 51.6592 692.622 52.4678 692.622 54.1904V60H694.116V53.8125C694.116 51.5273 692.991 50.2881 690.917 50.2881C689.467 50.2881 688.377 50.9561 687.867 52.1426H687.744V50.4639H686.312V60ZM712.362 60.2549C714.938 60.2549 716.687 58.5146 716.687 55.9482C716.687 53.4521 715.052 51.7031 712.705 51.7031C711.589 51.7031 710.684 52.0986 710.06 52.8545H709.919L710.271 48.7148H715.983V47.3174H709.049L708.407 54.4805H709.875C710.376 53.584 711.316 53.0654 712.45 53.0654C714.076 53.0654 715.175 54.2432 715.175 55.9834C715.175 57.7061 714.085 58.8574 712.45 58.8574C710.965 58.8574 709.831 57.9434 709.69 56.6162H708.196C708.328 58.7959 709.998 60.2549 712.362 60.2549ZM735.407 55.0693H739.406V53.6807H735.407V49.6992H734.036V53.6807H730.037V55.0693H734.036V59.042H735.407V55.0693ZM753.504 53.0391C753.504 54.3926 754.356 55.2627 756.079 55.6582L757.494 55.9834C758.707 56.2559 759.173 56.6602 759.173 57.416C759.173 58.3301 758.347 58.9189 757.046 58.9189C755.815 58.9189 754.972 58.4092 754.752 57.5303H753.231C753.398 59.165 754.831 60.1758 756.993 60.1758C759.252 60.1758 760.72 59.0332 760.72 57.2754C760.72 55.8955 759.876 55.0869 758.021 54.665L756.677 54.3574C755.481 54.0938 754.989 53.6807 754.989 52.9512C754.989 52.0811 755.771 51.5186 756.984 51.5186C758.101 51.5186 758.9 52.0283 759.076 52.8633H760.518C760.342 51.2725 758.997 50.2793 757.011 50.2793C754.91 50.2793 753.504 51.3867 753.504 53.0391ZM772.005 50.4639H770.511V56.0801C770.511 57.7061 769.456 58.8047 767.883 58.8047C766.397 58.8047 765.694 57.9961 765.694 56.2734V50.4639H764.2V56.6514C764.2 58.9365 765.325 60.1758 767.399 60.1758C768.85 60.1758 769.939 59.5078 770.449 58.3213H770.572V60H772.005V50.4639ZM783.826 52.9775C783.826 51.2109 783.132 50.2881 781.805 50.2881C780.847 50.2881 780.082 50.8682 779.836 51.7822H779.678C779.476 50.8418 778.843 50.2881 777.946 50.2881C777.05 50.2881 776.364 50.8506 776.127 51.8086H775.969V50.4639H774.633V60H775.978V53.5664C775.978 52.3799 776.505 51.6504 777.349 51.6504C778.157 51.6504 778.579 52.2568 778.579 53.4082V60H779.915V53.5664C779.915 52.3799 780.425 51.6504 781.26 51.6504C782.06 51.6504 782.481 52.2568 782.481 53.417V60H783.826V52.9775ZM788.44 53.6543C788.44 56.6426 789.337 59.2266 791.086 61.2129H792.571C790.752 58.6553 789.987 56.4141 789.987 53.6543C789.987 50.8945 790.752 48.6533 792.571 46.0957H791.086C789.337 48.082 788.44 50.6748 788.44 53.6543ZM802.969 60H804.384V57.3193H806.326V55.957H804.393V52.3535H802.986V55.9746H798.829V55.8604L803.074 47.3174H801.492L797.186 56.0625V57.3193H802.969V60ZM810.396 46.0957C812.215 48.6533 812.979 50.8945 812.979 53.6543C812.979 56.4141 812.215 58.6553 810.396 61.2129H811.881C813.63 59.2266 814.526 56.6426 814.526 53.6543C814.526 50.6748 813.63 48.082 811.881 46.0957H810.396ZM656.438 72.8984V70.4639H652.878V71.6592H654.996V78.8047H653.071V80H659.408V78.8047H656.455V75.7285C656.455 73.3027 657.703 71.8438 659.812 71.8438C660.331 71.8438 660.946 71.9492 661.386 72.1074V70.4287C661.069 70.2969 660.551 70.2178 660.006 70.2178C658.169 70.2178 656.982 71.1318 656.631 72.8984H656.438ZM668.065 71.5713C669.604 71.5713 670.535 72.6699 670.535 74.4893H665.517C665.517 72.6611 666.475 71.5713 668.065 71.5713ZM670.535 77.5391C670.271 78.374 669.384 78.8838 668.18 78.8838C666.554 78.8838 665.517 77.7588 665.517 76.0098V75.623H672.012V74.6914C672.012 71.9316 670.553 70.2881 668.074 70.2881C665.648 70.2881 664.04 71.9404 664.04 74.4541V75.8867C664.04 78.6025 665.561 80.1758 668.18 80.1758C670.184 80.1758 671.695 79.1123 671.985 77.5391H670.535ZM677.461 67.9062V70.4902H674.921V71.7646H677.461V77.1611C677.461 79.1475 678.56 80.0439 680.924 80.0439C681.381 80.0439 682.541 80 682.778 79.9561V78.6904C682.523 78.7168 681.565 78.7432 681.029 78.7432C679.685 78.7432 678.955 78.1807 678.955 77.1436V71.7646H682.805V70.4902H678.938V67.9062H677.461ZM694.116 70.4639H692.622V76.0801C692.622 77.7061 691.567 78.8047 689.994 78.8047C688.509 78.8047 687.806 77.9961 687.806 76.2734V70.4639H686.312V76.6514C686.312 78.9365 687.437 80.1758 689.511 80.1758C690.961 80.1758 692.051 79.5078 692.561 78.3213H692.684V80H694.116V70.4639ZM700.945 72.8984V70.4639H697.386V71.6592H699.504V78.8047H697.579V80H703.916V78.8047H700.963V75.7285C700.963 73.3027 702.211 71.8438 704.32 71.8438C704.839 71.8438 705.454 71.9492 705.894 72.1074V70.4287C705.577 70.2969 705.059 70.2178 704.514 70.2178C702.677 70.2178 701.49 71.1318 701.139 72.8984H700.945ZM708.565 80H710.06V74.3838C710.06 72.7578 711.114 71.6592 712.688 71.6592C714.173 71.6592 714.876 72.4678 714.876 74.1904V80H716.37V73.8125C716.37 71.5273 715.245 70.2881 713.171 70.2881C711.721 70.2881 710.631 70.9561 710.121 72.1426H709.998V70.4639H708.565V80ZM736.207 80H737.622V77.3193H739.564V75.957H737.631V72.3535H736.225V75.9746H732.067V75.8604L736.312 67.3174H734.73L730.424 76.0625V77.3193H736.207V80ZM757.661 75.0693H761.66V73.6807H757.661V69.6992H756.29V73.6807H752.291V75.0693H756.29V79.042H757.661V75.0693ZM775.758 73.0391C775.758 74.3926 776.61 75.2627 778.333 75.6582L779.748 75.9834C780.961 76.2559 781.427 76.6602 781.427 77.416C781.427 78.3301 780.601 78.9189 779.3 78.9189C778.069 78.9189 777.226 78.4092 777.006 77.5303H775.485C775.652 79.165 777.085 80.1758 779.247 80.1758C781.506 80.1758 782.974 79.0332 782.974 77.2754C782.974 75.8955 782.13 75.0869 780.275 74.665L778.931 74.3574C777.735 74.0938 777.243 73.6807 777.243 72.9512C777.243 72.0811 778.025 71.5186 779.238 71.5186C780.354 71.5186 781.154 72.0283 781.33 72.8633H782.771C782.596 71.2725 781.251 70.2793 779.265 70.2793C777.164 70.2793 775.758 71.3867 775.758 73.0391ZM794.259 70.4639H792.765V76.0801C792.765 77.7061 791.71 78.8047 790.137 78.8047C788.651 78.8047 787.948 77.9961 787.948 76.2734V70.4639H786.454V76.6514C786.454 78.9365 787.579 80.1758 789.653 80.1758C791.104 80.1758 792.193 79.5078 792.703 78.3213H792.826V80H794.259V70.4639ZM806.08 72.9775C806.08 71.2109 805.386 70.2881 804.059 70.2881C803.101 70.2881 802.336 70.8682 802.09 71.7822H801.932C801.729 70.8418 801.097 70.2881 800.2 70.2881C799.304 70.2881 798.618 70.8506 798.381 71.8086H798.223V70.4639H796.887V80H798.231V73.5664C798.231 72.3799 798.759 71.6504 799.603 71.6504C800.411 71.6504 800.833 72.2568 800.833 73.4082V80H802.169V73.5664C802.169 72.3799 802.679 71.6504 803.514 71.6504C804.313 71.6504 804.735 72.2568 804.735 73.417V80H806.08V72.9775ZM810.694 73.6543C810.694 76.6426 811.591 79.2266 813.34 81.2129H814.825C813.006 78.6553 812.241 76.4141 812.241 73.6543C812.241 70.8945 813.006 68.6533 814.825 66.0957H813.34C811.591 68.082 810.694 70.6748 810.694 73.6543ZM822.19 74.1201H823.641C825.398 74.1201 826.515 75.0605 826.515 76.5371C826.515 77.9697 825.434 78.8662 823.693 78.8662C822.111 78.8662 820.986 77.9873 820.846 76.6338H819.378C819.492 78.8223 821.232 80.2637 823.737 80.2637C826.269 80.2637 828.079 78.7256 828.079 76.5723C828.079 74.8408 827.077 73.6543 825.39 73.4346V73.2939C826.752 72.96 827.552 71.8701 827.552 70.3408C827.552 68.416 825.935 67.0537 823.667 67.0537C821.32 67.0537 819.773 68.416 819.624 70.6133H821.109C821.232 69.251 822.182 68.416 823.605 68.416C825.038 68.416 825.987 69.2686 825.987 70.5605C825.987 71.8877 824.994 72.8193 823.57 72.8193H822.19V74.1201ZM832.649 66.0957C834.469 68.6533 835.233 70.8945 835.233 73.6543C835.233 76.4141 834.469 78.6553 832.649 81.2129H834.135C835.884 79.2266 836.78 76.6426 836.78 73.6543C836.78 70.6748 835.884 68.082 834.135 66.0957H832.649ZM678.691 92.8984V90.4639H675.132V91.6592H677.25V98.8047H675.325V100H681.662V98.8047H678.709V95.7285C678.709 93.3027 679.957 91.8438 682.066 91.8438C682.585 91.8438 683.2 91.9492 683.64 92.1074V90.4287C683.323 90.2969 682.805 90.2178 682.26 90.2178C680.423 90.2178 679.236 91.1318 678.885 92.8984H678.691ZM690.319 91.5713C691.857 91.5713 692.789 92.6699 692.789 94.4893H687.771C687.771 92.6611 688.729 91.5713 690.319 91.5713ZM692.789 97.5391C692.525 98.374 691.638 98.8838 690.434 98.8838C688.808 98.8838 687.771 97.7588 687.771 96.0098V95.623H694.266V94.6914C694.266 91.9316 692.807 90.2881 690.328 90.2881C687.902 90.2881 686.294 91.9404 686.294 94.4541V95.8867C686.294 98.6025 687.814 100.176 690.434 100.176C692.438 100.176 693.949 99.1123 694.239 97.5391H692.789ZM699.715 87.9062V90.4902H697.175V91.7646H699.715V97.1611C699.715 99.1475 700.813 100.044 703.178 100.044C703.635 100.044 704.795 100 705.032 99.9561V98.6904C704.777 98.7168 703.819 98.7432 703.283 98.7432C701.938 98.7432 701.209 98.1807 701.209 97.1436V91.7646H705.059V90.4902H701.191V87.9062H699.715ZM716.37 90.4639H714.876V96.0801C714.876 97.7061 713.821 98.8047 712.248 98.8047C710.763 98.8047 710.06 97.9961 710.06 96.2734V90.4639H708.565V96.6514C708.565 98.9365 709.69 100.176 711.765 100.176C713.215 100.176 714.305 99.5078 714.814 98.3213H714.938V100H716.37V90.4639ZM723.199 92.8984V90.4639H719.64V91.6592H721.758V98.8047H719.833V100H726.17V98.8047H723.217V95.7285C723.217 93.3027 724.465 91.8438 726.574 91.8438C727.093 91.8438 727.708 91.9492 728.147 92.1074V90.4287C727.831 90.2969 727.312 90.2178 726.768 90.2178C724.931 90.2178 723.744 91.1318 723.393 92.8984H723.199ZM730.819 100H732.313V94.3838C732.313 92.7578 733.368 91.6592 734.941 91.6592C736.427 91.6592 737.13 92.4678 737.13 94.1904V100H738.624V93.8125C738.624 91.5273 737.499 90.2881 735.425 90.2881C733.975 90.2881 732.885 90.9561 732.375 92.1426H732.252V90.4639H730.819V100ZM755.429 94.1201H756.879C758.637 94.1201 759.753 95.0605 759.753 96.5371C759.753 97.9697 758.672 98.8662 756.932 98.8662C755.35 98.8662 754.225 97.9873 754.084 96.6338H752.616C752.73 98.8223 754.471 100.264 756.976 100.264C759.507 100.264 761.317 98.7256 761.317 96.5723C761.317 94.8408 760.315 93.6543 758.628 93.4346V93.2939C759.99 92.96 760.79 91.8701 760.79 90.3408C760.79 88.416 759.173 87.0537 756.905 87.0537C754.559 87.0537 753.012 88.416 752.862 90.6133H754.348C754.471 89.251 755.42 88.416 756.844 88.416C758.276 88.416 759.226 89.2686 759.226 90.5605C759.226 91.8877 758.232 92.8193 756.809 92.8193H755.429V94.1201ZM779.915 95.0693H783.914V93.6807H779.915V89.6992H778.544V93.6807H774.545V95.0693H778.544V99.042H779.915V95.0693ZM798.012 93.0391C798.012 94.3926 798.864 95.2627 800.587 95.6582L802.002 95.9834C803.215 96.2559 803.681 96.6602 803.681 97.416C803.681 98.3301 802.854 98.9189 801.554 98.9189C800.323 98.9189 799.479 98.4092 799.26 97.5303H797.739C797.906 99.165 799.339 100.176 801.501 100.176C803.76 100.176 805.228 99.0332 805.228 97.2754C805.228 95.8955 804.384 95.0869 802.529 94.665L801.185 94.3574C799.989 94.0938 799.497 93.6807 799.497 92.9512C799.497 92.0811 800.279 91.5186 801.492 91.5186C802.608 91.5186 803.408 92.0283 803.584 92.8633H805.025C804.85 91.2725 803.505 90.2793 801.519 90.2793C799.418 90.2793 798.012 91.3867 798.012 93.0391ZM816.513 90.4639H815.019V96.0801C815.019 97.7061 813.964 98.8047 812.391 98.8047C810.905 98.8047 810.202 97.9961 810.202 96.2734V90.4639H808.708V96.6514C808.708 98.9365 809.833 100.176 811.907 100.176C813.357 100.176 814.447 99.5078 814.957 98.3213H815.08V100H816.513V90.4639ZM828.334 92.9775C828.334 91.2109 827.64 90.2881 826.312 90.2881C825.354 90.2881 824.59 90.8682 824.344 91.7822H824.186C823.983 90.8418 823.351 90.2881 822.454 90.2881C821.558 90.2881 820.872 90.8506 820.635 91.8086H820.477V90.4639H819.141V100H820.485V93.5664C820.485 92.3799 821.013 91.6504 821.856 91.6504C822.665 91.6504 823.087 92.2568 823.087 93.4082V100H824.423V93.5664C824.423 92.3799 824.933 91.6504 825.768 91.6504C826.567 91.6504 826.989 92.2568 826.989 93.417V100H828.334V92.9775ZM832.948 93.6543C832.948 96.6426 833.845 99.2266 835.594 101.213H837.079C835.26 98.6553 834.495 96.4141 834.495 93.6543C834.495 90.8945 835.26 88.6533 837.079 86.0957H835.594C833.845 88.082 832.948 90.6748 832.948 93.6543ZM841.948 90.8857V90.9385H843.442V90.8857C843.442 89.3916 844.409 88.416 845.868 88.416C847.345 88.416 848.303 89.3125 848.303 90.6748C848.303 91.6768 847.916 92.3535 846.308 94.1553L842.019 98.9277V100H850.043V98.5938H844.233V98.4443L847.222 95.1924C849.243 92.9863 849.841 91.9316 849.841 90.6133C849.841 88.4951 848.241 87.0537 845.912 87.0537C843.601 87.0537 841.948 88.6533 841.948 90.8857ZM854.903 86.0957C856.723 88.6533 857.487 90.8945 857.487 93.6543C857.487 96.4141 856.723 98.6553 854.903 101.213H856.389C858.138 99.2266 859.034 96.6426 859.034 93.6543C859.034 90.6748 858.138 88.082 856.389 86.0957H854.903ZM700.945 112.898V110.464H697.386V111.659H699.504V118.805H697.579V120H703.916V118.805H700.963V115.729C700.963 113.303 702.211 111.844 704.32 111.844C704.839 111.844 705.454 111.949 705.894 112.107V110.429C705.577 110.297 705.059 110.218 704.514 110.218C702.677 110.218 701.49 111.132 701.139 112.898H700.945ZM712.573 111.571C714.111 111.571 715.043 112.67 715.043 114.489H710.024C710.024 112.661 710.982 111.571 712.573 111.571ZM715.043 117.539C714.779 118.374 713.892 118.884 712.688 118.884C711.062 118.884 710.024 117.759 710.024 116.01V115.623H716.52V114.691C716.52 111.932 715.061 110.288 712.582 110.288C710.156 110.288 708.548 111.94 708.548 114.454V115.887C708.548 118.603 710.068 120.176 712.688 120.176C714.691 120.176 716.203 119.112 716.493 117.539H715.043ZM721.969 107.906V110.49H719.429V111.765H721.969V117.161C721.969 119.147 723.067 120.044 725.432 120.044C725.889 120.044 727.049 120 727.286 119.956V118.69C727.031 118.717 726.073 118.743 725.537 118.743C724.192 118.743 723.463 118.181 723.463 117.144V111.765H727.312V110.49H723.445V107.906H721.969ZM738.624 110.464H737.13V116.08C737.13 117.706 736.075 118.805 734.502 118.805C733.017 118.805 732.313 117.996 732.313 116.273V110.464H730.819V116.651C730.819 118.937 731.944 120.176 734.019 120.176C735.469 120.176 736.559 119.508 737.068 118.321H737.191V120H738.624V110.464ZM745.453 112.898V110.464H741.894V111.659H744.012V118.805H742.087V120H748.424V118.805H745.471V115.729C745.471 113.303 746.719 111.844 748.828 111.844C749.347 111.844 749.962 111.949 750.401 112.107V110.429C750.085 110.297 749.566 110.218 749.021 110.218C747.185 110.218 745.998 111.132 745.646 112.898H745.453ZM753.073 120H754.567V114.384C754.567 112.758 755.622 111.659 757.195 111.659C758.681 111.659 759.384 112.468 759.384 114.19V120H760.878V113.812C760.878 111.527 759.753 110.288 757.679 110.288C756.229 110.288 755.139 110.956 754.629 112.143H754.506V110.464H753.073V120ZM775.187 110.886V110.938H776.681V110.886C776.681 109.392 777.647 108.416 779.106 108.416C780.583 108.416 781.541 109.312 781.541 110.675C781.541 111.677 781.154 112.354 779.546 114.155L775.257 118.928V120H783.281V118.594H777.472V118.444L780.46 115.192C782.481 112.986 783.079 111.932 783.079 110.613C783.079 108.495 781.479 107.054 779.15 107.054C776.839 107.054 775.187 108.653 775.187 110.886ZM802.169 115.069H806.168V113.681H802.169V109.699H800.798V113.681H796.799V115.069H800.798V119.042H802.169V115.069ZM820.266 113.039C820.266 114.393 821.118 115.263 822.841 115.658L824.256 115.983C825.469 116.256 825.935 116.66 825.935 117.416C825.935 118.33 825.108 118.919 823.808 118.919C822.577 118.919 821.733 118.409 821.514 117.53H819.993C820.16 119.165 821.593 120.176 823.755 120.176C826.014 120.176 827.481 119.033 827.481 117.275C827.481 115.896 826.638 115.087 824.783 114.665L823.438 114.357C822.243 114.094 821.751 113.681 821.751 112.951C821.751 112.081 822.533 111.519 823.746 111.519C824.862 111.519 825.662 112.028 825.838 112.863H827.279C827.104 111.272 825.759 110.279 823.772 110.279C821.672 110.279 820.266 111.387 820.266 113.039ZM838.767 110.464H837.272V116.08C837.272 117.706 836.218 118.805 834.645 118.805C833.159 118.805 832.456 117.996 832.456 116.273V110.464H830.962V116.651C830.962 118.937 832.087 120.176 834.161 120.176C835.611 120.176 836.701 119.508 837.211 118.321H837.334V120H838.767V110.464ZM850.588 112.978C850.588 111.211 849.894 110.288 848.566 110.288C847.608 110.288 846.844 110.868 846.598 111.782H846.439C846.237 110.842 845.604 110.288 844.708 110.288C843.812 110.288 843.126 110.851 842.889 111.809H842.73V110.464H841.395V120H842.739V113.566C842.739 112.38 843.267 111.65 844.11 111.65C844.919 111.65 845.341 112.257 845.341 113.408V120H846.677V113.566C846.677 112.38 847.187 111.65 848.021 111.65C848.821 111.65 849.243 112.257 849.243 113.417V120H850.588V112.978ZM855.202 113.654C855.202 116.643 856.099 119.227 857.848 121.213H859.333C857.514 118.655 856.749 116.414 856.749 113.654C856.749 110.895 857.514 108.653 859.333 106.096H857.848C856.099 108.082 855.202 110.675 855.202 113.654ZM869.467 118.638V107.317H867.946L864.167 109.77V111.422L867.797 109.075H867.938V118.638H864.193V120H873.035V118.638H869.467ZM877.157 106.096C878.977 108.653 879.741 110.895 879.741 113.654C879.741 116.414 878.977 118.655 877.157 121.213H878.643C880.392 119.227 881.288 116.643 881.288 113.654C881.288 110.675 880.392 108.082 878.643 106.096H877.157ZM723.199 132.898V130.464H719.64V131.659H721.758V138.805H719.833V140H726.17V138.805H723.217V135.729C723.217 133.303 724.465 131.844 726.574 131.844C727.093 131.844 727.708 131.949 728.147 132.107V130.429C727.831 130.297 727.312 130.218 726.768 130.218C724.931 130.218 723.744 131.132 723.393 132.898H723.199ZM734.827 131.571C736.365 131.571 737.297 132.67 737.297 134.489H732.278C732.278 132.661 733.236 131.571 734.827 131.571ZM737.297 137.539C737.033 138.374 736.146 138.884 734.941 138.884C733.315 138.884 732.278 137.759 732.278 136.01V135.623H738.773V134.691C738.773 131.932 737.314 130.288 734.836 130.288C732.41 130.288 730.802 131.94 730.802 134.454V135.887C730.802 138.603 732.322 140.176 734.941 140.176C736.945 140.176 738.457 139.112 738.747 137.539H737.297ZM744.223 127.906V130.49H741.683V131.765H744.223V137.161C744.223 139.147 745.321 140.044 747.686 140.044C748.143 140.044 749.303 140 749.54 139.956V138.69C749.285 138.717 748.327 138.743 747.791 138.743C746.446 138.743 745.717 138.181 745.717 137.144V131.765H749.566V130.49H745.699V127.906H744.223ZM760.878 130.464H759.384V136.08C759.384 137.706 758.329 138.805 756.756 138.805C755.271 138.805 754.567 137.996 754.567 136.273V130.464H753.073V136.651C753.073 138.937 754.198 140.176 756.272 140.176C757.723 140.176 758.812 139.508 759.322 138.321H759.445V140H760.878V130.464ZM767.707 132.898V130.464H764.147V131.659H766.266V138.805H764.341V140H770.678V138.805H767.725V135.729C767.725 133.303 768.973 131.844 771.082 131.844C771.601 131.844 772.216 131.949 772.655 132.107V130.429C772.339 130.297 771.82 130.218 771.275 130.218C769.438 130.218 768.252 131.132 767.9 132.898H767.707ZM775.327 140H776.821V134.384C776.821 132.758 777.876 131.659 779.449 131.659C780.935 131.659 781.638 132.468 781.638 134.19V140H783.132V133.812C783.132 131.527 782.007 130.288 779.933 130.288C778.482 130.288 777.393 130.956 776.883 132.143H776.76V130.464H775.327V140ZM802.705 138.638V127.317H801.185L797.405 129.77V131.422L801.035 129.075H801.176V138.638H797.432V140H806.273V138.638H802.705Z" fill="#AAAAAA"/>
</svg>
