<svg width="640" height="300" viewBox="0 0 640 300" fill="none" xmlns="http://www.w3.org/2000/svg">
<rect width="640" height="300" fill="white"/>
<path d="M47.5361 93.4346C47.29 91.4746 45.8486 90.2793 43.7393 90.2793C41.1465 90.2793 39.6348 91.8701 39.6348 94.6035V95.8516C39.6348 98.585 41.1465 100.176 43.7393 100.176C45.8486 100.176 47.2988 98.9893 47.5361 97.0469H46.0596C45.875 98.1367 44.9434 98.8311 43.7129 98.8311C42.0518 98.8311 41.1289 97.7061 41.1289 95.6582V94.7969C41.1289 92.749 42.0518 91.6152 43.7129 91.6152C44.9434 91.6152 45.875 92.3184 46.0596 93.4346H47.5361ZM54.6904 100.176C57.2129 100.176 58.8213 98.5322 58.8213 95.957V94.5156C58.8213 91.9404 57.2129 90.2969 54.6904 90.2969C52.168 90.2969 50.5596 91.9404 50.5596 94.5156V95.957C50.5596 98.5322 52.168 100.176 54.6904 100.176ZM54.6904 91.6152C56.3252 91.6152 57.3447 92.7754 57.3447 94.6475V95.8164C57.3447 97.6973 56.3252 98.8486 54.6904 98.8486C53.0557 98.8486 52.0361 97.6973 52.0361 95.8164V94.6475C52.0361 92.7754 53.0557 91.6152 54.6904 91.6152ZM61.915 100H63.4092V94.3838C63.4092 92.7578 64.4639 91.6592 66.0371 91.6592C67.5225 91.6592 68.2256 92.4678 68.2256 94.1904V100H69.7197V93.8125C69.7197 91.5273 68.5947 90.2881 66.5205 90.2881C65.0703 90.2881 63.9805 90.9561 63.4707 92.1426H63.3477V90.4639H61.915V100ZM73.4727 93.0391C73.4727 94.3926 74.3252 95.2627 76.0479 95.6582L77.4629 95.9834C78.6758 96.2559 79.1416 96.6602 79.1416 97.416C79.1416 98.3301 78.3154 98.9189 77.0146 98.9189C75.7842 98.9189 74.9404 98.4092 74.7207 97.5303H73.2002C73.3672 99.165 74.7998 100.176 76.9619 100.176C79.2207 100.176 80.6885 99.0332 80.6885 97.2754C80.6885 95.8955 79.8447 95.0869 77.9902 94.665L76.6455 94.3574C75.4502 94.0938 74.958 93.6807 74.958 92.9512C74.958 92.0811 75.7402 91.5186 76.9531 91.5186C78.0693 91.5186 78.8691 92.0283 79.0449 92.8633H80.4863C80.3105 91.2725 78.9658 90.2793 76.9795 90.2793C74.8789 90.2793 73.4727 91.3867 73.4727 93.0391ZM86.4453 87.9062V90.4902H83.9053V91.7646H86.4453V97.1611C86.4453 99.1475 87.5439 100.044 89.9082 100.044C90.3652 100.044 91.5254 100 91.7627 99.9561V98.6904C91.5078 98.7168 90.5498 98.7432 90.0137 98.7432C88.6689 98.7432 87.9395 98.1807 87.9395 97.1436V91.7646H91.7891V90.4902H87.9219V87.9062H86.4453ZM107.486 95.8428V94.5332C107.486 92.7842 108.506 91.6504 110.088 91.6504C111.661 91.6504 112.672 92.7754 112.672 94.5332V95.8428C112.672 97.6006 111.661 98.7344 110.088 98.7344C108.506 98.7344 107.486 97.5918 107.486 95.8428ZM110.044 103.577C112.628 103.577 114.157 102.241 114.157 100V90.4639H112.681V91.9404H112.514C112.101 90.9121 111.055 90.3057 109.675 90.3057C107.442 90.3057 105.983 91.8877 105.983 94.3398V96.0537C105.983 98.4971 107.434 100.088 109.64 100.088C111.028 100.088 112.083 99.4814 112.505 98.4795H112.663V99.9648C112.663 101.494 111.74 102.338 110.07 102.338C108.796 102.338 107.838 101.819 107.645 101.028H106.168C106.361 102.61 107.838 103.577 110.044 103.577ZM121.558 91.5713C123.096 91.5713 124.027 92.6699 124.027 94.4893H119.009C119.009 92.6611 119.967 91.5713 121.558 91.5713ZM124.027 97.5391C123.764 98.374 122.876 98.8838 121.672 98.8838C120.046 98.8838 119.009 97.7588 119.009 96.0098V95.623H125.504V94.6914C125.504 91.9316 124.045 90.2881 121.566 90.2881C119.141 90.2881 117.532 91.9404 117.532 94.4541V95.8867C117.532 98.6025 119.053 100.176 121.672 100.176C123.676 100.176 125.188 99.1123 125.478 97.5391H124.027ZM130.953 87.9062V90.4902H128.413V91.7646H130.953V97.1611C130.953 99.1475 132.052 100.044 134.416 100.044C134.873 100.044 136.033 100 136.271 99.9561V98.6904C136.016 98.7168 135.058 98.7432 134.521 98.7432C133.177 98.7432 132.447 98.1807 132.447 97.1436V91.7646H136.297V90.4902H132.43V87.9062H130.953ZM141.271 88.6973H143.855C145.552 88.6973 146.519 89.5938 146.519 91.167C146.519 92.749 145.534 93.6367 143.785 93.6367H141.271V88.6973ZM144.189 94.9463L146.554 100H148.303L145.719 94.6299C147.16 94.1553 148.083 92.793 148.083 91.1318C148.083 88.7764 146.51 87.3174 143.996 87.3174H139.742V100H141.271V94.9463H144.189ZM154.938 91.5713C156.477 91.5713 157.408 92.6699 157.408 94.4893H152.39C152.39 92.6611 153.348 91.5713 154.938 91.5713ZM157.408 97.5391C157.145 98.374 156.257 98.8838 155.053 98.8838C153.427 98.8838 152.39 97.7588 152.39 96.0098V95.623H158.885V94.6914C158.885 91.9316 157.426 90.2881 154.947 90.2881C152.521 90.2881 150.913 91.9404 150.913 94.4541V95.8867C150.913 98.6025 152.434 100.176 155.053 100.176C157.057 100.176 158.568 99.1123 158.858 97.5391H157.408ZM169.933 93.4346C169.687 91.4746 168.245 90.2793 166.136 90.2793C163.543 90.2793 162.031 91.8701 162.031 94.6035V95.8516C162.031 98.585 163.543 100.176 166.136 100.176C168.245 100.176 169.695 98.9893 169.933 97.0469H168.456C168.271 98.1367 167.34 98.8311 166.109 98.8311C164.448 98.8311 163.525 97.7061 163.525 95.6582V94.7969C163.525 92.749 164.448 91.6152 166.109 91.6152C167.34 91.6152 168.271 92.3184 168.456 93.4346H169.933ZM175.461 87.9062V90.4902H172.921V91.7646H175.461V97.1611C175.461 99.1475 176.56 100.044 178.924 100.044C179.381 100.044 180.541 100 180.778 99.9561V98.6904C180.523 98.7168 179.565 98.7432 179.029 98.7432C177.685 98.7432 176.955 98.1807 176.955 97.1436V91.7646H180.805V90.4902H176.938V87.9062H175.461ZM187.247 100.167C188.636 100.167 189.673 99.5957 190.13 98.5762H190.279V100.009H191.703V93.4785C191.703 91.4922 190.42 90.3496 188.179 90.3496C186.228 90.3496 184.751 91.3955 184.575 92.9248H186.043C186.289 92.1074 187.062 91.6416 188.161 91.6416C189.488 91.6416 190.218 92.3008 190.218 93.4961V94.3574L187.599 94.4893C185.428 94.6035 184.215 95.6055 184.215 97.293C184.215 99.0244 185.428 100.167 187.247 100.167ZM187.678 98.8574C186.474 98.8574 185.727 98.2422 185.727 97.2402C185.727 96.2471 186.43 95.6758 187.766 95.6143L190.218 95.5V96.625C190.218 97.8994 189.119 98.8574 187.678 98.8574ZM195.438 100H196.933V94.3838C196.933 92.7578 197.987 91.6592 199.561 91.6592C201.046 91.6592 201.749 92.4678 201.749 94.1904V100H203.243V93.8125C203.243 91.5273 202.118 90.2881 200.044 90.2881C198.594 90.2881 197.504 90.9561 196.994 92.1426H196.871V90.4639H195.438V100ZM207.629 95.8428V94.5332C207.629 92.7842 208.648 91.6504 210.23 91.6504C211.804 91.6504 212.814 92.7754 212.814 94.5332V95.8428C212.814 97.6006 211.804 98.7344 210.23 98.7344C208.648 98.7344 207.629 97.5918 207.629 95.8428ZM210.187 103.577C212.771 103.577 214.3 102.241 214.3 100V90.4639H212.823V91.9404H212.656C212.243 90.9121 211.197 90.3057 209.817 90.3057C207.585 90.3057 206.126 91.8877 206.126 94.3398V96.0537C206.126 98.4971 207.576 100.088 209.782 100.088C211.171 100.088 212.226 99.4814 212.647 98.4795H212.806V99.9648C212.806 101.494 211.883 102.338 210.213 102.338C208.938 102.338 207.98 101.819 207.787 101.028H206.311C206.504 102.61 207.98 103.577 210.187 103.577ZM225.761 100V98.7607H222.614V86.7197H217.886V87.959H221.12V98.7607H217.859V100H225.761ZM232.827 91.5713C234.365 91.5713 235.297 92.6699 235.297 94.4893H230.278C230.278 92.6611 231.236 91.5713 232.827 91.5713ZM235.297 97.5391C235.033 98.374 234.146 98.8838 232.941 98.8838C231.315 98.8838 230.278 97.7588 230.278 96.0098V95.623H236.773V94.6914C236.773 91.9316 235.314 90.2881 232.836 90.2881C230.41 90.2881 228.802 91.9404 228.802 94.4541V95.8867C228.802 98.6025 230.322 100.176 232.941 100.176C234.945 100.176 236.457 99.1123 236.747 97.5391H235.297ZM242.021 95.0342L243.805 89.1807H243.849L245.624 95.0342H242.021ZM247.127 100H248.762L244.675 87.3174H243.022L238.936 100H240.509L241.616 96.3613H246.028L247.127 100ZM254.58 92.8984V90.4639H251.021V91.6592H253.139V98.8047H251.214V100H257.551V98.8047H254.598V95.7285C254.598 93.3027 255.846 91.8438 257.955 91.8438C258.474 91.8438 259.089 91.9492 259.528 92.1074V90.4287C259.212 90.2969 258.693 90.2178 258.148 90.2178C256.312 90.2178 255.125 91.1318 254.773 92.8984H254.58ZM266.208 91.5713C267.746 91.5713 268.678 92.6699 268.678 94.4893H263.659C263.659 92.6611 264.617 91.5713 266.208 91.5713ZM268.678 97.5391C268.414 98.374 267.526 98.8838 266.322 98.8838C264.696 98.8838 263.659 97.7588 263.659 96.0098V95.623H270.154V94.6914C270.154 91.9316 268.695 90.2881 266.217 90.2881C263.791 90.2881 262.183 91.9404 262.183 94.4541V95.8867C262.183 98.6025 263.703 100.176 266.322 100.176C268.326 100.176 269.838 99.1123 270.128 97.5391H268.678ZM276.263 100.167C277.651 100.167 278.688 99.5957 279.146 98.5762H279.295V100.009H280.719V93.4785C280.719 91.4922 279.436 90.3496 277.194 90.3496C275.243 90.3496 273.767 91.3955 273.591 92.9248H275.059C275.305 92.1074 276.078 91.6416 277.177 91.6416C278.504 91.6416 279.233 92.3008 279.233 93.4961V94.3574L276.614 94.4893C274.443 94.6035 273.23 95.6055 273.23 97.293C273.23 99.0244 274.443 100.167 276.263 100.167ZM276.693 98.8574C275.489 98.8574 274.742 98.2422 274.742 97.2402C274.742 96.2471 275.445 95.6758 276.781 95.6143L279.233 95.5V96.625C279.233 97.8994 278.135 98.8574 276.693 98.8574ZM304.133 97.1084V95.6582H294.834V97.1084H304.133ZM304.133 93.1006V91.6504H294.834V93.1006H304.133ZM320.331 100H321.825V91.7646H326.018V90.4902H321.808V89.5059C321.808 88.5479 322.511 88.0557 323.838 88.0557C324.374 88.0557 325.604 88.0908 326.018 88.1348V86.9131C325.701 86.8691 324.374 86.8252 323.82 86.8252C321.474 86.8252 320.331 87.6865 320.331 89.5322V90.4902H317.773V91.7646H320.331V100ZM336.767 90.4639H335.272V96.0801C335.272 97.7061 334.218 98.8047 332.645 98.8047C331.159 98.8047 330.456 97.9961 330.456 96.2734V90.4639H328.962V96.6514C328.962 98.9365 330.087 100.176 332.161 100.176C333.611 100.176 334.701 99.5078 335.211 98.3213H335.334V100H336.767V90.4639ZM340.089 100H341.583V94.3838C341.583 92.7578 342.638 91.6592 344.211 91.6592C345.696 91.6592 346.399 92.4678 346.399 94.1904V100H347.894V93.8125C347.894 91.5273 346.769 90.2881 344.694 90.2881C343.244 90.2881 342.154 90.9561 341.645 92.1426H341.521V90.4639H340.089V100ZM359.091 93.4346C358.845 91.4746 357.403 90.2793 355.294 90.2793C352.701 90.2793 351.189 91.8701 351.189 94.6035V95.8516C351.189 98.585 352.701 100.176 355.294 100.176C357.403 100.176 358.854 98.9893 359.091 97.0469H357.614C357.43 98.1367 356.498 98.8311 355.268 98.8311C353.606 98.8311 352.684 97.7061 352.684 95.6582V94.7969C352.684 92.749 353.606 91.6152 355.268 91.6152C356.498 91.6152 357.43 92.3184 357.614 93.4346H359.091ZM364.619 87.9062V90.4902H362.079V91.7646H364.619V97.1611C364.619 99.1475 365.718 100.044 368.082 100.044C368.539 100.044 369.699 100 369.937 99.9561V98.6904C369.682 98.7168 368.724 98.7432 368.188 98.7432C366.843 98.7432 366.113 98.1807 366.113 97.1436V91.7646H369.963V90.4902H366.096V87.9062H364.619ZM377.539 88.126C378.242 88.126 378.778 87.5986 378.778 86.8955C378.778 86.2012 378.242 85.6738 377.539 85.6738C376.836 85.6738 376.3 86.2012 376.3 86.8955C376.3 87.5986 376.836 88.126 377.539 88.126ZM381.538 100V98.7607H378.383V90.4639H373.663V91.7031H376.906V98.7607H373.637V100H381.538ZM388.499 100.176C391.021 100.176 392.63 98.5322 392.63 95.957V94.5156C392.63 91.9404 391.021 90.2969 388.499 90.2969C385.977 90.2969 384.368 91.9404 384.368 94.5156V95.957C384.368 98.5322 385.977 100.176 388.499 100.176ZM388.499 91.6152C390.134 91.6152 391.153 92.7754 391.153 94.6475V95.8164C391.153 97.6973 390.134 98.8486 388.499 98.8486C386.864 98.8486 385.845 97.6973 385.845 95.8164V94.6475C385.845 92.7754 386.864 91.6152 388.499 91.6152ZM395.724 100H397.218V94.3838C397.218 92.7578 398.272 91.6592 399.846 91.6592C401.331 91.6592 402.034 92.4678 402.034 94.1904V100H403.528V93.8125C403.528 91.5273 402.403 90.2881 400.329 90.2881C398.879 90.2881 397.789 90.9561 397.279 92.1426H397.156V90.4639H395.724V100ZM408.837 93.6543C408.837 96.6426 409.733 99.2266 411.482 101.213H412.968C411.148 98.6553 410.384 96.4141 410.384 93.6543C410.384 90.8945 411.148 88.6533 412.968 86.0957H411.482C409.733 88.082 408.837 90.6748 408.837 93.6543ZM427.03 90.4639H425.571L424.279 98.1104H424.121L422.583 90.4727H421.177L419.639 98.1104H419.48L418.188 90.4639H416.729L418.777 100H420.21L421.827 92.5645H421.933L423.55 100H424.982L427.03 90.4639ZM433.174 88.126C433.877 88.126 434.413 87.5986 434.413 86.8955C434.413 86.2012 433.877 85.6738 433.174 85.6738C432.471 85.6738 431.935 86.2012 431.935 86.8955C431.935 87.5986 432.471 88.126 433.174 88.126ZM437.173 100V98.7607H434.018V90.4639H429.298V91.7031H432.541V98.7607H429.271V100H437.173ZM441.392 94.5332C441.392 92.7754 442.402 91.6504 443.976 91.6504C445.54 91.6504 446.551 92.7754 446.551 94.5332V95.9043C446.551 97.6709 445.54 98.7959 443.976 98.7959C442.402 98.7959 441.392 97.6621 441.392 95.9043V94.5332ZM446.56 98.541V100H448.027V86.7197H446.507V91.9404H446.349C445.936 90.8945 444.916 90.3057 443.536 90.3057C441.33 90.3057 439.889 91.8965 439.889 94.3398V96.1152C439.889 98.5674 441.33 100.158 443.536 100.158C444.898 100.158 445.9 99.5957 446.393 98.541H446.56ZM453.635 87.9062V90.4902H451.095V91.7646H453.635V97.1611C453.635 99.1475 454.733 100.044 457.098 100.044C457.555 100.044 458.715 100 458.952 99.9561V98.6904C458.697 98.7168 457.739 98.7432 457.203 98.7432C455.858 98.7432 455.129 98.1807 455.129 97.1436V91.7646H458.979V90.4902H455.111V87.9062H453.635ZM462.477 100H463.971V94.3926C463.971 92.7666 465.034 91.668 466.607 91.668C468.102 91.668 468.805 92.4854 468.805 94.1992V100H470.299V93.8213C470.299 91.5449 469.174 90.2969 467.1 90.2969C465.641 90.2969 464.542 90.9648 464.041 92.1514H463.918V86.7197H462.477V100ZM477.058 102.944L478.648 96.6689H476.627L475.484 102.944H477.058ZM495.857 100H497.352V94.3926C497.352 92.7666 498.415 91.668 499.988 91.668C501.482 91.668 502.186 92.4854 502.186 94.1992V100H503.68V93.8213C503.68 91.5449 502.555 90.2969 500.48 90.2969C499.021 90.2969 497.923 90.9648 497.422 92.1514H497.299V86.7197H495.857V100ZM511.001 91.5713C512.539 91.5713 513.471 92.6699 513.471 94.4893H508.452C508.452 92.6611 509.41 91.5713 511.001 91.5713ZM513.471 97.5391C513.207 98.374 512.319 98.8838 511.115 98.8838C509.489 98.8838 508.452 97.7588 508.452 96.0098V95.623H514.947V94.6914C514.947 91.9316 513.488 90.2881 511.01 90.2881C508.584 90.2881 506.976 91.9404 506.976 94.4541V95.8867C506.976 98.6025 508.496 100.176 511.115 100.176C513.119 100.176 514.631 99.1123 514.921 97.5391H513.471ZM522.189 88.126C522.893 88.126 523.429 87.5986 523.429 86.8955C523.429 86.2012 522.893 85.6738 522.189 85.6738C521.486 85.6738 520.95 86.2012 520.95 86.8955C520.95 87.5986 521.486 88.126 522.189 88.126ZM526.188 100V98.7607H523.033V90.4639H518.313V91.7031H521.557V98.7607H518.287V100H526.188ZM530.311 95.8428V94.5332C530.311 92.7842 531.33 91.6504 532.912 91.6504C534.485 91.6504 535.496 92.7754 535.496 94.5332V95.8428C535.496 97.6006 534.485 98.7344 532.912 98.7344C531.33 98.7344 530.311 97.5918 530.311 95.8428ZM532.868 103.577C535.452 103.577 536.981 102.241 536.981 100V90.4639H535.505V91.9404H535.338C534.925 90.9121 533.879 90.3057 532.499 90.3057C530.267 90.3057 528.808 91.8877 528.808 94.3398V96.0537C528.808 98.4971 530.258 100.088 532.464 100.088C533.853 100.088 534.907 99.4814 535.329 98.4795H535.487V99.9648C535.487 101.494 534.564 102.338 532.895 102.338C531.62 102.338 530.662 101.819 530.469 101.028H528.992C529.186 102.61 530.662 103.577 532.868 103.577ZM540.365 100H541.859V94.3926C541.859 92.7666 542.923 91.668 544.496 91.668C545.99 91.668 546.693 92.4854 546.693 94.1992V100H548.188V93.8213C548.188 91.5449 547.062 90.2969 544.988 90.2969C543.529 90.2969 542.431 90.9648 541.93 92.1514H541.807V86.7197H540.365V100ZM553.777 87.9062V90.4902H551.237V91.7646H553.777V97.1611C553.777 99.1475 554.876 100.044 557.24 100.044C557.697 100.044 558.857 100 559.095 99.9561V98.6904C558.84 98.7168 557.882 98.7432 557.346 98.7432C556.001 98.7432 555.271 98.1807 555.271 97.1436V91.7646H559.121V90.4902H555.254V87.9062H553.777ZM564.315 86.0957C566.135 88.6533 566.899 90.8945 566.899 93.6543C566.899 96.4141 566.135 98.6553 564.315 101.213H565.801C567.55 99.2266 568.446 96.6426 568.446 93.6543C568.446 90.6748 567.55 88.082 565.801 86.0957H564.315ZM592.212 101.204V100H591.254C589.936 100 589.681 99.6924 589.681 98.1631V95.8164C589.681 94.5859 588.758 93.7686 586.974 93.7334V93.5928C588.758 93.5488 589.681 92.7314 589.681 91.501V89.1543C589.681 87.625 589.936 87.3174 591.254 87.3174H592.212V86.1133H591.017C588.881 86.1133 588.204 86.79 588.204 88.9609V90.9297C588.204 92.292 587.413 93.0742 585.356 92.8633V94.4541C587.413 94.2432 588.204 95.0342 588.204 96.3877V98.3564C588.204 100.527 588.881 101.204 591.017 101.204H592.212ZM69.9834 120V118.761H66.8369V106.72H62.1084V107.959H65.3428V118.761H62.082V120H69.9834ZM77.0498 111.571C78.5879 111.571 79.5195 112.67 79.5195 114.489H74.501C74.501 112.661 75.459 111.571 77.0498 111.571ZM79.5195 117.539C79.2559 118.374 78.3682 118.884 77.1641 118.884C75.5381 118.884 74.501 117.759 74.501 116.01V115.623H80.9961V114.691C80.9961 111.932 79.5371 110.288 77.0586 110.288C74.6328 110.288 73.0244 111.94 73.0244 114.454V115.887C73.0244 118.603 74.5449 120.176 77.1641 120.176C79.168 120.176 80.6797 119.112 80.9697 117.539H79.5195ZM86.4453 107.906V110.49H83.9053V111.765H86.4453V117.161C86.4453 119.147 87.5439 120.044 89.9082 120.044C90.3652 120.044 91.5254 120 91.7627 119.956V118.69C91.5078 118.717 90.5498 118.743 90.0137 118.743C88.6689 118.743 87.9395 118.181 87.9395 117.144V111.765H91.7891V110.49H87.9219V107.906H86.4453ZM109.358 120.167C110.747 120.167 111.784 119.596 112.241 118.576H112.391V120.009H113.814V113.479C113.814 111.492 112.531 110.35 110.29 110.35C108.339 110.35 106.862 111.396 106.687 112.925H108.154C108.4 112.107 109.174 111.642 110.272 111.642C111.6 111.642 112.329 112.301 112.329 113.496V114.357L109.71 114.489C107.539 114.604 106.326 115.605 106.326 117.293C106.326 119.024 107.539 120.167 109.358 120.167ZM109.789 118.857C108.585 118.857 107.838 118.242 107.838 117.24C107.838 116.247 108.541 115.676 109.877 115.614L112.329 115.5V116.625C112.329 117.899 111.23 118.857 109.789 118.857ZM121.057 112.898V110.464H117.497V111.659H119.615V118.805H117.69V120H124.027V118.805H121.074V115.729C121.074 113.303 122.322 111.844 124.432 111.844C124.95 111.844 125.565 111.949 126.005 112.107V110.429C125.688 110.297 125.17 110.218 124.625 110.218C122.788 110.218 121.602 111.132 121.25 112.898H121.057ZM132.685 111.571C134.223 111.571 135.154 112.67 135.154 114.489H130.136C130.136 112.661 131.094 111.571 132.685 111.571ZM135.154 117.539C134.891 118.374 134.003 118.884 132.799 118.884C131.173 118.884 130.136 117.759 130.136 116.01V115.623H136.631V114.691C136.631 111.932 135.172 110.288 132.693 110.288C130.268 110.288 128.659 111.94 128.659 114.454V115.887C128.659 118.603 130.18 120.176 132.799 120.176C134.803 120.176 136.314 119.112 136.604 117.539H135.154ZM142.739 120.167C144.128 120.167 145.165 119.596 145.622 118.576H145.771V120.009H147.195V113.479C147.195 111.492 145.912 110.35 143.671 110.35C141.72 110.35 140.243 111.396 140.067 112.925H141.535C141.781 112.107 142.555 111.642 143.653 111.642C144.98 111.642 145.71 112.301 145.71 113.496V114.357L143.091 114.489C140.92 114.604 139.707 115.605 139.707 117.293C139.707 119.024 140.92 120.167 142.739 120.167ZM143.17 118.857C141.966 118.857 141.219 118.242 141.219 117.24C141.219 116.247 141.922 115.676 143.258 115.614L145.71 115.5V116.625C145.71 117.899 144.611 118.857 143.17 118.857ZM170.609 117.108V115.658H161.311V117.108H170.609ZM170.609 113.101V111.65H161.311V113.101H170.609ZM193.364 110.464H191.905L190.613 118.11H190.455L188.917 110.473H187.511L185.973 118.11H185.814L184.522 110.464H183.063L185.111 120H186.544L188.161 112.564H188.267L189.884 120H191.316L193.364 110.464ZM199.508 108.126C200.211 108.126 200.747 107.599 200.747 106.896C200.747 106.201 200.211 105.674 199.508 105.674C198.805 105.674 198.269 106.201 198.269 106.896C198.269 107.599 198.805 108.126 199.508 108.126ZM203.507 120V118.761H200.352V110.464H195.632V111.703H198.875V118.761H195.605V120H203.507ZM207.726 114.533C207.726 112.775 208.736 111.65 210.31 111.65C211.874 111.65 212.885 112.775 212.885 114.533V115.904C212.885 117.671 211.874 118.796 210.31 118.796C208.736 118.796 207.726 117.662 207.726 115.904V114.533ZM212.894 118.541V120H214.361V106.72H212.841V111.94H212.683C212.27 110.895 211.25 110.306 209.87 110.306C207.664 110.306 206.223 111.896 206.223 114.34V116.115C206.223 118.567 207.664 120.158 209.87 120.158C211.232 120.158 212.234 119.596 212.727 118.541H212.894ZM219.969 107.906V110.49H217.429V111.765H219.969V117.161C219.969 119.147 221.067 120.044 223.432 120.044C223.889 120.044 225.049 120 225.286 119.956V118.69C225.031 118.717 224.073 118.743 223.537 118.743C222.192 118.743 221.463 118.181 221.463 117.144V111.765H225.312V110.49H221.445V107.906H219.969ZM228.811 120H230.305V114.393C230.305 112.767 231.368 111.668 232.941 111.668C234.436 111.668 235.139 112.485 235.139 114.199V120H236.633V113.821C236.633 111.545 235.508 110.297 233.434 110.297C231.975 110.297 230.876 110.965 230.375 112.151H230.252V106.72H228.811V120ZM259.713 112.38L259.089 111.246L255.494 113.461L255.6 109.26H254.352L254.457 113.461L250.862 111.246L250.238 112.38L253.903 114.375L250.238 116.37L250.862 117.504L254.457 115.289L254.352 119.499H255.6L255.494 115.298L259.089 117.504L259.713 116.37L256.048 114.375L259.713 112.38ZM273.318 120H274.812V114.393C274.812 112.767 275.876 111.668 277.449 111.668C278.943 111.668 279.646 112.485 279.646 114.199V120H281.141V113.821C281.141 111.545 280.016 110.297 277.941 110.297C276.482 110.297 275.384 110.965 274.883 112.151H274.76V106.72H273.318V120ZM288.462 111.571C290 111.571 290.932 112.67 290.932 114.489H285.913C285.913 112.661 286.871 111.571 288.462 111.571ZM290.932 117.539C290.668 118.374 289.78 118.884 288.576 118.884C286.95 118.884 285.913 117.759 285.913 116.01V115.623H292.408V114.691C292.408 111.932 290.949 110.288 288.471 110.288C286.045 110.288 284.437 111.94 284.437 114.454V115.887C284.437 118.603 285.957 120.176 288.576 120.176C290.58 120.176 292.092 119.112 292.382 117.539H290.932ZM299.65 108.126C300.354 108.126 300.89 107.599 300.89 106.896C300.89 106.201 300.354 105.674 299.65 105.674C298.947 105.674 298.411 106.201 298.411 106.896C298.411 107.599 298.947 108.126 299.65 108.126ZM303.649 120V118.761H300.494V110.464H295.774V111.703H299.018V118.761H295.748V120H303.649ZM307.771 115.843V114.533C307.771 112.784 308.791 111.65 310.373 111.65C311.946 111.65 312.957 112.775 312.957 114.533V115.843C312.957 117.601 311.946 118.734 310.373 118.734C308.791 118.734 307.771 117.592 307.771 115.843ZM310.329 123.577C312.913 123.577 314.442 122.241 314.442 120V110.464H312.966V111.94H312.799C312.386 110.912 311.34 110.306 309.96 110.306C307.728 110.306 306.269 111.888 306.269 114.34V116.054C306.269 118.497 307.719 120.088 309.925 120.088C311.313 120.088 312.368 119.481 312.79 118.479H312.948V119.965C312.948 121.494 312.025 122.338 310.355 122.338C309.081 122.338 308.123 121.819 307.93 121.028H306.453C306.646 122.61 308.123 123.577 310.329 123.577ZM317.826 120H319.32V114.393C319.32 112.767 320.384 111.668 321.957 111.668C323.451 111.668 324.154 112.485 324.154 114.199V120H325.648V113.821C325.648 111.545 324.523 110.297 322.449 110.297C320.99 110.297 319.892 110.965 319.391 112.151H319.268V106.72H317.826V120ZM331.238 107.906V110.49H328.698V111.765H331.238V117.161C331.238 119.147 332.337 120.044 334.701 120.044C335.158 120.044 336.318 120 336.556 119.956V118.69C336.301 118.717 335.343 118.743 334.807 118.743C333.462 118.743 332.732 118.181 332.732 117.144V111.765H336.582V110.49H332.715V107.906H331.238ZM343.991 113.303C344.861 113.303 345.582 112.564 345.582 111.677C345.582 110.789 344.861 110.051 343.991 110.051C343.121 110.051 342.4 110.789 342.4 111.677C342.4 112.564 343.121 113.303 343.991 113.303ZM343.534 122.918L345.125 116.669H343.104L341.961 122.918H343.534ZM65.4219 132.898V130.464H61.8623V131.659H63.9805V138.805H62.0557V140H68.3926V138.805H65.4395V135.729C65.4395 133.303 66.6875 131.844 68.7969 131.844C69.3154 131.844 69.9307 131.949 70.3701 132.107V130.429C70.0537 130.297 69.5352 130.218 68.9902 130.218C67.1533 130.218 65.9668 131.132 65.6152 132.898H65.4219ZM77.0498 131.571C78.5879 131.571 79.5195 132.67 79.5195 134.489H74.501C74.501 132.661 75.459 131.571 77.0498 131.571ZM79.5195 137.539C79.2559 138.374 78.3682 138.884 77.1641 138.884C75.5381 138.884 74.501 137.759 74.501 136.01V135.623H80.9961V134.691C80.9961 131.932 79.5371 130.288 77.0586 130.288C74.6328 130.288 73.0244 131.94 73.0244 134.454V135.887C73.0244 138.603 74.5449 140.176 77.1641 140.176C79.168 140.176 80.6797 139.112 80.9697 137.539H79.5195ZM86.4453 127.906V130.49H83.9053V131.765H86.4453V137.161C86.4453 139.147 87.5439 140.044 89.9082 140.044C90.3652 140.044 91.5254 140 91.7627 139.956V138.69C91.5078 138.717 90.5498 138.743 90.0137 138.743C88.6689 138.743 87.9395 138.181 87.9395 137.144V131.765H91.7891V130.49H87.9219V127.906H86.4453ZM103.101 130.464H101.606V136.08C101.606 137.706 100.552 138.805 98.9785 138.805C97.4932 138.805 96.79 137.996 96.79 136.273V130.464H95.2959V136.651C95.2959 138.937 96.4209 140.176 98.4951 140.176C99.9453 140.176 101.035 139.508 101.545 138.321H101.668V140H103.101V130.464ZM109.93 132.898V130.464H106.37V131.659H108.488V138.805H106.563V140H112.9V138.805H109.947V135.729C109.947 133.303 111.195 131.844 113.305 131.844C113.823 131.844 114.438 131.949 114.878 132.107V130.429C114.562 130.297 114.043 130.218 113.498 130.218C111.661 130.218 110.475 131.132 110.123 132.898H109.93ZM117.55 140H119.044V134.384C119.044 132.758 120.099 131.659 121.672 131.659C123.157 131.659 123.86 132.468 123.86 134.19V140H125.354V133.812C125.354 131.527 124.229 130.288 122.155 130.288C120.705 130.288 119.615 130.956 119.105 132.143H118.982V130.464H117.55V140ZM142.739 140.167C144.128 140.167 145.165 139.596 145.622 138.576H145.771V140.009H147.195V133.479C147.195 131.492 145.912 130.35 143.671 130.35C141.72 130.35 140.243 131.396 140.067 132.925H141.535C141.781 132.107 142.555 131.642 143.653 131.642C144.98 131.642 145.71 132.301 145.71 133.496V134.357L143.091 134.489C140.92 134.604 139.707 135.605 139.707 137.293C139.707 139.024 140.92 140.167 142.739 140.167ZM143.17 138.857C141.966 138.857 141.219 138.242 141.219 137.24C141.219 136.247 141.922 135.676 143.258 135.614L145.71 135.5V136.625C145.71 137.899 144.611 138.857 143.17 138.857ZM154.438 132.898V130.464H150.878V131.659H152.996V138.805H151.071V140H157.408V138.805H154.455V135.729C154.455 133.303 155.703 131.844 157.812 131.844C158.331 131.844 158.946 131.949 159.386 132.107V130.429C159.069 130.297 158.551 130.218 158.006 130.218C156.169 130.218 154.982 131.132 154.631 132.898H154.438ZM166.065 131.571C167.604 131.571 168.535 132.67 168.535 134.489H163.517C163.517 132.661 164.475 131.571 166.065 131.571ZM168.535 137.539C168.271 138.374 167.384 138.884 166.18 138.884C164.554 138.884 163.517 137.759 163.517 136.01V135.623H170.012V134.691C170.012 131.932 168.553 130.288 166.074 130.288C163.648 130.288 162.04 131.94 162.04 134.454V135.887C162.04 138.603 163.561 140.176 166.18 140.176C168.184 140.176 169.695 139.112 169.985 137.539H168.535ZM176.12 140.167C177.509 140.167 178.546 139.596 179.003 138.576H179.152V140.009H180.576V133.479C180.576 131.492 179.293 130.35 177.052 130.35C175.101 130.35 173.624 131.396 173.448 132.925H174.916C175.162 132.107 175.936 131.642 177.034 131.642C178.361 131.642 179.091 132.301 179.091 133.496V134.357L176.472 134.489C174.301 134.604 173.088 135.605 173.088 137.293C173.088 139.024 174.301 140.167 176.12 140.167ZM176.551 138.857C175.347 138.857 174.6 138.242 174.6 137.24C174.6 136.247 175.303 135.676 176.639 135.614L179.091 135.5V136.625C179.091 137.899 177.992 138.857 176.551 138.857ZM188.214 133.303C189.084 133.303 189.805 132.564 189.805 131.677C189.805 130.789 189.084 130.051 188.214 130.051C187.344 130.051 186.623 130.789 186.623 131.677C186.623 132.564 187.344 133.303 188.214 133.303ZM187.757 142.918L189.348 136.669H187.326L186.184 142.918H187.757ZM41.3311 161.204C43.4668 161.204 44.1436 160.527 44.1436 158.356V156.388C44.1436 155.034 44.9346 154.243 46.9912 154.454V152.863C44.9346 153.074 44.1436 152.292 44.1436 150.93V148.961C44.1436 146.79 43.4668 146.113 41.3311 146.113H40.1357V147.317H41.0938C42.4121 147.317 42.667 147.625 42.667 149.154V151.501C42.667 152.731 43.5898 153.549 45.374 153.593V153.733C43.5898 153.769 42.667 154.586 42.667 155.816V158.163C42.667 159.692 42.4121 160 41.0938 160H40.1357V161.204H41.3311ZM47.7295 220V218.761H44.583V206.72H39.8545V207.959H43.0889V218.761H39.8281V220H47.7295ZM54.7959 211.571C56.334 211.571 57.2656 212.67 57.2656 214.489H52.2471C52.2471 212.661 53.2051 211.571 54.7959 211.571ZM57.2656 217.539C57.002 218.374 56.1143 218.884 54.9102 218.884C53.2842 218.884 52.2471 217.759 52.2471 216.01V215.623H58.7422V214.691C58.7422 211.932 57.2832 210.288 54.8047 210.288C52.3789 210.288 50.7705 211.94 50.7705 214.454V215.887C50.7705 218.603 52.291 220.176 54.9102 220.176C56.9141 220.176 58.4258 219.112 58.7158 217.539H57.2656ZM64.1914 207.906V210.49H61.6514V211.765H64.1914V217.161C64.1914 219.147 65.29 220.044 67.6543 220.044C68.1113 220.044 69.2715 220 69.5088 219.956V218.69C69.2539 218.717 68.2959 218.743 67.7598 218.743C66.415 218.743 65.6855 218.181 65.6855 217.144V211.765H69.5352V210.49H65.668V207.906H64.1914ZM87.1045 220.167C88.4932 220.167 89.5303 219.596 89.9873 218.576H90.1367V220.009H91.5605V213.479C91.5605 211.492 90.2773 210.35 88.0361 210.35C86.085 210.35 84.6084 211.396 84.4326 212.925H85.9004C86.1465 212.107 86.9199 211.642 88.0186 211.642C89.3457 211.642 90.0752 212.301 90.0752 213.496V214.357L87.4561 214.489C85.2852 214.604 84.0723 215.605 84.0723 217.293C84.0723 219.024 85.2852 220.167 87.1045 220.167ZM87.5352 218.857C86.3311 218.857 85.584 218.242 85.584 217.24C85.584 216.247 86.2871 215.676 87.623 215.614L90.0752 215.5V216.625C90.0752 217.899 88.9766 218.857 87.5352 218.857ZM114.975 217.108V215.658H105.676V217.108H114.975ZM114.975 213.101V211.65H105.676V213.101H114.975ZM129.74 215.843V214.533C129.74 212.784 130.76 211.65 132.342 211.65C133.915 211.65 134.926 212.775 134.926 214.533V215.843C134.926 217.601 133.915 218.734 132.342 218.734C130.76 218.734 129.74 217.592 129.74 215.843ZM132.298 223.577C134.882 223.577 136.411 222.241 136.411 220V210.464H134.935V211.94H134.768C134.354 210.912 133.309 210.306 131.929 210.306C129.696 210.306 128.237 211.888 128.237 214.34V216.054C128.237 218.497 129.688 220.088 131.894 220.088C133.282 220.088 134.337 219.481 134.759 218.479H134.917V219.965C134.917 221.494 133.994 222.338 132.324 222.338C131.05 222.338 130.092 221.819 129.898 221.028H128.422C128.615 222.61 130.092 223.577 132.298 223.577ZM143.812 211.571C145.35 211.571 146.281 212.67 146.281 214.489H141.263C141.263 212.661 142.221 211.571 143.812 211.571ZM146.281 217.539C146.018 218.374 145.13 218.884 143.926 218.884C142.3 218.884 141.263 217.759 141.263 216.01V215.623H147.758V214.691C147.758 211.932 146.299 210.288 143.82 210.288C141.395 210.288 139.786 211.94 139.786 214.454V215.887C139.786 218.603 141.307 220.176 143.926 220.176C145.93 220.176 147.441 219.112 147.731 217.539H146.281ZM153.207 207.906V210.49H150.667V211.765H153.207V217.161C153.207 219.147 154.306 220.044 156.67 220.044C157.127 220.044 158.287 220 158.524 219.956V218.69C158.27 218.717 157.312 218.743 156.775 218.743C155.431 218.743 154.701 218.181 154.701 217.144V211.765H158.551V210.49H154.684V207.906H153.207ZM163.525 208.697H166.109C167.806 208.697 168.772 209.594 168.772 211.167C168.772 212.749 167.788 213.637 166.039 213.637H163.525V208.697ZM166.443 214.946L168.808 220H170.557L167.973 214.63C169.414 214.155 170.337 212.793 170.337 211.132C170.337 208.776 168.764 207.317 166.25 207.317H161.996V220H163.525V214.946H166.443ZM177.192 211.571C178.73 211.571 179.662 212.67 179.662 214.489H174.644C174.644 212.661 175.602 211.571 177.192 211.571ZM179.662 217.539C179.398 218.374 178.511 218.884 177.307 218.884C175.681 218.884 174.644 217.759 174.644 216.01V215.623H181.139V214.691C181.139 211.932 179.68 210.288 177.201 210.288C174.775 210.288 173.167 211.94 173.167 214.454V215.887C173.167 218.603 174.688 220.176 177.307 220.176C179.311 220.176 180.822 219.112 181.112 217.539H179.662ZM192.187 213.435C191.94 211.475 190.499 210.279 188.39 210.279C185.797 210.279 184.285 211.87 184.285 214.604V215.852C184.285 218.585 185.797 220.176 188.39 220.176C190.499 220.176 191.949 218.989 192.187 217.047H190.71C190.525 218.137 189.594 218.831 188.363 218.831C186.702 218.831 185.779 217.706 185.779 215.658V214.797C185.779 212.749 186.702 211.615 188.363 211.615C189.594 211.615 190.525 212.318 190.71 213.435H192.187ZM197.715 207.906V210.49H195.175V211.765H197.715V217.161C197.715 219.147 198.813 220.044 201.178 220.044C201.635 220.044 202.795 220 203.032 219.956V218.69C202.777 218.717 201.819 218.743 201.283 218.743C199.938 218.743 199.209 218.181 199.209 217.144V211.765H203.059V210.49H199.191V207.906H197.715ZM209.501 220.167C210.89 220.167 211.927 219.596 212.384 218.576H212.533V220.009H213.957V213.479C213.957 211.492 212.674 210.35 210.433 210.35C208.481 210.35 207.005 211.396 206.829 212.925H208.297C208.543 212.107 209.316 211.642 210.415 211.642C211.742 211.642 212.472 212.301 212.472 213.496V214.357L209.853 214.489C207.682 214.604 206.469 215.605 206.469 217.293C206.469 219.024 207.682 220.167 209.501 220.167ZM209.932 218.857C208.728 218.857 207.98 218.242 207.98 217.24C207.98 216.247 208.684 215.676 210.02 215.614L212.472 215.5V216.625C212.472 217.899 211.373 218.857 209.932 218.857ZM217.692 220H219.187V214.384C219.187 212.758 220.241 211.659 221.814 211.659C223.3 211.659 224.003 212.468 224.003 214.19V220H225.497V213.812C225.497 211.527 224.372 210.288 222.298 210.288C220.848 210.288 219.758 210.956 219.248 212.143H219.125V210.464H217.692V220ZM229.883 215.843V214.533C229.883 212.784 230.902 211.65 232.484 211.65C234.058 211.65 235.068 212.775 235.068 214.533V215.843C235.068 217.601 234.058 218.734 232.484 218.734C230.902 218.734 229.883 217.592 229.883 215.843ZM232.44 223.577C235.024 223.577 236.554 222.241 236.554 220V210.464H235.077V211.94H234.91C234.497 210.912 233.451 210.306 232.071 210.306C229.839 210.306 228.38 211.888 228.38 214.34V216.054C228.38 218.497 229.83 220.088 232.036 220.088C233.425 220.088 234.479 219.481 234.901 218.479H235.06V219.965C235.06 221.494 234.137 222.338 232.467 222.338C231.192 222.338 230.234 221.819 230.041 221.028H228.564C228.758 222.61 230.234 223.577 232.44 223.577ZM248.015 220V218.761H244.868V206.72H240.14V207.959H243.374V218.761H240.113V220H248.015ZM255.081 211.571C256.619 211.571 257.551 212.67 257.551 214.489H252.532C252.532 212.661 253.49 211.571 255.081 211.571ZM257.551 217.539C257.287 218.374 256.399 218.884 255.195 218.884C253.569 218.884 252.532 217.759 252.532 216.01V215.623H259.027V214.691C259.027 211.932 257.568 210.288 255.09 210.288C252.664 210.288 251.056 211.94 251.056 214.454V215.887C251.056 218.603 252.576 220.176 255.195 220.176C257.199 220.176 258.711 219.112 259.001 217.539H257.551ZM264.274 215.034L266.059 209.181H266.103L267.878 215.034H264.274ZM269.381 220H271.016L266.929 207.317H265.276L261.189 220H262.763L263.87 216.361H268.282L269.381 220ZM276.834 212.898V210.464H273.274V211.659H275.393V218.805H273.468V220H279.805V218.805H276.852V215.729C276.852 213.303 278.1 211.844 280.209 211.844C280.728 211.844 281.343 211.949 281.782 212.107V210.429C281.466 210.297 280.947 210.218 280.402 210.218C278.565 210.218 277.379 211.132 277.027 212.898H276.834ZM288.462 211.571C290 211.571 290.932 212.67 290.932 214.489H285.913C285.913 212.661 286.871 211.571 288.462 211.571ZM290.932 217.539C290.668 218.374 289.78 218.884 288.576 218.884C286.95 218.884 285.913 217.759 285.913 216.01V215.623H292.408V214.691C292.408 211.932 290.949 210.288 288.471 210.288C286.045 210.288 284.437 211.94 284.437 214.454V215.887C284.437 218.603 285.957 220.176 288.576 220.176C290.58 220.176 292.092 219.112 292.382 217.539H290.932ZM298.517 220.167C299.905 220.167 300.942 219.596 301.399 218.576H301.549V220.009H302.973V213.479C302.973 211.492 301.689 210.35 299.448 210.35C297.497 210.35 296.021 211.396 295.845 212.925H297.312C297.559 212.107 298.332 211.642 299.431 211.642C300.758 211.642 301.487 212.301 301.487 213.496V214.357L298.868 214.489C296.697 214.604 295.484 215.605 295.484 217.293C295.484 219.024 296.697 220.167 298.517 220.167ZM298.947 218.857C297.743 218.857 296.996 218.242 296.996 217.24C296.996 216.247 297.699 215.676 299.035 215.614L301.487 215.5V216.625C301.487 217.899 300.389 218.857 298.947 218.857ZM308.694 213.654C308.694 216.643 309.591 219.227 311.34 221.213H312.825C311.006 218.655 310.241 216.414 310.241 213.654C310.241 210.895 311.006 208.653 312.825 206.096H311.34C309.591 208.082 308.694 210.675 308.694 213.654ZM322.959 218.638V207.317H321.438L317.659 209.77V211.422L321.289 209.075H321.43V218.638H317.686V220H326.527V218.638H322.959ZM328.821 210.886V210.938H330.315V210.886C330.315 209.392 331.282 208.416 332.741 208.416C334.218 208.416 335.176 209.312 335.176 210.675C335.176 211.677 334.789 212.354 333.181 214.155L328.892 218.928V220H336.916V218.594H331.106V218.444L334.095 215.192C336.116 212.986 336.714 211.932 336.714 210.613C336.714 208.495 335.114 207.054 332.785 207.054C330.474 207.054 328.821 208.653 328.821 210.886ZM343.534 222.944L345.125 216.669H343.104L341.961 222.944H343.534ZM367.73 220H369.146V217.319H371.088V215.957H369.154V212.354H367.748V215.975H363.591V215.86L367.836 207.317H366.254L361.947 216.062V217.319H367.73V220ZM375.157 206.096C376.977 208.653 377.741 210.895 377.741 213.654C377.741 216.414 376.977 218.655 375.157 221.213H376.643C378.392 219.227 379.288 216.643 379.288 213.654C379.288 210.675 378.392 208.082 376.643 206.096H375.157ZM388.499 213.303C389.369 213.303 390.09 212.564 390.09 211.677C390.09 210.789 389.369 210.051 388.499 210.051C387.629 210.051 386.908 210.789 386.908 211.677C386.908 212.564 387.629 213.303 388.499 213.303ZM388.042 222.918L389.633 216.669H387.611L386.469 222.918H388.042Z" fill="black"/>
<path d="M322.157 60H323.651V51.7646H327.844V50.4902H323.634V49.5059C323.634 48.5479 324.337 48.0557 325.664 48.0557C326.2 48.0557 327.431 48.0908 327.844 48.1348V46.9131C327.527 46.8691 326.2 46.8252 325.646 46.8252C323.3 46.8252 322.157 47.6865 322.157 49.5322V50.4902H319.6V51.7646H322.157V60ZM338.593 50.4639H337.099V56.0801C337.099 57.7061 336.044 58.8047 334.471 58.8047C332.985 58.8047 332.282 57.9961 332.282 56.2734V50.4639H330.788V56.6514C330.788 58.9365 331.913 60.1758 333.987 60.1758C335.438 60.1758 336.527 59.5078 337.037 58.3213H337.16V60H338.593V50.4639ZM341.915 60H343.409V54.3838C343.409 52.7578 344.464 51.6592 346.037 51.6592C347.522 51.6592 348.226 52.4678 348.226 54.1904V60H349.72V53.8125C349.72 51.5273 348.595 50.2881 346.521 50.2881C345.07 50.2881 343.98 50.9561 343.471 52.1426H343.348V50.4639H341.915V60ZM360.917 53.4346C360.671 51.4746 359.229 50.2793 357.12 50.2793C354.527 50.2793 353.016 51.8701 353.016 54.6035V55.8516C353.016 58.585 354.527 60.1758 357.12 60.1758C359.229 60.1758 360.68 58.9893 360.917 57.0469H359.44C359.256 58.1367 358.324 58.8311 357.094 58.8311C355.433 58.8311 354.51 57.7061 354.51 55.6582V54.7969C354.51 52.749 355.433 51.6152 357.094 51.6152C358.324 51.6152 359.256 52.3184 359.44 53.4346H360.917ZM366.445 47.9062V50.4902H363.905V51.7646H366.445V57.1611C366.445 59.1475 367.544 60.0439 369.908 60.0439C370.365 60.0439 371.525 60 371.763 59.9561V58.6904C371.508 58.7168 370.55 58.7432 370.014 58.7432C368.669 58.7432 367.939 58.1807 367.939 57.1436V51.7646H371.789V50.4902H367.922V47.9062H366.445ZM379.365 48.126C380.068 48.126 380.604 47.5986 380.604 46.8955C380.604 46.2012 380.068 45.6738 379.365 45.6738C378.662 45.6738 378.126 46.2012 378.126 46.8955C378.126 47.5986 378.662 48.126 379.365 48.126ZM383.364 60V58.7607H380.209V50.4639H375.489V51.7031H378.732V58.7607H375.463V60H383.364ZM390.325 60.1758C392.848 60.1758 394.456 58.5322 394.456 55.957V54.5156C394.456 51.9404 392.848 50.2969 390.325 50.2969C387.803 50.2969 386.194 51.9404 386.194 54.5156V55.957C386.194 58.5322 387.803 60.1758 390.325 60.1758ZM390.325 51.6152C391.96 51.6152 392.979 52.7754 392.979 54.6475V55.8164C392.979 57.6973 391.96 58.8486 390.325 58.8486C388.69 58.8486 387.671 57.6973 387.671 55.8164V54.6475C387.671 52.7754 388.69 51.6152 390.325 51.6152ZM397.55 60H399.044V54.3838C399.044 52.7578 400.099 51.6592 401.672 51.6592C403.157 51.6592 403.86 52.4678 403.86 54.1904V60H405.354V53.8125C405.354 51.5273 404.229 50.2881 402.155 50.2881C400.705 50.2881 399.615 50.9561 399.105 52.1426H398.982V50.4639H397.55V60ZM420.964 54.5332C420.964 52.7754 421.975 51.6504 423.548 51.6504C425.112 51.6504 426.123 52.7754 426.123 54.5332V55.9043C426.123 57.6709 425.112 58.7959 423.548 58.7959C421.975 58.7959 420.964 57.6621 420.964 55.9043V54.5332ZM426.132 58.541V60H427.6V46.7197H426.079V51.9404H425.921C425.508 50.8945 424.488 50.3057 423.108 50.3057C420.902 50.3057 419.461 51.8965 419.461 54.3398V56.1152C419.461 58.5674 420.902 60.1582 423.108 60.1582C424.471 60.1582 425.473 59.5957 425.965 58.541H426.132ZM434.938 51.5713C436.477 51.5713 437.408 52.6699 437.408 54.4893H432.39C432.39 52.6611 433.348 51.5713 434.938 51.5713ZM437.408 57.5391C437.145 58.374 436.257 58.8838 435.053 58.8838C433.427 58.8838 432.39 57.7588 432.39 56.0098V55.623H438.885V54.6914C438.885 51.9316 437.426 50.2881 434.947 50.2881C432.521 50.2881 430.913 51.9404 430.913 54.4541V55.8867C430.913 58.6025 432.434 60.1758 435.053 60.1758C437.057 60.1758 438.568 59.1123 438.858 57.5391H437.408ZM449.933 53.4346C449.687 51.4746 448.245 50.2793 446.136 50.2793C443.543 50.2793 442.031 51.8701 442.031 54.6035V55.8516C442.031 58.585 443.543 60.1758 446.136 60.1758C448.245 60.1758 449.695 58.9893 449.933 57.0469H448.456C448.271 58.1367 447.34 58.8311 446.109 58.8311C444.448 58.8311 443.525 57.7061 443.525 55.6582V54.7969C443.525 52.749 444.448 51.6152 446.109 51.6152C447.34 51.6152 448.271 52.3184 448.456 53.4346H449.933ZM461.253 60V58.7607H458.106V46.7197H453.378V47.959H456.612V58.7607H453.352V60H461.253ZM467.247 60.167C468.636 60.167 469.673 59.5957 470.13 58.5762H470.279V60.0088H471.703V53.4785C471.703 51.4922 470.42 50.3496 468.179 50.3496C466.228 50.3496 464.751 51.3955 464.575 52.9248H466.043C466.289 52.1074 467.062 51.6416 468.161 51.6416C469.488 51.6416 470.218 52.3008 470.218 53.4961V54.3574L467.599 54.4893C465.428 54.6035 464.215 55.6055 464.215 57.293C464.215 59.0244 465.428 60.167 467.247 60.167ZM467.678 58.8574C466.474 58.8574 465.727 58.2422 465.727 57.2402C465.727 56.2471 466.43 55.6758 467.766 55.6143L470.218 55.5V56.625C470.218 57.8994 469.119 58.8574 467.678 58.8574ZM478.945 52.8984V50.4639H475.386V51.6592H477.504V58.8047H475.579V60H481.916V58.8047H478.963V55.7285C478.963 53.3027 480.211 51.8438 482.32 51.8438C482.839 51.8438 483.454 51.9492 483.894 52.1074V50.4287C483.577 50.2969 483.059 50.2178 482.514 50.2178C480.677 50.2178 479.49 51.1318 479.139 52.8984H478.945ZM489.501 60.167C490.89 60.167 491.927 59.5957 492.384 58.5762H492.533V60.0088H493.957V53.4785C493.957 51.4922 492.674 50.3496 490.433 50.3496C488.481 50.3496 487.005 51.3955 486.829 52.9248H488.297C488.543 52.1074 489.316 51.6416 490.415 51.6416C491.742 51.6416 492.472 52.3008 492.472 53.4961V54.3574L489.853 54.4893C487.682 54.6035 486.469 55.6055 486.469 57.293C486.469 59.0244 487.682 60.167 489.501 60.167ZM489.932 58.8574C488.728 58.8574 487.98 58.2422 487.98 57.2402C487.98 56.2471 488.684 55.6758 490.02 55.6143L492.472 55.5V56.625C492.472 57.8994 491.373 58.8574 489.932 58.8574ZM499.969 47.9062V50.4902H497.429V51.7646H499.969V57.1611C499.969 59.1475 501.067 60.0439 503.432 60.0439C503.889 60.0439 505.049 60 505.286 59.9561V58.6904C505.031 58.7168 504.073 58.7432 503.537 58.7432C502.192 58.7432 501.463 58.1807 501.463 57.1436V51.7646H505.312V50.4902H501.445V47.9062H499.969ZM512.889 48.126C513.592 48.126 514.128 47.5986 514.128 46.8955C514.128 46.2012 513.592 45.6738 512.889 45.6738C512.186 45.6738 511.649 46.2012 511.649 46.8955C511.649 47.5986 512.186 48.126 512.889 48.126ZM516.888 60V58.7607H513.732V50.4639H509.013V51.7031H512.256V58.7607H508.986V60H516.888ZM523.849 60.1758C526.371 60.1758 527.979 58.5322 527.979 55.957V54.5156C527.979 51.9404 526.371 50.2969 523.849 50.2969C521.326 50.2969 519.718 51.9404 519.718 54.5156V55.957C519.718 58.5322 521.326 60.1758 523.849 60.1758ZM523.849 51.6152C525.483 51.6152 526.503 52.7754 526.503 54.6475V55.8164C526.503 57.6973 525.483 58.8486 523.849 58.8486C522.214 58.8486 521.194 57.6973 521.194 55.8164V54.6475C521.194 52.7754 522.214 51.6152 523.849 51.6152ZM531.073 60H532.567V54.3838C532.567 52.7578 533.622 51.6592 535.195 51.6592C536.681 51.6592 537.384 52.4678 537.384 54.1904V60H538.878V53.8125C538.878 51.5273 537.753 50.2881 535.679 50.2881C534.229 50.2881 533.139 50.9561 532.629 52.1426H532.506V50.4639H531.073V60Z" fill="#AAAAAA"/>
<path d="M84.1572 60H85.6514V51.7646H89.8438V50.4902H85.6338V49.5059C85.6338 48.5479 86.3369 48.0557 87.6641 48.0557C88.2002 48.0557 89.4307 48.0908 89.8438 48.1348V46.9131C89.5273 46.8691 88.2002 46.8252 87.6465 46.8252C85.2998 46.8252 84.1572 47.6865 84.1572 49.5322V50.4902H81.5996V51.7646H84.1572V60ZM100.593 50.4639H99.0986V56.0801C99.0986 57.7061 98.0439 58.8047 96.4707 58.8047C94.9854 58.8047 94.2822 57.9961 94.2822 56.2734V50.4639H92.7881V56.6514C92.7881 58.9365 93.9131 60.1758 95.9873 60.1758C97.4375 60.1758 98.5273 59.5078 99.0371 58.3213H99.1602V60H100.593V50.4639ZM103.915 60H105.409V54.3838C105.409 52.7578 106.464 51.6592 108.037 51.6592C109.522 51.6592 110.226 52.4678 110.226 54.1904V60H111.72V53.8125C111.72 51.5273 110.595 50.2881 108.521 50.2881C107.07 50.2881 105.98 50.9561 105.471 52.1426H105.348V50.4639H103.915V60ZM122.917 53.4346C122.671 51.4746 121.229 50.2793 119.12 50.2793C116.527 50.2793 115.016 51.8701 115.016 54.6035V55.8516C115.016 58.585 116.527 60.1758 119.12 60.1758C121.229 60.1758 122.68 58.9893 122.917 57.0469H121.44C121.256 58.1367 120.324 58.8311 119.094 58.8311C117.433 58.8311 116.51 57.7061 116.51 55.6582V54.7969C116.51 52.749 117.433 51.6152 119.094 51.6152C120.324 51.6152 121.256 52.3184 121.44 53.4346H122.917ZM128.445 47.9062V50.4902H125.905V51.7646H128.445V57.1611C128.445 59.1475 129.544 60.0439 131.908 60.0439C132.365 60.0439 133.525 60 133.763 59.9561V58.6904C133.508 58.7168 132.55 58.7432 132.014 58.7432C130.669 58.7432 129.939 58.1807 129.939 57.1436V51.7646H133.789V50.4902H129.922V47.9062H128.445ZM141.365 48.126C142.068 48.126 142.604 47.5986 142.604 46.8955C142.604 46.2012 142.068 45.6738 141.365 45.6738C140.662 45.6738 140.126 46.2012 140.126 46.8955C140.126 47.5986 140.662 48.126 141.365 48.126ZM145.364 60V58.7607H142.209V50.4639H137.489V51.7031H140.732V58.7607H137.463V60H145.364ZM152.325 60.1758C154.848 60.1758 156.456 58.5322 156.456 55.957V54.5156C156.456 51.9404 154.848 50.2969 152.325 50.2969C149.803 50.2969 148.194 51.9404 148.194 54.5156V55.957C148.194 58.5322 149.803 60.1758 152.325 60.1758ZM152.325 51.6152C153.96 51.6152 154.979 52.7754 154.979 54.6475V55.8164C154.979 57.6973 153.96 58.8486 152.325 58.8486C150.69 58.8486 149.671 57.6973 149.671 55.8164V54.6475C149.671 52.7754 150.69 51.6152 152.325 51.6152ZM159.55 60H161.044V54.3838C161.044 52.7578 162.099 51.6592 163.672 51.6592C165.157 51.6592 165.86 52.4678 165.86 54.1904V60H167.354V53.8125C167.354 51.5273 166.229 50.2881 164.155 50.2881C162.705 50.2881 161.615 50.9561 161.105 52.1426H160.982V50.4639H159.55V60ZM181.804 60H183.298V54.3838C183.298 52.7578 184.353 51.6592 185.926 51.6592C187.411 51.6592 188.114 52.4678 188.114 54.1904V60H189.608V53.8125C189.608 51.5273 188.483 50.2881 186.409 50.2881C184.959 50.2881 183.869 50.9561 183.359 52.1426H183.236V50.4639H181.804V60ZM195.866 60.167C197.255 60.167 198.292 59.5957 198.749 58.5762H198.898V60.0088H200.322V53.4785C200.322 51.4922 199.039 50.3496 196.798 50.3496C194.847 50.3496 193.37 51.3955 193.194 52.9248H194.662C194.908 52.1074 195.682 51.6416 196.78 51.6416C198.107 51.6416 198.837 52.3008 198.837 53.4961V54.3574L196.218 54.4893C194.047 54.6035 192.834 55.6055 192.834 57.293C192.834 59.0244 194.047 60.167 195.866 60.167ZM196.297 58.8574C195.093 58.8574 194.346 58.2422 194.346 57.2402C194.346 56.2471 195.049 55.6758 196.385 55.6143L198.837 55.5V56.625C198.837 57.8994 197.738 58.8574 196.297 58.8574ZM212.557 52.9775C212.557 51.2109 211.862 50.2881 210.535 50.2881C209.577 50.2881 208.812 50.8682 208.566 51.7822H208.408C208.206 50.8418 207.573 50.2881 206.677 50.2881C205.78 50.2881 205.095 50.8506 204.857 51.8086H204.699V50.4639H203.363V60H204.708V53.5664C204.708 52.3799 205.235 51.6504 206.079 51.6504C206.888 51.6504 207.31 52.2568 207.31 53.4082V60H208.646V53.5664C208.646 52.3799 209.155 51.6504 209.99 51.6504C210.79 51.6504 211.212 52.2568 211.212 53.417V60H212.557V52.9775ZM219.192 51.5713C220.73 51.5713 221.662 52.6699 221.662 54.4893H216.644C216.644 52.6611 217.602 51.5713 219.192 51.5713ZM221.662 57.5391C221.398 58.374 220.511 58.8838 219.307 58.8838C217.681 58.8838 216.644 57.7588 216.644 56.0098V55.623H223.139V54.6914C223.139 51.9316 221.68 50.2881 219.201 50.2881C216.775 50.2881 215.167 51.9404 215.167 54.4541V55.8867C215.167 58.6025 216.688 60.1758 219.307 60.1758C221.311 60.1758 222.822 59.1123 223.112 57.5391H221.662Z" fill="#AAAAAA"/>
<path d="M504.597 136.167C505.985 136.167 507.022 135.596 507.479 134.576H507.629V136.009H509.053V129.479C509.053 127.492 507.77 126.35 505.528 126.35C503.577 126.35 502.101 127.396 501.925 128.925H503.393C503.639 128.107 504.412 127.642 505.511 127.642C506.838 127.642 507.567 128.301 507.567 129.496V130.357L504.948 130.489C502.777 130.604 501.564 131.605 501.564 133.293C501.564 135.024 502.777 136.167 504.597 136.167ZM505.027 134.857C503.823 134.857 503.076 134.242 503.076 133.24C503.076 132.247 503.779 131.676 505.115 131.614L507.567 131.5V132.625C507.567 133.899 506.469 134.857 505.027 134.857ZM516.295 128.898V126.464H512.735V127.659H514.854V134.805H512.929V136H519.266V134.805H516.312V131.729C516.312 129.303 517.561 127.844 519.67 127.844C520.188 127.844 520.804 127.949 521.243 128.107V126.429C520.927 126.297 520.408 126.218 519.863 126.218C518.026 126.218 516.84 127.132 516.488 128.898H516.295ZM524.979 131.843V130.533C524.979 128.784 525.998 127.65 527.58 127.65C529.153 127.65 530.164 128.775 530.164 130.533V131.843C530.164 133.601 529.153 134.734 527.58 134.734C525.998 134.734 524.979 133.592 524.979 131.843ZM527.536 139.577C530.12 139.577 531.649 138.241 531.649 136V126.464H530.173V127.94H530.006C529.593 126.912 528.547 126.306 527.167 126.306C524.935 126.306 523.476 127.888 523.476 130.34V132.054C523.476 134.497 524.926 136.088 527.132 136.088C528.521 136.088 529.575 135.481 529.997 134.479H530.155V135.965C530.155 137.494 529.232 138.338 527.562 138.338C526.288 138.338 525.33 137.819 525.137 137.028H523.66C523.854 138.61 525.33 139.577 527.536 139.577ZM542.847 126.464H541.353V132.08C541.353 133.706 540.298 134.805 538.725 134.805C537.239 134.805 536.536 133.996 536.536 132.273V126.464H535.042V132.651C535.042 134.937 536.167 136.176 538.241 136.176C539.691 136.176 540.781 135.508 541.291 134.321H541.414V136H542.847V126.464ZM554.668 128.978C554.668 127.211 553.974 126.288 552.646 126.288C551.688 126.288 550.924 126.868 550.678 127.782H550.52C550.317 126.842 549.685 126.288 548.788 126.288C547.892 126.288 547.206 126.851 546.969 127.809H546.811V126.464H545.475V136H546.819V129.566C546.819 128.38 547.347 127.65 548.19 127.65C548.999 127.65 549.421 128.257 549.421 129.408V136H550.757V129.566C550.757 128.38 551.267 127.65 552.102 127.65C552.901 127.65 553.323 128.257 553.323 129.417V136H554.668V128.978ZM561.304 127.571C562.842 127.571 563.773 128.67 563.773 130.489H558.755C558.755 128.661 559.713 127.571 561.304 127.571ZM563.773 133.539C563.51 134.374 562.622 134.884 561.418 134.884C559.792 134.884 558.755 133.759 558.755 132.01V131.623H565.25V130.691C565.25 127.932 563.791 126.288 561.312 126.288C558.887 126.288 557.278 127.94 557.278 130.454V131.887C557.278 134.603 558.799 136.176 561.418 136.176C563.422 136.176 564.934 135.112 565.224 133.539H563.773ZM568.423 136H569.917V130.384C569.917 128.758 570.972 127.659 572.545 127.659C574.03 127.659 574.733 128.468 574.733 130.19V136H576.228V129.812C576.228 127.527 575.103 126.288 573.028 126.288C571.578 126.288 570.488 126.956 569.979 128.143H569.855V126.464H568.423V136ZM581.826 123.906V126.49H579.286V127.765H581.826V133.161C581.826 135.147 582.925 136.044 585.289 136.044C585.746 136.044 586.906 136 587.144 135.956V134.69C586.889 134.717 585.931 134.743 585.395 134.743C584.05 134.743 583.32 134.181 583.32 133.144V127.765H587.17V126.49H583.303V123.906H581.826ZM591.107 129.039C591.107 130.393 591.96 131.263 593.683 131.658L595.098 131.983C596.311 132.256 596.776 132.66 596.776 133.416C596.776 134.33 595.95 134.919 594.649 134.919C593.419 134.919 592.575 134.409 592.355 133.53H590.835C591.002 135.165 592.435 136.176 594.597 136.176C596.855 136.176 598.323 135.033 598.323 133.275C598.323 131.896 597.479 131.087 595.625 130.665L594.28 130.357C593.085 130.094 592.593 129.681 592.593 128.951C592.593 128.081 593.375 127.519 594.588 127.519C595.704 127.519 596.504 128.028 596.68 128.863H598.121C597.945 127.272 596.601 126.279 594.614 126.279C592.514 126.279 591.107 127.387 591.107 129.039Z" fill="#AAAAAA"/>
<path d="M143.168 165.898V163.464H139.608V164.659H141.727V171.805H139.802V173H146.139V171.805H143.186V168.729C143.186 166.303 144.434 164.844 146.543 164.844C147.062 164.844 147.677 164.949 148.116 165.107V163.429C147.8 163.297 147.281 163.218 146.736 163.218C144.899 163.218 143.713 164.132 143.361 165.898H143.168ZM154.796 164.571C156.334 164.571 157.266 165.67 157.266 167.489H152.247C152.247 165.661 153.205 164.571 154.796 164.571ZM157.266 170.539C157.002 171.374 156.114 171.884 154.91 171.884C153.284 171.884 152.247 170.759 152.247 169.01V168.623H158.742V167.691C158.742 164.932 157.283 163.288 154.805 163.288C152.379 163.288 150.771 164.94 150.771 167.454V168.887C150.771 171.603 152.291 173.176 154.91 173.176C156.914 173.176 158.426 172.112 158.716 170.539H157.266ZM164.191 160.906V163.49H161.651V164.765H164.191V170.161C164.191 172.147 165.29 173.044 167.654 173.044C168.111 173.044 169.271 173 169.509 172.956V171.69C169.254 171.717 168.296 171.743 167.76 171.743C166.415 171.743 165.686 171.181 165.686 170.144V164.765H169.535V163.49H165.668V160.906H164.191ZM180.847 163.464H179.353V169.08C179.353 170.706 178.298 171.805 176.725 171.805C175.239 171.805 174.536 170.996 174.536 169.273V163.464H173.042V169.651C173.042 171.937 174.167 173.176 176.241 173.176C177.691 173.176 178.781 172.508 179.291 171.321H179.414V173H180.847V163.464ZM187.676 165.898V163.464H184.116V164.659H186.234V171.805H184.31V173H190.646V171.805H187.693V168.729C187.693 166.303 188.941 164.844 191.051 164.844C191.569 164.844 192.185 164.949 192.624 165.107V163.429C192.308 163.297 191.789 163.218 191.244 163.218C189.407 163.218 188.221 164.132 187.869 165.898H187.676ZM195.296 173H196.79V167.384C196.79 165.758 197.845 164.659 199.418 164.659C200.903 164.659 201.606 165.468 201.606 167.19V173H203.101V166.812C203.101 164.527 201.976 163.288 199.901 163.288C198.451 163.288 197.361 163.956 196.852 165.143H196.729V163.464H195.296V173ZM217.98 166.039C217.98 167.393 218.833 168.263 220.556 168.658L221.971 168.983C223.184 169.256 223.649 169.66 223.649 170.416C223.649 171.33 222.823 171.919 221.522 171.919C220.292 171.919 219.448 171.409 219.229 170.53H217.708C217.875 172.165 219.308 173.176 221.47 173.176C223.729 173.176 225.196 172.033 225.196 170.275C225.196 168.896 224.353 168.087 222.498 167.665L221.153 167.357C219.958 167.094 219.466 166.681 219.466 165.951C219.466 165.081 220.248 164.519 221.461 164.519C222.577 164.519 223.377 165.028 223.553 165.863H224.994C224.818 164.272 223.474 163.279 221.487 163.279C219.387 163.279 217.98 164.387 217.98 166.039ZM230.953 160.906V163.49H228.413V164.765H230.953V170.161C230.953 172.147 232.052 173.044 234.416 173.044C234.873 173.044 236.033 173 236.271 172.956V171.69C236.016 171.717 235.058 171.743 234.521 171.743C233.177 171.743 232.447 171.181 232.447 170.144V164.765H236.297V163.49H232.43V160.906H230.953ZM242.739 173.167C244.128 173.167 245.165 172.596 245.622 171.576H245.771V173.009H247.195V166.479C247.195 164.492 245.912 163.35 243.671 163.35C241.72 163.35 240.243 164.396 240.067 165.925H241.535C241.781 165.107 242.555 164.642 243.653 164.642C244.98 164.642 245.71 165.301 245.71 166.496V167.357L243.091 167.489C240.92 167.604 239.707 168.605 239.707 170.293C239.707 172.024 240.92 173.167 242.739 173.167ZM243.17 171.857C241.966 171.857 241.219 171.242 241.219 170.24C241.219 169.247 241.922 168.676 243.258 168.614L245.71 168.5V169.625C245.71 170.899 244.611 171.857 243.17 171.857ZM253.207 160.906V163.49H250.667V164.765H253.207V170.161C253.207 172.147 254.306 173.044 256.67 173.044C257.127 173.044 258.287 173 258.524 172.956V171.69C258.27 171.717 257.312 171.743 256.775 171.743C255.431 171.743 254.701 171.181 254.701 170.144V164.765H258.551V163.49H254.684V160.906H253.207ZM266.065 164.571C267.604 164.571 268.535 165.67 268.535 167.489H263.517C263.517 165.661 264.475 164.571 266.065 164.571ZM268.535 170.539C268.271 171.374 267.384 171.884 266.18 171.884C264.554 171.884 263.517 170.759 263.517 169.01V168.623H270.012V167.691C270.012 164.932 268.553 163.288 266.074 163.288C263.648 163.288 262.04 164.94 262.04 167.454V168.887C262.04 171.603 263.561 173.176 266.18 173.176C268.184 173.176 269.695 172.112 269.985 170.539H268.535ZM281.684 165.978C281.684 164.211 280.989 163.288 279.662 163.288C278.704 163.288 277.939 163.868 277.693 164.782H277.535C277.333 163.842 276.7 163.288 275.804 163.288C274.907 163.288 274.222 163.851 273.984 164.809H273.826V163.464H272.49V173H273.835V166.566C273.835 165.38 274.362 164.65 275.206 164.65C276.015 164.65 276.437 165.257 276.437 166.408V173H277.772V166.566C277.772 165.38 278.282 164.65 279.117 164.65C279.917 164.65 280.339 165.257 280.339 166.417V173H281.684V165.978ZM288.319 164.571C289.857 164.571 290.789 165.67 290.789 167.489H285.771C285.771 165.661 286.729 164.571 288.319 164.571ZM290.789 170.539C290.525 171.374 289.638 171.884 288.434 171.884C286.808 171.884 285.771 170.759 285.771 169.01V168.623H292.266V167.691C292.266 164.932 290.807 163.288 288.328 163.288C285.902 163.288 284.294 164.94 284.294 167.454V168.887C284.294 171.603 285.814 173.176 288.434 173.176C290.438 173.176 291.949 172.112 292.239 170.539H290.789ZM295.438 173H296.933V167.384C296.933 165.758 297.987 164.659 299.561 164.659C301.046 164.659 301.749 165.468 301.749 167.19V173H303.243V166.812C303.243 164.527 302.118 163.288 300.044 163.288C298.594 163.288 297.504 163.956 296.994 165.143H296.871V163.464H295.438V173ZM308.842 160.906V163.49H306.302V164.765H308.842V170.161C308.842 172.147 309.94 173.044 312.305 173.044C312.762 173.044 313.922 173 314.159 172.956V171.69C313.904 171.717 312.946 171.743 312.41 171.743C311.065 171.743 310.336 171.181 310.336 170.144V164.765H314.186V163.49H310.318V160.906H308.842Z" fill="#AAAAAA"/>
<path d="M179.157 260H180.651V251.765H184.844V250.49H180.634V249.506C180.634 248.548 181.337 248.056 182.664 248.056C183.2 248.056 184.431 248.091 184.844 248.135V246.913C184.527 246.869 183.2 246.825 182.646 246.825C180.3 246.825 179.157 247.687 179.157 249.532V250.49H176.6V251.765H179.157V260ZM195.593 250.464H194.099V256.08C194.099 257.706 193.044 258.805 191.471 258.805C189.985 258.805 189.282 257.996 189.282 256.273V250.464H187.788V256.651C187.788 258.937 188.913 260.176 190.987 260.176C192.438 260.176 193.527 259.508 194.037 258.321H194.16V260H195.593V250.464ZM198.915 260H200.409V254.384C200.409 252.758 201.464 251.659 203.037 251.659C204.522 251.659 205.226 252.468 205.226 254.19V260H206.72V253.812C206.72 251.527 205.595 250.288 203.521 250.288C202.07 250.288 200.98 250.956 200.471 252.143H200.348V250.464H198.915V260ZM217.917 253.435C217.671 251.475 216.229 250.279 214.12 250.279C211.527 250.279 210.016 251.87 210.016 254.604V255.852C210.016 258.585 211.527 260.176 214.12 260.176C216.229 260.176 217.68 258.989 217.917 257.047H216.44C216.256 258.137 215.324 258.831 214.094 258.831C212.433 258.831 211.51 257.706 211.51 255.658V254.797C211.51 252.749 212.433 251.615 214.094 251.615C215.324 251.615 216.256 252.318 216.44 253.435H217.917ZM223.445 247.906V250.49H220.905V251.765H223.445V257.161C223.445 259.147 224.544 260.044 226.908 260.044C227.365 260.044 228.525 260 228.763 259.956V258.69C228.508 258.717 227.55 258.743 227.014 258.743C225.669 258.743 224.939 258.181 224.939 257.144V251.765H228.789V250.49H224.922V247.906H223.445ZM236.365 248.126C237.068 248.126 237.604 247.599 237.604 246.896C237.604 246.201 237.068 245.674 236.365 245.674C235.662 245.674 235.126 246.201 235.126 246.896C235.126 247.599 235.662 248.126 236.365 248.126ZM240.364 260V258.761H237.209V250.464H232.489V251.703H235.732V258.761H232.463V260H240.364ZM247.325 260.176C249.848 260.176 251.456 258.532 251.456 255.957V254.516C251.456 251.94 249.848 250.297 247.325 250.297C244.803 250.297 243.194 251.94 243.194 254.516V255.957C243.194 258.532 244.803 260.176 247.325 260.176ZM247.325 251.615C248.96 251.615 249.979 252.775 249.979 254.647V255.816C249.979 257.697 248.96 258.849 247.325 258.849C245.69 258.849 244.671 257.697 244.671 255.816V254.647C244.671 252.775 245.69 251.615 247.325 251.615ZM254.55 260H256.044V254.384C256.044 252.758 257.099 251.659 258.672 251.659C260.157 251.659 260.86 252.468 260.86 254.19V260H262.354V253.812C262.354 251.527 261.229 250.288 259.155 250.288C257.705 250.288 256.615 250.956 256.105 252.143H255.982V250.464H254.55V260ZM284.679 253.435C284.433 251.475 282.991 250.279 280.882 250.279C278.289 250.279 276.777 251.87 276.777 254.604V255.852C276.777 258.585 278.289 260.176 280.882 260.176C282.991 260.176 284.441 258.989 284.679 257.047H283.202C283.018 258.137 282.086 258.831 280.855 258.831C279.194 258.831 278.271 257.706 278.271 255.658V254.797C278.271 252.749 279.194 251.615 280.855 251.615C282.086 251.615 283.018 252.318 283.202 253.435H284.679ZM290.866 260.167C292.255 260.167 293.292 259.596 293.749 258.576H293.898V260.009H295.322V253.479C295.322 251.492 294.039 250.35 291.798 250.35C289.847 250.35 288.37 251.396 288.194 252.925H289.662C289.908 252.107 290.682 251.642 291.78 251.642C293.107 251.642 293.837 252.301 293.837 253.496V254.357L291.218 254.489C289.047 254.604 287.834 255.605 287.834 257.293C287.834 259.024 289.047 260.167 290.866 260.167ZM291.297 258.857C290.093 258.857 289.346 258.242 289.346 257.24C289.346 256.247 290.049 255.676 291.385 255.614L293.837 255.5V256.625C293.837 257.899 292.738 258.857 291.297 258.857ZM307.126 260V258.761H303.979V246.72H299.251V247.959H302.485V258.761H299.225V260H307.126ZM318.253 260V258.761H315.106V246.72H310.378V247.959H313.612V258.761H310.352V260H318.253Z" fill="#AAAAAA"/>
<path d="M440 63.5V67.5H360V80H405.5M405.5 80V84M405.5 80H317V84" stroke="#AAAAAA"/>
<path d="M140 64V68.0976H196.951V80.9024H104.841M104.841 80.9024V85M104.841 80.9024H284V85" stroke="#AAAAAA"/>
<path d="M550.5 120V114H528V107H561M561 107V102M561 107H493V102" stroke="#AAAAAA"/>
<path d="M528 114H442V107H472.5M472.5 107V102M472.5 107H416.5V102" stroke="#AAAAAA"/>
<path d="M230.5 157V150H127V146H182M182 146V142M182 146H60.5V142" stroke="#AAAAAA"/>
<path d="M251 243.5V232H380M380 232V224M380 232H124.5V226.5" stroke="#AAAAAA"/>
</svg>
