<svg width="440" height="320" viewBox="0 0 440 320" fill="none" xmlns="http://www.w3.org/2000/svg">
<rect width="440" height="320" fill="white"/>
<path d="M45.7305 48.126C46.4336 48.126 46.9697 47.5986 46.9697 46.8955C46.9697 46.2012 46.4336 45.6738 45.7305 45.6738C45.0273 45.6738 44.4912 46.2012 44.4912 46.8955C44.4912 47.5986 45.0273 48.126 45.7305 48.126ZM49.7295 60V58.7607H46.5742V50.4639H41.8545V51.7031H45.0977V58.7607H41.8281V60H49.7295ZM52.7881 60H54.2822V54.3838C54.2822 52.7578 55.3369 51.6592 56.9102 51.6592C58.3955 51.6592 59.0986 52.4678 59.0986 54.1904V60H60.5928V53.8125C60.5928 51.5273 59.4678 50.2881 57.3936 50.2881C55.9434 50.2881 54.8535 50.9561 54.3438 52.1426H54.2207V50.4639H52.7881V60ZM68.415 50.3057C67.0527 50.3057 66.0596 50.8682 65.5586 51.9229H65.4004V50.4639H63.9238V63.2168H65.4443V58.5234H65.6113C66.0244 59.5693 67.0352 60.1582 68.415 60.1582C70.6211 60.1582 72.0625 58.5674 72.0625 56.124V54.3486C72.0625 51.8965 70.6211 50.3057 68.415 50.3057ZM67.9844 51.6768C69.5576 51.6768 70.5596 52.8018 70.5596 54.5596V55.9307C70.5596 57.6885 69.5576 58.8223 67.9844 58.8223C66.4111 58.8223 65.4092 57.6973 65.4092 55.9307V54.5596C65.4092 52.8018 66.4111 51.6768 67.9844 51.6768ZM82.8467 50.4639H81.3525V56.0801C81.3525 57.7061 80.2979 58.8047 78.7246 58.8047C77.2393 58.8047 76.5361 57.9961 76.5361 56.2734V50.4639H75.042V56.6514C75.042 58.9365 76.167 60.1758 78.2412 60.1758C79.6914 60.1758 80.7812 59.5078 81.291 58.3213H81.4141V60H82.8467V50.4639ZM88.4453 47.9062V50.4902H85.9053V51.7646H88.4453V57.1611C88.4453 59.1475 89.5439 60.0439 91.9082 60.0439C92.3652 60.0439 93.5254 60 93.7627 59.9561V58.6904C93.5078 58.7168 92.5498 58.7432 92.0137 58.7432C90.6689 58.7432 89.9395 58.1807 89.9395 57.1436V51.7646H93.7891V50.4902H89.9219V47.9062H88.4453ZM113.081 56.3262L114.9 60H116.491L114.057 55.166L118.144 50.4639H116.395L113.389 54.0762H113.274L111.464 50.4639H109.838L112.299 55.2275L108.186 60H109.908L112.967 56.3262H113.081Z" fill="black"/>
<path d="M165.563 274.176C168.086 274.176 169.694 272.532 169.694 269.957V268.516C169.694 265.94 168.086 264.297 165.563 264.297C163.041 264.297 161.433 265.94 161.433 268.516V269.957C161.433 272.532 163.041 274.176 165.563 274.176ZM165.563 265.615C167.198 265.615 168.218 266.775 168.218 268.647V269.816C168.218 271.697 167.198 272.849 165.563 272.849C163.929 272.849 162.909 271.697 162.909 269.816V268.647C162.909 266.775 163.929 265.615 165.563 265.615ZM180.593 264.464H179.099V270.08C179.099 271.706 178.044 272.805 176.471 272.805C174.985 272.805 174.282 271.996 174.282 270.273V264.464H172.788V270.651C172.788 272.937 173.913 274.176 175.987 274.176C177.438 274.176 178.527 273.508 179.037 272.321H179.16V274H180.593V264.464ZM186.191 261.906V264.49H183.651V265.765H186.191V271.161C186.191 273.147 187.29 274.044 189.654 274.044C190.111 274.044 191.271 274 191.509 273.956V272.69C191.254 272.717 190.296 272.743 189.76 272.743C188.415 272.743 187.686 272.181 187.686 271.144V265.765H191.535V264.49H187.668V261.906H186.191ZM199.542 264.306C198.18 264.306 197.187 264.868 196.686 265.923H196.527V264.464H195.051V277.217H196.571V272.523H196.738C197.151 273.569 198.162 274.158 199.542 274.158C201.748 274.158 203.189 272.567 203.189 270.124V268.349C203.189 265.896 201.748 264.306 199.542 264.306ZM199.111 265.677C200.685 265.677 201.687 266.802 201.687 268.56V269.931C201.687 271.688 200.685 272.822 199.111 272.822C197.538 272.822 196.536 271.697 196.536 269.931V268.56C196.536 266.802 197.538 265.677 199.111 265.677ZM213.974 264.464H212.479V270.08C212.479 271.706 211.425 272.805 209.852 272.805C208.366 272.805 207.663 271.996 207.663 270.273V264.464H206.169V270.651C206.169 272.937 207.294 274.176 209.368 274.176C210.818 274.176 211.908 273.508 212.418 272.321H212.541V274H213.974V264.464ZM219.572 261.906V264.49H217.032V265.765H219.572V271.161C219.572 273.147 220.671 274.044 223.035 274.044C223.492 274.044 224.652 274 224.89 273.956V272.69C224.635 272.717 223.677 272.743 223.141 272.743C221.796 272.743 221.066 272.181 221.066 271.144V265.765H224.916V264.49H221.049V261.906H219.572ZM242.046 274H243.54L244.999 265.765H249.191L249.402 264.49H245.201L245.377 263.506C245.553 262.504 246.326 261.994 247.671 261.994C248.172 261.994 249.42 262.091 249.842 262.196L250.053 260.948C249.587 260.825 248.383 260.746 247.855 260.746C245.509 260.746 244.217 261.634 243.9 263.532L243.725 264.49H241.167L240.947 265.765H243.505L242.046 274ZM257.26 260.096C254.632 262.636 253.155 265.932 253.155 269.359C253.155 271.495 253.744 273.798 254.658 275.23H256.144C255.142 273.385 254.658 271.434 254.658 269.263C254.658 266.037 256.205 262.697 258.903 260.096H257.26ZM266.462 270.326L268.281 274H269.872L267.438 269.166L271.524 264.464H269.775L266.77 268.076H266.655L264.845 264.464H263.219L265.68 269.228L261.566 274H263.289L266.348 270.326H266.462ZM276.385 275.23C279.013 272.69 280.489 269.395 280.489 265.967C280.489 263.831 279.9 261.528 278.986 260.096H277.501C278.503 261.941 278.986 263.893 278.986 266.063C278.986 269.289 277.439 272.629 274.741 275.23H276.385Z" fill="black"/>
<path d="M323.312 136.464L326.802 146H328.445L331.926 136.464H330.335L327.689 144.4H327.575L324.912 136.464H323.312ZM337.779 146.167C339.168 146.167 340.205 145.596 340.662 144.576H340.812V146.009H342.235V139.479C342.235 137.492 340.952 136.35 338.711 136.35C336.76 136.35 335.283 137.396 335.107 138.925H336.575C336.821 138.107 337.595 137.642 338.693 137.642C340.021 137.642 340.75 138.301 340.75 139.496V140.357L338.131 140.489C335.96 140.604 334.747 141.605 334.747 143.293C334.747 145.024 335.96 146.167 337.779 146.167ZM338.21 144.857C337.006 144.857 336.259 144.242 336.259 143.24C336.259 142.247 336.962 141.676 338.298 141.614L340.75 141.5V142.625C340.75 143.899 339.651 144.857 338.21 144.857ZM349.478 138.898V136.464H345.918V137.659H348.036V144.805H346.111V146H352.448V144.805H349.495V141.729C349.495 139.303 350.743 137.844 352.853 137.844C353.371 137.844 353.986 137.949 354.426 138.107V136.429C354.109 136.297 353.591 136.218 353.046 136.218C351.209 136.218 350.022 137.132 349.671 138.898H349.478ZM361.167 134.126C361.87 134.126 362.406 133.599 362.406 132.896C362.406 132.201 361.87 131.674 361.167 131.674C360.464 131.674 359.928 132.201 359.928 132.896C359.928 133.599 360.464 134.126 361.167 134.126ZM365.166 146V144.761H362.011V136.464H357.291V137.703H360.534V144.761H357.265V146H365.166ZM372.127 146.176C374.649 146.176 376.258 144.532 376.258 141.957V140.516C376.258 137.94 374.649 136.297 372.127 136.297C369.604 136.297 367.996 137.94 367.996 140.516V141.957C367.996 144.532 369.604 146.176 372.127 146.176ZM372.127 137.615C373.762 137.615 374.781 138.775 374.781 140.647V141.816C374.781 143.697 373.762 144.849 372.127 144.849C370.492 144.849 369.473 143.697 369.473 141.816V140.647C369.473 138.775 370.492 137.615 372.127 137.615ZM387.156 136.464H385.662V142.08C385.662 143.706 384.607 144.805 383.034 144.805C381.549 144.805 380.846 143.996 380.846 142.273V136.464H379.352V142.651C379.352 144.937 380.477 146.176 382.551 146.176C384.001 146.176 385.091 145.508 385.601 144.321H385.724V146H387.156V136.464ZM390.909 139.039C390.909 140.393 391.762 141.263 393.484 141.658L394.899 141.983C396.112 142.256 396.578 142.66 396.578 143.416C396.578 144.33 395.752 144.919 394.451 144.919C393.221 144.919 392.377 144.409 392.157 143.53H390.637C390.804 145.165 392.236 146.176 394.398 146.176C396.657 146.176 398.125 145.033 398.125 143.275C398.125 141.896 397.281 141.087 395.427 140.665L394.082 140.357C392.887 140.094 392.395 139.681 392.395 138.951C392.395 138.081 393.177 137.519 394.39 137.519C395.506 137.519 396.306 138.028 396.481 138.863H397.923C397.747 137.272 396.402 136.279 394.416 136.279C392.315 136.279 390.909 137.387 390.909 139.039ZM340.838 159.039C340.838 160.393 341.69 161.263 343.413 161.658L344.828 161.983C346.041 162.256 346.507 162.66 346.507 163.416C346.507 164.33 345.681 164.919 344.38 164.919C343.149 164.919 342.306 164.409 342.086 163.53H340.565C340.732 165.165 342.165 166.176 344.327 166.176C346.586 166.176 348.054 165.033 348.054 163.275C348.054 161.896 347.21 161.087 345.355 160.665L344.011 160.357C342.815 160.094 342.323 159.681 342.323 158.951C342.323 158.081 343.105 157.519 344.318 157.519C345.435 157.519 346.234 158.028 346.41 158.863H347.852C347.676 157.272 346.331 156.279 344.345 156.279C342.244 156.279 340.838 157.387 340.838 159.039ZM355.604 154.126C356.307 154.126 356.843 153.599 356.843 152.896C356.843 152.201 356.307 151.674 355.604 151.674C354.9 151.674 354.364 152.201 354.364 152.896C354.364 153.599 354.9 154.126 355.604 154.126ZM359.603 166V164.761H356.447V156.464H351.728V157.703H354.971V164.761H351.701V166H359.603ZM363.821 160.533C363.821 158.775 364.832 157.65 366.405 157.65C367.97 157.65 368.98 158.775 368.98 160.533V161.904C368.98 163.671 367.97 164.796 366.405 164.796C364.832 164.796 363.821 163.662 363.821 161.904V160.533ZM368.989 164.541V166H370.457V152.72H368.937V157.94H368.778C368.365 156.895 367.346 156.306 365.966 156.306C363.76 156.306 362.318 157.896 362.318 160.34V162.115C362.318 164.567 363.76 166.158 365.966 166.158C367.328 166.158 368.33 165.596 368.822 164.541H368.989ZM377.796 157.571C379.334 157.571 380.266 158.67 380.266 160.489H375.247C375.247 158.661 376.205 157.571 377.796 157.571ZM380.266 163.539C380.002 164.374 379.114 164.884 377.91 164.884C376.284 164.884 375.247 163.759 375.247 162.01V161.623H381.742V160.691C381.742 157.932 380.283 156.288 377.805 156.288C375.379 156.288 373.771 157.94 373.771 160.454V161.887C373.771 164.603 375.291 166.176 377.91 166.176C379.914 166.176 381.426 165.112 381.716 163.539H380.266ZM327.725 177.571C329.263 177.571 330.194 178.67 330.194 180.489H325.176C325.176 178.661 326.134 177.571 327.725 177.571ZM330.194 183.539C329.931 184.374 329.043 184.884 327.839 184.884C326.213 184.884 325.176 183.759 325.176 182.01V181.623H331.671V180.691C331.671 177.932 330.212 176.288 327.733 176.288C325.308 176.288 323.699 177.94 323.699 180.454V181.887C323.699 184.603 325.22 186.176 327.839 186.176C329.843 186.176 331.354 185.112 331.645 183.539H330.194ZM337.34 186H338.834V177.765H343.026V176.49H338.816V175.506C338.816 174.548 339.52 174.056 340.847 174.056C341.383 174.056 342.613 174.091 343.026 174.135V172.913C342.71 172.869 341.383 172.825 340.829 172.825C338.482 172.825 337.34 173.687 337.34 175.532V176.49H334.782V177.765H337.34V186ZM348.467 186H349.961V177.765H354.153V176.49H349.943V175.506C349.943 174.548 350.646 174.056 351.974 174.056C352.51 174.056 353.74 174.091 354.153 174.135V172.913C353.837 172.869 352.51 172.825 351.956 172.825C349.609 172.825 348.467 173.687 348.467 175.532V176.49H345.909V177.765H348.467V186ZM361.105 177.571C362.644 177.571 363.575 178.67 363.575 180.489H358.557C358.557 178.661 359.515 177.571 361.105 177.571ZM363.575 183.539C363.312 184.374 362.424 184.884 361.22 184.884C359.594 184.884 358.557 183.759 358.557 182.01V181.623H365.052V180.691C365.052 177.932 363.593 176.288 361.114 176.288C358.688 176.288 357.08 177.94 357.08 180.454V181.887C357.08 184.603 358.601 186.176 361.22 186.176C363.224 186.176 364.735 185.112 365.025 183.539H363.575ZM376.1 179.435C375.854 177.475 374.412 176.279 372.303 176.279C369.71 176.279 368.198 177.87 368.198 180.604V181.852C368.198 184.585 369.71 186.176 372.303 186.176C374.412 186.176 375.862 184.989 376.1 183.047H374.623C374.438 184.137 373.507 184.831 372.276 184.831C370.615 184.831 369.692 183.706 369.692 181.658V180.797C369.692 178.749 370.615 177.615 372.276 177.615C373.507 177.615 374.438 178.318 374.623 179.435H376.1ZM381.628 173.906V176.49H379.088V177.765H381.628V183.161C381.628 185.147 382.727 186.044 385.091 186.044C385.548 186.044 386.708 186 386.945 185.956V184.69C386.69 184.717 385.732 184.743 385.196 184.743C383.852 184.743 383.122 184.181 383.122 183.144V177.765H386.972V176.49H383.104V173.906H381.628ZM390.909 179.039C390.909 180.393 391.762 181.263 393.484 181.658L394.899 181.983C396.112 182.256 396.578 182.66 396.578 183.416C396.578 184.33 395.752 184.919 394.451 184.919C393.221 184.919 392.377 184.409 392.157 183.53H390.637C390.804 185.165 392.236 186.176 394.398 186.176C396.657 186.176 398.125 185.033 398.125 183.275C398.125 181.896 397.281 181.087 395.427 180.665L394.082 180.357C392.887 180.094 392.395 179.681 392.395 178.951C392.395 178.081 393.177 177.519 394.39 177.519C395.506 177.519 396.306 178.028 396.481 178.863H397.923C397.747 177.272 396.402 176.279 394.416 176.279C392.315 176.279 390.909 177.387 390.909 179.039Z" fill="black"/>
<rect x="40.5" y="100.5" width="239" height="119" fill="white" stroke="#AAAAAA"/>
<path d="M108.157 166H109.651V157.765H113.844V156.49H109.634V155.506C109.634 154.548 110.337 154.056 111.664 154.056C112.2 154.056 113.431 154.091 113.844 154.135V152.913C113.527 152.869 112.2 152.825 111.646 152.825C109.3 152.825 108.157 153.687 108.157 155.532V156.49H105.6V157.765H108.157V166ZM124.593 156.464H123.099V162.08C123.099 163.706 122.044 164.805 120.471 164.805C118.985 164.805 118.282 163.996 118.282 162.273V156.464H116.788V162.651C116.788 164.937 117.913 166.176 119.987 166.176C121.438 166.176 122.527 165.508 123.037 164.321H123.16V166H124.593V156.464ZM127.915 166H129.409V160.384C129.409 158.758 130.464 157.659 132.037 157.659C133.522 157.659 134.226 158.468 134.226 160.19V166H135.72V159.812C135.72 157.527 134.595 156.288 132.521 156.288C131.07 156.288 129.98 156.956 129.471 158.143H129.348V156.464H127.915V166ZM146.917 159.435C146.671 157.475 145.229 156.279 143.12 156.279C140.527 156.279 139.016 157.87 139.016 160.604V161.852C139.016 164.585 140.527 166.176 143.12 166.176C145.229 166.176 146.68 164.989 146.917 163.047H145.44C145.256 164.137 144.324 164.831 143.094 164.831C141.433 164.831 140.51 163.706 140.51 161.658V160.797C140.51 158.749 141.433 157.615 143.094 157.615C144.324 157.615 145.256 158.318 145.44 159.435H146.917ZM152.445 153.906V156.49H149.905V157.765H152.445V163.161C152.445 165.147 153.544 166.044 155.908 166.044C156.365 166.044 157.525 166 157.763 165.956V164.69C157.508 164.717 156.55 164.743 156.014 164.743C154.669 164.743 153.939 164.181 153.939 163.144V157.765H157.789V156.49H153.922V153.906H152.445ZM165.365 154.126C166.068 154.126 166.604 153.599 166.604 152.896C166.604 152.201 166.068 151.674 165.365 151.674C164.662 151.674 164.126 152.201 164.126 152.896C164.126 153.599 164.662 154.126 165.365 154.126ZM169.364 166V164.761H166.209V156.464H161.489V157.703H164.732V164.761H161.463V166H169.364ZM176.325 166.176C178.848 166.176 180.456 164.532 180.456 161.957V160.516C180.456 157.94 178.848 156.297 176.325 156.297C173.803 156.297 172.194 157.94 172.194 160.516V161.957C172.194 164.532 173.803 166.176 176.325 166.176ZM176.325 157.615C177.96 157.615 178.979 158.775 178.979 160.647V161.816C178.979 163.697 177.96 164.849 176.325 164.849C174.69 164.849 173.671 163.697 173.671 161.816V160.647C173.671 158.775 174.69 157.615 176.325 157.615ZM183.55 166H185.044V160.384C185.044 158.758 186.099 157.659 187.672 157.659C189.157 157.659 189.86 158.468 189.86 160.19V166H191.354V159.812C191.354 157.527 190.229 156.288 188.155 156.288C186.705 156.288 185.615 156.956 185.105 158.143H184.982V156.464H183.55V166ZM208.3 166H209.794L211.253 157.765H215.445L215.656 156.49H211.455L211.631 155.506C211.807 154.504 212.58 153.994 213.925 153.994C214.426 153.994 215.674 154.091 216.096 154.196L216.307 152.948C215.841 152.825 214.637 152.746 214.109 152.746C211.763 152.746 210.471 153.634 210.154 155.532L209.979 156.49H207.421L207.201 157.765H209.759L208.3 166Z" fill="black"/>
<path d="M79.6464 90.3536C79.8417 90.5488 80.1583 90.5488 80.3536 90.3536L83.5355 87.1716C83.7308 86.9763 83.7308 86.6597 83.5355 86.4645C83.3403 86.2692 83.0237 86.2692 82.8284 86.4645L80 89.2929L77.1716 86.4645C76.9763 86.2692 76.6597 86.2692 76.4645 86.4645C76.2692 86.6597 76.2692 86.9763 76.4645 87.1716L79.6464 90.3536ZM79.5 70L79.5 90L80.5 90L80.5 70L79.5 70Z" fill="#AAAAAA"/>
<path d="M219.646 249.354C219.842 249.549 220.158 249.549 220.354 249.354L223.536 246.172C223.731 245.976 223.731 245.66 223.536 245.464C223.34 245.269 223.024 245.269 222.828 245.464L220 248.293L217.172 245.464C216.976 245.269 216.66 245.269 216.464 245.464C216.269 245.66 216.269 245.976 216.464 246.172L219.646 249.354ZM219.5 229L219.5 249L220.5 249L220.5 229L219.5 229Z" fill="#AAAAAA"/>
<path d="M310.354 140.354C310.549 140.158 310.549 139.842 310.354 139.646L307.172 136.464C306.976 136.269 306.66 136.269 306.464 136.464C306.269 136.66 306.269 136.976 306.464 137.172L309.293 140L306.464 142.828C306.269 143.024 306.269 143.34 306.464 143.536C306.66 143.731 306.976 143.731 307.172 143.536L310.354 140.354ZM290 140.5H310V139.5H290V140.5Z" fill="#AAAAAA"/>
<path d="M310.354 160.354C310.549 160.158 310.549 159.842 310.354 159.646L307.172 156.464C306.976 156.269 306.66 156.269 306.464 156.464C306.269 156.66 306.269 156.976 306.464 157.172L309.293 160L306.464 162.828C306.269 163.024 306.269 163.34 306.464 163.536C306.66 163.731 306.976 163.731 307.172 163.536L310.354 160.354ZM290 160.5H310V159.5H290V160.5Z" fill="#AAAAAA"/>
<path d="M310.354 180.354C310.549 180.158 310.549 179.842 310.354 179.646L307.172 176.464C306.976 176.269 306.66 176.269 306.464 176.464C306.269 176.66 306.269 176.976 306.464 177.172L309.293 180L306.464 182.828C306.269 183.024 306.269 183.34 306.464 183.536C306.66 183.731 306.976 183.731 307.172 183.536L310.354 180.354ZM290 180.5H310V179.5H290V180.5Z" fill="#AAAAAA"/>
</svg>
