<svg width="840" height="300" viewBox="0 0 840 300" fill="none" xmlns="http://www.w3.org/2000/svg">
<rect width="840" height="300" fill="white"/>
<path d="M259.536 53.4346C259.29 51.4746 257.849 50.2793 255.739 50.2793C253.146 50.2793 251.635 51.8701 251.635 54.6035V55.8516C251.635 58.585 253.146 60.1758 255.739 60.1758C257.849 60.1758 259.299 58.9893 259.536 57.0469H258.06C257.875 58.1367 256.943 58.8311 255.713 58.8311C254.052 58.8311 253.129 57.7061 253.129 55.6582V54.7969C253.129 52.749 254.052 51.6152 255.713 51.6152C256.943 51.6152 257.875 52.3184 258.06 53.4346H259.536ZM266.69 60.1758C269.213 60.1758 270.821 58.5322 270.821 55.957V54.5156C270.821 51.9404 269.213 50.2969 266.69 50.2969C264.168 50.2969 262.56 51.9404 262.56 54.5156V55.957C262.56 58.5322 264.168 60.1758 266.69 60.1758ZM266.69 51.6152C268.325 51.6152 269.345 52.7754 269.345 54.6475V55.8164C269.345 57.6973 268.325 58.8486 266.69 58.8486C265.056 58.8486 264.036 57.6973 264.036 55.8164V54.6475C264.036 52.7754 265.056 51.6152 266.69 51.6152ZM273.915 60H275.409V54.3838C275.409 52.7578 276.464 51.6592 278.037 51.6592C279.522 51.6592 280.226 52.4678 280.226 54.1904V60H281.72V53.8125C281.72 51.5273 280.595 50.2881 278.521 50.2881C277.07 50.2881 275.98 50.9561 275.471 52.1426H275.348V50.4639H273.915V60ZM285.473 53.0391C285.473 54.3926 286.325 55.2627 288.048 55.6582L289.463 55.9834C290.676 56.2559 291.142 56.6602 291.142 57.416C291.142 58.3301 290.315 58.9189 289.015 58.9189C287.784 58.9189 286.94 58.4092 286.721 57.5303H285.2C285.367 59.165 286.8 60.1758 288.962 60.1758C291.221 60.1758 292.688 59.0332 292.688 57.2754C292.688 55.8955 291.845 55.0869 289.99 54.665L288.646 54.3574C287.45 54.0938 286.958 53.6807 286.958 52.9512C286.958 52.0811 287.74 51.5186 288.953 51.5186C290.069 51.5186 290.869 52.0283 291.045 52.8633H292.486C292.311 51.2725 290.966 50.2793 288.979 50.2793C286.879 50.2793 285.473 51.3867 285.473 53.0391ZM298.445 47.9062V50.4902H295.905V51.7646H298.445V57.1611C298.445 59.1475 299.544 60.0439 301.908 60.0439C302.365 60.0439 303.525 60 303.763 59.9561V58.6904C303.508 58.7168 302.55 58.7432 302.014 58.7432C300.669 58.7432 299.939 58.1807 299.939 57.1436V51.7646H303.789V50.4902H299.922V47.9062H298.445ZM319.486 55.8428V54.5332C319.486 52.7842 320.506 51.6504 322.088 51.6504C323.661 51.6504 324.672 52.7754 324.672 54.5332V55.8428C324.672 57.6006 323.661 58.7344 322.088 58.7344C320.506 58.7344 319.486 57.5918 319.486 55.8428ZM322.044 63.5771C324.628 63.5771 326.157 62.2412 326.157 60V50.4639H324.681V51.9404H324.514C324.101 50.9121 323.055 50.3057 321.675 50.3057C319.442 50.3057 317.983 51.8877 317.983 54.3398V56.0537C317.983 58.4971 319.434 60.0879 321.64 60.0879C323.028 60.0879 324.083 59.4814 324.505 58.4795H324.663V59.9648C324.663 61.4941 323.74 62.3379 322.07 62.3379C320.796 62.3379 319.838 61.8193 319.645 61.0283H318.168C318.361 62.6104 319.838 63.5771 322.044 63.5771ZM333.558 51.5713C335.096 51.5713 336.027 52.6699 336.027 54.4893H331.009C331.009 52.6611 331.967 51.5713 333.558 51.5713ZM336.027 57.5391C335.764 58.374 334.876 58.8838 333.672 58.8838C332.046 58.8838 331.009 57.7588 331.009 56.0098V55.623H337.504V54.6914C337.504 51.9316 336.045 50.2881 333.566 50.2881C331.141 50.2881 329.532 51.9404 329.532 54.4541V55.8867C329.532 58.6025 331.053 60.1758 333.672 60.1758C335.676 60.1758 337.188 59.1123 337.478 57.5391H336.027ZM342.953 47.9062V50.4902H340.413V51.7646H342.953V57.1611C342.953 59.1475 344.052 60.0439 346.416 60.0439C346.873 60.0439 348.033 60 348.271 59.9561V58.6904C348.016 58.7168 347.058 58.7432 346.521 58.7432C345.177 58.7432 344.447 58.1807 344.447 57.1436V51.7646H348.297V50.4902H344.43V47.9062H342.953ZM353.271 48.6973H355.855C357.552 48.6973 358.519 49.5938 358.519 51.167C358.519 52.749 357.534 53.6367 355.785 53.6367H353.271V48.6973ZM356.189 54.9463L358.554 60H360.303L357.719 54.6299C359.16 54.1553 360.083 52.793 360.083 51.1318C360.083 48.7764 358.51 47.3174 355.996 47.3174H351.742V60H353.271V54.9463H356.189ZM366.938 51.5713C368.477 51.5713 369.408 52.6699 369.408 54.4893H364.39C364.39 52.6611 365.348 51.5713 366.938 51.5713ZM369.408 57.5391C369.145 58.374 368.257 58.8838 367.053 58.8838C365.427 58.8838 364.39 57.7588 364.39 56.0098V55.623H370.885V54.6914C370.885 51.9316 369.426 50.2881 366.947 50.2881C364.521 50.2881 362.913 51.9404 362.913 54.4541V55.8867C362.913 58.6025 364.434 60.1758 367.053 60.1758C369.057 60.1758 370.568 59.1123 370.858 57.5391H369.408ZM381.933 53.4346C381.687 51.4746 380.245 50.2793 378.136 50.2793C375.543 50.2793 374.031 51.8701 374.031 54.6035V55.8516C374.031 58.585 375.543 60.1758 378.136 60.1758C380.245 60.1758 381.695 58.9893 381.933 57.0469H380.456C380.271 58.1367 379.34 58.8311 378.109 58.8311C376.448 58.8311 375.525 57.7061 375.525 55.6582V54.7969C375.525 52.749 376.448 51.6152 378.109 51.6152C379.34 51.6152 380.271 52.3184 380.456 53.4346H381.933ZM387.461 47.9062V50.4902H384.921V51.7646H387.461V57.1611C387.461 59.1475 388.56 60.0439 390.924 60.0439C391.381 60.0439 392.541 60 392.778 59.9561V58.6904C392.523 58.7168 391.565 58.7432 391.029 58.7432C389.685 58.7432 388.955 58.1807 388.955 57.1436V51.7646H392.805V50.4902H388.938V47.9062H387.461ZM399.247 60.167C400.636 60.167 401.673 59.5957 402.13 58.5762H402.279V60.0088H403.703V53.4785C403.703 51.4922 402.42 50.3496 400.179 50.3496C398.228 50.3496 396.751 51.3955 396.575 52.9248H398.043C398.289 52.1074 399.062 51.6416 400.161 51.6416C401.488 51.6416 402.218 52.3008 402.218 53.4961V54.3574L399.599 54.4893C397.428 54.6035 396.215 55.6055 396.215 57.293C396.215 59.0244 397.428 60.167 399.247 60.167ZM399.678 58.8574C398.474 58.8574 397.727 58.2422 397.727 57.2402C397.727 56.2471 398.43 55.6758 399.766 55.6143L402.218 55.5V56.625C402.218 57.8994 401.119 58.8574 399.678 58.8574ZM407.438 60H408.933V54.3838C408.933 52.7578 409.987 51.6592 411.561 51.6592C413.046 51.6592 413.749 52.4678 413.749 54.1904V60H415.243V53.8125C415.243 51.5273 414.118 50.2881 412.044 50.2881C410.594 50.2881 409.504 50.9561 408.994 52.1426H408.871V50.4639H407.438V60ZM419.629 55.8428V54.5332C419.629 52.7842 420.648 51.6504 422.23 51.6504C423.804 51.6504 424.814 52.7754 424.814 54.5332V55.8428C424.814 57.6006 423.804 58.7344 422.23 58.7344C420.648 58.7344 419.629 57.5918 419.629 55.8428ZM422.187 63.5771C424.771 63.5771 426.3 62.2412 426.3 60V50.4639H424.823V51.9404H424.656C424.243 50.9121 423.197 50.3057 421.817 50.3057C419.585 50.3057 418.126 51.8877 418.126 54.3398V56.0537C418.126 58.4971 419.576 60.0879 421.782 60.0879C423.171 60.0879 424.226 59.4814 424.647 58.4795H424.806V59.9648C424.806 61.4941 423.883 62.3379 422.213 62.3379C420.938 62.3379 419.98 61.8193 419.787 61.0283H418.311C418.504 62.6104 419.98 63.5771 422.187 63.5771ZM437.761 60V58.7607H434.614V46.7197H429.886V47.959H433.12V58.7607H429.859V60H437.761ZM444.827 51.5713C446.365 51.5713 447.297 52.6699 447.297 54.4893H442.278C442.278 52.6611 443.236 51.5713 444.827 51.5713ZM447.297 57.5391C447.033 58.374 446.146 58.8838 444.941 58.8838C443.315 58.8838 442.278 57.7588 442.278 56.0098V55.623H448.773V54.6914C448.773 51.9316 447.314 50.2881 444.836 50.2881C442.41 50.2881 440.802 51.9404 440.802 54.4541V55.8867C440.802 58.6025 442.322 60.1758 444.941 60.1758C446.945 60.1758 448.457 59.1123 448.747 57.5391H447.297ZM454.021 55.0342L455.805 49.1807H455.849L457.624 55.0342H454.021ZM459.127 60H460.762L456.675 47.3174H455.022L450.936 60H452.509L453.616 56.3613H458.028L459.127 60ZM466.58 52.8984V50.4639H463.021V51.6592H465.139V58.8047H463.214V60H469.551V58.8047H466.598V55.7285C466.598 53.3027 467.846 51.8438 469.955 51.8438C470.474 51.8438 471.089 51.9492 471.528 52.1074V50.4287C471.212 50.2969 470.693 50.2178 470.148 50.2178C468.312 50.2178 467.125 51.1318 466.773 52.8984H466.58ZM478.208 51.5713C479.746 51.5713 480.678 52.6699 480.678 54.4893H475.659C475.659 52.6611 476.617 51.5713 478.208 51.5713ZM480.678 57.5391C480.414 58.374 479.526 58.8838 478.322 58.8838C476.696 58.8838 475.659 57.7588 475.659 56.0098V55.623H482.154V54.6914C482.154 51.9316 480.695 50.2881 478.217 50.2881C475.791 50.2881 474.183 51.9404 474.183 54.4541V55.8867C474.183 58.6025 475.703 60.1758 478.322 60.1758C480.326 60.1758 481.838 59.1123 482.128 57.5391H480.678ZM488.263 60.167C489.651 60.167 490.688 59.5957 491.146 58.5762H491.295V60.0088H492.719V53.4785C492.719 51.4922 491.436 50.3496 489.194 50.3496C487.243 50.3496 485.767 51.3955 485.591 52.9248H487.059C487.305 52.1074 488.078 51.6416 489.177 51.6416C490.504 51.6416 491.233 52.3008 491.233 53.4961V54.3574L488.614 54.4893C486.443 54.6035 485.23 55.6055 485.23 57.293C485.23 59.0244 486.443 60.167 488.263 60.167ZM488.693 58.8574C487.489 58.8574 486.742 58.2422 486.742 57.2402C486.742 56.2471 487.445 55.6758 488.781 55.6143L491.233 55.5V56.625C491.233 57.8994 490.135 58.8574 488.693 58.8574ZM516.133 57.1084V55.6582H506.834V57.1084H516.133ZM516.133 53.1006V51.6504H506.834V53.1006H516.133ZM532.331 60H533.825V51.7646H538.018V50.4902H533.808V49.5059C533.808 48.5479 534.511 48.0557 535.838 48.0557C536.374 48.0557 537.604 48.0908 538.018 48.1348V46.9131C537.701 46.8691 536.374 46.8252 535.82 46.8252C533.474 46.8252 532.331 47.6865 532.331 49.5322V50.4902H529.773V51.7646H532.331V60ZM548.767 50.4639H547.272V56.0801C547.272 57.7061 546.218 58.8047 544.645 58.8047C543.159 58.8047 542.456 57.9961 542.456 56.2734V50.4639H540.962V56.6514C540.962 58.9365 542.087 60.1758 544.161 60.1758C545.611 60.1758 546.701 59.5078 547.211 58.3213H547.334V60H548.767V50.4639ZM552.089 60H553.583V54.3838C553.583 52.7578 554.638 51.6592 556.211 51.6592C557.696 51.6592 558.399 52.4678 558.399 54.1904V60H559.894V53.8125C559.894 51.5273 558.769 50.2881 556.694 50.2881C555.244 50.2881 554.154 50.9561 553.645 52.1426H553.521V50.4639H552.089V60ZM571.091 53.4346C570.845 51.4746 569.403 50.2793 567.294 50.2793C564.701 50.2793 563.189 51.8701 563.189 54.6035V55.8516C563.189 58.585 564.701 60.1758 567.294 60.1758C569.403 60.1758 570.854 58.9893 571.091 57.0469H569.614C569.43 58.1367 568.498 58.8311 567.268 58.8311C565.606 58.8311 564.684 57.7061 564.684 55.6582V54.7969C564.684 52.749 565.606 51.6152 567.268 51.6152C568.498 51.6152 569.43 52.3184 569.614 53.4346H571.091ZM576.619 47.9062V50.4902H574.079V51.7646H576.619V57.1611C576.619 59.1475 577.718 60.0439 580.082 60.0439C580.539 60.0439 581.699 60 581.937 59.9561V58.6904C581.682 58.7168 580.724 58.7432 580.188 58.7432C578.843 58.7432 578.113 58.1807 578.113 57.1436V51.7646H581.963V50.4902H578.096V47.9062H576.619ZM589.539 48.126C590.242 48.126 590.778 47.5986 590.778 46.8955C590.778 46.2012 590.242 45.6738 589.539 45.6738C588.836 45.6738 588.3 46.2012 588.3 46.8955C588.3 47.5986 588.836 48.126 589.539 48.126ZM593.538 60V58.7607H590.383V50.4639H585.663V51.7031H588.906V58.7607H585.637V60H593.538ZM600.499 60.1758C603.021 60.1758 604.63 58.5322 604.63 55.957V54.5156C604.63 51.9404 603.021 50.2969 600.499 50.2969C597.977 50.2969 596.368 51.9404 596.368 54.5156V55.957C596.368 58.5322 597.977 60.1758 600.499 60.1758ZM600.499 51.6152C602.134 51.6152 603.153 52.7754 603.153 54.6475V55.8164C603.153 57.6973 602.134 58.8486 600.499 58.8486C598.864 58.8486 597.845 57.6973 597.845 55.8164V54.6475C597.845 52.7754 598.864 51.6152 600.499 51.6152ZM607.724 60H609.218V54.3838C609.218 52.7578 610.272 51.6592 611.846 51.6592C613.331 51.6592 614.034 52.4678 614.034 54.1904V60H615.528V53.8125C615.528 51.5273 614.403 50.2881 612.329 50.2881C610.879 50.2881 609.789 50.9561 609.279 52.1426H609.156V50.4639H607.724V60ZM620.837 53.6543C620.837 56.6426 621.733 59.2266 623.482 61.2129H624.968C623.148 58.6553 622.384 56.4141 622.384 53.6543C622.384 50.8945 623.148 48.6533 624.968 46.0957H623.482C621.733 48.082 620.837 50.6748 620.837 53.6543ZM639.03 50.4639H637.571L636.279 58.1104H636.121L634.583 50.4727H633.177L631.639 58.1104H631.48L630.188 50.4639H628.729L630.777 60H632.21L633.827 52.5645H633.933L635.55 60H636.982L639.03 50.4639ZM645.174 48.126C645.877 48.126 646.413 47.5986 646.413 46.8955C646.413 46.2012 645.877 45.6738 645.174 45.6738C644.471 45.6738 643.935 46.2012 643.935 46.8955C643.935 47.5986 644.471 48.126 645.174 48.126ZM649.173 60V58.7607H646.018V50.4639H641.298V51.7031H644.541V58.7607H641.271V60H649.173ZM653.392 54.5332C653.392 52.7754 654.402 51.6504 655.976 51.6504C657.54 51.6504 658.551 52.7754 658.551 54.5332V55.9043C658.551 57.6709 657.54 58.7959 655.976 58.7959C654.402 58.7959 653.392 57.6621 653.392 55.9043V54.5332ZM658.56 58.541V60H660.027V46.7197H658.507V51.9404H658.349C657.936 50.8945 656.916 50.3057 655.536 50.3057C653.33 50.3057 651.889 51.8965 651.889 54.3398V56.1152C651.889 58.5674 653.33 60.1582 655.536 60.1582C656.898 60.1582 657.9 59.5957 658.393 58.541H658.56ZM665.635 47.9062V50.4902H663.095V51.7646H665.635V57.1611C665.635 59.1475 666.733 60.0439 669.098 60.0439C669.555 60.0439 670.715 60 670.952 59.9561V58.6904C670.697 58.7168 669.739 58.7432 669.203 58.7432C667.858 58.7432 667.129 58.1807 667.129 57.1436V51.7646H670.979V50.4902H667.111V47.9062H665.635ZM674.477 60H675.971V54.3926C675.971 52.7666 677.034 51.668 678.607 51.668C680.102 51.668 680.805 52.4854 680.805 54.1992V60H682.299V53.8213C682.299 51.5449 681.174 50.2969 679.1 50.2969C677.641 50.2969 676.542 50.9648 676.041 52.1514H675.918V46.7197H674.477V60ZM689.058 62.9443L690.648 56.6689H688.627L687.484 62.9443H689.058ZM707.857 60H709.352V54.3926C709.352 52.7666 710.415 51.668 711.988 51.668C713.482 51.668 714.186 52.4854 714.186 54.1992V60H715.68V53.8213C715.68 51.5449 714.555 50.2969 712.48 50.2969C711.021 50.2969 709.923 50.9648 709.422 52.1514H709.299V46.7197H707.857V60ZM723.001 51.5713C724.539 51.5713 725.471 52.6699 725.471 54.4893H720.452C720.452 52.6611 721.41 51.5713 723.001 51.5713ZM725.471 57.5391C725.207 58.374 724.319 58.8838 723.115 58.8838C721.489 58.8838 720.452 57.7588 720.452 56.0098V55.623H726.947V54.6914C726.947 51.9316 725.488 50.2881 723.01 50.2881C720.584 50.2881 718.976 51.9404 718.976 54.4541V55.8867C718.976 58.6025 720.496 60.1758 723.115 60.1758C725.119 60.1758 726.631 59.1123 726.921 57.5391H725.471ZM734.189 48.126C734.893 48.126 735.429 47.5986 735.429 46.8955C735.429 46.2012 734.893 45.6738 734.189 45.6738C733.486 45.6738 732.95 46.2012 732.95 46.8955C732.95 47.5986 733.486 48.126 734.189 48.126ZM738.188 60V58.7607H735.033V50.4639H730.313V51.7031H733.557V58.7607H730.287V60H738.188ZM742.311 55.8428V54.5332C742.311 52.7842 743.33 51.6504 744.912 51.6504C746.485 51.6504 747.496 52.7754 747.496 54.5332V55.8428C747.496 57.6006 746.485 58.7344 744.912 58.7344C743.33 58.7344 742.311 57.5918 742.311 55.8428ZM744.868 63.5771C747.452 63.5771 748.981 62.2412 748.981 60V50.4639H747.505V51.9404H747.338C746.925 50.9121 745.879 50.3057 744.499 50.3057C742.267 50.3057 740.808 51.8877 740.808 54.3398V56.0537C740.808 58.4971 742.258 60.0879 744.464 60.0879C745.853 60.0879 746.907 59.4814 747.329 58.4795H747.487V59.9648C747.487 61.4941 746.564 62.3379 744.895 62.3379C743.62 62.3379 742.662 61.8193 742.469 61.0283H740.992C741.186 62.6104 742.662 63.5771 744.868 63.5771ZM752.365 60H753.859V54.3926C753.859 52.7666 754.923 51.668 756.496 51.668C757.99 51.668 758.693 52.4854 758.693 54.1992V60H760.188V53.8213C760.188 51.5449 759.062 50.2969 756.988 50.2969C755.529 50.2969 754.431 50.9648 753.93 52.1514H753.807V46.7197H752.365V60ZM765.777 47.9062V50.4902H763.237V51.7646H765.777V57.1611C765.777 59.1475 766.876 60.0439 769.24 60.0439C769.697 60.0439 770.857 60 771.095 59.9561V58.6904C770.84 58.7168 769.882 58.7432 769.346 58.7432C768.001 58.7432 767.271 58.1807 767.271 57.1436V51.7646H771.121V50.4902H767.254V47.9062H765.777ZM776.315 46.0957C778.135 48.6533 778.899 50.8945 778.899 53.6543C778.899 56.4141 778.135 58.6553 776.315 61.2129H777.801C779.55 59.2266 780.446 56.6426 780.446 53.6543C780.446 50.6748 779.55 48.082 777.801 46.0957H776.315ZM804.212 61.2041V60H803.254C801.936 60 801.681 59.6924 801.681 58.1631V55.8164C801.681 54.5859 800.758 53.7686 798.974 53.7334V53.5928C800.758 53.5488 801.681 52.7314 801.681 51.501V49.1543C801.681 47.625 801.936 47.3174 803.254 47.3174H804.212V46.1133H803.017C800.881 46.1133 800.204 46.79 800.204 48.9609V50.9297C800.204 52.292 799.413 53.0742 797.356 52.8633V54.4541C799.413 54.2432 800.204 55.0342 800.204 56.3877V58.3564C800.204 60.5273 800.881 61.2041 803.017 61.2041H804.212ZM281.983 80V78.7607H278.837V66.7197H274.108V67.959H277.343V78.7607H274.082V80H281.983ZM289.05 71.5713C290.588 71.5713 291.52 72.6699 291.52 74.4893H286.501C286.501 72.6611 287.459 71.5713 289.05 71.5713ZM291.52 77.5391C291.256 78.374 290.368 78.8838 289.164 78.8838C287.538 78.8838 286.501 77.7588 286.501 76.0098V75.623H292.996V74.6914C292.996 71.9316 291.537 70.2881 289.059 70.2881C286.633 70.2881 285.024 71.9404 285.024 74.4541V75.8867C285.024 78.6025 286.545 80.1758 289.164 80.1758C291.168 80.1758 292.68 79.1123 292.97 77.5391H291.52ZM298.445 67.9062V70.4902H295.905V71.7646H298.445V77.1611C298.445 79.1475 299.544 80.0439 301.908 80.0439C302.365 80.0439 303.525 80 303.763 79.9561V78.6904C303.508 78.7168 302.55 78.7432 302.014 78.7432C300.669 78.7432 299.939 78.1807 299.939 77.1436V71.7646H303.789V70.4902H299.922V67.9062H298.445ZM321.358 80.167C322.747 80.167 323.784 79.5957 324.241 78.5762H324.391V80.0088H325.814V73.4785C325.814 71.4922 324.531 70.3496 322.29 70.3496C320.339 70.3496 318.862 71.3955 318.687 72.9248H320.154C320.4 72.1074 321.174 71.6416 322.272 71.6416C323.6 71.6416 324.329 72.3008 324.329 73.4961V74.3574L321.71 74.4893C319.539 74.6035 318.326 75.6055 318.326 77.293C318.326 79.0244 319.539 80.167 321.358 80.167ZM321.789 78.8574C320.585 78.8574 319.838 78.2422 319.838 77.2402C319.838 76.2471 320.541 75.6758 321.877 75.6143L324.329 75.5V76.625C324.329 77.8994 323.23 78.8574 321.789 78.8574ZM333.057 72.8984V70.4639H329.497V71.6592H331.615V78.8047H329.69V80H336.027V78.8047H333.074V75.7285C333.074 73.3027 334.322 71.8438 336.432 71.8438C336.95 71.8438 337.565 71.9492 338.005 72.1074V70.4287C337.688 70.2969 337.17 70.2178 336.625 70.2178C334.788 70.2178 333.602 71.1318 333.25 72.8984H333.057ZM344.685 71.5713C346.223 71.5713 347.154 72.6699 347.154 74.4893H342.136C342.136 72.6611 343.094 71.5713 344.685 71.5713ZM347.154 77.5391C346.891 78.374 346.003 78.8838 344.799 78.8838C343.173 78.8838 342.136 77.7588 342.136 76.0098V75.623H348.631V74.6914C348.631 71.9316 347.172 70.2881 344.693 70.2881C342.268 70.2881 340.659 71.9404 340.659 74.4541V75.8867C340.659 78.6025 342.18 80.1758 344.799 80.1758C346.803 80.1758 348.314 79.1123 348.604 77.5391H347.154ZM354.739 80.167C356.128 80.167 357.165 79.5957 357.622 78.5762H357.771V80.0088H359.195V73.4785C359.195 71.4922 357.912 70.3496 355.671 70.3496C353.72 70.3496 352.243 71.3955 352.067 72.9248H353.535C353.781 72.1074 354.555 71.6416 355.653 71.6416C356.98 71.6416 357.71 72.3008 357.71 73.4961V74.3574L355.091 74.4893C352.92 74.6035 351.707 75.6055 351.707 77.293C351.707 79.0244 352.92 80.167 354.739 80.167ZM355.17 78.8574C353.966 78.8574 353.219 78.2422 353.219 77.2402C353.219 76.2471 353.922 75.6758 355.258 75.6143L357.71 75.5V76.625C357.71 77.8994 356.611 78.8574 355.17 78.8574ZM382.609 77.1084V75.6582H373.311V77.1084H382.609ZM382.609 73.1006V71.6504H373.311V73.1006H382.609ZM405.364 70.4639H403.905L402.613 78.1104H402.455L400.917 70.4727H399.511L397.973 78.1104H397.814L396.522 70.4639H395.063L397.111 80H398.544L400.161 72.5645H400.267L401.884 80H403.316L405.364 70.4639ZM411.508 68.126C412.211 68.126 412.747 67.5986 412.747 66.8955C412.747 66.2012 412.211 65.6738 411.508 65.6738C410.805 65.6738 410.269 66.2012 410.269 66.8955C410.269 67.5986 410.805 68.126 411.508 68.126ZM415.507 80V78.7607H412.352V70.4639H407.632V71.7031H410.875V78.7607H407.605V80H415.507ZM419.726 74.5332C419.726 72.7754 420.736 71.6504 422.31 71.6504C423.874 71.6504 424.885 72.7754 424.885 74.5332V75.9043C424.885 77.6709 423.874 78.7959 422.31 78.7959C420.736 78.7959 419.726 77.6621 419.726 75.9043V74.5332ZM424.894 78.541V80H426.361V66.7197H424.841V71.9404H424.683C424.27 70.8945 423.25 70.3057 421.87 70.3057C419.664 70.3057 418.223 71.8965 418.223 74.3398V76.1152C418.223 78.5674 419.664 80.1582 421.87 80.1582C423.232 80.1582 424.234 79.5957 424.727 78.541H424.894ZM431.969 67.9062V70.4902H429.429V71.7646H431.969V77.1611C431.969 79.1475 433.067 80.0439 435.432 80.0439C435.889 80.0439 437.049 80 437.286 79.9561V78.6904C437.031 78.7168 436.073 78.7432 435.537 78.7432C434.192 78.7432 433.463 78.1807 433.463 77.1436V71.7646H437.312V70.4902H433.445V67.9062H431.969ZM440.811 80H442.305V74.3926C442.305 72.7666 443.368 71.668 444.941 71.668C446.436 71.668 447.139 72.4854 447.139 74.1992V80H448.633V73.8213C448.633 71.5449 447.508 70.2969 445.434 70.2969C443.975 70.2969 442.876 70.9648 442.375 72.1514H442.252V66.7197H440.811V80ZM471.713 72.3799L471.089 71.2461L467.494 73.4609L467.6 69.2598H466.352L466.457 73.4609L462.862 71.2461L462.238 72.3799L465.903 74.375L462.238 76.3701L462.862 77.5039L466.457 75.2891L466.352 79.499H467.6L467.494 75.2979L471.089 77.5039L471.713 76.3701L468.048 74.375L471.713 72.3799ZM485.318 80H486.812V74.3926C486.812 72.7666 487.876 71.668 489.449 71.668C490.943 71.668 491.646 72.4854 491.646 74.1992V80H493.141V73.8213C493.141 71.5449 492.016 70.2969 489.941 70.2969C488.482 70.2969 487.384 70.9648 486.883 72.1514H486.76V66.7197H485.318V80ZM500.462 71.5713C502 71.5713 502.932 72.6699 502.932 74.4893H497.913C497.913 72.6611 498.871 71.5713 500.462 71.5713ZM502.932 77.5391C502.668 78.374 501.78 78.8838 500.576 78.8838C498.95 78.8838 497.913 77.7588 497.913 76.0098V75.623H504.408V74.6914C504.408 71.9316 502.949 70.2881 500.471 70.2881C498.045 70.2881 496.437 71.9404 496.437 74.4541V75.8867C496.437 78.6025 497.957 80.1758 500.576 80.1758C502.58 80.1758 504.092 79.1123 504.382 77.5391H502.932ZM511.65 68.126C512.354 68.126 512.89 67.5986 512.89 66.8955C512.89 66.2012 512.354 65.6738 511.65 65.6738C510.947 65.6738 510.411 66.2012 510.411 66.8955C510.411 67.5986 510.947 68.126 511.65 68.126ZM515.649 80V78.7607H512.494V70.4639H507.774V71.7031H511.018V78.7607H507.748V80H515.649ZM519.771 75.8428V74.5332C519.771 72.7842 520.791 71.6504 522.373 71.6504C523.946 71.6504 524.957 72.7754 524.957 74.5332V75.8428C524.957 77.6006 523.946 78.7344 522.373 78.7344C520.791 78.7344 519.771 77.5918 519.771 75.8428ZM522.329 83.5771C524.913 83.5771 526.442 82.2412 526.442 80V70.4639H524.966V71.9404H524.799C524.386 70.9121 523.34 70.3057 521.96 70.3057C519.728 70.3057 518.269 71.8877 518.269 74.3398V76.0537C518.269 78.4971 519.719 80.0879 521.925 80.0879C523.313 80.0879 524.368 79.4814 524.79 78.4795H524.948V79.9648C524.948 81.4941 524.025 82.3379 522.355 82.3379C521.081 82.3379 520.123 81.8193 519.93 81.0283H518.453C518.646 82.6104 520.123 83.5771 522.329 83.5771ZM529.826 80H531.32V74.3926C531.32 72.7666 532.384 71.668 533.957 71.668C535.451 71.668 536.154 72.4854 536.154 74.1992V80H537.648V73.8213C537.648 71.5449 536.523 70.2969 534.449 70.2969C532.99 70.2969 531.892 70.9648 531.391 72.1514H531.268V66.7197H529.826V80ZM543.238 67.9062V70.4902H540.698V71.7646H543.238V77.1611C543.238 79.1475 544.337 80.0439 546.701 80.0439C547.158 80.0439 548.318 80 548.556 79.9561V78.6904C548.301 78.7168 547.343 78.7432 546.807 78.7432C545.462 78.7432 544.732 78.1807 544.732 77.1436V71.7646H548.582V70.4902H544.715V67.9062H543.238ZM555.991 73.3027C556.861 73.3027 557.582 72.5645 557.582 71.6768C557.582 70.7891 556.861 70.0508 555.991 70.0508C555.121 70.0508 554.4 70.7891 554.4 71.6768C554.4 72.5645 555.121 73.3027 555.991 73.3027ZM555.534 82.918L557.125 76.6689H555.104L553.961 82.918H555.534ZM277.422 92.8984V90.4639H273.862V91.6592H275.98V98.8047H274.056V100H280.393V98.8047H277.439V95.7285C277.439 93.3027 278.688 91.8438 280.797 91.8438C281.315 91.8438 281.931 91.9492 282.37 92.1074V90.4287C282.054 90.2969 281.535 90.2178 280.99 90.2178C279.153 90.2178 277.967 91.1318 277.615 92.8984H277.422ZM289.05 91.5713C290.588 91.5713 291.52 92.6699 291.52 94.4893H286.501C286.501 92.6611 287.459 91.5713 289.05 91.5713ZM291.52 97.5391C291.256 98.374 290.368 98.8838 289.164 98.8838C287.538 98.8838 286.501 97.7588 286.501 96.0098V95.623H292.996V94.6914C292.996 91.9316 291.537 90.2881 289.059 90.2881C286.633 90.2881 285.024 91.9404 285.024 94.4541V95.8867C285.024 98.6025 286.545 100.176 289.164 100.176C291.168 100.176 292.68 99.1123 292.97 97.5391H291.52ZM298.445 87.9062V90.4902H295.905V91.7646H298.445V97.1611C298.445 99.1475 299.544 100.044 301.908 100.044C302.365 100.044 303.525 100 303.763 99.9561V98.6904C303.508 98.7168 302.55 98.7432 302.014 98.7432C300.669 98.7432 299.939 98.1807 299.939 97.1436V91.7646H303.789V90.4902H299.922V87.9062H298.445ZM315.101 90.4639H313.606V96.0801C313.606 97.7061 312.552 98.8047 310.979 98.8047C309.493 98.8047 308.79 97.9961 308.79 96.2734V90.4639H307.296V96.6514C307.296 98.9365 308.421 100.176 310.495 100.176C311.945 100.176 313.035 99.5078 313.545 98.3213H313.668V100H315.101V90.4639ZM321.93 92.8984V90.4639H318.37V91.6592H320.488V98.8047H318.563V100H324.9V98.8047H321.947V95.7285C321.947 93.3027 323.195 91.8438 325.305 91.8438C325.823 91.8438 326.438 91.9492 326.878 92.1074V90.4287C326.562 90.2969 326.043 90.2178 325.498 90.2178C323.661 90.2178 322.475 91.1318 322.123 92.8984H321.93ZM329.55 100H331.044V94.3838C331.044 92.7578 332.099 91.6592 333.672 91.6592C335.157 91.6592 335.86 92.4678 335.86 94.1904V100H337.354V93.8125C337.354 91.5273 336.229 90.2881 334.155 90.2881C332.705 90.2881 331.615 90.9561 331.105 92.1426H330.982V90.4639H329.55V100ZM354.739 100.167C356.128 100.167 357.165 99.5957 357.622 98.5762H357.771V100.009H359.195V93.4785C359.195 91.4922 357.912 90.3496 355.671 90.3496C353.72 90.3496 352.243 91.3955 352.067 92.9248H353.535C353.781 92.1074 354.555 91.6416 355.653 91.6416C356.98 91.6416 357.71 92.3008 357.71 93.4961V94.3574L355.091 94.4893C352.92 94.6035 351.707 95.6055 351.707 97.293C351.707 99.0244 352.92 100.167 354.739 100.167ZM355.17 98.8574C353.966 98.8574 353.219 98.2422 353.219 97.2402C353.219 96.2471 353.922 95.6758 355.258 95.6143L357.71 95.5V96.625C357.71 97.8994 356.611 98.8574 355.17 98.8574ZM366.438 92.8984V90.4639H362.878V91.6592H364.996V98.8047H363.071V100H369.408V98.8047H366.455V95.7285C366.455 93.3027 367.703 91.8438 369.812 91.8438C370.331 91.8438 370.946 91.9492 371.386 92.1074V90.4287C371.069 90.2969 370.551 90.2178 370.006 90.2178C368.169 90.2178 366.982 91.1318 366.631 92.8984H366.438ZM378.065 91.5713C379.604 91.5713 380.535 92.6699 380.535 94.4893H375.517C375.517 92.6611 376.475 91.5713 378.065 91.5713ZM380.535 97.5391C380.271 98.374 379.384 98.8838 378.18 98.8838C376.554 98.8838 375.517 97.7588 375.517 96.0098V95.623H382.012V94.6914C382.012 91.9316 380.553 90.2881 378.074 90.2881C375.648 90.2881 374.04 91.9404 374.04 94.4541V95.8867C374.04 98.6025 375.561 100.176 378.18 100.176C380.184 100.176 381.695 99.1123 381.985 97.5391H380.535ZM388.12 100.167C389.509 100.167 390.546 99.5957 391.003 98.5762H391.152V100.009H392.576V93.4785C392.576 91.4922 391.293 90.3496 389.052 90.3496C387.101 90.3496 385.624 91.3955 385.448 92.9248H386.916C387.162 92.1074 387.936 91.6416 389.034 91.6416C390.361 91.6416 391.091 92.3008 391.091 93.4961V94.3574L388.472 94.4893C386.301 94.6035 385.088 95.6055 385.088 97.293C385.088 99.0244 386.301 100.167 388.12 100.167ZM388.551 98.8574C387.347 98.8574 386.6 98.2422 386.6 97.2402C386.6 96.2471 387.303 95.6758 388.639 95.6143L391.091 95.5V96.625C391.091 97.8994 389.992 98.8574 388.551 98.8574ZM400.214 93.3027C401.084 93.3027 401.805 92.5645 401.805 91.6768C401.805 90.7891 401.084 90.0508 400.214 90.0508C399.344 90.0508 398.623 90.7891 398.623 91.6768C398.623 92.5645 399.344 93.3027 400.214 93.3027ZM399.757 102.918L401.348 96.6689H399.326L398.184 102.918H399.757ZM253.331 121.204C255.467 121.204 256.144 120.527 256.144 118.356V116.388C256.144 115.034 256.935 114.243 258.991 114.454V112.863C256.935 113.074 256.144 112.292 256.144 110.93V108.961C256.144 106.79 255.467 106.113 253.331 106.113H252.136V107.317H253.094C254.412 107.317 254.667 107.625 254.667 109.154V111.501C254.667 112.731 255.59 113.549 257.374 113.593V113.733C255.59 113.769 254.667 114.586 254.667 115.816V118.163C254.667 119.692 254.412 120 253.094 120H252.136V121.204H253.331ZM254.157 160H255.651V151.765H259.844V150.49H255.634V149.506C255.634 148.548 256.337 148.056 257.664 148.056C258.2 148.056 259.431 148.091 259.844 148.135V146.913C259.527 146.869 258.2 146.825 257.646 146.825C255.3 146.825 254.157 147.687 254.157 149.532V150.49H251.6V151.765H254.157V160ZM266.69 160.176C269.213 160.176 270.821 158.532 270.821 155.957V154.516C270.821 151.94 269.213 150.297 266.69 150.297C264.168 150.297 262.56 151.94 262.56 154.516V155.957C262.56 158.532 264.168 160.176 266.69 160.176ZM266.69 151.615C268.325 151.615 269.345 152.775 269.345 154.647V155.816C269.345 157.697 268.325 158.849 266.69 158.849C265.056 158.849 264.036 157.697 264.036 155.816V154.647C264.036 152.775 265.056 151.615 266.69 151.615ZM277.422 152.898V150.464H273.862V151.659H275.98V158.805H274.056V160H280.393V158.805H277.439V155.729C277.439 153.303 278.688 151.844 280.797 151.844C281.315 151.844 281.931 151.949 282.37 152.107V150.429C282.054 150.297 281.535 150.218 280.99 150.218C279.153 150.218 277.967 151.132 277.615 152.898H277.422ZM298.155 153.654C298.155 156.643 299.052 159.227 300.801 161.213H302.286C300.467 158.655 299.702 156.414 299.702 153.654C299.702 150.895 300.467 148.653 302.286 146.096H300.801C299.052 148.082 298.155 150.675 298.155 153.654ZM315.364 160V158.761H312.218V146.72H307.489V147.959H310.724V158.761H307.463V160H315.364ZM322.431 151.571C323.969 151.571 324.9 152.67 324.9 154.489H319.882C319.882 152.661 320.84 151.571 322.431 151.571ZM324.9 157.539C324.637 158.374 323.749 158.884 322.545 158.884C320.919 158.884 319.882 157.759 319.882 156.01V155.623H326.377V154.691C326.377 151.932 324.918 150.288 322.439 150.288C320.014 150.288 318.405 151.94 318.405 154.454V155.887C318.405 158.603 319.926 160.176 322.545 160.176C324.549 160.176 326.061 159.112 326.351 157.539H324.9ZM331.826 147.906V150.49H329.286V151.765H331.826V157.161C331.826 159.147 332.925 160.044 335.289 160.044C335.746 160.044 336.906 160 337.144 159.956V158.69C336.889 158.717 335.931 158.743 335.395 158.743C334.05 158.743 333.32 158.181 333.32 157.144V151.765H337.17V150.49H333.303V147.906H331.826ZM360.856 150.464H359.397L358.105 158.11H357.947L356.409 150.473H355.003L353.465 158.11H353.307L352.015 150.464H350.556L352.604 160H354.036L355.653 152.564H355.759L357.376 160H358.809L360.856 150.464ZM382.609 157.108V155.658H373.311V157.108H382.609ZM382.609 153.101V151.65H373.311V153.101H382.609ZM402.895 152.248C402.938 152.688 402.956 153.153 402.956 153.663C402.956 157.1 402.016 158.919 400.223 158.919C399.027 158.919 398.21 158.11 397.797 156.555L402.895 152.248ZM397.542 155.061C397.498 154.63 397.48 154.164 397.48 153.663C397.48 150.218 398.43 148.407 400.223 148.407C401.427 148.407 402.244 149.225 402.648 150.798L397.542 155.061ZM400.223 147.036C397.463 147.036 395.942 149.392 395.942 153.663C395.942 157.935 397.463 160.29 400.223 160.29C402.974 160.29 404.503 157.935 404.503 153.663C404.503 149.392 402.974 147.036 400.223 147.036ZM411.341 153.303C412.211 153.303 412.932 152.564 412.932 151.677C412.932 150.789 412.211 150.051 411.341 150.051C410.471 150.051 409.75 150.789 409.75 151.677C409.75 152.564 410.471 153.303 411.341 153.303ZM410.884 162.918L412.475 156.669H410.453L409.311 162.918H410.884ZM438.745 150.464H437.286L435.994 158.11H435.836L434.298 150.473H432.892L431.354 158.11H431.195L429.903 150.464H428.444L430.492 160H431.925L433.542 152.564H433.647L435.265 160H436.697L438.745 150.464ZM459.628 150.947V149.269L452.069 153.725V155.025L459.628 159.481V157.803L453.581 154.454V154.296L459.628 150.947ZM479.324 158.638V147.317H477.804L474.024 149.77V151.422L477.654 149.075H477.795V158.638H474.051V160H482.893V158.638H479.324ZM491.91 152.248C491.954 152.688 491.972 153.153 491.972 153.663C491.972 157.1 491.031 158.919 489.238 158.919C488.043 158.919 487.226 158.11 486.812 156.555L491.91 152.248ZM486.558 155.061C486.514 154.63 486.496 154.164 486.496 153.663C486.496 150.218 487.445 148.407 489.238 148.407C490.442 148.407 491.26 149.225 491.664 150.798L486.558 155.061ZM489.238 147.036C486.479 147.036 484.958 149.392 484.958 153.663C484.958 157.935 486.479 160.29 489.238 160.29C491.989 160.29 493.519 157.935 493.519 153.663C493.519 149.392 491.989 147.036 489.238 147.036ZM500.356 153.303C501.227 153.303 501.947 152.564 501.947 151.677C501.947 150.789 501.227 150.051 500.356 150.051C499.486 150.051 498.766 150.789 498.766 151.677C498.766 152.564 499.486 153.303 500.356 153.303ZM499.899 162.918L501.49 156.669H499.469L498.326 162.918H499.899ZM527.761 150.464H526.302L525.01 158.11H524.852L523.313 150.473H521.907L520.369 158.11H520.211L518.919 150.464H517.46L519.508 160H520.94L522.558 152.564H522.663L524.28 160H525.713L527.761 150.464ZM534.423 155.069H538.422V153.681H534.423V149.699H533.052V153.681H529.053V155.069H533.052V159.042H534.423V155.069ZM545.55 155.069H549.549V153.681H545.55V149.699H544.179V153.681H540.18V155.069H544.179V159.042H545.55V155.069ZM553.776 146.096C555.596 148.653 556.36 150.895 556.36 153.654C556.36 156.414 555.596 158.655 553.776 161.213H555.262C557.011 159.227 557.907 156.643 557.907 153.654C557.907 150.675 557.011 148.082 555.262 146.096H553.776ZM581.673 161.204V160H580.715C579.396 160 579.142 159.692 579.142 158.163V155.816C579.142 154.586 578.219 153.769 576.435 153.733V153.593C578.219 153.549 579.142 152.731 579.142 151.501V149.154C579.142 147.625 579.396 147.317 580.715 147.317H581.673V146.113H580.478C578.342 146.113 577.665 146.79 577.665 148.961V150.93C577.665 152.292 576.874 153.074 574.817 152.863V154.454C576.874 154.243 577.665 155.034 577.665 156.388V158.356C577.665 160.527 578.342 161.204 580.478 161.204H581.673ZM276.411 180H277.905V171.765H282.098V170.49H277.888V169.506C277.888 168.548 278.591 168.056 279.918 168.056C280.454 168.056 281.685 168.091 282.098 168.135V166.913C281.781 166.869 280.454 166.825 279.9 166.825C277.554 166.825 276.411 167.687 276.411 169.532V170.49H273.854V171.765H276.411V180ZM288.944 180.176C291.467 180.176 293.075 178.532 293.075 175.957V174.516C293.075 171.94 291.467 170.297 288.944 170.297C286.422 170.297 284.813 171.94 284.813 174.516V175.957C284.813 178.532 286.422 180.176 288.944 180.176ZM288.944 171.615C290.579 171.615 291.599 172.775 291.599 174.647V175.816C291.599 177.697 290.579 178.849 288.944 178.849C287.31 178.849 286.29 177.697 286.29 175.816V174.647C286.29 172.775 287.31 171.615 288.944 171.615ZM299.676 172.898V170.464H296.116V171.659H298.234V178.805H296.31V180H302.646V178.805H299.693V175.729C299.693 173.303 300.941 171.844 303.051 171.844C303.569 171.844 304.185 171.949 304.624 172.107V170.429C304.308 170.297 303.789 170.218 303.244 170.218C301.407 170.218 300.221 171.132 299.869 172.898H299.676ZM320.409 173.654C320.409 176.643 321.306 179.227 323.055 181.213H324.54C322.721 178.655 321.956 176.414 321.956 173.654C321.956 170.895 322.721 168.653 324.54 166.096H323.055C321.306 168.082 320.409 170.675 320.409 173.654ZM337.618 180V178.761H334.472V166.72H329.743V167.959H332.978V178.761H329.717V180H337.618ZM344.685 171.571C346.223 171.571 347.154 172.67 347.154 174.489H342.136C342.136 172.661 343.094 171.571 344.685 171.571ZM347.154 177.539C346.891 178.374 346.003 178.884 344.799 178.884C343.173 178.884 342.136 177.759 342.136 176.01V175.623H348.631V174.691C348.631 171.932 347.172 170.288 344.693 170.288C342.268 170.288 340.659 171.94 340.659 174.454V175.887C340.659 178.603 342.18 180.176 344.799 180.176C346.803 180.176 348.314 179.112 348.604 177.539H347.154ZM354.08 167.906V170.49H351.54V171.765H354.08V177.161C354.08 179.147 355.179 180.044 357.543 180.044C358 180.044 359.16 180 359.397 179.956V178.69C359.143 178.717 358.185 178.743 357.648 178.743C356.304 178.743 355.574 178.181 355.574 177.144V171.765H359.424V170.49H355.557V167.906H354.08ZM374.049 180H375.543V174.393C375.543 172.767 376.606 171.668 378.18 171.668C379.674 171.668 380.377 172.485 380.377 174.199V180H381.871V173.821C381.871 171.545 380.746 170.297 378.672 170.297C377.213 170.297 376.114 170.965 375.613 172.151H375.49V166.72H374.049V180ZM404.863 177.108V175.658H395.564V177.108H404.863ZM404.863 173.101V171.65H395.564V173.101H404.863ZM425.148 172.248C425.192 172.688 425.21 173.153 425.21 173.663C425.21 177.1 424.27 178.919 422.477 178.919C421.281 178.919 420.464 178.11 420.051 176.555L425.148 172.248ZM419.796 175.061C419.752 174.63 419.734 174.164 419.734 173.663C419.734 170.218 420.684 168.407 422.477 168.407C423.681 168.407 424.498 169.225 424.902 170.798L419.796 175.061ZM422.477 167.036C419.717 167.036 418.196 169.392 418.196 173.663C418.196 177.935 419.717 180.29 422.477 180.29C425.228 180.29 426.757 177.935 426.757 173.663C426.757 169.392 425.228 167.036 422.477 167.036ZM433.595 173.303C434.465 173.303 435.186 172.564 435.186 171.677C435.186 170.789 434.465 170.051 433.595 170.051C432.725 170.051 432.004 170.789 432.004 171.677C432.004 172.564 432.725 173.303 433.595 173.303ZM433.138 182.918L434.729 176.669H432.707L431.564 182.918H433.138ZM451.938 180H453.432V174.393C453.432 172.767 454.495 171.668 456.068 171.668C457.562 171.668 458.266 172.485 458.266 174.199V180H459.76V173.821C459.76 171.545 458.635 170.297 456.561 170.297C455.102 170.297 454.003 170.965 453.502 172.151H453.379V166.72H451.938V180ZM481.882 170.947V169.269L474.323 173.725V175.025L481.882 179.481V177.803L475.835 174.454V174.296L481.882 170.947ZM496.313 170.886V170.938H497.808V170.886C497.808 169.392 498.774 168.416 500.233 168.416C501.71 168.416 502.668 169.312 502.668 170.675C502.668 171.677 502.281 172.354 500.673 174.155L496.384 178.928V180H504.408V178.594H498.599V178.444L501.587 175.192C503.608 172.986 504.206 171.932 504.206 170.613C504.206 168.495 502.606 167.054 500.277 167.054C497.966 167.054 496.313 168.653 496.313 170.886ZM514.164 172.248C514.208 172.688 514.226 173.153 514.226 173.663C514.226 177.1 513.285 178.919 511.492 178.919C510.297 178.919 509.479 178.11 509.066 176.555L514.164 172.248ZM508.812 175.061C508.768 174.63 508.75 174.164 508.75 173.663C508.75 170.218 509.699 168.407 511.492 168.407C512.696 168.407 513.514 169.225 513.918 170.798L508.812 175.061ZM511.492 167.036C508.732 167.036 507.212 169.392 507.212 173.663C507.212 177.935 508.732 180.29 511.492 180.29C514.243 180.29 515.772 177.935 515.772 173.663C515.772 169.392 514.243 167.036 511.492 167.036ZM522.61 173.303C523.48 173.303 524.201 172.564 524.201 171.677C524.201 170.789 523.48 170.051 522.61 170.051C521.74 170.051 521.02 170.789 521.02 171.677C521.02 172.564 521.74 173.303 522.61 173.303ZM522.153 182.918L523.744 176.669H521.723L520.58 182.918H522.153ZM540.953 180H542.447V174.393C542.447 172.767 543.511 171.668 545.084 171.668C546.578 171.668 547.281 172.485 547.281 174.199V180H548.775V173.821C548.775 171.545 547.65 170.297 545.576 170.297C544.117 170.297 543.019 170.965 542.518 172.151H542.395V166.72H540.953V180ZM556.677 175.069H560.676V173.681H556.677V169.699H555.306V173.681H551.307V175.069H555.306V179.042H556.677V175.069ZM567.804 175.069H571.803V173.681H567.804V169.699H566.433V173.681H562.434V175.069H566.433V179.042H567.804V175.069ZM576.03 166.096C577.85 168.653 578.614 170.895 578.614 173.654C578.614 176.414 577.85 178.655 576.03 181.213H577.516C579.265 179.227 580.161 176.643 580.161 173.654C580.161 170.675 579.265 168.082 577.516 166.096H576.03ZM603.927 181.204V180H602.969C601.65 180 601.396 179.692 601.396 178.163V175.816C601.396 174.586 600.473 173.769 598.688 173.733V173.593C600.473 173.549 601.396 172.731 601.396 171.501V169.154C601.396 167.625 601.65 167.317 602.969 167.317H603.927V166.113H602.731C600.596 166.113 599.919 166.79 599.919 168.961V170.93C599.919 172.292 599.128 173.074 597.071 172.863V174.454C599.128 174.243 599.919 175.034 599.919 176.388V178.356C599.919 180.527 600.596 181.204 602.731 181.204H603.927ZM304.237 200V198.761H301.091V186.72H296.362V187.959H299.597V198.761H296.336V200H304.237ZM311.304 191.571C312.842 191.571 313.773 192.67 313.773 194.489H308.755C308.755 192.661 309.713 191.571 311.304 191.571ZM313.773 197.539C313.51 198.374 312.622 198.884 311.418 198.884C309.792 198.884 308.755 197.759 308.755 196.01V195.623H315.25V194.691C315.25 191.932 313.791 190.288 311.312 190.288C308.887 190.288 307.278 191.94 307.278 194.454V195.887C307.278 198.603 308.799 200.176 311.418 200.176C313.422 200.176 314.934 199.112 315.224 197.539H313.773ZM320.699 187.906V190.49H318.159V191.765H320.699V197.161C320.699 199.147 321.798 200.044 324.162 200.044C324.619 200.044 325.779 200 326.017 199.956V198.69C325.762 198.717 324.804 198.743 324.268 198.743C322.923 198.743 322.193 198.181 322.193 197.144V191.765H326.043V190.49H322.176V187.906H320.699ZM343.612 200.167C345.001 200.167 346.038 199.596 346.495 198.576H346.645V200.009H348.068V193.479C348.068 191.492 346.785 190.35 344.544 190.35C342.593 190.35 341.116 191.396 340.94 192.925H342.408C342.654 192.107 343.428 191.642 344.526 191.642C345.854 191.642 346.583 192.301 346.583 193.496V194.357L343.964 194.489C341.793 194.604 340.58 195.605 340.58 197.293C340.58 199.024 341.793 200.167 343.612 200.167ZM344.043 198.857C342.839 198.857 342.092 198.242 342.092 197.24C342.092 196.247 342.795 195.676 344.131 195.614L346.583 195.5V196.625C346.583 197.899 345.484 198.857 344.043 198.857ZM371.482 197.108V195.658H362.184V197.108H371.482ZM371.482 193.101V191.65H362.184V193.101H371.482ZM386.248 195.843V194.533C386.248 192.784 387.268 191.65 388.85 191.65C390.423 191.65 391.434 192.775 391.434 194.533V195.843C391.434 197.601 390.423 198.734 388.85 198.734C387.268 198.734 386.248 197.592 386.248 195.843ZM388.806 203.577C391.39 203.577 392.919 202.241 392.919 200V190.464H391.442V191.94H391.275C390.862 190.912 389.816 190.306 388.437 190.306C386.204 190.306 384.745 191.888 384.745 194.34V196.054C384.745 198.497 386.195 200.088 388.401 200.088C389.79 200.088 390.845 199.481 391.267 198.479H391.425V199.965C391.425 201.494 390.502 202.338 388.832 202.338C387.558 202.338 386.6 201.819 386.406 201.028H384.93C385.123 202.61 386.6 203.577 388.806 203.577ZM400.319 191.571C401.857 191.571 402.789 192.67 402.789 194.489H397.771C397.771 192.661 398.729 191.571 400.319 191.571ZM402.789 197.539C402.525 198.374 401.638 198.884 400.434 198.884C398.808 198.884 397.771 197.759 397.771 196.01V195.623H404.266V194.691C404.266 191.932 402.807 190.288 400.328 190.288C397.902 190.288 396.294 191.94 396.294 194.454V195.887C396.294 198.603 397.814 200.176 400.434 200.176C402.438 200.176 403.949 199.112 404.239 197.539H402.789ZM409.715 187.906V190.49H407.175V191.765H409.715V197.161C409.715 199.147 410.813 200.044 413.178 200.044C413.635 200.044 414.795 200 415.032 199.956V198.69C414.777 198.717 413.819 198.743 413.283 198.743C411.938 198.743 411.209 198.181 411.209 197.144V191.765H415.059V190.49H411.191V187.906H409.715ZM420.033 188.697H422.617C424.313 188.697 425.28 189.594 425.28 191.167C425.28 192.749 424.296 193.637 422.547 193.637H420.033V188.697ZM422.951 194.946L425.315 200H427.064L424.48 194.63C425.922 194.155 426.845 192.793 426.845 191.132C426.845 188.776 425.271 187.317 422.758 187.317H418.504V200H420.033V194.946H422.951ZM433.7 191.571C435.238 191.571 436.17 192.67 436.17 194.489H431.151C431.151 192.661 432.109 191.571 433.7 191.571ZM436.17 197.539C435.906 198.374 435.019 198.884 433.814 198.884C432.188 198.884 431.151 197.759 431.151 196.01V195.623H437.646V194.691C437.646 191.932 436.188 190.288 433.709 190.288C431.283 190.288 429.675 191.94 429.675 194.454V195.887C429.675 198.603 431.195 200.176 433.814 200.176C435.818 200.176 437.33 199.112 437.62 197.539H436.17ZM448.694 193.435C448.448 191.475 447.007 190.279 444.897 190.279C442.305 190.279 440.793 191.87 440.793 194.604V195.852C440.793 198.585 442.305 200.176 444.897 200.176C447.007 200.176 448.457 198.989 448.694 197.047H447.218C447.033 198.137 446.102 198.831 444.871 198.831C443.21 198.831 442.287 197.706 442.287 195.658V194.797C442.287 192.749 443.21 191.615 444.871 191.615C446.102 191.615 447.033 192.318 447.218 193.435H448.694ZM454.223 187.906V190.49H451.683V191.765H454.223V197.161C454.223 199.147 455.321 200.044 457.686 200.044C458.143 200.044 459.303 200 459.54 199.956V198.69C459.285 198.717 458.327 198.743 457.791 198.743C456.446 198.743 455.717 198.181 455.717 197.144V191.765H459.566V190.49H455.699V187.906H454.223ZM466.009 200.167C467.397 200.167 468.435 199.596 468.892 198.576H469.041V200.009H470.465V193.479C470.465 191.492 469.182 190.35 466.94 190.35C464.989 190.35 463.513 191.396 463.337 192.925H464.805C465.051 192.107 465.824 191.642 466.923 191.642C468.25 191.642 468.979 192.301 468.979 193.496V194.357L466.36 194.489C464.189 194.604 462.977 195.605 462.977 197.293C462.977 199.024 464.189 200.167 466.009 200.167ZM466.439 198.857C465.235 198.857 464.488 198.242 464.488 197.24C464.488 196.247 465.191 195.676 466.527 195.614L468.979 195.5V196.625C468.979 197.899 467.881 198.857 466.439 198.857ZM474.2 200H475.694V194.384C475.694 192.758 476.749 191.659 478.322 191.659C479.808 191.659 480.511 192.468 480.511 194.19V200H482.005V193.812C482.005 191.527 480.88 190.288 478.806 190.288C477.355 190.288 476.266 190.956 475.756 192.143H475.633V190.464H474.2V200ZM486.391 195.843V194.533C486.391 192.784 487.41 191.65 488.992 191.65C490.565 191.65 491.576 192.775 491.576 194.533V195.843C491.576 197.601 490.565 198.734 488.992 198.734C487.41 198.734 486.391 197.592 486.391 195.843ZM488.948 203.577C491.532 203.577 493.062 202.241 493.062 200V190.464H491.585V191.94H491.418C491.005 190.912 489.959 190.306 488.579 190.306C486.347 190.306 484.888 191.888 484.888 194.34V196.054C484.888 198.497 486.338 200.088 488.544 200.088C489.933 200.088 490.987 199.481 491.409 198.479H491.567V199.965C491.567 201.494 490.645 202.338 488.975 202.338C487.7 202.338 486.742 201.819 486.549 201.028H485.072C485.266 202.61 486.742 203.577 488.948 203.577ZM504.522 200V198.761H501.376V186.72H496.647V187.959H499.882V198.761H496.621V200H504.522ZM511.589 191.571C513.127 191.571 514.059 192.67 514.059 194.489H509.04C509.04 192.661 509.998 191.571 511.589 191.571ZM514.059 197.539C513.795 198.374 512.907 198.884 511.703 198.884C510.077 198.884 509.04 197.759 509.04 196.01V195.623H515.535V194.691C515.535 191.932 514.076 190.288 511.598 190.288C509.172 190.288 507.563 191.94 507.563 194.454V195.887C507.563 198.603 509.084 200.176 511.703 200.176C513.707 200.176 515.219 199.112 515.509 197.539H514.059ZM520.782 195.034L522.566 189.181H522.61L524.386 195.034H520.782ZM525.889 200H527.523L523.437 187.317H521.784L517.697 200H519.271L520.378 196.361H524.79L525.889 200ZM533.342 192.898V190.464H529.782V191.659H531.9V198.805H529.976V200H536.312V198.805H533.359V195.729C533.359 193.303 534.607 191.844 536.717 191.844C537.235 191.844 537.851 191.949 538.29 192.107V190.429C537.974 190.297 537.455 190.218 536.91 190.218C535.073 190.218 533.887 191.132 533.535 192.898H533.342ZM544.97 191.571C546.508 191.571 547.439 192.67 547.439 194.489H542.421C542.421 192.661 543.379 191.571 544.97 191.571ZM547.439 197.539C547.176 198.374 546.288 198.884 545.084 198.884C543.458 198.884 542.421 197.759 542.421 196.01V195.623H548.916V194.691C548.916 191.932 547.457 190.288 544.979 190.288C542.553 190.288 540.944 191.94 540.944 194.454V195.887C540.944 198.603 542.465 200.176 545.084 200.176C547.088 200.176 548.6 199.112 548.89 197.539H547.439ZM555.024 200.167C556.413 200.167 557.45 199.596 557.907 198.576H558.057V200.009H559.48V193.479C559.48 191.492 558.197 190.35 555.956 190.35C554.005 190.35 552.528 191.396 552.353 192.925H553.82C554.066 192.107 554.84 191.642 555.938 191.642C557.266 191.642 557.995 192.301 557.995 193.496V194.357L555.376 194.489C553.205 194.604 551.992 195.605 551.992 197.293C551.992 199.024 553.205 200.167 555.024 200.167ZM555.455 198.857C554.251 198.857 553.504 198.242 553.504 197.24C553.504 196.247 554.207 195.676 555.543 195.614L557.995 195.5V196.625C557.995 197.899 556.896 198.857 555.455 198.857ZM565.202 193.654C565.202 196.643 566.099 199.227 567.848 201.213H569.333C567.514 198.655 566.749 196.414 566.749 193.654C566.749 190.895 567.514 188.653 569.333 186.096H567.848C566.099 188.082 565.202 190.675 565.202 193.654ZM583.396 190.464H581.937L580.645 198.11H580.486L578.948 190.473H577.542L576.004 198.11H575.846L574.554 190.464H573.095L575.143 200H576.575L578.192 192.564H578.298L579.915 200H581.348L583.396 190.464ZM588.915 202.944L590.506 196.669H588.484L587.342 202.944H588.915ZM607.715 200H609.209V194.393C609.209 192.767 610.272 191.668 611.846 191.668C613.34 191.668 614.043 192.485 614.043 194.199V200H615.537V193.821C615.537 191.545 614.412 190.297 612.338 190.297C610.879 190.297 609.78 190.965 609.279 192.151H609.156V186.72H607.715V200ZM620.538 186.096C622.357 188.653 623.122 190.895 623.122 193.654C623.122 196.414 622.357 198.655 620.538 201.213H622.023C623.772 199.227 624.669 196.643 624.669 193.654C624.669 190.675 623.772 188.082 622.023 186.096H620.538ZM633.88 193.303C634.75 193.303 635.471 192.564 635.471 191.677C635.471 190.789 634.75 190.051 633.88 190.051C633.01 190.051 632.289 190.789 632.289 191.677C632.289 192.564 633.01 193.303 633.88 193.303ZM633.423 202.918L635.014 196.669H632.992L631.85 202.918H633.423ZM304.044 213.435C303.798 211.475 302.356 210.279 300.247 210.279C297.654 210.279 296.143 211.87 296.143 214.604V215.852C296.143 218.585 297.654 220.176 300.247 220.176C302.356 220.176 303.807 218.989 304.044 217.047H302.567C302.383 218.137 301.451 218.831 300.221 218.831C298.56 218.831 297.637 217.706 297.637 215.658V214.797C297.637 212.749 298.56 211.615 300.221 211.615C301.451 211.615 302.383 212.318 302.567 213.435H304.044ZM311.198 220.176C313.721 220.176 315.329 218.532 315.329 215.957V214.516C315.329 211.94 313.721 210.297 311.198 210.297C308.676 210.297 307.067 211.94 307.067 214.516V215.957C307.067 218.532 308.676 220.176 311.198 220.176ZM311.198 211.615C312.833 211.615 313.853 212.775 313.853 214.647V215.816C313.853 217.697 312.833 218.849 311.198 218.849C309.563 218.849 308.544 217.697 308.544 215.816V214.647C308.544 212.775 309.563 211.615 311.198 211.615ZM318.423 220H319.917V214.384C319.917 212.758 320.972 211.659 322.545 211.659C324.03 211.659 324.733 212.468 324.733 214.19V220H326.228V213.812C326.228 211.527 325.103 210.288 323.028 210.288C321.578 210.288 320.488 210.956 319.979 212.143H319.855V210.464H318.423V220ZM329.98 213.039C329.98 214.393 330.833 215.263 332.556 215.658L333.971 215.983C335.184 216.256 335.649 216.66 335.649 217.416C335.649 218.33 334.823 218.919 333.522 218.919C332.292 218.919 331.448 218.409 331.229 217.53H329.708C329.875 219.165 331.308 220.176 333.47 220.176C335.729 220.176 337.196 219.033 337.196 217.275C337.196 215.896 336.353 215.087 334.498 214.665L333.153 214.357C331.958 214.094 331.466 213.681 331.466 212.951C331.466 212.081 332.248 211.519 333.461 211.519C334.577 211.519 335.377 212.028 335.553 212.863H336.994C336.818 211.272 335.474 210.279 333.487 210.279C331.387 210.279 329.98 211.387 329.98 213.039ZM344.579 220.176C347.102 220.176 348.71 218.532 348.71 215.957V214.516C348.71 211.94 347.102 210.297 344.579 210.297C342.057 210.297 340.448 211.94 340.448 214.516V215.957C340.448 218.532 342.057 220.176 344.579 220.176ZM344.579 211.615C346.214 211.615 347.233 212.775 347.233 214.647V215.816C347.233 217.697 346.214 218.849 344.579 218.849C342.944 218.849 341.925 217.697 341.925 215.816V214.647C341.925 212.775 342.944 211.615 344.579 211.615ZM359.872 220V218.761H356.726V206.72H351.997V207.959H355.231V218.761H351.971V220H359.872ZM366.938 211.571C368.477 211.571 369.408 212.67 369.408 214.489H364.39C364.39 212.661 365.348 211.571 366.938 211.571ZM369.408 217.539C369.145 218.374 368.257 218.884 367.053 218.884C365.427 218.884 364.39 217.759 364.39 216.01V215.623H370.885V214.691C370.885 211.932 369.426 210.288 366.947 210.288C364.521 210.288 362.913 211.94 362.913 214.454V215.887C362.913 218.603 364.434 220.176 367.053 220.176C369.057 220.176 370.568 219.112 370.858 217.539H369.408ZM377.96 220.053C378.83 220.053 379.551 219.323 379.551 218.427C379.551 217.539 378.83 216.81 377.96 216.81C377.09 216.81 376.369 217.539 376.369 218.427C376.369 219.323 377.09 220.053 377.96 220.053ZM393.253 220V218.761H390.106V206.72H385.378V207.959H388.612V218.761H385.352V220H393.253ZM400.214 220.176C402.736 220.176 404.345 218.532 404.345 215.957V214.516C404.345 211.94 402.736 210.297 400.214 210.297C397.691 210.297 396.083 211.94 396.083 214.516V215.957C396.083 218.532 397.691 220.176 400.214 220.176ZM400.214 211.615C401.849 211.615 402.868 212.775 402.868 214.647V215.816C402.868 217.697 401.849 218.849 400.214 218.849C398.579 218.849 397.56 217.697 397.56 215.816V214.647C397.56 212.775 398.579 211.615 400.214 211.615ZM408.502 215.843V214.533C408.502 212.784 409.521 211.65 411.104 211.65C412.677 211.65 413.688 212.775 413.688 214.533V215.843C413.688 217.601 412.677 218.734 411.104 218.734C409.521 218.734 408.502 217.592 408.502 215.843ZM411.06 223.577C413.644 223.577 415.173 222.241 415.173 220V210.464H413.696V211.94H413.529C413.116 210.912 412.07 210.306 410.69 210.306C408.458 210.306 406.999 211.888 406.999 214.34V216.054C406.999 218.497 408.449 220.088 410.655 220.088C412.044 220.088 413.099 219.481 413.521 218.479H413.679V219.965C413.679 221.494 412.756 222.338 411.086 222.338C409.812 222.338 408.854 221.819 408.66 221.028H407.184C407.377 222.61 408.854 223.577 411.06 223.577ZM420.552 213.654C420.552 216.643 421.448 219.227 423.197 221.213H424.683C422.863 218.655 422.099 216.414 422.099 213.654C422.099 210.895 422.863 208.653 424.683 206.096H423.197C421.448 208.082 420.552 210.675 420.552 213.654ZM432.628 220.167C434.017 220.167 435.054 219.596 435.511 218.576H435.66V220.009H437.084V213.479C437.084 211.492 435.801 210.35 433.56 210.35C431.608 210.35 430.132 211.396 429.956 212.925H431.424C431.67 212.107 432.443 211.642 433.542 211.642C434.869 211.642 435.599 212.301 435.599 213.496V214.357L432.979 214.489C430.809 214.604 429.596 215.605 429.596 217.293C429.596 219.024 430.809 220.167 432.628 220.167ZM433.059 218.857C431.854 218.857 431.107 218.242 431.107 217.24C431.107 216.247 431.811 215.676 433.146 215.614L435.599 215.5V216.625C435.599 217.899 434.5 218.857 433.059 218.857ZM442.507 206.096C444.326 208.653 445.091 210.895 445.091 213.654C445.091 216.414 444.326 218.655 442.507 221.213H443.992C445.741 219.227 446.638 216.643 446.638 213.654C446.638 210.675 445.741 208.082 443.992 206.096H442.507ZM455.849 213.303C456.719 213.303 457.439 212.564 457.439 211.677C457.439 210.789 456.719 210.051 455.849 210.051C454.979 210.051 454.258 210.789 454.258 211.677C454.258 212.564 454.979 213.303 455.849 213.303ZM455.392 222.918L456.982 216.669H454.961L453.818 222.918H455.392ZM275.585 241.204C277.721 241.204 278.397 240.527 278.397 238.356V236.388C278.397 235.034 279.188 234.243 281.245 234.454V232.863C279.188 233.074 278.397 232.292 278.397 230.93V228.961C278.397 226.79 277.721 226.113 275.585 226.113H274.39V227.317H275.348C276.666 227.317 276.921 227.625 276.921 229.154V231.501C276.921 232.731 277.844 233.549 279.628 233.593V233.733C277.844 233.769 276.921 234.586 276.921 235.816V238.163C276.921 239.692 276.666 240 275.348 240H274.39V241.204H275.585ZM253.331 261.204C255.467 261.204 256.144 260.527 256.144 258.356V256.388C256.144 255.034 256.935 254.243 258.991 254.454V252.863C256.935 253.074 256.144 252.292 256.144 250.93V248.961C256.144 246.79 255.467 246.113 253.331 246.113H252.136V247.317H253.094C254.412 247.317 254.667 247.625 254.667 249.154V251.501C254.667 252.731 255.59 253.549 257.374 253.593V253.733C255.59 253.769 254.667 254.586 254.667 255.816V258.163C254.667 259.692 254.412 260 253.094 260H252.136V261.204H253.331Z" fill="black"/>
<line x1="259.5" y1="63" x2="259.5" y2="99" stroke="#AAAAAA"/>
<path d="M42.0918 73.0391C42.0918 74.3926 42.9443 75.2627 44.667 75.6582L46.082 75.9834C47.2949 76.2559 47.7607 76.6602 47.7607 77.416C47.7607 78.3301 46.9346 78.9189 45.6338 78.9189C44.4033 78.9189 43.5596 78.4092 43.3398 77.5303H41.8193C41.9863 79.165 43.4189 80.1758 45.5811 80.1758C47.8398 80.1758 49.3076 79.0332 49.3076 77.2754C49.3076 75.8955 48.4639 75.0869 46.6094 74.665L45.2646 74.3574C44.0693 74.0938 43.5771 73.6807 43.5771 72.9512C43.5771 72.0811 44.3594 71.5186 45.5723 71.5186C46.6885 71.5186 47.4883 72.0283 47.6641 72.8633H49.1055C48.9297 71.2725 47.585 70.2793 45.5986 70.2793C43.498 70.2793 42.0918 71.3867 42.0918 73.0391ZM60.6631 73.4346C60.417 71.4746 58.9756 70.2793 56.8662 70.2793C54.2734 70.2793 52.7617 71.8701 52.7617 74.6035V75.8516C52.7617 78.585 54.2734 80.1758 56.8662 80.1758C58.9756 80.1758 60.4258 78.9893 60.6631 77.0469H59.1865C59.002 78.1367 58.0703 78.8311 56.8398 78.8311C55.1787 78.8311 54.2559 77.7061 54.2559 75.6582V74.7969C54.2559 72.749 55.1787 71.6152 56.8398 71.6152C58.0703 71.6152 59.002 72.3184 59.1865 73.4346H60.6631ZM67.8174 80.1758C70.3398 80.1758 71.9482 78.5322 71.9482 75.957V74.5156C71.9482 71.9404 70.3398 70.2969 67.8174 70.2969C65.2949 70.2969 63.6865 71.9404 63.6865 74.5156V75.957C63.6865 78.5322 65.2949 80.1758 67.8174 80.1758ZM67.8174 71.6152C69.4521 71.6152 70.4717 72.7754 70.4717 74.6475V75.8164C70.4717 77.6973 69.4521 78.8486 67.8174 78.8486C66.1826 78.8486 65.1631 77.6973 65.1631 75.8164V74.6475C65.1631 72.7754 66.1826 71.6152 67.8174 71.6152ZM79.542 70.3057C78.1797 70.3057 77.1865 70.8682 76.6855 71.9229H76.5273V70.4639H75.0508V83.2168H76.5713V78.5234H76.7383C77.1514 79.5693 78.1621 80.1582 79.542 80.1582C81.748 80.1582 83.1895 78.5674 83.1895 76.124V74.3486C83.1895 71.8965 81.748 70.3057 79.542 70.3057ZM79.1113 71.6768C80.6846 71.6768 81.6865 72.8018 81.6865 74.5596V75.9307C81.6865 77.6885 80.6846 78.8223 79.1113 78.8223C77.5381 78.8223 76.5361 77.6973 76.5361 75.9307V74.5596C76.5361 72.8018 77.5381 71.6768 79.1113 71.6768ZM90.1768 71.5713C91.7148 71.5713 92.6465 72.6699 92.6465 74.4893H87.6279C87.6279 72.6611 88.5859 71.5713 90.1768 71.5713ZM92.6465 77.5391C92.3828 78.374 91.4951 78.8838 90.291 78.8838C88.665 78.8838 87.6279 77.7588 87.6279 76.0098V75.623H94.123V74.6914C94.123 71.9316 92.6641 70.2881 90.1855 70.2881C87.7598 70.2881 86.1514 71.9404 86.1514 74.4541V75.8867C86.1514 78.6025 87.6719 80.1758 90.291 80.1758C92.2949 80.1758 93.8066 79.1123 94.0967 77.5391H92.6465ZM112.325 80.1758C114.848 80.1758 116.456 78.5322 116.456 75.957V74.5156C116.456 71.9404 114.848 70.2969 112.325 70.2969C109.803 70.2969 108.194 71.9404 108.194 74.5156V75.957C108.194 78.5322 109.803 80.1758 112.325 80.1758ZM112.325 71.6152C113.96 71.6152 114.979 72.7754 114.979 74.6475V75.8164C114.979 77.6973 113.96 78.8486 112.325 78.8486C110.69 78.8486 109.671 77.6973 109.671 75.8164V74.6475C109.671 72.7754 110.69 71.6152 112.325 71.6152ZM122.046 80H123.54V71.7646H127.732V70.4902H123.522V69.5059C123.522 68.5479 124.226 68.0557 125.553 68.0557C126.089 68.0557 127.319 68.0908 127.732 68.1348V66.9131C127.416 66.8691 126.089 66.8252 125.535 66.8252C123.188 66.8252 122.046 67.6865 122.046 69.5322V70.4902H119.488V71.7646H122.046V80ZM50.7139 91.4639H49.2549L47.9629 99.1104H47.8047L46.2666 91.4727H44.8604L43.3223 99.1104H43.1641L41.8721 91.4639H40.4131L42.4609 101H43.8936L45.5107 93.5645H45.6162L47.2334 101H48.666L50.7139 91.4639ZM56.8574 89.126C57.5605 89.126 58.0967 88.5986 58.0967 87.8955C58.0967 87.2012 57.5605 86.6738 56.8574 86.6738C56.1543 86.6738 55.6182 87.2012 55.6182 87.8955C55.6182 88.5986 56.1543 89.126 56.8574 89.126ZM60.8564 101V99.7607H57.7012V91.4639H52.9814V92.7031H56.2246V99.7607H52.9551V101H60.8564ZM65.0752 95.5332C65.0752 93.7754 66.0859 92.6504 67.6592 92.6504C69.2236 92.6504 70.2344 93.7754 70.2344 95.5332V96.9043C70.2344 98.6709 69.2236 99.7959 67.6592 99.7959C66.0859 99.7959 65.0752 98.6621 65.0752 96.9043V95.5332ZM70.2432 99.541V101H71.7109V87.7197H70.1904V92.9404H70.0322C69.6191 91.8945 68.5996 91.3057 67.2197 91.3057C65.0137 91.3057 63.5723 92.8965 63.5723 95.3398V97.1152C63.5723 99.5674 65.0137 101.158 67.2197 101.158C68.582 101.158 69.584 100.596 70.0762 99.541H70.2432ZM77.3184 88.9062V91.4902H74.7783V92.7646H77.3184V98.1611C77.3184 100.147 78.417 101.044 80.7812 101.044C81.2383 101.044 82.3984 101 82.6357 100.956V99.6904C82.3809 99.7168 81.4229 99.7432 80.8867 99.7432C79.542 99.7432 78.8125 99.1807 78.8125 98.1436V92.7646H82.6621V91.4902H78.7949V88.9062H77.3184ZM86.1602 101H87.6543V95.3926C87.6543 93.7666 88.7178 92.668 90.291 92.668C91.7852 92.668 92.4883 93.4854 92.4883 95.1992V101H93.9824V94.8213C93.9824 92.5449 92.8574 91.2969 90.7832 91.2969C89.3242 91.2969 88.2256 91.9648 87.7246 93.1514H87.6016V87.7197H86.1602V101ZM100.741 103.944L102.332 97.6689H100.311L99.168 103.944H100.741ZM119.541 101H121.035V95.3926C121.035 93.7666 122.099 92.668 123.672 92.668C125.166 92.668 125.869 93.4854 125.869 95.1992V101H127.363V94.8213C127.363 92.5449 126.238 91.2969 124.164 91.2969C122.705 91.2969 121.606 91.9648 121.105 93.1514H120.982V87.7197H119.541V101ZM134.685 92.5713C136.223 92.5713 137.154 93.6699 137.154 95.4893H132.136C132.136 93.6611 133.094 92.5713 134.685 92.5713ZM137.154 98.5391C136.891 99.374 136.003 99.8838 134.799 99.8838C133.173 99.8838 132.136 98.7588 132.136 97.0098V96.623H138.631V95.6914C138.631 92.9316 137.172 91.2881 134.693 91.2881C132.268 91.2881 130.659 92.9404 130.659 95.4541V96.8867C130.659 99.6025 132.18 101.176 134.799 101.176C136.803 101.176 138.314 100.112 138.604 98.5391H137.154ZM145.873 89.126C146.576 89.126 147.112 88.5986 147.112 87.8955C147.112 87.2012 146.576 86.6738 145.873 86.6738C145.17 86.6738 144.634 87.2012 144.634 87.8955C144.634 88.5986 145.17 89.126 145.873 89.126ZM149.872 101V99.7607H146.717V91.4639H141.997V92.7031H145.24V99.7607H141.971V101H149.872ZM153.994 96.8428V95.5332C153.994 93.7842 155.014 92.6504 156.596 92.6504C158.169 92.6504 159.18 93.7754 159.18 95.5332V96.8428C159.18 98.6006 158.169 99.7344 156.596 99.7344C155.014 99.7344 153.994 98.5918 153.994 96.8428ZM156.552 104.577C159.136 104.577 160.665 103.241 160.665 101V91.4639H159.188V92.9404H159.021C158.608 91.9121 157.562 91.3057 156.183 91.3057C153.95 91.3057 152.491 92.8877 152.491 95.3398V97.0537C152.491 99.4971 153.941 101.088 156.147 101.088C157.536 101.088 158.591 100.481 159.013 99.4795H159.171V100.965C159.171 102.494 158.248 103.338 156.578 103.338C155.304 103.338 154.346 102.819 154.152 102.028H152.676C152.869 103.61 154.346 104.577 156.552 104.577ZM164.049 101H165.543V95.3926C165.543 93.7666 166.606 92.668 168.18 92.668C169.674 92.668 170.377 93.4854 170.377 95.1992V101H171.871V94.8213C171.871 92.5449 170.746 91.2969 168.672 91.2969C167.213 91.2969 166.114 91.9648 165.613 93.1514H165.49V87.7197H164.049V101ZM177.461 88.9062V91.4902H174.921V92.7646H177.461V98.1611C177.461 100.147 178.56 101.044 180.924 101.044C181.381 101.044 182.541 101 182.778 100.956V99.6904C182.523 99.7168 181.565 99.7432 181.029 99.7432C179.685 99.7432 178.955 99.1807 178.955 98.1436V92.7646H182.805V91.4902H178.938V88.9062H177.461ZM189.757 103.944L191.348 97.6689H189.326L188.184 103.944H189.757ZM211.501 101.167C212.89 101.167 213.927 100.596 214.384 99.5762H214.533V101.009H215.957V94.4785C215.957 92.4922 214.674 91.3496 212.433 91.3496C210.481 91.3496 209.005 92.3955 208.829 93.9248H210.297C210.543 93.1074 211.316 92.6416 212.415 92.6416C213.742 92.6416 214.472 93.3008 214.472 94.4961V95.3574L211.853 95.4893C209.682 95.6035 208.469 96.6055 208.469 98.293C208.469 100.024 209.682 101.167 211.501 101.167ZM211.932 99.8574C210.728 99.8574 209.98 99.2422 209.98 98.2402C209.98 97.2471 210.684 96.6758 212.02 96.6143L214.472 96.5V97.625C214.472 98.8994 213.373 99.8574 211.932 99.8574ZM223.199 93.8984V91.4639H219.64V92.6592H221.758V99.8047H219.833V101H226.17V99.8047H223.217V96.7285C223.217 94.3027 224.465 92.8438 226.574 92.8438C227.093 92.8438 227.708 92.9492 228.147 93.1074V91.4287C227.831 91.2969 227.312 91.2178 226.768 91.2178C224.931 91.2178 223.744 92.1318 223.393 93.8984H223.199ZM234.827 92.5713C236.365 92.5713 237.297 93.6699 237.297 95.4893H232.278C232.278 93.6611 233.236 92.5713 234.827 92.5713ZM237.297 98.5391C237.033 99.374 236.146 99.8838 234.941 99.8838C233.315 99.8838 232.278 98.7588 232.278 97.0098V96.623H238.773V95.6914C238.773 92.9316 237.314 91.2881 234.836 91.2881C232.41 91.2881 230.802 92.9404 230.802 95.4541V96.8867C230.802 99.6025 232.322 101.176 234.941 101.176C236.945 101.176 238.457 100.112 238.747 98.5391H237.297ZM244.882 101.167C246.271 101.167 247.308 100.596 247.765 99.5762H247.914V101.009H249.338V94.4785C249.338 92.4922 248.055 91.3496 245.813 91.3496C243.862 91.3496 242.386 92.3955 242.21 93.9248H243.678C243.924 93.1074 244.697 92.6416 245.796 92.6416C247.123 92.6416 247.853 93.3008 247.853 94.4961V95.3574L245.233 95.4893C243.062 95.6035 241.85 96.6055 241.85 98.293C241.85 100.024 243.062 101.167 244.882 101.167ZM245.312 99.8574C244.108 99.8574 243.361 99.2422 243.361 98.2402C243.361 97.2471 244.064 96.6758 245.4 96.6143L247.853 96.5V97.625C247.853 98.8994 246.754 99.8574 245.312 99.8574Z" fill="#AAAAAA"/>
<path d="M137.092 173.039C137.092 174.393 137.944 175.263 139.667 175.658L141.082 175.983C142.295 176.256 142.761 176.66 142.761 177.416C142.761 178.33 141.935 178.919 140.634 178.919C139.403 178.919 138.56 178.409 138.34 177.53H136.819C136.986 179.165 138.419 180.176 140.581 180.176C142.84 180.176 144.308 179.033 144.308 177.275C144.308 175.896 143.464 175.087 141.609 174.665L140.265 174.357C139.069 174.094 138.577 173.681 138.577 172.951C138.577 172.081 139.359 171.519 140.572 171.519C141.688 171.519 142.488 172.028 142.664 172.863H144.105C143.93 171.272 142.585 170.279 140.599 170.279C138.498 170.279 137.092 171.387 137.092 173.039ZM155.663 173.435C155.417 171.475 153.976 170.279 151.866 170.279C149.273 170.279 147.762 171.87 147.762 174.604V175.852C147.762 178.585 149.273 180.176 151.866 180.176C153.976 180.176 155.426 178.989 155.663 177.047H154.187C154.002 178.137 153.07 178.831 151.84 178.831C150.179 178.831 149.256 177.706 149.256 175.658V174.797C149.256 172.749 150.179 171.615 151.84 171.615C153.07 171.615 154.002 172.318 154.187 173.435H155.663ZM162.817 180.176C165.34 180.176 166.948 178.532 166.948 175.957V174.516C166.948 171.94 165.34 170.297 162.817 170.297C160.295 170.297 158.687 171.94 158.687 174.516V175.957C158.687 178.532 160.295 180.176 162.817 180.176ZM162.817 171.615C164.452 171.615 165.472 172.775 165.472 174.647V175.816C165.472 177.697 164.452 178.849 162.817 178.849C161.183 178.849 160.163 177.697 160.163 175.816V174.647C160.163 172.775 161.183 171.615 162.817 171.615ZM174.542 170.306C173.18 170.306 172.187 170.868 171.686 171.923H171.527V170.464H170.051V183.217H171.571V178.523H171.738C172.151 179.569 173.162 180.158 174.542 180.158C176.748 180.158 178.189 178.567 178.189 176.124V174.349C178.189 171.896 176.748 170.306 174.542 170.306ZM174.111 171.677C175.685 171.677 176.687 172.802 176.687 174.56V175.931C176.687 177.688 175.685 178.822 174.111 178.822C172.538 178.822 171.536 177.697 171.536 175.931V174.56C171.536 172.802 172.538 171.677 174.111 171.677ZM185.177 171.571C186.715 171.571 187.646 172.67 187.646 174.489H182.628C182.628 172.661 183.586 171.571 185.177 171.571ZM187.646 177.539C187.383 178.374 186.495 178.884 185.291 178.884C183.665 178.884 182.628 177.759 182.628 176.01V175.623H189.123V174.691C189.123 171.932 187.664 170.288 185.186 170.288C182.76 170.288 181.151 171.94 181.151 174.454V175.887C181.151 178.603 182.672 180.176 185.291 180.176C187.295 180.176 188.807 179.112 189.097 177.539H187.646ZM207.325 180.176C209.848 180.176 211.456 178.532 211.456 175.957V174.516C211.456 171.94 209.848 170.297 207.325 170.297C204.803 170.297 203.194 171.94 203.194 174.516V175.957C203.194 178.532 204.803 180.176 207.325 180.176ZM207.325 171.615C208.96 171.615 209.979 172.775 209.979 174.647V175.816C209.979 177.697 208.96 178.849 207.325 178.849C205.69 178.849 204.671 177.697 204.671 175.816V174.647C204.671 172.775 205.69 171.615 207.325 171.615ZM217.046 180H218.54V171.765H222.732V170.49H218.522V169.506C218.522 168.548 219.226 168.056 220.553 168.056C221.089 168.056 222.319 168.091 222.732 168.135V166.913C222.416 166.869 221.089 166.825 220.535 166.825C218.188 166.825 217.046 167.687 217.046 169.532V170.49H214.488V171.765H217.046V180ZM245.856 170.464H244.397L243.105 178.11H242.947L241.409 170.473H240.003L238.465 178.11H238.307L237.015 170.464H235.556L237.604 180H239.036L240.653 172.564H240.759L242.376 180H243.809L245.856 170.464Z" fill="#AAAAAA"/>
<path d="M70.0918 202.039C70.0918 203.393 70.9443 204.263 72.667 204.658L74.082 204.983C75.2949 205.256 75.7607 205.66 75.7607 206.416C75.7607 207.33 74.9346 207.919 73.6338 207.919C72.4033 207.919 71.5596 207.409 71.3398 206.53H69.8193C69.9863 208.165 71.4189 209.176 73.5811 209.176C75.8398 209.176 77.3076 208.033 77.3076 206.275C77.3076 204.896 76.4639 204.087 74.6094 203.665L73.2646 203.357C72.0693 203.094 71.5771 202.681 71.5771 201.951C71.5771 201.081 72.3594 200.519 73.5723 200.519C74.6885 200.519 75.4883 201.028 75.6641 201.863H77.1055C76.9297 200.272 75.585 199.279 73.5986 199.279C71.498 199.279 70.0918 200.387 70.0918 202.039ZM88.6631 202.435C88.417 200.475 86.9756 199.279 84.8662 199.279C82.2734 199.279 80.7617 200.87 80.7617 203.604V204.852C80.7617 207.585 82.2734 209.176 84.8662 209.176C86.9756 209.176 88.4258 207.989 88.6631 206.047H87.1865C87.002 207.137 86.0703 207.831 84.8398 207.831C83.1787 207.831 82.2559 206.706 82.2559 204.658V203.797C82.2559 201.749 83.1787 200.615 84.8398 200.615C86.0703 200.615 87.002 201.318 87.1865 202.435H88.6631ZM95.8174 209.176C98.3398 209.176 99.9482 207.532 99.9482 204.957V203.516C99.9482 200.94 98.3398 199.297 95.8174 199.297C93.2949 199.297 91.6865 200.94 91.6865 203.516V204.957C91.6865 207.532 93.2949 209.176 95.8174 209.176ZM95.8174 200.615C97.4521 200.615 98.4717 201.775 98.4717 203.647V204.816C98.4717 206.697 97.4521 207.849 95.8174 207.849C94.1826 207.849 93.1631 206.697 93.1631 204.816V203.647C93.1631 201.775 94.1826 200.615 95.8174 200.615ZM107.542 199.306C106.18 199.306 105.187 199.868 104.686 200.923H104.527V199.464H103.051V212.217H104.571V207.523H104.738C105.151 208.569 106.162 209.158 107.542 209.158C109.748 209.158 111.189 207.567 111.189 205.124V203.349C111.189 200.896 109.748 199.306 107.542 199.306ZM107.111 200.677C108.685 200.677 109.687 201.802 109.687 203.56V204.931C109.687 206.688 108.685 207.822 107.111 207.822C105.538 207.822 104.536 206.697 104.536 204.931V203.56C104.536 201.802 105.538 200.677 107.111 200.677ZM118.177 200.571C119.715 200.571 120.646 201.67 120.646 203.489H115.628C115.628 201.661 116.586 200.571 118.177 200.571ZM120.646 206.539C120.383 207.374 119.495 207.884 118.291 207.884C116.665 207.884 115.628 206.759 115.628 205.01V204.623H122.123V203.691C122.123 200.932 120.664 199.288 118.186 199.288C115.76 199.288 114.151 200.94 114.151 203.454V204.887C114.151 207.603 115.672 209.176 118.291 209.176C120.295 209.176 121.807 208.112 122.097 206.539H120.646ZM140.325 209.176C142.848 209.176 144.456 207.532 144.456 204.957V203.516C144.456 200.94 142.848 199.297 140.325 199.297C137.803 199.297 136.194 200.94 136.194 203.516V204.957C136.194 207.532 137.803 209.176 140.325 209.176ZM140.325 200.615C141.96 200.615 142.979 201.775 142.979 203.647V204.816C142.979 206.697 141.96 207.849 140.325 207.849C138.69 207.849 137.671 206.697 137.671 204.816V203.647C137.671 201.775 138.69 200.615 140.325 200.615ZM150.046 209H151.54V200.765H155.732V199.49H151.522V198.506C151.522 197.548 152.226 197.056 153.553 197.056C154.089 197.056 155.319 197.091 155.732 197.135V195.913C155.416 195.869 154.089 195.825 153.535 195.825C151.188 195.825 150.046 196.687 150.046 198.532V199.49H147.488V200.765H150.046V209ZM169.795 209H171.289V203.393C171.289 201.767 172.353 200.668 173.926 200.668C175.42 200.668 176.123 201.485 176.123 203.199V209H177.617V202.821C177.617 200.545 176.492 199.297 174.418 199.297C172.959 199.297 171.86 199.965 171.359 201.151H171.236V195.72H169.795V209ZM194.993 209.167C196.382 209.167 197.419 208.596 197.876 207.576H198.025V209.009H199.449V202.479C199.449 200.492 198.166 199.35 195.925 199.35C193.974 199.35 192.497 200.396 192.321 201.925H193.789C194.035 201.107 194.809 200.642 195.907 200.642C197.234 200.642 197.964 201.301 197.964 202.496V203.357L195.345 203.489C193.174 203.604 191.961 204.605 191.961 206.293C191.961 208.024 193.174 209.167 194.993 209.167ZM195.424 207.857C194.22 207.857 193.473 207.242 193.473 206.24C193.473 205.247 194.176 204.676 195.512 204.614L197.964 204.5V205.625C197.964 206.899 196.865 207.857 195.424 207.857ZM203.185 209H204.679V203.384C204.679 201.758 205.733 200.659 207.307 200.659C208.792 200.659 209.495 201.468 209.495 203.19V209H210.989V202.812C210.989 200.527 209.864 199.288 207.79 199.288C206.34 199.288 205.25 199.956 204.74 201.143H204.617V199.464H203.185V209ZM215.472 203.533C215.472 201.775 216.482 200.65 218.056 200.65C219.62 200.65 220.631 201.775 220.631 203.533V204.904C220.631 206.671 219.62 207.796 218.056 207.796C216.482 207.796 215.472 206.662 215.472 204.904V203.533ZM220.64 207.541V209H222.107V195.72H220.587V200.94H220.429C220.016 199.895 218.996 199.306 217.616 199.306C215.41 199.306 213.969 200.896 213.969 203.34V205.115C213.969 207.567 215.41 209.158 217.616 209.158C218.979 209.158 219.98 208.596 220.473 207.541H220.64ZM239.501 209.167C240.89 209.167 241.927 208.596 242.384 207.576H242.533V209.009H243.957V202.479C243.957 200.492 242.674 199.35 240.433 199.35C238.481 199.35 237.005 200.396 236.829 201.925H238.297C238.543 201.107 239.316 200.642 240.415 200.642C241.742 200.642 242.472 201.301 242.472 202.496V203.357L239.853 203.489C237.682 203.604 236.469 204.605 236.469 206.293C236.469 208.024 237.682 209.167 239.501 209.167ZM239.932 207.857C238.728 207.857 237.98 207.242 237.98 206.24C237.98 205.247 238.684 204.676 240.02 204.614L242.472 204.5V205.625C242.472 206.899 241.373 207.857 239.932 207.857Z" fill="#F3E050"/>
<line x1="262.5" y1="165" x2="262.5" y2="240" stroke="#AAAAAA"/>
<path d="M248.5 205H283V184.5V220" stroke="#F3E050"/>
</svg>
